<svg width="389" height="715" viewBox="0 0 389 715" fill="none" xmlns="http://www.w3.org/2000/svg">
<path fill-rule="evenodd" clip-rule="evenodd" d="M39.8044 377.315C30.0065 306.679 -8.36843 221.716 39.2298 168.613C88.3459 113.817 184.325 167.151 252.658 139.845C319.157 113.272 350.556 6.79529 421.596 15.8212C490.717 24.6033 508.291 118.763 546.309 177.154C578.429 226.487 621.753 271.153 626.063 329.862C630.358 388.356 593.335 438.339 569.419 491.892C541.184 555.116 534.996 638.037 473.892 670.606C412.299 703.436 337.797 669.889 270.552 651.19C205.942 633.222 137.425 616.308 94.2152 565.022C51.1878 513.953 48.9794 443.461 39.8044 377.315Z" fill="#C9EEFF" fill-opacity="0.45"/>
</svg>
