<svg xmlns="http://www.w3.org/2000/svg" xmlns:xlink="http://www.w3.org/1999/xlink" width="20" height="22" viewBox="0 0 20 22">
  <defs>
    <style>
      .cls-1 {
        fill: url(#linear-gradient);
      }
    </style>
    <linearGradient id="linear-gradient" x1="0.5" x2="0.5" y2="1" gradientUnits="objectBoundingBox">
      <stop offset="0" stop-color="#64e5ff"/>
      <stop offset="1" stop-color="#00a8ff"/>
    </linearGradient>
  </defs>
  <path id="calendar-alt_gradient" class="cls-1" d="M12,19a1,1,0,1,0-1-1A1,1,0,0,0,12,19Zm5,0a1,1,0,1,0-1-1A1,1,0,0,0,17,19Zm0-4a1,1,0,1,0-1-1A1,1,0,0,0,17,15Zm-5,0a1,1,0,1,0-1-1A1,1,0,0,0,12,15ZM19,3H18V2a1,1,0,0,0-2,0V3H8V2A1,1,0,1,0,6,2V3H5A3,3,0,0,0,2,6V20a3,3,0,0,0,3,3H19a3,3,0,0,0,3-3V6A3,3,0,0,0,19,3Zm1,17a1,1,0,0,1-1,1H5a1,1,0,0,1-1-1V11H20ZM20,9H4V6A1,1,0,0,1,5,5H6V6A1,1,0,1,0,8,6V5h8V6a1,1,0,0,0,2,0V5h1a1,1,0,0,1,1,1ZM7,15a1,1,0,1,0-1-1A1,1,0,0,0,7,15Zm0,4a1,1,0,1,0-1-1A1,1,0,0,0,7,19Z" transform="translate(-2 -1)"/>
</svg>
