<svg xmlns="http://www.w3.org/2000/svg" width="60.031" height="60" viewBox="0 0 60.031 60">
  <defs>
    <style>
      .cls-1 {
        fill: #4e5763;
      }
    </style>
  </defs>
  <path id="image-upload" class="cls-1" d="M50.583,35.285a2.858,2.858,0,0,0-2.858,2.858v1.086L43.5,35a7.973,7.973,0,0,0-11.231,0l-2,2-7.087-7.087a8.145,8.145,0,0,0-11.231,0l-4.23,4.23v-16a2.858,2.858,0,0,1,2.858-2.858h20a2.858,2.858,0,1,0,0-5.716h-20A8.573,8.573,0,0,0,2,18.138V52.432A8.573,8.573,0,0,0,10.573,61H44.867a8.573,8.573,0,0,0,8.573-8.573V38.142A2.858,2.858,0,0,0,50.583,35.285Zm-40.009,20a2.858,2.858,0,0,1-2.858-2.858v-10.2L16,33.941a2.258,2.258,0,0,1,3.115,0L28.178,43h0L40.466,55.289Zm37.152-2.858a2.544,2.544,0,0,1-.514,1.515L34.322,41l2-2a2.2,2.2,0,0,1,3.144,0l8.259,8.316Zm13.46-42.039L52.612,1.82a2.954,2.954,0,0,0-4.058,0L39.98,10.393a2.87,2.87,0,1,0,4.058,4.058l3.687-3.715V26.711a2.858,2.858,0,1,0,5.716,0V10.736l3.687,3.715a2.87,2.87,0,1,0,4.058-4.058Z" transform="translate(-2 -1.005)"/>
</svg>
