<svg xmlns="http://www.w3.org/2000/svg" viewBox="0 0 22 22"><defs><style>.cls-1{fill:#4A5D6A;}</style></defs><title>Asset 20</title><g id="Layer_2" data-name="Layer 2"><g id="Layer_1-2" data-name="Layer 1"><path class="cls-1" d="M19.68,5.79A.92.92,0,0,0,19.26,7a9.07,9.07,0,0,1,.91,4A9.17,9.17,0,1,1,11,1.83a9.06,9.06,0,0,1,5.69,2,.92.92,0,0,0,1.14-1.44A11,11,0,1,0,22,11a10.89,10.89,0,0,0-1.09-4.79A.92.92,0,0,0,19.68,5.79Z"/><path class="cls-1" d="M11.16,3.78a.87.87,0,0,0-.87.87v6.09a.87.87,0,0,0,.87.87h4.35a.87.87,0,1,0,0-1.74H12V4.65A.87.87,0,0,0,11.16,3.78Z"/></g></g></svg>