<svg xmlns="http://www.w3.org/2000/svg" viewBox="0 0 26 22.45"><defs><style>.cls-1{fill:#4A5D6A}</style></defs><title>Asset 15</title><g id="Layer_2" data-name="Layer 2"><g id="Layer_1-2" data-name="Layer 1"><path class="cls-1" d="M24.8,12.06a.57.57,0,0,0-.59.61v8a.57.57,0,0,1-.59.61H2.38a.57.57,0,0,1-.59-.61v-8a.57.57,0,0,0-.59-.61.57.57,0,0,0-.59.61v8a1.77,1.77,0,0,0,1.77,1.83H23.62a1.77,1.77,0,0,0,1.77-1.83v-8A.57.57,0,0,0,24.8,12.06Z"/><path class="cls-1" d="M14.18,15H11.82V12.54h2.36Zm10-11H1.77A1.77,1.77,0,0,0,0,5.81V9.72A1.82,1.82,0,0,0,1.36,11.5l9.28,2.14v2a.57.57,0,0,0,.59.61h3.55a.57.57,0,0,0,.59-.61v-2l9.28-2.14A1.82,1.82,0,0,0,26,9.72V5.81A1.77,1.77,0,0,0,24.23,4Z"/><path class="cls-1" d="M16.06,0H9.94A1.8,1.8,0,0,0,8.11,1.83v.61a.61.61,0,0,0,1.22,0V1.83a.58.58,0,0,1,.61-.61h6.12a.58.58,0,0,1,.61.61v.61a.61.61,0,0,0,1.22,0V1.83A1.8,1.8,0,0,0,16.06,0Z"/></g></g></svg>