<svg xmlns="http://www.w3.org/2000/svg" viewBox="0 0 23.68 22.91"><defs><style>.cls-1{fill:none;}.cls-1,.cls-2{stroke:#69c8f3;stroke-width:1.5px;}.cls-2{fill:#fff;stroke-miterlimit:10;}</style></defs><title>Asset 28</title><g id="Layer_2" data-name="Layer 2"><g id="Layer_1-2" data-name="Layer 1"><path class="cls-1" d="M6.25,6.79a3,3,0,1,0-3-3A3,3,0,0,0,6.25,6.79Z"/><path class="cls-1" d="M17.42,6.79a3,3,0,1,0-3-3A3,3,0,0,0,17.42,6.79Z"/><path class="cls-1" d="M19,8.42H16.32a4,4,0,0,0-4,4v9.78H22.93V12.38A4,4,0,0,0,19,8.42Z"/><path class="cls-1" d="M7.35,8.42H4.7a4,4,0,0,0-4,4v9.78H11.31V12.38A4,4,0,0,0,7.35,8.42Z"/><path class="cls-2" d="M11.83,12.14a3.24,3.24,0,0,0,0-6.49h0a3.24,3.24,0,1,0,0,6.47Z"/><path class="cls-2" d="M13,12.45H10.68a3.47,3.47,0,0,0-3.47,3.47v5.86h9.26V15.92A3.48,3.48,0,0,0,13,12.45Z"/></g></g></svg>