<svg xmlns="http://www.w3.org/2000/svg" viewBox="0 0 23 23"><defs><style>.cls-1{fill:#3e94d1;}</style></defs><title>Asset 11</title><g id="Layer_2" data-name="Layer 2"><g id="Layer_1-2" data-name="Layer 1"><path class="cls-1" d="M15.63,9.88a1.16,1.16,0,0,1-.76.88.37.37,0,0,0-.24.36l.28,6.19a.42.42,0,0,1-.11.33.57.57,0,0,1-.8,0,.44.44,0,0,1-.11-.36l.28-6.17a.37.37,0,0,0-.24-.36,1.16,1.16,0,0,1-.76-.88,3.62,3.62,0,0,1,.1-1.67l.24-.78a1,1,0,0,1,1.78,0l.24.78A3.62,3.62,0,0,1,15.63,9.88ZM16.23,8,16,7.22a1.68,1.68,0,0,0-3.19,0L12.57,8a4.35,4.35,0,0,0-.12,2,1.9,1.9,0,0,0,1,1.32l-.26,5.89a1.16,1.16,0,0,0,.29.9,1.28,1.28,0,0,0,1.81.08l.08-.08a1.15,1.15,0,0,0,.29-.88l-.27-5.92a1.9,1.9,0,0,0,1-1.32A4.35,4.35,0,0,0,16.23,8Z"/><path class="cls-1" d="M10.25,6.08a.37.37,0,0,0-.37.37V9.59l-1,1a.37.37,0,0,0-.11.28l.32,6.42a.5.5,0,0,1-.14.37.52.52,0,0,1-.73,0h0a.5.5,0,0,1-.14-.37l.32-6.42a.37.37,0,0,0-.11-.28l-1-1V6.44a.37.37,0,0,0-.73,0v3.3a.37.37,0,0,0,.11.26l1,1-.31,6.25a1.24,1.24,0,1,0,2.47.12s0-.08,0-.12L9.52,11l1-1a.37.37,0,0,0,.11-.26V6.44A.37.37,0,0,0,10.25,6.08Z"/><path class="cls-1" d="M8,5.8a.37.37,0,0,0-.37.37V9.1a.37.37,0,1,0,.73,0V6.17A.37.37,0,0,0,8,5.8Z"/><path class="cls-1" d="M9.2,5.8a.37.37,0,0,0-.37.37V9.1a.37.37,0,1,0,.73,0V6.17A.37.37,0,0,0,9.2,5.8Z"/><path class="cls-1" d="M11.5,22.23A10.73,10.73,0,1,1,22.23,11.5,10.73,10.73,0,0,1,11.5,22.23ZM11.5,0A11.5,11.5,0,1,0,23,11.5,11.5,11.5,0,0,0,11.5,0Z"/></g></g></svg>