<svg width="157" height="23" viewBox="0 0 157 23" fill="none" xmlns="http://www.w3.org/2000/svg">
<path d="M0 0H157V23H0L16.5 11.5L0 0Z" fill="#FEA503"/>
<path d="M143.25 2C141.325 2 139.75 3.575 139.75 5.5H141.5C141.5 4.52 142.27 3.75 143.25 3.75C144.23 3.75 145 4.52 145 5.5V9H138V16H148.5V9H146.75V5.5C146.75 3.575 145.175 2 143.25 2Z" fill="white"/>
<path d="M29.8246 6.2422V7.2782H25.5826V10.5682H29.0266V11.6042H25.5826V16.0002H24.3086V6.2422H29.8246Z" fill="white"/>
<path d="M32.6373 9.5742C32.8613 9.13553 33.1786 8.79487 33.5893 8.5522C34.0093 8.30953 34.5179 8.1882 35.1153 8.1882V9.5042H34.7793C33.3513 9.5042 32.6373 10.2789 32.6373 11.8282V16.0002H31.3633V8.3282H32.6373V9.5742Z" fill="white"/>
<path d="M43.5859 11.8702C43.5859 12.1129 43.5719 12.3695 43.5439 12.6402H37.4119C37.4586 13.3962 37.7153 13.9889 38.1819 14.4182C38.6579 14.8382 39.2319 15.0482 39.9039 15.0482C40.4546 15.0482 40.9119 14.9222 41.2759 14.6702C41.6493 14.4089 41.9106 14.0635 42.0599 13.6342H43.4319C43.2266 14.3715 42.8159 14.9735 42.1999 15.4402C41.5839 15.8975 40.8186 16.1262 39.9039 16.1262C39.1759 16.1262 38.5226 15.9629 37.9439 15.6362C37.3746 15.3095 36.9266 14.8475 36.5999 14.2502C36.2733 13.6435 36.1099 12.9435 36.1099 12.1502C36.1099 11.3569 36.2686 10.6615 36.5859 10.0642C36.9033 9.46687 37.3466 9.00953 37.9159 8.6922C38.4946 8.36553 39.1573 8.2022 39.9039 8.2022C40.6319 8.2022 41.2759 8.36087 41.8359 8.6782C42.3959 8.99553 42.8253 9.4342 43.1239 9.9942C43.4319 10.5449 43.5859 11.1702 43.5859 11.8702ZM42.2699 11.6042C42.2699 11.1189 42.1626 10.7035 41.9479 10.3582C41.7333 10.0035 41.4393 9.73753 41.0659 9.5602C40.7019 9.37353 40.2959 9.2802 39.8479 9.2802C39.2039 9.2802 38.6533 9.48553 38.1959 9.8962C37.7479 10.3069 37.4913 10.8762 37.4259 11.6042H42.2699Z" fill="white"/>
<path d="M52.2676 11.8702C52.2676 12.1129 52.2536 12.3695 52.2256 12.6402H46.0936C46.1402 13.3962 46.3969 13.9889 46.8636 14.4182C47.3396 14.8382 47.9136 15.0482 48.5856 15.0482C49.1362 15.0482 49.5936 14.9222 49.9576 14.6702C50.3309 14.4089 50.5922 14.0635 50.7416 13.6342H52.1136C51.9082 14.3715 51.4976 14.9735 50.8816 15.4402C50.2656 15.8975 49.5002 16.1262 48.5856 16.1262C47.8576 16.1262 47.2042 15.9629 46.6256 15.6362C46.0562 15.3095 45.6082 14.8475 45.2816 14.2502C44.9549 13.6435 44.7916 12.9435 44.7916 12.1502C44.7916 11.3569 44.9502 10.6615 45.2676 10.0642C45.5849 9.46687 46.0282 9.00953 46.5976 8.6922C47.1762 8.36553 47.8389 8.2022 48.5856 8.2022C49.3136 8.2022 49.9576 8.36087 50.5176 8.6782C51.0776 8.99553 51.5069 9.4342 51.8056 9.9942C52.1136 10.5449 52.2676 11.1702 52.2676 11.8702ZM50.9516 11.6042C50.9516 11.1189 50.8442 10.7035 50.6296 10.3582C50.4149 10.0035 50.1209 9.73753 49.7476 9.5602C49.3836 9.37353 48.9776 9.2802 48.5296 9.2802C47.8856 9.2802 47.3349 9.48553 46.8776 9.8962C46.4296 10.3069 46.1729 10.8762 46.1076 11.6042H50.9516Z" fill="white"/>
<path d="M60.8456 8.2022C61.5083 8.2022 62.087 8.34687 62.5816 8.6362C63.0856 8.92553 63.459 9.28953 63.7016 9.7282V8.3282H64.9896V16.1682C64.9896 16.8682 64.8403 17.4889 64.5416 18.0302C64.243 18.5809 63.8136 19.0102 63.2536 19.3182C62.703 19.6262 62.059 19.7802 61.3216 19.7802C60.3136 19.7802 59.4736 19.5422 58.8016 19.0662C58.1296 18.5902 57.733 17.9415 57.6116 17.1202H58.8716C59.0116 17.5869 59.301 17.9602 59.7396 18.2402C60.1783 18.5295 60.7056 18.6742 61.3216 18.6742C62.0216 18.6742 62.591 18.4549 63.0296 18.0162C63.4776 17.5775 63.7016 16.9615 63.7016 16.1682V14.5582C63.4496 15.0062 63.0763 15.3795 62.5816 15.6782C62.087 15.9769 61.5083 16.1262 60.8456 16.1262C60.1643 16.1262 59.5436 15.9582 58.9836 15.6222C58.433 15.2862 57.999 14.8149 57.6816 14.2082C57.3643 13.6015 57.2056 12.9109 57.2056 12.1362C57.2056 11.3522 57.3643 10.6662 57.6816 10.0782C57.999 9.48087 58.433 9.01887 58.9836 8.6922C59.5436 8.36553 60.1643 8.2022 60.8456 8.2022ZM63.7016 12.1502C63.7016 11.5715 63.585 11.0675 63.3516 10.6382C63.1183 10.2089 62.801 9.8822 62.3996 9.6582C62.0076 9.42487 61.5736 9.3082 61.0976 9.3082C60.6216 9.3082 60.1876 9.4202 59.7956 9.6442C59.4036 9.8682 59.091 10.1949 58.8576 10.6242C58.6243 11.0535 58.5076 11.5575 58.5076 12.1362C58.5076 12.7242 58.6243 13.2375 58.8576 13.6762C59.091 14.1055 59.4036 14.4369 59.7956 14.6702C60.1876 14.8942 60.6216 15.0062 61.0976 15.0062C61.5736 15.0062 62.0076 14.8942 62.3996 14.6702C62.801 14.4369 63.1183 14.1055 63.3516 13.6762C63.585 13.2375 63.7016 12.7289 63.7016 12.1502Z" fill="white"/>
<path d="M67.8006 7.0822C67.5579 7.0822 67.3526 6.9982 67.1846 6.8302C67.0166 6.6622 66.9326 6.45687 66.9326 6.2142C66.9326 5.97153 67.0166 5.7662 67.1846 5.5982C67.3526 5.4302 67.5579 5.3462 67.8006 5.3462C68.0339 5.3462 68.2299 5.4302 68.3886 5.5982C68.5566 5.7662 68.6406 5.97153 68.6406 6.2142C68.6406 6.45687 68.5566 6.6622 68.3886 6.8302C68.2299 6.9982 68.0339 7.0822 67.8006 7.0822ZM68.4166 8.3282V16.0002H67.1426V8.3282H68.4166Z" fill="white"/>
<path d="M73.7099 9.3782H72.0999V16.0002H70.8259V9.3782H69.8319V8.3282H70.8259V7.7822C70.8259 6.92353 71.0452 6.2982 71.4839 5.9062C71.9319 5.50487 72.6459 5.3042 73.6259 5.3042V6.3682C73.0659 6.3682 72.6692 6.4802 72.4359 6.7042C72.2119 6.91887 72.0999 7.2782 72.0999 7.7822V8.3282H73.7099V9.3782Z" fill="white"/>
<path d="M76.7493 9.3782V13.9002C76.7493 14.2735 76.8286 14.5395 76.9873 14.6982C77.146 14.8475 77.4213 14.9222 77.8133 14.9222H78.7513V16.0002H77.6033C76.894 16.0002 76.362 15.8369 76.0073 15.5102C75.6526 15.1835 75.4753 14.6469 75.4753 13.9002V9.3782H74.4813V8.3282H75.4753V6.3962H76.7493V8.3282H78.7513V9.3782H76.7493Z" fill="white"/>
<path d="M85.3013 9.7422C85.5533 9.30353 85.9267 8.93953 86.4213 8.6502C86.9253 8.35153 87.5087 8.2022 88.1713 8.2022C88.8527 8.2022 89.4687 8.36553 90.0193 8.6922C90.5793 9.01887 91.018 9.48087 91.3353 10.0782C91.6527 10.6662 91.8113 11.3522 91.8113 12.1362C91.8113 12.9109 91.6527 13.6015 91.3353 14.2082C91.018 14.8149 90.5793 15.2862 90.0193 15.6222C89.4687 15.9582 88.8527 16.1262 88.1713 16.1262C87.518 16.1262 86.9393 15.9815 86.4353 15.6922C85.9407 15.3935 85.5627 15.0249 85.3013 14.5862V19.6402H84.0273V8.3282H85.3013V9.7422ZM90.5093 12.1362C90.5093 11.5575 90.3927 11.0535 90.1593 10.6242C89.926 10.1949 89.6087 9.8682 89.2073 9.6442C88.8153 9.4202 88.3813 9.3082 87.9053 9.3082C87.4387 9.3082 87.0047 9.42487 86.6033 9.6582C86.2113 9.8822 85.894 10.2135 85.6513 10.6522C85.418 11.0815 85.3013 11.5809 85.3013 12.1502C85.3013 12.7289 85.418 13.2375 85.6513 13.6762C85.894 14.1055 86.2113 14.4369 86.6033 14.6702C87.0047 14.8942 87.4387 15.0062 87.9053 15.0062C88.3813 15.0062 88.8153 14.8942 89.2073 14.6702C89.6087 14.4369 89.926 14.1055 90.1593 13.6762C90.3927 13.2375 90.5093 12.7242 90.5093 12.1362Z" fill="white"/>
<path d="M94.7623 9.5742C94.9863 9.13553 95.3036 8.79487 95.7143 8.5522C96.1343 8.30953 96.6429 8.1882 97.2403 8.1882V9.5042H96.9043C95.4763 9.5042 94.7623 10.2789 94.7623 11.8282V16.0002H93.4883V8.3282H94.7623V9.5742Z" fill="white"/>
<path d="M102.057 16.1262C101.338 16.1262 100.685 15.9629 100.097 15.6362C99.5183 15.3095 99.0609 14.8475 98.7249 14.2502C98.3983 13.6435 98.2349 12.9435 98.2349 12.1502C98.2349 11.3662 98.4029 10.6755 98.7389 10.0782C99.0843 9.47153 99.5509 9.00953 100.139 8.6922C100.727 8.36553 101.385 8.2022 102.113 8.2022C102.841 8.2022 103.499 8.36553 104.087 8.6922C104.675 9.00953 105.137 9.46687 105.473 10.0642C105.818 10.6615 105.991 11.3569 105.991 12.1502C105.991 12.9435 105.814 13.6435 105.459 14.2502C105.114 14.8475 104.642 15.3095 104.045 15.6362C103.448 15.9629 102.785 16.1262 102.057 16.1262ZM102.057 15.0062C102.514 15.0062 102.944 14.8989 103.345 14.6842C103.746 14.4695 104.068 14.1475 104.311 13.7182C104.563 13.2889 104.689 12.7662 104.689 12.1502C104.689 11.5342 104.568 11.0115 104.325 10.5822C104.082 10.1529 103.765 9.83553 103.373 9.6302C102.981 9.41553 102.556 9.3082 102.099 9.3082C101.632 9.3082 101.203 9.41553 100.811 9.6302C100.428 9.83553 100.12 10.1529 99.8869 10.5822C99.6536 11.0115 99.5369 11.5342 99.5369 12.1502C99.5369 12.7755 99.6489 13.3029 99.8729 13.7322C100.106 14.1615 100.414 14.4835 100.797 14.6982C101.18 14.9035 101.6 15.0062 102.057 15.0062Z" fill="white"/>
<path d="M110.788 9.3782H109.178V16.0002H107.904V9.3782H106.91V8.3282H107.904V7.7822C107.904 6.92353 108.123 6.2982 108.562 5.9062C109.01 5.50487 109.724 5.3042 110.704 5.3042V6.3682C110.144 6.3682 109.747 6.4802 109.514 6.7042C109.29 6.91887 109.178 7.2782 109.178 7.7822V8.3282H110.788V9.3782Z" fill="white"/>
<path d="M112.931 7.0822C112.689 7.0822 112.483 6.9982 112.315 6.8302C112.147 6.6622 112.063 6.45687 112.063 6.2142C112.063 5.97153 112.147 5.7662 112.315 5.5982C112.483 5.4302 112.689 5.3462 112.931 5.3462C113.165 5.3462 113.361 5.4302 113.519 5.5982C113.687 5.7662 113.771 5.97153 113.771 6.2142C113.771 6.45687 113.687 6.6622 113.519 6.8302C113.361 6.9982 113.165 7.0822 112.931 7.0822ZM113.547 8.3282V16.0002H112.273V8.3282H113.547Z" fill="white"/>
<path d="M116.993 5.6402V16.0002H115.719V5.6402H116.993Z" fill="white"/>
<path d="M126.164 11.8702C126.164 12.1129 126.15 12.3695 126.122 12.6402H119.99C120.037 13.3962 120.293 13.9889 120.76 14.4182C121.236 14.8382 121.81 15.0482 122.482 15.0482C123.033 15.0482 123.49 14.9222 123.854 14.6702C124.227 14.4089 124.489 14.0635 124.638 13.6342H126.01C125.805 14.3715 125.394 14.9735 124.778 15.4402C124.162 15.8975 123.397 16.1262 122.482 16.1262C121.754 16.1262 121.101 15.9629 120.522 15.6362C119.953 15.3095 119.505 14.8475 119.178 14.2502C118.851 13.6435 118.688 12.9435 118.688 12.1502C118.688 11.3569 118.847 10.6615 119.164 10.0642C119.481 9.46687 119.925 9.00953 120.494 8.6922C121.073 8.36553 121.735 8.2022 122.482 8.2022C123.21 8.2022 123.854 8.36087 124.414 8.6782C124.974 8.99553 125.403 9.4342 125.702 9.9942C126.01 10.5449 126.164 11.1702 126.164 11.8702ZM124.848 11.6042C124.848 11.1189 124.741 10.7035 124.526 10.3582C124.311 10.0035 124.017 9.73753 123.644 9.5602C123.28 9.37353 122.874 9.2802 122.426 9.2802C121.782 9.2802 121.231 9.48553 120.774 9.8962C120.326 10.3069 120.069 10.8762 120.004 11.6042H124.848Z" fill="white"/>
</svg>
