<svg xmlns="http://www.w3.org/2000/svg" viewBox="0 0 70 70"><defs><style>.cls-1{fill:#272c62;}.cls-2{fill:#fff;}</style></defs><title>Asset 4</title><g id="Layer_2" data-name="Layer 2"><g id="Layer_1-2" data-name="Layer 1"><path class="cls-1" d="M35,0q1.72,0,3.43.17t3.4.5q1.69.34,3.33.83t3.23,1.16q1.59.66,3.1,1.47T54.44,5.9q1.43,1,2.76,2t2.54,2.31Q61,11.47,62.06,12.8t2,2.76q1,1.43,1.77,2.95t1.47,3.1q.66,1.59,1.16,3.23t.83,3.33q.34,1.69.5,3.4T70,35q0,1.72-.17,3.43t-.5,3.4q-.34,1.69-.83,3.33t-1.16,3.23q-.66,1.59-1.47,3.1T64.1,54.44q-1,1.43-2,2.76t-2.31,2.54Q58.53,61,57.2,62.06t-2.76,2q-1.43,1-2.95,1.77t-3.1,1.47q-1.59.66-3.23,1.16t-3.33.83q-1.69.34-3.4.5T35,70q-1.72,0-3.43-.17t-3.4-.5q-1.69-.34-3.33-.83t-3.23-1.16q-1.59-.66-3.1-1.47T15.56,64.1q-1.43-1-2.76-2t-2.54-2.31Q9,58.53,7.94,57.2t-2-2.76Q4.94,53,4.13,51.5t-1.47-3.1Q2,46.81,1.51,45.16T.67,41.83q-.34-1.69-.5-3.4T0,35q0-1.72.17-3.43t.5-3.4q.34-1.69.83-3.33t1.16-3.23Q3.32,20,4.13,18.5T5.9,15.55q1-1.43,2-2.76t2.31-2.54Q11.47,9,12.8,7.94t2.76-2q1.43-1,2.95-1.77t3.1-1.47Q23.19,2,24.84,1.51T28.17.67q1.69-.34,3.4-.5T35,0Z"/><path class="cls-2" d="M35,25.15a1.86,1.86,0,0,1-1.86-1.86V16.86a1.86,1.86,0,1,1,3.71,0V23.3A1.86,1.86,0,0,1,35,25.15Z"/><path class="cls-2" d="M29.15,26.71a1.85,1.85,0,0,1-1.61-.93L24.31,20.2a1.86,1.86,0,0,1,3.21-1.86l3.22,5.58a1.86,1.86,0,0,1-1.61,2.78Z"/><path class="cls-2" d="M24.86,31a1.85,1.85,0,0,1-.93-.25l-5.58-3.22a1.86,1.86,0,1,1,1.86-3.22l5.58,3.22A1.85,1.85,0,0,1,24.86,31Z"/><path class="cls-2" d="M23.3,36.86H16.86a1.86,1.86,0,1,1,0-3.71H23.3a1.86,1.86,0,1,1,0,3.71Z"/><path class="cls-2" d="M19.28,45.93a1.86,1.86,0,0,1-.93-3.46l5.58-3.22a1.86,1.86,0,1,1,1.86,3.22l-5.58,3.22A1.85,1.85,0,0,1,19.28,45.93Z"/><path class="cls-2" d="M25.92,52.58a1.86,1.86,0,0,1-1.61-2.78l3.22-5.58a1.86,1.86,0,1,1,3.21,1.86l-3.22,5.58A1.85,1.85,0,0,1,25.92,52.58Z"/><path class="cls-2" d="M35,55a1.86,1.86,0,0,1-1.86-1.86V46.7a1.86,1.86,0,1,1,3.71,0v6.44A1.85,1.85,0,0,1,35,55Z"/><path class="cls-2" d="M44.08,52.58a1.85,1.85,0,0,1-1.61-.93l-3.22-5.58a1.86,1.86,0,0,1,3.22-1.86l3.22,5.58a1.86,1.86,0,0,1-1.6,2.78Z"/><path class="cls-2" d="M50.72,45.93a1.84,1.84,0,0,1-.93-.25l-5.58-3.22a1.86,1.86,0,0,1,1.86-3.22l5.58,3.22a1.86,1.86,0,0,1-.93,3.46Z"/><path class="cls-2" d="M53.14,36.86H46.7a1.86,1.86,0,0,1,0-3.71h6.45a1.86,1.86,0,0,1,0,3.71Z"/><path class="cls-2" d="M45.14,31a1.86,1.86,0,0,1-.93-3.46l5.58-3.22a1.86,1.86,0,0,1,1.86,3.22l-5.58,3.22A1.84,1.84,0,0,1,45.14,31Z"/><path class="cls-2" d="M40.86,26.71a1.86,1.86,0,0,1-1.61-2.78l3.22-5.58a1.86,1.86,0,0,1,3.21,1.86l-3.22,5.58A1.86,1.86,0,0,1,40.86,26.71Z"/><path class="cls-2" d="M35,46.64A11.87,11.87,0,1,1,46.91,34.77,11.88,11.88,0,0,1,35,46.64Z"/></g></g></svg>