<svg xmlns="http://www.w3.org/2000/svg" viewBox="0 0 22.01 22.01"><defs><style>.cls-1{fill:#4A5D6A;}</style></defs><title>Asset 22</title><g id="Layer_2" data-name="Layer 2"><g id="Layer_1-2" data-name="Layer 1"><path class="cls-1" d="M11,1.38A9.63,9.63,0,1,0,20.63,11,9.64,9.64,0,0,0,11,1.38ZM11,22A11,11,0,1,1,22,11,11,11,0,0,1,11,22Z"/><path class="cls-1" d="M11,7.33a.69.69,0,0,1-.69-.69V4.26a.69.69,0,1,1,1.38,0V6.65A.69.69,0,0,1,11,7.33Z"/><path class="cls-1" d="M8.79,7.93a.69.69,0,0,1-.6-.34L7,5.52a.69.69,0,1,1,1.19-.69L9.38,6.9a.69.69,0,0,1-.59,1Z"/><path class="cls-1" d="M7.17,9.55a.69.69,0,0,1-.34-.09L4.76,8.26a.69.69,0,1,1,.69-1.19L7.51,8.27a.69.69,0,0,1-.34,1.28Z"/><path class="cls-1" d="M6.58,11.76H4.19a.69.69,0,0,1,0-1.38H6.58a.69.69,0,0,1,0,1.38Z"/><path class="cls-1" d="M5.1,15.17a.69.69,0,0,1-.34-1.28l2.07-1.19a.69.69,0,1,1,.69,1.19L5.44,15.08A.68.68,0,0,1,5.1,15.17Z"/><path class="cls-1" d="M7.59,17.67a.69.69,0,0,1-.59-1l1.19-2.07a.69.69,0,0,1,1.19.69L8.19,17.32A.69.69,0,0,1,7.59,17.67Z"/><path class="cls-1" d="M11,18.58a.69.69,0,0,1-.69-.69V15.51a.69.69,0,1,1,1.38,0v2.39A.69.69,0,0,1,11,18.58Z"/><path class="cls-1" d="M14.41,17.67a.69.69,0,0,1-.6-.34l-1.19-2.07a.69.69,0,0,1,1.19-.69L15,16.64a.69.69,0,0,1-.59,1Z"/><path class="cls-1" d="M16.91,15.17a.68.68,0,0,1-.34-.09L14.5,13.89a.69.69,0,0,1,.69-1.19l2.07,1.19a.69.69,0,0,1-.34,1.28Z"/><path class="cls-1" d="M17.82,11.76H15.43a.69.69,0,0,1,0-1.38h2.39a.69.69,0,1,1,0,1.38Z"/><path class="cls-1" d="M14.84,9.55a.69.69,0,0,1-.34-1.28l2.07-1.19a.69.69,0,0,1,.69,1.19L15.18,9.46A.68.68,0,0,1,14.84,9.55Z"/><path class="cls-1" d="M13.22,7.93a.68.68,0,0,1-.34-.09.69.69,0,0,1-.25-.94l1.19-2.07A.69.69,0,0,1,15,5.51L13.81,7.58A.69.69,0,0,1,13.22,7.93Z"/><path class="cls-1" d="M11,7.71A3.29,3.29,0,1,0,14.3,11,3.3,3.3,0,0,0,11,7.71Zm0,8A4.67,4.67,0,1,1,15.67,11,4.67,4.67,0,0,1,11,15.67Z"/></g></g></svg>