<svg xmlns="http://www.w3.org/2000/svg" viewBox="0 0 80 80"><defs><style>.cls-1{fill:#b13f90;}.cls-2{fill:#fff;}</style></defs><title>Asset 8</title><g id="Layer_2" data-name="Layer 2"><g id="Layer_1-2" data-name="Layer 1"><path class="cls-1" d="M40,0q2,0,3.92.19T47.8.77q1.93.38,3.81,1T55.31,3q1.82.75,3.55,1.68t3.37,2q1.63,1.09,3.15,2.34t2.91,2.64q1.39,1.39,2.64,2.91t2.34,3.15q1.09,1.63,2,3.37T77,24.69q.75,1.82,1.32,3.7t1,3.81q.38,1.93.58,3.88T80,40q0,2-.19,3.92t-.58,3.88q-.38,1.93-1,3.81T77,55.31q-.75,1.82-1.68,3.55t-2,3.37q-1.09,1.63-2.34,3.15t-2.64,2.91q-1.39,1.39-2.91,2.64t-3.15,2.34q-1.63,1.09-3.37,2T55.31,77q-1.82.75-3.7,1.32t-3.81,1q-1.93.38-3.88.58T40,80q-2,0-3.92-.19t-3.88-.58q-1.93-.38-3.81-1T24.69,77q-1.82-.75-3.55-1.68t-3.37-2q-1.63-1.09-3.15-2.34t-2.91-2.64q-1.39-1.39-2.64-2.91T6.74,62.22q-1.09-1.63-2-3.37T3,55.31q-.75-1.82-1.32-3.7t-1-3.81Q.39,45.88.19,43.92T0,40q0-2,.19-3.92T.77,32.2q.38-1.93,1-3.81T3,24.69q.75-1.82,1.68-3.55t2-3.37q1.09-1.63,2.34-3.15t2.64-2.91q1.39-1.39,2.91-2.64t3.15-2.34q1.63-1.09,3.37-2T24.69,3q1.82-.75,3.7-1.32t3.81-1Q34.12.39,36.08.19T40,0Z"/><path class="cls-2" d="M55,36.81v0q0,.17,0,.35c0,.06,0,.12,0,.17h0c0,.06,0,.12,0,.17l0,.24v0c0,.07,0,.14,0,.21v0c-.46,4.05-3.21,8-8.42,12.36l-.84.68q-1.43,1.14-3.1,2.33l-.12.08-.26.18-.58.4-.2.13-.6.4-.09.06-.1.05-.21.08h-.8a1.47,1.47,0,0,1-.43-.2l-.6-.4-.2-.13-1.16-.82-.3-.21q-1.38-1-2.6-2l-.84-.68c-5.22-4.32-8-8.31-8.42-12.36h0l0-.23v0l0-.25v-.17h0c0-.06,0-.12,0-.17s0-.23,0-.35,0,0,0,0a10.68,10.68,0,0,1,.41-2.93h0a10,10,0,0,1,1.21-2.62l0-.06A7.57,7.57,0,0,1,29,28.94l0,0A6.94,6.94,0,0,1,32.5,28a9.24,9.24,0,0,1,4.71,1.4l.23.15a9.41,9.41,0,0,1,.88.66l.21.18.4.38A9.43,9.43,0,0,1,40,32.08h0a9.5,9.5,0,0,1,1.07-1.3l.2-.2.31-.28h0l.43-.35h0l.33-.25h0l.23-.16.12-.08.23-.15A9.23,9.23,0,0,1,47.5,28h0a6.94,6.94,0,0,1,3.44.93L51,29a7.59,7.59,0,0,1,2.29,2.21l0,.06a10,10,0,0,1,.85,1.6l.13.33h0l.12.34.11.34h0A10.69,10.69,0,0,1,55,36.81Z"/></g></g></svg>