<svg xmlns="http://www.w3.org/2000/svg" viewBox="0 0 70 70"><defs><style>.cls-1{fill:#3e94d1;}.cls-2{fill:#fff;}.cls-3{fill:none;stroke:#fff;stroke-linecap:round;stroke-width:2px;}</style></defs><title>Asset 1</title><g id="Layer_2" data-name="Layer 2"><g id="Layer_1-2" data-name="Layer 1"><path class="cls-1" d="M35,0q1.72,0,3.43.17t3.4.5q1.69.34,3.33.83t3.23,1.16q1.59.66,3.1,1.47T54.44,5.9q1.43,1,2.76,2t2.54,2.31Q61,11.47,62.06,12.8t2,2.76q1,1.43,1.77,2.95t1.47,3.1q.66,1.59,1.16,3.23t.83,3.33q.34,1.69.5,3.4T70,35q0,1.72-.17,3.43t-.5,3.4q-.34,1.69-.83,3.33t-1.16,3.23q-.66,1.59-1.47,3.1T64.1,54.44q-1,1.43-2,2.76t-2.31,2.54Q58.53,61,57.2,62.06t-2.76,2q-1.43,1-2.95,1.77t-3.1,1.47q-1.59.66-3.23,1.16t-3.33.83q-1.69.34-3.4.5T35,70q-1.72,0-3.43-.17t-3.4-.5q-1.69-.34-3.33-.83t-3.23-1.16q-1.59-.66-3.1-1.47T15.56,64.1q-1.43-1-2.76-2t-2.54-2.31Q9,58.53,7.94,57.2t-2-2.76Q4.94,53,4.13,51.5t-1.47-3.1Q2,46.81,1.51,45.16T.67,41.83q-.34-1.69-.5-3.4T0,35q0-1.72.17-3.43t.5-3.4q.34-1.69.83-3.33t1.16-3.23Q3.32,20,4.13,18.5T5.9,15.55q1-1.43,2-2.76t2.31-2.54Q11.47,9,12.8,7.94t2.76-2q1.43-1,2.95-1.77t3.1-1.47Q23.19,2,24.84,1.51T28.17.67q1.69-.34,3.4-.5T35,0Z"/><path class="cls-2" d="M47.27,42.86c-.08,0-23.48.07-23.65,0a11.28,11.28,0,0,1,10.91-8.5h1.83A11.28,11.28,0,0,1,47.27,42.86Z"/><path class="cls-2" d="M35.45,31.79A8.4,8.4,0,1,0,27,23.4h0A8.41,8.41,0,0,0,35.45,31.79Z"/><line class="cls-3" x1="19.12" y1="48.5" x2="36.12" y2="48.5"/><line class="cls-3" x1="43.37" y1="48.5" x2="51.37" y2="48.5"/><line class="cls-3" x1="19" y1="52.5" x2="51.32" y2="52.5"/></g></g></svg>