<svg xmlns="http://www.w3.org/2000/svg" viewBox="0 0 22 22"><defs><style>.cls-1{fill:#3e94d1;}</style></defs><title>Asset 12</title><g id="Layer_2" data-name="Layer 2"><g id="Layer_1-2" data-name="Layer 1"><path class="cls-1" d="M12.84,19.12a.24.24,0,0,1,0-.34c4.86-4.65,4.63-4.48,4.7-4.4l.82.92-4.82,4.62ZM12,16.24a4,4,0,0,1-.73-2.29V4.52A.66.66,0,0,1,12,3.86a1,1,0,0,1,.94.75l1.26,6.53a3,3,0,0,0,.68,1.4l1.62,1.86-3.42,3.28ZM11.32,1.31A.66.66,0,0,1,12,.64a1,1,0,0,1,.93.74l.3,2.41a1.52,1.52,0,0,0-1.89-.4Zm-.64,12.64A4,4,0,0,1,10,16.24l-1,1.44L5.51,14.39l1.62-1.86a3,3,0,0,0,.68-1.4L9.08,4.61A1,1,0,0,1,10,3.86a.66.66,0,0,1,.66.66C10.68,4.91,10.68,13.7,10.68,13.95ZM9.08,1.39A1,1,0,0,1,10,.64a.66.66,0,0,1,.66.66V3.4a1.52,1.52,0,0,0-1.89.4ZM21.64,18l-.74-.83a.32.32,0,0,0-.48.43l.74.83a.77.77,0,0,1,.2.51V21a.31.31,0,0,1-.31.31H15.29a1,1,0,0,1-.78-.35L14,20.4l4.82-4.62.63.7a.32.32,0,0,0,.48-.43L18,14a.71.71,0,0,0-1,0l0,0-1.61-1.85a3.92,3.92,0,0,1-.71-2c-.77-6.28-1.08-8.81-1.09-8.83A1.52,1.52,0,0,0,11,.45a1.52,1.52,0,0,0-2.56.84l-1.08,8.8a4,4,0,0,1-.71,2L5,14l0,0a.71.71,0,0,0-1,0L.36,18a1.41,1.41,0,0,0-.36.94V21a1,1,0,0,0,1,1H2a.32.32,0,1,0,0-.64H1A.31.31,0,0,1,.64,21v-2.1a.77.77,0,0,1,.2-.51L3.2,15.78,6,18.45A.32.32,0,1,0,6.44,18L3.63,15.3c.84-.93.81-.94.87-.94s-.14-.15,4.65,4.43a.24.24,0,0,1,0,.34l-.71.8L7.53,19a.32.32,0,0,0-.45.47l.94.9L7.48,21a1,1,0,0,1-.78.35H3.55a.32.32,0,0,0,0,.64H6.71A1.68,1.68,0,0,0,8,21.44l1.68-1.89a.88.88,0,0,0,0-1.23l-.19-.19A13.34,13.34,0,0,0,11,15.64a13.35,13.35,0,0,0,1.6,2.49l-.19.19a.88.88,0,0,0,0,1.23L14,21.44a1.68,1.68,0,0,0,1.26.56H21a1,1,0,0,0,1-1v-2.1A1.41,1.41,0,0,0,21.64,18Z"/></g></g></svg>