<?xml version="1.0"?>
<svg xmlns="http://www.w3.org/2000/svg" xmlns:xlink="http://www.w3.org/1999/xlink" version="1.1" id="Capa_1" x="0px" y="0px" viewBox="0 0 426.667 426.667" style="enable-background:new 0 0 426.667 426.667;" xml:space="preserve" width="512px" height="512px" class=""><g><g>
	<g>
		<g>
			<path d="M138.667,192c17.707,0,32-14.293,32-32s-14.293-32-32-32s-32,14.293-32,32S120.96,192,138.667,192z" data-original="#000000" class="active-path" data-old_color="#000000" fill="#ffffff"/>
			<path d="M288,192c17.707,0,32-14.293,32-32s-14.293-32-32-32s-32,14.293-32,32S270.293,192,288,192z" data-original="#000000" class="active-path" data-old_color="#000000" fill="#ffffff"/>
			<path d="M213.12,0C95.36,0,0,95.573,0,213.333s95.36,213.333,213.12,213.333c117.973,0,213.547-95.573,213.547-213.333     S331.093,0,213.12,0z M213.333,384c-94.293,0-170.667-76.373-170.667-170.667S119.04,42.667,213.333,42.667     S384,119.04,384,213.333S307.627,384,213.333,384z" data-original="#000000" class="active-path" data-old_color="#000000" fill="#ffffff"/>
			<path d="M213.333,256c-49.707,0-92.16,31.04-109.227,74.667h35.733C154.667,305.28,181.867,288,213.333,288     s58.667,17.28,73.493,42.667h35.733C305.493,287.04,263.04,256,213.333,256z" data-original="#000000" class="active-path" data-old_color="#000000" fill="#ffffff"/>
		</g>
	</g>
</g></g> </svg>
