<svg xmlns="http://www.w3.org/2000/svg" viewBox="0 0 22 22"><defs><style>.cls-1{fill:#CA58FD;}</style></defs><title>Asset 18</title><g id="Layer_2" data-name="Layer 2"><g id="Layer_1-2" data-name="Layer 1"><path class="cls-1" d="M2.5,17.62A5.84,5.84,0,0,1,3,16.48L5.52,19a5.91,5.91,0,0,1-1.13.49l-2.74.85Zm5.39-6.35,2.85,2.85L6.8,18l-.21.2L3.76,15.41,4,15.2Zm8-8,2.85,2.85L11.79,13,8.95,10.19Zm3.79-1.75.82.8a.66.66,0,0,1,0,.93L19.1,4.61,17.37,2.88,18.76,1.5A.66.66,0,0,1,19.68,1.49ZM4.77,20.76a7.22,7.22,0,0,0,3-1.78L20.12,6.56a.65.65,0,0,0,0-.92l-.1-.1,1.39-1.37a2,2,0,0,0,0-2.79L20.6.56a2,2,0,0,0-2.77,0L16.45,2,16,1.45a3.27,3.27,0,0,0-4.64,0L6.08,6.67A.65.65,0,0,0,7,7.59l5.23-5.23a2,2,0,0,1,2.73,0L3,14.27a7.22,7.22,0,0,0-1.78,3L0,21.16A.65.65,0,0,0,.85,22Z"/></g></g></svg>