<?xml version="1.0"?>
<svg xmlns="http://www.w3.org/2000/svg" height="512px" viewBox="-61 0 512 512" width="512px" class=""><g><path d="m195 512c-3-2.515625-195-52.367188-195-256v-195h50.140625c102.785156 0 138.164063-57.203125 144.859375-61 7.078125 4.011719 41.539062 61 144.859375 61h50.140625v195c0 203.640625-192 253.484375-195 256zm0 0" fill="#b9b6ec" data-original="#B9B6EC" class="" style="fill:#48CDF7" data-old_color="#b9b6ec"/><path d="m390 256v-195h-50.140625c-103.324219 0-137.78125-56.988281-144.859375-61v512c3-2.515625 195-52.359375 195-256zm0 0" fill="#979fef" data-original="#979FEF" class="" style="fill:#48CDF7" data-old_color="#979fef"/><path d="m195 391c-74.441406 0-135-60.558594-135-135s60.558594-135 135-135 135 60.558594 135 135-60.558594 135-135 135zm0 0" fill="#fff7cc" data-original="#FFF7CC" class="" style="fill:#FFFFFF" data-old_color="#fff7cc"/><path d="m330 256c0-74.441406-60.558594-135-135-135v270c74.441406 0 135-60.558594 135-135zm0 0" fill="#ffe6b3" data-original="#FFE6B3" class="" style="fill:#FFFFFF" data-old_color="#ffe6b3"/><path d="m180 322.210938-55.605469-55.605469 21.210938-21.210938 34.394531 34.394531 64.394531-64.394531 21.210938 21.210938zm0 0" fill="#ff641a" data-original="#FF641A" class="" style="fill:#48CDF7" data-old_color="#ff641a"/><path d="m195 264.789062v42.421876l70.605469-70.605469-21.210938-21.210938zm0 0" fill="#f03800" data-original="#F03800" class="active-path" style="fill:#48CDF7" data-old_color="#f03800"/></g> </svg>
