<?xml version="1.0"?>
<svg xmlns="http://www.w3.org/2000/svg" xmlns:xlink="http://www.w3.org/1999/xlink" version="1.1" id="Capa_1" x="0px" y="0px" viewBox="0 0 512 512" style="enable-background:new 0 0 512 512;" xml:space="preserve" width="512px" height="512px" class=""><g><g>
	<g>
		<path d="M439.333,87.667C479.402,87.667,512,55.068,512,15V0H212.167v212.167h-124.5v-139.5C87.666,32.598,55.068,0,15,0H0    v299.833h212.167v124.5h-139.5C32.598,424.333,0,456.932,0,497v15h299.833V299.833h124.5v139.5    C424.333,479.402,456.932,512,497,512h15V212.167H299.833v-124.5H439.333z M482,242.167v237.112    c-16.149-6.083-27.667-21.694-27.667-39.945v-169.5h-184.5V482H32.722c6.083-16.149,21.694-27.667,39.945-27.667h169.5v-184.5H30    V32.722c16.149,6.083,27.667,21.694,27.667,39.945v169.5h184.5V30h237.112c-6.083,16.149-21.694,27.667-39.945,27.667H269.833    v184.5H482z" data-original="#000000" class="active-path" data-old_color="#000000" fill="#4A5D6A"/>
	</g>
</g><g>
	<g>
		<circle cx="150.42" cy="108.15" r="24.15" data-original="#000000" class="active-path" data-old_color="#000000" fill="#4A5D6A"/>
	</g>
</g><g>
	<g>
		<circle cx="401.63" cy="148" r="24.15" data-original="#000000" class="active-path" data-old_color="#000000" fill="#4A5D6A"/>
	</g>
</g><g>
	<g>
		<circle cx="362" cy="400.45" r="24.15" data-original="#000000" class="active-path" data-old_color="#000000" fill="#4A5D6A"/>
	</g>
</g><g>
	<g>
		<circle cx="105" cy="362.69" r="24.15" data-original="#000000" class="active-path" data-old_color="#000000" fill="#4A5D6A"/>
	</g>
</g></g> </svg>
