<svg xmlns="http://www.w3.org/2000/svg" viewBox="0 0 22 22"><defs><style>.cls-1{fill:#3e94d1;}</style></defs><title>Asset 9</title><g id="Layer_2" data-name="Layer 2"><g id="Layer_1-2" data-name="Layer 1"><path class="cls-1" d="M21,20a1,1,0,0,1-1,1H2a1,1,0,0,1-1-1V2A1,1,0,0,1,2,1H20a1,1,0,0,1,1,1ZM20,0H2A2,2,0,0,0,0,2V20a2,2,0,0,0,2,2H20a2,2,0,0,0,2-2V2A2,2,0,0,0,20,0Z"/><path class="cls-1" d="M14,8.68a4.45,4.45,0,0,0-3-1.2,4.32,4.32,0,0,0-1.33.23L9.05,6.18a.46.46,0,0,0-.63-.26.56.56,0,0,0-.24.71l.6,1.47a4.68,4.68,0,0,0-.8.58L6,6.4A7,7,0,0,1,16,6.4ZM11,3.2A8.09,8.09,0,0,0,4.93,6a.58.58,0,0,0,0,.75l2.7,3a.44.44,0,0,0,.67,0,3.54,3.54,0,0,1,5.39,0,.44.44,0,0,0,.67,0l2.7-3a.58.58,0,0,0,0-.75A8.09,8.09,0,0,0,11,3.2Z"/></g></g></svg>