<svg width="86" height="89" viewBox="0 0 86 89" fill="none" xmlns="http://www.w3.org/2000/svg">
<mask id="mask0" mask-type="alpha" maskUnits="userSpaceOnUse" x="0" y="0" width="86" height="89">
<path fill-rule="evenodd" clip-rule="evenodd" d="M17.3176 9.60767C22.3015 2.70434 30.6312 -0.953835 38.7067 0.215245L59.7554 3.26418C66.9046 4.29879 72.7871 8.97237 75.344 15.6493L84.6513 39.9475C87.2082 46.6244 86.0832 54.3744 81.6706 60.486L68.6814 78.4805C63.699 85.3838 55.3678 89.042 47.2937 87.8729L26.245 84.8239C19.0943 83.7893 13.2119 79.1158 10.655 72.4388L1.34915 48.1407C-1.20779 41.4637 -0.0841933 33.7138 4.32835 27.6022L17.3176 9.60767Z" fill="white"/>
</mask>
<g mask="url(#mask0)">
<path fill-rule="evenodd" clip-rule="evenodd" d="M-70.3594 5.22233L81.5607 155.341L82.186 154.626L-69.7325 4.50742L-70.3594 5.22233ZM-66.4275 3.49478L85.4925 153.613L86.1179 152.898L-65.8007 2.78125L-66.4275 3.49478ZM89.4273 151.886L-62.4913 1.76723L-61.866 1.0537L90.0541 151.172L89.4273 151.886ZM-58.5565 0.0410576L93.3635 150.158L93.9888 149.444L-57.9297 -0.673851L-58.5565 0.0410576ZM97.2953 148.432L-54.6247 -1.68649L-53.9979 -2.40138L97.9207 147.717L97.2953 148.432ZM-50.6885 -3.41404L101.23 146.704L101.857 145.989L-50.0632 -4.12893L-50.6885 -3.41404ZM105.163 144.977L-46.7567 -5.1416L-46.1313 -5.85649L105.789 144.262L105.163 144.977ZM-42.8218 -6.86915L109.098 143.249L109.724 142.534L-42.1951 -7.58265L-42.8218 -6.86915ZM113.03 141.522L-38.8886 -8.5967L-38.2632 -9.31021L113.655 140.807L113.03 141.522ZM-34.9538 -10.3242L116.965 139.794L117.592 139.081L-34.3284 -11.0378L-34.9538 -10.3242ZM120.898 138.067L-31.0219 -12.0504L-30.3966 -12.7653L121.523 137.353L120.898 138.067ZM-27.0858 -13.778L124.833 136.34L125.458 135.625L-26.4604 -14.4929L-27.0858 -13.778ZM128.765 134.613L-23.1539 -15.5055L-22.5285 -16.2204L129.39 133.898L128.765 134.613ZM-19.2191 -17.2331L132.701 132.885L133.326 132.17L-18.5938 -17.9479L-19.2191 -17.2331ZM136.633 131.158L-15.2873 -18.9606L-14.6605 -19.6755L137.258 130.443L136.633 131.158ZM-11.351 -20.6882L140.568 129.43L141.193 128.715L-10.7257 -21.4017L-11.351 -20.6882ZM144.499 127.703L-7.41924 -22.4143L-6.79391 -23.1292L145.126 126.989L144.499 127.703ZM-3.48448 -24.1419L148.436 125.975L149.061 125.262L-2.85916 -24.8568L-3.48448 -24.1419ZM152.367 124.249L0.447327 -25.8694L1.07417 -26.5843L152.993 123.534L152.367 124.249ZM4.38359 -27.597L156.302 122.521L156.928 121.806L5.00891 -28.3119L4.38359 -27.597ZM160.234 120.794L8.3154 -29.3245L8.94081 -30.0394L160.861 120.079L160.234 120.794ZM12.2502 -31.0521L164.17 119.066L164.796 118.351L12.877 -31.767L12.2502 -31.0521ZM168.105 117.339L16.1864 -32.7796L16.8117 -33.4931L168.73 116.624L168.105 117.339ZM20.1182 -34.5072L172.037 115.611L172.664 114.898L20.7435 -35.2207L20.1182 -34.5072ZM175.973 113.884L24.053 -36.2333L24.6784 -36.9482L176.598 113.17L175.973 113.884ZM27.9849 -37.9609L179.905 112.157L180.53 111.442L28.6116 -38.6758L27.9849 -37.9609Z" fill="#24ADD8"/>
</g>
</svg>
