<svg width="76" height="78" viewBox="0 0 76 78" fill="none" xmlns="http://www.w3.org/2000/svg">
<mask id="mask0" mask-type="alpha" maskUnits="userSpaceOnUse" x="0" y="0" width="76" height="78">
<path fill-rule="evenodd" clip-rule="evenodd" d="M15.3039 8.4905C19.7083 2.38988 27.0694 -0.842924 34.206 0.190216L52.8071 2.88463C59.125 3.79893 64.3235 7.92907 66.5831 13.8296L74.8081 35.3024C77.0677 41.203 76.0735 48.0518 72.174 53.4527L60.6952 69.3548C56.2921 75.4554 48.9296 78.6883 41.7944 77.6551L23.1932 74.9607C16.874 74.0464 11.6756 69.9162 9.41602 64.0157L1.19227 42.5429C-1.06735 36.6424 -0.0744033 29.7936 3.82505 24.3926L15.3039 8.4905Z" fill="white"/>
</mask>
<g mask="url(#mask0)">
<path fill-rule="evenodd" clip-rule="evenodd" d="M-62.1758 4.61497L72.0792 137.278L72.6318 136.646L-61.6218 3.98319L-62.1758 4.61497ZM-58.7011 3.0883L75.5538 135.751L76.1065 135.119L-58.1472 2.45774L-58.7011 3.0883ZM79.0311 134.224L-55.2226 1.56163L-54.67 0.931065L79.585 133.594L79.0311 134.224ZM-51.7454 0.036171L82.5096 132.698L83.0622 132.067L-51.1914 -0.595608L-51.7454 0.036171ZM85.9842 131.172L-48.2707 -1.4905L-47.7168 -2.12226L86.5369 130.54L85.9842 131.172ZM-44.7922 -3.01717L89.4614 129.645L90.0154 129.014L-44.2396 -3.64894L-44.7922 -3.01717ZM92.9374 128.119L-41.3176 -4.54385L-40.7649 -5.17561L93.4901 127.487L92.9374 128.119ZM-37.8403 -6.07052L96.4146 126.592L96.9673 125.96L-37.2864 -6.70106L-37.8403 -6.07052ZM99.8893 125.066L-34.3644 -7.5972L-33.8117 -8.22774L100.442 124.434L99.8893 125.066ZM-30.8872 -9.12385L103.367 123.539L103.92 122.908L-30.3345 -9.75441L-30.8872 -9.12385ZM106.842 122.012L-27.4125 -10.6493L-26.8599 -11.2811L107.395 121.382L106.842 122.012ZM-23.934 -12.176L110.32 120.487L110.872 119.855L-23.3813 -12.8078L-23.934 -12.176ZM113.794 118.96L-20.4593 -13.7027L-19.9067 -14.3344L114.347 118.328L113.794 118.96ZM-16.9821 -15.2293L117.273 117.433L117.826 116.802L-16.4295 -15.8611L-16.9821 -15.2293ZM120.747 115.907L-13.5074 -16.756L-12.9535 -17.3878L121.3 115.275L120.747 115.907ZM-10.0289 -18.2827L124.225 114.38L124.777 113.748L-9.47627 -18.9132L-10.0289 -18.2827ZM127.699 112.853L-6.55426 -19.8081L-6.00165 -20.4399L128.253 112.223L127.699 112.853ZM-3.07704 -21.3348L131.178 111.327L131.731 110.696L-2.52443 -21.9666L-3.07704 -21.3348ZM134.653 109.801L0.397583 -22.8615L0.95153 -23.4932L135.205 109.169L134.653 109.801ZM3.87614 -24.3881L138.13 108.275L138.682 107.643L4.42876 -25.0199L3.87614 -24.3881ZM141.604 106.748L7.35076 -25.9148L7.90346 -26.5466L142.158 106.116L141.604 106.748ZM10.828 -27.4415L145.083 105.221L145.636 104.589L11.3819 -28.0732L10.828 -27.4415ZM148.56 103.695L14.3065 -28.9681L14.8592 -29.5987L149.113 103.063L148.56 103.695ZM17.7812 -30.4948L152.035 102.168L152.589 101.537L18.3338 -31.1254L17.7812 -30.4948ZM155.513 100.641L21.2584 -32.0203L21.8111 -32.652L156.066 100.011L155.513 100.641ZM24.7331 -33.5469L158.988 99.1158L159.541 98.484L25.287 -34.1787L24.7331 -33.5469Z" fill="#FF8D1A"/>
</g>
</svg>
