<svg width="214" height="26" viewBox="0 0 214 26" fill="none" xmlns="http://www.w3.org/2000/svg">
<path d="M13.736 2.272V19H11.552V11.416H3.032V19H0.848V2.272H3.032V9.616H11.552V2.272H13.736ZM18.0892 12.376C18.0892 11.032 18.3612 9.856 18.9052 8.848C19.4492 7.824 20.1932 7.032 21.1372 6.472C22.0972 5.912 23.1612 5.632 24.3292 5.632C25.4812 5.632 26.4812 5.88 27.3292 6.376C28.1772 6.872 28.8092 7.496 29.2252 8.248V5.848H31.4332V19H29.2252V16.552C28.7932 17.32 28.1452 17.96 27.2812 18.472C26.4332 18.968 25.4412 19.216 24.3052 19.216C23.1372 19.216 22.0812 18.928 21.1372 18.352C20.1932 17.776 19.4492 16.968 18.9052 15.928C18.3612 14.888 18.0892 13.704 18.0892 12.376ZM29.2252 12.4C29.2252 11.408 29.0252 10.544 28.6252 9.808C28.2252 9.072 27.6812 8.512 26.9932 8.128C26.3212 7.728 25.5772 7.528 24.7612 7.528C23.9452 7.528 23.2012 7.72 22.5292 8.104C21.8572 8.488 21.3212 9.048 20.9212 9.784C20.5212 10.52 20.3212 11.384 20.3212 12.376C20.3212 13.384 20.5212 14.264 20.9212 15.016C21.3212 15.752 21.8572 16.32 22.5292 16.72C23.2012 17.104 23.9452 17.296 24.7612 17.296C25.5772 17.296 26.3212 17.104 26.9932 16.72C27.6812 16.32 28.2252 15.752 28.6252 15.016C29.0252 14.264 29.2252 13.392 29.2252 12.4ZM42.9719 5.608C44.5719 5.608 45.8679 6.096 46.8599 7.072C47.8519 8.032 48.3479 9.424 48.3479 11.248V19H46.1879V11.56C46.1879 10.248 45.8599 9.248 45.2039 8.56C44.5479 7.856 43.6519 7.504 42.5159 7.504C41.3639 7.504 40.4439 7.864 39.7559 8.584C39.0839 9.304 38.7479 10.352 38.7479 11.728V19H36.5639V5.848H38.7479V7.72C39.1799 7.048 39.7639 6.528 40.4999 6.16C41.2519 5.792 42.0759 5.608 42.9719 5.608ZM58.0115 19.216C57.0035 19.216 56.0995 19.048 55.2995 18.712C54.4995 18.36 53.8675 17.88 53.4035 17.272C52.9395 16.648 52.6835 15.936 52.6355 15.136H54.8915C54.9555 15.792 55.2595 16.328 55.8035 16.744C56.3635 17.16 57.0915 17.368 57.9875 17.368C58.8195 17.368 59.4755 17.184 59.9555 16.816C60.4355 16.448 60.6755 15.984 60.6755 15.424C60.6755 14.848 60.4195 14.424 59.9075 14.152C59.3955 13.864 58.6035 13.584 57.5315 13.312C56.5555 13.056 55.7555 12.8 55.1315 12.544C54.5235 12.272 53.9955 11.88 53.5475 11.368C53.1155 10.84 52.8995 10.152 52.8995 9.304C52.8995 8.632 53.0995 8.016 53.4995 7.456C53.8995 6.896 54.4675 6.456 55.2035 6.136C55.9395 5.8 56.7795 5.632 57.7235 5.632C59.1795 5.632 60.3555 6 61.2515 6.736C62.1475 7.472 62.6275 8.48 62.6915 9.76H60.5075C60.4595 9.072 60.1795 8.52 59.6675 8.104C59.1715 7.688 58.4995 7.48 57.6515 7.48C56.8675 7.48 56.2435 7.648 55.7795 7.984C55.3155 8.32 55.0835 8.76 55.0835 9.304C55.0835 9.736 55.2195 10.096 55.4915 10.384C55.7795 10.656 56.1315 10.88 56.5475 11.056C56.9795 11.216 57.5715 11.4 58.3235 11.608C59.2675 11.864 60.0355 12.12 60.6275 12.376C61.2195 12.616 61.7235 12.984 62.1395 13.48C62.5715 13.976 62.7955 14.624 62.8115 15.424C62.8115 16.144 62.6115 16.792 62.2115 17.368C61.8115 17.944 61.2435 18.4 60.5075 18.736C59.7875 19.056 58.9555 19.216 58.0115 19.216ZM92.141 2.392V19H89.957V6.616L84.437 19H82.901L77.357 6.592V19H75.173V2.392H77.525L83.669 16.12L89.813 2.392H92.141ZM96.4689 12.376C96.4689 11.032 96.7409 9.856 97.2849 8.848C97.8289 7.824 98.5729 7.032 99.5169 6.472C100.477 5.912 101.541 5.632 102.709 5.632C103.861 5.632 104.861 5.88 105.709 6.376C106.557 6.872 107.189 7.496 107.605 8.248V5.848H109.813V19H107.605V16.552C107.173 17.32 106.525 17.96 105.661 18.472C104.813 18.968 103.821 19.216 102.685 19.216C101.517 19.216 100.461 18.928 99.5169 18.352C98.5729 17.776 97.8289 16.968 97.2849 15.928C96.7409 14.888 96.4689 13.704 96.4689 12.376ZM107.605 12.4C107.605 11.408 107.405 10.544 107.005 9.808C106.605 9.072 106.061 8.512 105.373 8.128C104.701 7.728 103.957 7.528 103.141 7.528C102.325 7.528 101.581 7.72 100.909 8.104C100.237 8.488 99.7009 9.048 99.3009 9.784C98.9009 10.52 98.7009 11.384 98.7009 12.376C98.7009 13.384 98.9009 14.264 99.3009 15.016C99.7009 15.752 100.237 16.32 100.909 16.72C101.581 17.104 102.325 17.296 103.141 17.296C103.957 17.296 104.701 17.104 105.373 16.72C106.061 16.32 106.605 15.752 107.005 15.016C107.405 14.264 107.605 13.392 107.605 12.4ZM117.608 7.648V15.4C117.608 16.04 117.744 16.496 118.016 16.768C118.288 17.024 118.76 17.152 119.432 17.152H121.04V19H119.072C117.856 19 116.944 18.72 116.336 18.16C115.728 17.6 115.424 16.68 115.424 15.4V7.648H113.72V5.848H115.424V2.536H117.608V5.848H121.04V7.648H117.608ZM127.31 7.984C127.694 7.232 128.238 6.648 128.942 6.232C129.662 5.816 130.534 5.608 131.558 5.608V7.864H130.982C128.534 7.864 127.31 9.192 127.31 11.848V19H125.126V5.848H127.31V7.984ZM136.647 3.712C136.231 3.712 135.879 3.568 135.591 3.28C135.303 2.992 135.159 2.64 135.159 2.224C135.159 1.808 135.303 1.456 135.591 1.168C135.879 0.879999 136.231 0.735999 136.647 0.735999C137.047 0.735999 137.383 0.879999 137.655 1.168C137.943 1.456 138.087 1.808 138.087 2.224C138.087 2.64 137.943 2.992 137.655 3.28C137.383 3.568 137.047 3.712 136.647 3.712ZM137.703 5.848V19H135.519V5.848H137.703ZM158.681 5.608C159.705 5.608 160.617 5.824 161.417 6.256C162.217 6.672 162.849 7.304 163.313 8.152C163.777 9 164.009 10.032 164.009 11.248V19H161.849V11.56C161.849 10.248 161.521 9.248 160.865 8.56C160.225 7.856 159.353 7.504 158.249 7.504C157.113 7.504 156.209 7.872 155.537 8.608C154.865 9.328 154.529 10.376 154.529 11.752V19H152.369V11.56C152.369 10.248 152.041 9.248 151.385 8.56C150.745 7.856 149.873 7.504 148.769 7.504C147.633 7.504 146.729 7.872 146.057 8.608C145.385 9.328 145.049 10.376 145.049 11.752V19H142.865V5.848H145.049V7.744C145.481 7.056 146.057 6.528 146.777 6.16C147.513 5.792 148.321 5.608 149.201 5.608C150.305 5.608 151.281 5.856 152.129 6.352C152.977 6.848 153.609 7.576 154.025 8.536C154.393 7.608 155.001 6.888 155.849 6.376C156.697 5.864 157.641 5.608 158.681 5.608ZM174.768 19.216C173.536 19.216 172.416 18.936 171.408 18.376C170.416 17.816 169.632 17.024 169.056 16C168.496 14.96 168.216 13.76 168.216 12.4C168.216 11.056 168.504 9.872 169.08 8.848C169.672 7.808 170.472 7.016 171.48 6.472C172.488 5.912 173.616 5.632 174.864 5.632C176.112 5.632 177.24 5.912 178.248 6.472C179.256 7.016 180.048 7.8 180.624 8.824C181.216 9.848 181.512 11.04 181.512 12.4C181.512 13.76 181.208 14.96 180.6 16C180.008 17.024 179.2 17.816 178.176 18.376C177.152 18.936 176.016 19.216 174.768 19.216ZM174.768 17.296C175.552 17.296 176.288 17.112 176.976 16.744C177.664 16.376 178.216 15.824 178.632 15.088C179.064 14.352 179.28 13.456 179.28 12.4C179.28 11.344 179.072 10.448 178.656 9.712C178.24 8.976 177.696 8.432 177.024 8.08C176.352 7.712 175.624 7.528 174.84 7.528C174.04 7.528 173.304 7.712 172.632 8.08C171.976 8.432 171.448 8.976 171.048 9.712C170.648 10.448 170.448 11.344 170.448 12.4C170.448 13.472 170.64 14.376 171.024 15.112C171.424 15.848 171.952 16.4 172.608 16.768C173.264 17.12 173.984 17.296 174.768 17.296ZM192.231 5.608C193.831 5.608 195.127 6.096 196.119 7.072C197.111 8.032 197.607 9.424 197.607 11.248V19H195.447V11.56C195.447 10.248 195.119 9.248 194.463 8.56C193.807 7.856 192.911 7.504 191.775 7.504C190.623 7.504 189.703 7.864 189.015 8.584C188.343 9.304 188.007 10.352 188.007 11.728V19H185.823V5.848H188.007V7.72C188.439 7.048 189.023 6.528 189.759 6.16C190.511 5.792 191.335 5.608 192.231 5.608ZM213.943 5.848L206.023 25.192H203.767L206.359 18.856L201.055 5.848H203.479L207.607 16.504L211.687 5.848H213.943Z" fill="black"/>
</svg>
