<svg width="147" height="138" viewBox="0 0 147 138" fill="none" xmlns="http://www.w3.org/2000/svg">
<path fill-rule="evenodd" clip-rule="evenodd" d="M69.1094 5.54253C70.4184 4.31322 70.3716 2.27626 69.0049 0.992479C67.6381 -0.291302 65.469 -0.335451 64.16 0.893861C62.851 2.12317 62.8978 4.16013 64.2645 5.44391C65.6313 6.72769 67.8004 6.77184 69.1094 5.54253ZM81.8376 17.4947C83.1466 16.2654 83.0998 14.2285 81.733 12.9456C80.3663 11.6618 78.1971 11.6177 76.8881 12.847C75.5791 14.0763 75.626 16.1133 76.9927 17.3971C78.3595 18.6808 80.5286 18.724 81.8376 17.4947ZM94.5655 29.4479C95.8745 28.2186 95.8275 26.1816 94.4605 24.8988C93.0945 23.615 90.9251 23.5708 89.6161 24.8002C88.3071 26.0295 88.3539 28.0664 89.7206 29.3502C91.0874 30.634 93.2565 30.6772 94.5655 29.4479ZM107.293 41.401C108.602 40.1717 108.555 38.1348 107.188 36.851C105.822 35.5681 103.652 35.524 102.343 36.7533C101.034 37.9827 101.081 40.0196 102.448 41.3034C103.815 42.5862 105.984 42.6303 107.293 41.401ZM120.021 53.3542C121.33 52.1249 121.283 50.0879 119.916 48.8042C118.55 47.5204 116.38 47.4772 115.071 48.7065C113.762 49.9358 113.809 51.9728 115.176 53.2565C116.543 54.5394 118.712 54.5835 120.021 53.3542ZM132.749 65.3074C134.058 64.0781 134.011 62.0411 132.644 60.7573C131.277 59.4745 129.108 59.4303 127.799 60.6596C126.49 61.889 126.537 63.9259 127.904 65.2097C129.271 66.4925 131.44 66.5367 132.749 65.3074ZM145.372 72.7105C146.739 73.9942 146.786 76.0312 145.477 77.2605C144.168 78.4898 141.999 78.4457 140.632 77.1619C139.265 75.8791 139.218 73.8421 140.527 72.6128C141.836 71.3835 144.005 71.4267 145.372 72.7105ZM132.73 84.5829C134.097 85.8666 134.144 87.9036 132.834 89.1329C131.525 90.3622 129.356 90.319 127.99 89.0352C126.623 87.7514 126.576 85.7145 127.885 84.4852C129.194 83.2559 131.363 83.3 132.73 84.5829ZM120.194 101.004C121.503 99.775 121.456 97.7381 120.089 96.4543C118.722 95.1715 116.553 95.1273 115.244 96.3566C113.935 97.5859 113.982 99.6229 115.349 100.907C116.715 102.19 118.885 102.234 120.194 101.004ZM107.447 108.328C108.813 109.611 108.86 111.648 107.551 112.878C106.242 114.107 104.073 114.063 102.706 112.779C101.34 111.495 101.293 109.458 102.602 108.229C103.911 107 106.08 107.044 107.447 108.328ZM94.9095 124.75C96.2185 123.521 96.1715 121.484 94.8045 120.2C93.4385 118.916 91.269 118.872 89.96 120.101C88.651 121.331 88.6978 123.369 90.0645 124.651C91.4313 125.935 93.6005 125.979 94.9095 124.75ZM82.1639 132.071C83.5307 133.355 83.5775 135.392 82.2685 136.622C80.9595 137.851 78.7904 137.807 77.4236 136.523C76.0569 135.239 76.0101 133.202 77.3191 131.973C78.6281 130.744 80.7972 130.788 82.1639 132.071ZM120.002 72.6297C121.369 73.9135 121.416 75.9504 120.107 77.1798C118.798 78.4091 116.628 78.3659 115.262 77.0821C113.895 75.7983 113.848 73.7613 115.157 72.532C116.466 71.3027 118.635 71.3469 120.002 72.6297ZM107.466 89.0512C108.775 87.8219 108.728 85.7849 107.361 84.5011C105.994 83.2183 103.825 83.1742 102.516 84.4035C101.207 85.6328 101.254 87.6697 102.621 88.9535C103.987 90.2373 106.157 90.2805 107.466 89.0512ZM94.7195 96.3745C96.0855 97.6583 96.1325 99.6952 94.8235 100.925C93.5145 102.154 91.3457 102.11 89.9789 100.826C88.6122 99.5421 88.5653 97.5052 89.8743 96.2759C91.1833 95.0465 93.3525 95.0907 94.7195 96.3745ZM82.1815 112.797C83.4905 111.568 83.4437 109.531 82.0769 108.247C80.7102 106.963 78.541 106.92 77.232 108.149C75.923 109.379 75.9699 111.415 77.3366 112.698C78.7034 113.982 80.8725 114.026 82.1815 112.797ZM69.436 120.118C70.8028 121.402 70.8496 123.439 69.5406 124.668C68.2316 125.898 66.0624 125.854 64.6957 124.57C63.3289 123.287 63.2821 121.25 64.5911 120.021C65.9001 118.791 68.0693 118.835 69.436 120.118ZM107.274 60.6775C108.641 61.9603 108.688 63.9973 107.379 65.2266C106.07 66.4569 103.9 66.4127 102.534 65.1289C101.167 63.8451 101.12 61.8082 102.429 60.5789C103.738 59.3496 105.907 59.3937 107.274 60.6775ZM94.7385 77.098C96.0475 75.8687 96.0005 73.8318 94.6335 72.5489C93.2665 71.2652 91.0977 71.221 89.7887 72.4503C88.4797 73.6796 88.5265 75.7166 89.8933 77.0004C91.26 78.2841 93.4295 78.3274 94.7385 77.098ZM81.9913 84.4213C83.358 85.7051 83.4048 87.7421 82.0958 88.9714C80.7868 90.2007 78.6177 90.1565 77.251 88.8728C75.8842 87.589 75.8374 85.552 77.1464 84.3227C78.4554 83.0934 80.6245 83.1375 81.9913 84.4213ZM69.4536 100.844C70.7626 99.6145 70.7157 97.5775 69.349 96.2937C67.9822 95.0099 65.8131 94.9667 64.5041 96.196C63.1951 97.4254 63.2419 99.4623 64.6087 100.745C65.9754 102.029 68.1446 102.073 69.4536 100.844ZM56.7081 108.165C58.0748 109.449 58.1217 111.486 56.8127 112.715C55.5037 113.945 53.3345 113.9 51.9678 112.617C50.601 111.334 50.5542 109.296 51.8632 108.067C53.1722 106.837 55.3413 106.881 56.7081 108.165ZM94.5465 48.7243C95.9135 50.0072 95.9605 52.0441 94.6515 53.2744C93.3425 54.5037 91.173 54.4596 89.8063 53.1758C88.4395 51.892 88.3927 49.855 89.7017 48.6257C91.0108 47.3964 93.1795 47.4405 94.5465 48.7243ZM82.0102 65.1449C83.3192 63.9156 83.2724 61.8786 81.9057 60.5958C80.5389 59.312 78.3698 59.2679 77.0608 60.4972C75.7518 61.7265 75.7986 63.7634 77.1653 65.0472C78.5321 66.331 80.7012 66.3742 82.0102 65.1449ZM69.2634 72.4682C70.6301 73.752 70.6769 75.7889 69.3679 77.0182C68.0589 78.2475 65.8898 78.2034 64.5231 76.9196C63.1563 75.6358 63.1095 73.5989 64.4185 72.3696C65.7275 71.1402 67.8966 71.1844 69.2634 72.4682ZM56.7256 88.8906C58.0346 87.6613 57.9878 85.6243 56.6211 84.3406C55.2543 83.0568 53.0852 83.0136 51.7762 84.2429C50.4672 85.4722 50.514 87.5092 51.8808 88.7929C53.2475 90.0758 55.4166 90.1199 56.7256 88.8906ZM43.9802 96.212C45.3469 97.4958 45.3937 99.5327 44.0847 100.762C42.7757 101.991 40.6066 101.947 39.2399 100.663C37.8731 99.3806 37.8263 97.3436 39.1353 96.1143C40.4443 94.885 42.6134 94.9282 43.9802 96.212ZM81.8188 36.7712C83.1855 38.054 83.2323 40.0919 81.9233 41.3212C80.6143 42.5505 78.4451 42.5064 77.0783 41.2226C75.7116 39.9388 75.6648 37.9019 76.9738 36.6726C78.2828 35.4433 80.452 35.4874 81.8188 36.7712ZM69.2823 53.1927C70.5913 51.9633 70.5445 49.9254 69.1778 48.6426C67.811 47.3588 65.6419 47.3147 64.3329 48.544C63.0238 49.7733 63.0707 51.8103 64.4374 53.0941C65.8042 54.3778 67.9733 54.422 69.2823 53.1927ZM56.5354 60.515C57.9022 61.7988 57.949 63.8357 56.64 65.065C55.331 66.2944 53.1619 66.2502 51.7951 64.9665C50.4284 63.6836 50.3816 61.6457 51.6906 60.4164C52.9996 59.1871 55.1687 59.2312 56.5354 60.515ZM43.9977 76.9375C45.3067 75.7082 45.2599 73.6712 43.8932 72.3874C42.5264 71.1046 40.3573 71.0604 39.0483 72.2897C37.7393 73.5191 37.7861 75.556 39.1528 76.8398C40.5196 78.1226 42.6887 78.1668 43.9977 76.9375ZM31.2522 84.2589C32.619 85.5426 32.6658 87.5796 31.3568 88.8089C30.0478 90.0382 27.8787 89.9941 26.5119 88.7112C25.1452 87.4275 25.0984 85.3905 26.4074 84.1612C27.7164 82.9319 29.8855 82.9751 31.2522 84.2589ZM69.0908 24.818C70.4576 26.1018 70.5044 28.1388 69.1953 29.3681C67.8863 30.5974 65.7172 30.5532 64.3504 29.2694C62.9836 27.9857 62.9368 25.9487 64.2459 24.7194C65.5549 23.4901 67.724 23.5342 69.0908 24.818ZM56.5544 41.2395C57.8634 40.0102 57.8166 37.9732 56.4498 36.6895C55.0831 35.4057 52.9139 35.3616 51.6049 36.5909C50.2959 37.8202 50.3427 39.8571 51.7095 41.1409C53.0762 42.4247 55.2454 42.4688 56.5544 41.2395ZM43.8075 48.5618C45.1743 49.8456 45.2211 51.8826 43.9121 53.1119C42.6031 54.3412 40.434 54.2971 39.0672 53.0133C37.7004 51.7305 37.6536 49.6935 38.9626 48.4642C40.2716 47.2349 42.4408 47.2781 43.8075 48.5618ZM31.2698 64.9843C32.5788 63.755 32.532 61.718 31.1652 60.4342C29.7985 59.1514 27.6293 59.1073 26.3203 60.3366C25.0113 61.5659 25.0581 63.6029 26.4249 64.8866C27.7917 66.1695 29.9608 66.2136 31.2698 64.9843ZM18.5243 72.3057C19.8911 73.5895 19.9379 75.6264 18.6289 76.8558C17.3199 78.0851 15.1508 78.0409 13.784 76.7581C12.4172 75.4743 12.3704 73.4373 13.6794 72.208C14.9884 70.9787 17.1576 71.0229 18.5243 72.3057ZM56.3636 12.8639C57.7303 14.1477 57.7771 16.1847 56.4681 17.414C55.1591 18.6433 52.9899 18.5991 51.6232 17.3163C50.2564 16.0325 50.2096 13.9956 51.5187 12.7662C52.8277 11.5369 54.9968 11.5801 56.3636 12.8639ZM43.8259 29.2864C45.1349 28.057 45.0881 26.0201 43.7214 24.7363C42.3546 23.4535 40.1855 23.4093 38.8765 24.6386C37.5675 25.8679 37.6143 27.9049 38.9811 29.1887C40.3478 30.4715 42.5169 30.5157 43.8259 29.2864ZM31.08 36.6087C32.4467 37.8925 32.4935 39.9294 31.1845 41.1587C29.8755 42.3881 27.7064 42.3439 26.3396 41.0602C24.9729 39.7764 24.9261 37.7394 26.2351 36.5101C27.5441 35.2808 29.7132 35.3249 31.08 36.6087ZM18.5425 53.0311C19.8515 51.8018 19.8047 49.7649 18.4379 48.4811C17.0712 47.1973 14.902 47.1532 13.593 48.3825C12.284 49.6118 12.3308 51.6488 13.6976 52.9325C15.0643 54.2163 17.2335 54.2604 18.5425 53.0311ZM5.79678 60.3526C7.16358 61.6363 7.21038 63.6733 5.90138 64.9026C4.59238 66.1319 2.42328 66.0878 1.05649 64.804C-0.310261 63.5211 -0.357071 61.4832 0.951929 60.2539C2.26098 59.0246 4.43008 59.0688 5.79678 60.3526Z" fill="#00B5CE"/>
</svg>
