<svg width="140" height="60" viewBox="0 0 140 60" fill="none" xmlns="http://www.w3.org/2000/svg">
<path d="M11.552 17H13.736V0.271999H11.552V7.616H3.032V0.271999H0.848V17H3.032V9.416H11.552V17ZM18.0658 10.376C18.0658 14.456 20.7778 17.216 24.2818 17.216C26.7058 17.216 28.4098 15.968 29.2018 14.552V17H31.4098V3.848H29.2018V6.248C28.4338 4.88 26.7538 3.632 24.3058 3.632C20.7778 3.632 18.0658 6.272 18.0658 10.376ZM29.2018 10.4C29.2018 13.496 27.1378 15.296 24.7378 15.296C22.3378 15.296 20.2978 13.472 20.2978 10.376C20.2978 7.28 22.3378 5.528 24.7378 5.528C27.1378 5.528 29.2018 7.352 29.2018 10.4ZM46.1645 17H48.3245V9.248C48.3245 5.48 45.9965 3.608 42.9485 3.608C41.1725 3.608 39.5885 4.352 38.7245 5.72V3.848H36.5405V17H38.7245V9.728C38.7245 6.896 40.2605 5.504 42.4925 5.504C44.7005 5.504 46.1645 6.872 46.1645 9.56V17ZM62.7881 13.424C62.6921 8.72 55.0601 10.424 55.0601 7.304C55.0601 6.248 56.0201 5.48 57.6281 5.48C59.3801 5.48 60.3881 6.44 60.4841 7.76H62.6681C62.5241 5.192 60.6041 3.632 57.7001 3.632C54.7721 3.632 52.8761 5.288 52.8761 7.304C52.8761 12.2 60.6521 10.496 60.6521 13.424C60.6521 14.504 59.6921 15.368 57.9641 15.368C56.1161 15.368 54.9881 14.408 54.8681 13.136H52.6121C52.7561 15.536 54.9161 17.216 57.9881 17.216C60.8921 17.216 62.7881 15.584 62.7881 13.424ZM0.848 53H3.032V40.592L8.576 53H10.112L15.632 40.616V53H17.816V36.392H15.488L9.344 50.12L3.2 36.392H0.848V53ZM22.1439 46.376C22.1439 50.456 24.8559 53.216 28.3599 53.216C30.7839 53.216 32.4879 51.968 33.2799 50.552V53H35.4879V39.848H33.2799V42.248C32.5119 40.88 30.8319 39.632 28.3839 39.632C24.8559 39.632 22.1439 42.272 22.1439 46.376ZM33.2799 46.4C33.2799 49.496 31.2159 51.296 28.8159 51.296C26.4159 51.296 24.3759 49.472 24.3759 46.376C24.3759 43.28 26.4159 41.528 28.8159 41.528C31.2159 41.528 33.2799 43.352 33.2799 46.4ZM41.0986 49.4C41.0986 52.04 42.4186 53 44.7466 53H46.7146V51.152H45.1066C43.7626 51.152 43.2826 50.696 43.2826 49.4V41.648H46.7146V39.848H43.2826V36.536H41.0986V39.848H39.3946V41.648H41.0986V49.4ZM52.9848 45.848C52.9848 42.8 54.5688 41.864 56.6568 41.864H57.2328V39.608C55.1448 39.608 53.7288 40.52 52.9848 41.984V39.848H50.8008V53H52.9848V45.848ZM61.1939 53H63.3779V39.848H61.1939V53ZM62.3219 37.712C63.1139 37.712 63.7619 37.064 63.7619 36.224C63.7619 35.384 63.1139 34.736 62.3219 34.736C61.4819 34.736 60.8339 35.384 60.8339 36.224C60.8339 37.064 61.4819 37.712 62.3219 37.712ZM87.5242 53H89.6842V45.248C89.6842 41.48 87.3562 39.608 84.3562 39.608C82.3402 39.608 80.4682 40.64 79.7002 42.536C78.8362 40.568 77.0362 39.608 74.8762 39.608C73.1482 39.608 71.5882 40.352 70.7242 41.744V39.848H68.5402V53H70.7242V45.752C70.7242 42.92 72.2362 41.504 74.4442 41.504C76.6042 41.504 78.0442 42.872 78.0442 45.56V53H80.2042V45.752C80.2042 42.92 81.7162 41.504 83.9242 41.504C86.0842 41.504 87.5242 42.872 87.5242 45.56V53ZM107.187 46.4C107.187 42.248 104.283 39.632 100.539 39.632C96.8187 39.632 93.8907 42.248 93.8907 46.4C93.8907 50.576 96.7227 53.216 100.443 53.216C104.187 53.216 107.187 50.576 107.187 46.4ZM96.1227 46.4C96.1227 43.088 98.2107 41.528 100.515 41.528C102.771 41.528 104.955 43.088 104.955 46.4C104.955 49.736 102.723 51.296 100.443 51.296C98.1627 51.296 96.1227 49.736 96.1227 46.4ZM121.122 53H123.282V45.248C123.282 41.48 120.954 39.608 117.906 39.608C116.13 39.608 114.546 40.352 113.682 41.72V39.848H111.498V53H113.682V45.728C113.682 42.896 115.218 41.504 117.45 41.504C119.658 41.504 121.122 42.872 121.122 45.56V53ZM133.282 50.504L129.154 39.848H126.73L132.034 52.856L129.442 59.192H131.698L139.618 39.848H137.362L133.282 50.504Z" fill="black"/>
</svg>
