<?xml version="1.0" encoding="UTF-8" standalone="no"?>
<!DOCTYPE svg PUBLIC "-//W3C//DTD SVG 1.1//EN" "http://www.w3.org/Graphics/SVG/1.1/DTD/svg11.dtd">
<svg version="1.1" xmlns="http://www.w3.org/2000/svg" xmlns:xlink="http://www.w3.org/1999/xlink" preserveAspectRatio="xMidYMid meet" viewBox="98.83999488 39.96035840000059 444.32001024000004 434.07923200000005" width="440.32" height="430.08"><defs><path d="M202.4 51.2C202.4 59.9 202.4 129.54 202.4 138.24C202.4 143.9 206.98 148.48 212.64 148.48C218.3 148.48 222.88 143.9 222.88 138.24C222.88 129.54 222.88 59.9 222.88 51.2C222.88 45.54 218.3 40.96 212.64 40.96C206.98 40.96 202.4 45.54 202.4 51.2ZM417.44 51.2C417.44 59.9 417.44 129.54 417.44 138.24C417.44 143.9 422.02 148.48 427.68 148.48C433.34 148.48 437.92 143.9 437.92 138.24C437.92 129.54 437.92 59.9 437.92 51.2C437.92 45.54 433.34 40.96 427.68 40.96C422.02 40.96 417.44 45.54 417.44 51.2ZM140.96 71.68C118.2 71.68 99.84 90.04 99.84 112.8C99.84 118.93 99.84 149.6 99.84 204.8L540.16 204.8C540.16 149.6 540.16 118.93 540.16 112.8C540.16 90.04 521.8 71.68 499.04 71.68C497 71.68 486.82 71.68 468.48 71.68L448.16 71.68C448.16 97.89 448.16 112.45 448.16 115.36C454.44 120.99 458.4 129.15 458.4 138.24C458.4 155.21 444.65 168.96 427.68 168.96C410.71 168.96 396.96 155.21 396.96 138.24C396.96 129.15 400.92 120.99 407.2 115.36C407.2 112.45 407.2 97.89 407.2 71.68L232.96 71.68C232.96 97.79 232.96 112.3 232.96 115.2C239.34 120.83 243.36 129.06 243.36 138.24C243.36 155.21 229.61 168.96 212.64 168.96C195.67 168.96 181.92 155.21 181.92 138.24C181.92 129.23 185.82 121.14 192 115.52C192 112.6 192 97.98 192 71.68C164.78 71.68 147.77 71.68 140.96 71.68ZM99.84 225.28C99.84 348.06 99.84 416.28 99.84 429.92C99.84 452.68 118.2 471.04 140.96 471.04C176.77 471.04 463.23 471.04 499.04 471.04C521.8 471.04 540.16 452.68 540.16 429.92C540.16 416.28 540.16 348.06 540.16 225.28L99.84 225.28Z" id="bPd9rLmbU"></path></defs><g><g><use xlink:href="#bPd9rLmbU" opacity="1" fill="#4adee4" fill-opacity="1"></use><g><use xlink:href="#bPd9rLmbU" opacity="1" fill-opacity="0" stroke="#000000" stroke-width="1" stroke-opacity="0"></use></g></g></g></svg>