<?xml version="1.0" encoding="UTF-8" standalone="no"?>
<!DOCTYPE svg PUBLIC "-//W3C//DTD SVG 1.1//EN" "http://www.w3.org/Graphics/SVG/1.1/DTD/svg11.dtd">
<svg version="1.1" xmlns="http://www.w3.org/2000/svg" xmlns:xlink="http://www.w3.org/1999/xlink" preserveAspectRatio="xMidYMid meet" viewBox="55.93326278294283 4.818285651039501 527.6692436144499 510.1817328461464" width="523.67" height="506.18"><defs><path d="M211.59 216.93C233.75 155.93 301.09 124.48 361.99 146.68C422.89 168.88 454.29 236.33 432.12 297.33C409.96 358.32 342.62 389.77 281.72 367.57C220.82 345.37 189.42 277.92 211.59 216.93ZM421.42 40.36C419.55 45.49 404.62 86.59 402.75 91.73C398.63 103.08 386.1 108.93 374.77 104.8C363.44 100.67 357.6 88.12 361.72 76.77C363.59 71.63 378.52 30.54 380.39 25.4C384.51 14.05 397.04 8.2 408.37 12.33C419.7 16.46 425.54 29.01 421.42 40.36ZM530.07 142.53C525.54 145.59 489.35 170.04 484.82 173.1C474.82 179.85 461.26 177.21 454.51 167.2C447.77 157.19 450.41 143.6 460.4 136.84C464.93 133.79 501.13 109.33 505.65 106.27C515.65 99.52 529.22 102.16 535.96 112.18C542.7 122.19 540.06 135.78 530.07 142.53ZM558.01 289.16C552.55 288.97 508.92 287.44 503.46 287.25C491.41 286.83 481.99 276.7 482.41 264.63C482.83 252.56 492.94 243.12 504.99 243.54C510.44 243.73 554.08 245.26 559.53 245.45C571.58 245.87 581.01 256 580.59 268.07C580.17 280.14 570.06 289.58 558.01 289.16ZM494.57 424.23C490.27 420.86 455.86 393.94 451.56 390.57C442.06 383.14 440.37 369.4 447.8 359.88C455.22 350.36 468.94 348.67 478.44 356.11C482.74 359.48 517.15 386.4 521.45 389.77C530.95 397.2 532.63 410.94 525.21 420.46C517.79 429.98 504.07 431.66 494.57 424.23ZM363.98 496.15C362.47 490.9 350.44 448.86 348.93 443.61C345.61 432 352.31 419.89 363.9 416.56C375.49 413.23 387.58 419.94 390.9 431.55C392.41 436.81 404.44 478.85 405.95 484.1C409.27 495.71 402.57 507.82 390.98 511.15C379.39 514.48 367.3 507.76 363.98 496.15ZM216.12 477.46C217.98 472.32 232.92 431.23 234.78 426.09C238.91 414.74 251.44 408.89 262.77 413.02C274.1 417.15 279.94 429.7 275.81 441.05C273.95 446.18 259.01 487.28 257.15 492.42C253.02 503.77 240.5 509.62 229.17 505.49C217.84 501.36 211.99 488.81 216.12 477.46ZM107.47 375.29C111.99 372.23 148.19 347.77 152.72 344.72C162.71 337.96 176.28 340.61 183.02 350.62C189.77 360.63 187.13 374.22 177.13 380.97C172.61 384.03 136.41 408.49 131.88 411.54C121.89 418.3 108.32 415.66 101.58 405.64C94.83 395.63 97.47 382.04 107.47 375.29ZM79.53 228.66C84.98 228.85 128.62 230.38 134.07 230.57C146.12 230.99 155.55 241.12 155.13 253.19C154.71 265.25 144.6 274.7 132.55 274.28C127.09 274.09 83.46 272.56 78 272.37C65.95 271.95 56.53 261.82 56.95 249.75C57.37 237.68 67.48 228.24 79.53 228.66ZM142.97 93.59C147.27 96.95 181.68 123.88 185.98 127.25C195.48 134.68 197.16 148.42 189.74 157.94C182.32 167.46 168.6 169.14 159.1 161.71C154.8 158.34 120.39 131.42 116.09 128.05C106.59 120.62 104.9 106.87 112.32 97.36C119.75 87.84 133.47 86.15 142.97 93.59ZM273.56 21.66C275.06 26.92 287.1 68.96 288.6 74.21C291.93 85.82 285.23 97.93 273.64 101.26C262.05 104.59 249.96 97.88 246.63 86.27C245.13 81.01 233.09 38.97 231.59 33.72C228.26 22.11 234.97 10 246.56 6.67C258.15 3.34 270.24 10.05 273.56 21.66Z" id="d1laJwfIrh"></path></defs><g><g><use xlink:href="#d1laJwfIrh" opacity="1" fill="#4adee4" fill-opacity="1"></use><g><use xlink:href="#d1laJwfIrh" opacity="1" fill-opacity="0" stroke="#000000" stroke-width="1" stroke-opacity="0"></use></g></g></g></svg>