<svg xmlns="http://www.w3.org/2000/svg" xmlns:xlink="http://www.w3.org/1999/xlink" viewBox="0 0 65.25 58.94"><defs><clipPath id="clip-path" transform="translate(0 -0.16)"><rect width="65.25" height="59.25" style="fill:none"/></clipPath><clipPath id="clip-path-2" transform="translate(0 -0.16)"><rect x="17.85" y="17.54" width="30.75" height="28.5" style="fill:none"/></clipPath></defs><title>Asset 13</title><g id="Layer_2" data-name="Layer 2"><g id="Layer_1-2" data-name="Layer 1"><g style="clip-path:url(#clip-path)"><path d="M65,14.71c-3.68-19-26.72-19.29-32.41-1.55C26.94-4.58,3.9-4.27.22,14.71-3.12,31.93,32.63,59.09,32.63,59.09S68.37,31.93,65,14.71Z" transform="translate(0 -0.16)" style="fill:#4a5d6a"/></g><g style="clip-path:url(#clip-path-2)"><path d="M48.5,24.62c-1.73-9.13-12.59-9.28-15.27-.75-2.68-8.53-13.54-8.38-15.27.75C16.38,32.9,33.23,46,33.23,46S50.07,32.9,48.5,24.62Z" transform="translate(0 -0.16)" style="fill:#48cdf7"/></g></g></g></svg>