<?xml version="1.0" encoding="UTF-8" standalone="no"?>
<!DOCTYPE svg PUBLIC "-//W3C//DTD SVG 1.1//EN" "http://www.w3.org/Graphics/SVG/1.1/DTD/svg11.dtd">
<svg version="1.1" xmlns="http://www.w3.org/2000/svg" xmlns:xlink="http://www.w3.org/1999/xlink" preserveAspectRatio="xMidYMid meet" viewBox="101.60302768357923 147.011825049597 441.33846441757345 414.177641526748" width="437.34" height="410.18"><defs><path d="M330.73 148.53L333.73 148.94L336.7 149.47L339.62 150.12L342.49 150.88L345.32 151.74L348.11 152.71L350.84 153.79L353.52 154.97L356.14 156.25L358.7 157.63L361.2 159.1L363.64 160.67L366.01 162.32L368.32 164.06L370.55 165.89L372.72 167.8L374.8 169.79L376.81 171.86L378.74 174.01L380.59 176.23L382.35 178.52L384.02 180.88L385.61 183.31L387.1 185.8L388.5 188.35L389.8 190.96L391 193.63L392.1 196.35L393.1 199.12L393.99 201.95L394.77 204.82L395.43 207.74L395.99 210.69L396.43 213.69L396.75 216.73L396.95 219.8L397.02 222.9L397.01 224.54L396.97 226.17L396.89 227.79L396.78 229.4L396.63 231L396.46 232.59L396.25 234.17L396.01 235.74L395.74 237.3L395.44 238.85L395.1 240.39L394.74 241.92L394.34 243.43L393.92 244.93L393.46 246.42L392.98 247.9L392.46 249.36L391.92 250.81L391.35 252.24L390.75 253.66L390.12 255.07L389.46 256.46L388.78 257.83L388.07 259.19L387.33 260.53L386.57 261.86L385.78 263.17L384.96 264.46L384.12 265.73L383.25 266.99L382.36 268.22L381.44 269.44L380.5 270.64L379.53 271.82L378.54 272.98L377.53 274.12L376.49 275.24L375.43 276.34L374.35 277.41L373.25 278.47L444.66 407.78L444.81 407.74L445.27 407.63L445.73 407.52L446.2 407.41L446.67 407.31L447.14 407.21L447.61 407.11L448.09 407.02L448.57 406.92L449.05 406.83L449.53 406.74L450.01 406.66L450.5 406.58L450.98 406.5L451.47 406.42L451.96 406.35L452.45 406.28L452.94 406.21L453.43 406.15L453.93 406.08L454.42 406.03L454.91 405.97L455.4 405.92L455.9 405.87L456.39 405.83L456.88 405.79L457.38 405.75L457.87 405.71L458.36 405.68L458.85 405.66L459.34 405.63L459.82 405.61L460.31 405.6L460.79 405.59L461.28 405.58L461.76 405.58L464.86 405.66L467.94 405.87L470.97 406.21L473.98 406.65L474.13 406.68L476.65 407.03L479.62 407.56L482.54 408.21L485.41 408.96L488.25 409.83L491.03 410.8L493.76 411.88L496.44 413.06L499.06 414.34L501.62 415.71L504.12 417.19L506.56 418.75L508.94 420.41L511.24 422.15L513.48 423.98L515.64 425.89L517.72 427.88L519.73 429.95L521.66 432.1L523.51 434.32L525.27 436.61L526.94 438.97L528.53 441.39L530.02 443.88L531.42 446.44L532.72 449.05L533.92 451.71L535.02 454.44L536.02 457.21L536.91 460.03L537.69 462.91L538.35 465.82L538.91 468.78L539.35 471.78L539.67 474.81L539.87 477.89L539.94 480.99L539.89 484.09L539.72 487.17L539.42 490.21L539.01 493.21L538.48 496.17L537.83 499.09L537.08 501.97L536.21 504.8L535.24 507.58L534.16 510.31L532.98 512.99L531.7 515.61L530.32 518.18L528.85 520.68L527.29 523.12L525.63 525.49L523.89 527.8L522.06 530.03L520.15 532.19L518.16 534.28L516.09 536.29L513.94 538.22L511.72 540.06L509.43 541.83L507.07 543.5L504.65 545.08L502.15 546.58L499.6 547.97L496.99 549.28L494.32 550.48L491.6 551.58L488.83 552.57L486 553.46L483.13 554.24L480.22 554.91L477.26 555.46L474.26 555.9L471.22 556.22L470.54 556.27L468.57 556.59L466.51 556.84L464.45 556.98L462.38 557.04L459.27 556.99L456.19 556.82L453.15 556.52L450.14 556.11L447.17 555.58L444.24 554.93L441.35 554.18L438.51 553.31L435.71 552.34L432.97 551.26L430.28 550.08L427.64 548.8L425.06 547.42L422.54 545.95L420.08 544.39L417.69 542.73L415.36 540.99L413.11 539.16L410.93 537.25L408.82 535.26L406.79 533.19L404.84 531.04L402.98 528.82L401.19 526.53L399.5 524.17L397.9 521.75L396.39 519.26L394.97 516.7L393.66 514.09L392.44 511.43L391.32 508.7L390.32 505.93L389.41 503.11L388.62 500.23L387.95 497.32L387.38 494.36L386.94 491.36L386.61 488.33L386.41 485.25L386.34 482.15L386.35 480.51L386.39 478.89L386.48 477.27L386.59 475.66L386.74 474.06L386.93 472.46L387.15 470.88L387.4 469.31L387.68 467.75L388 466.2L388.34 464.66L388.72 463.14L389.13 461.62L389.57 460.12L390.04 458.63L390.54 457.16L391.06 455.69L391.62 454.24L392.2 452.81L392.81 451.39L393.45 449.99L394.11 448.6L394.8 447.22L395.52 445.86L396.26 444.52L397.03 443.2L397.82 441.89L398.63 440.6L399.47 439.32L400.33 438.07L401.22 436.83L402.12 435.61L403.05 434.41L404 433.23L404.97 432.07L405.96 430.94L406.97 429.82L407.99 428.72L409.04 427.64L410.11 426.59L338.5 296.92L338.15 297L337.69 297.11L337.22 297.21L336.75 297.31L336.28 297.41L335.8 297.5L335.32 297.6L334.84 297.69L334.36 297.77L333.88 297.86L333.39 297.94L332.9 298.02L332.42 298.1L331.93 298.17L331.44 298.24L330.95 298.31L330.45 298.37L329.96 298.43L329.47 298.49L328.98 298.55L328.48 298.6L327.99 298.65L327.5 298.69L327 298.73L326.51 298.77L326.02 298.8L325.53 298.83L325.04 298.86L324.55 298.89L324.06 298.9L323.58 298.92L323.09 298.93L322.61 298.94L322.13 298.94L321.65 298.94L321.17 298.94L320.69 298.93L320.53 298.93L320.36 298.93L319.88 298.95L319.4 298.95L318.92 298.96L318.44 298.96L317.96 298.95L317.47 298.95L316.99 298.93L316.5 298.92L316.01 298.9L315.52 298.88L315.03 298.85L314.54 298.82L314.05 298.79L313.55 298.75L313.06 298.71L312.57 298.66L312.07 298.62L311.58 298.57L311.09 298.51L310.59 298.45L310.1 298.39L309.61 298.33L309.12 298.26L308.63 298.19L308.14 298.12L307.65 298.05L307.17 297.97L306.68 297.89L306.2 297.8L305.72 297.72L305.24 297.63L304.76 297.54L304.29 297.44L303.82 297.34L303.35 297.25L302.88 297.14L302.54 297.07L231.99 427.31L233.06 428.36L234.12 429.43L235.16 430.52L236.18 431.63L237.17 432.76L238.15 433.91L239.11 435.08L240.05 436.27L240.96 437.48L241.86 438.71L242.73 439.96L243.58 441.23L244.4 442.51L245.2 443.81L245.98 445.13L246.73 446.47L247.46 447.82L248.16 449.19L248.84 450.58L249.49 451.97L250.11 453.39L250.7 454.82L251.27 456.26L251.81 457.72L252.32 459.19L252.8 460.68L253.25 462.18L253.67 463.69L254.06 465.21L254.42 466.75L254.75 468.29L255.05 469.85L255.31 471.42L255.54 473L255.74 474.59L255.9 476.19L256.03 477.8L256.13 479.42L256.19 481.05L256.21 482.68L256.16 485.79L255.99 488.86L255.69 491.9L255.27 494.9L254.73 497.86L254.07 500.78L253.31 503.66L252.43 506.49L251.44 509.27L250.35 512.01L249.15 514.68L247.86 517.3L246.46 519.87L244.97 522.37L243.39 524.81L241.72 527.18L239.95 529.49L238.11 531.72L236.18 533.88L234.16 535.97L232.07 537.98L229.91 539.91L227.67 541.76L225.36 543.52L222.98 545.19L220.53 546.78L218.03 548.27L215.46 549.67L212.83 550.97L210.15 552.17L207.41 553.27L204.62 554.26L201.79 555.15L198.9 555.93L195.98 556.6L193.01 557.16L190.01 557.6L186.97 557.92L183.89 558.11L180.79 558.19L178.71 558.15L176.65 558.02L174.59 557.79L172.61 557.48L171.93 557.44L168.89 557.15L165.89 556.73L162.93 556.2L160.01 555.56L157.13 554.8L154.3 553.94L151.52 552.96L148.79 551.89L146.11 550.71L143.49 549.43L140.92 548.05L138.42 546.58L135.98 545.01L133.61 543.36L131.3 541.62L129.07 539.79L126.91 537.88L124.82 535.88L122.81 533.81L120.88 531.67L119.04 529.45L117.27 527.16L115.6 524.8L114.02 522.37L112.52 519.88L111.12 517.33L109.82 514.72L108.62 512.05L107.52 509.33L106.53 506.55L105.64 503.73L104.86 500.86L104.19 497.94L103.64 494.98L103.2 491.99L102.88 488.95L102.68 485.88L102.6 482.77L102.65 479.67L102.83 476.6L103.12 473.56L103.54 470.56L104.07 467.59L104.71 464.67L105.47 461.79L106.33 458.96L107.31 456.18L108.38 453.45L109.56 450.77L110.84 448.15L112.22 445.59L113.69 443.09L115.26 440.65L116.91 438.27L118.65 435.97L120.48 433.73L122.39 431.57L124.39 429.49L126.46 427.48L128.6 425.55L130.82 423.7L133.11 421.94L135.47 420.26L137.9 418.68L140.39 417.19L142.94 415.79L145.55 414.49L148.22 413.29L150.94 412.19L153.72 411.19L156.54 410.3L159.41 409.52L162.33 408.86L165.29 408.3L167.8 407.93L167.96 407.9L170.96 407.43L173.99 407.07L177.06 406.84L180.17 406.72L180.65 406.72L181.13 406.73L181.62 406.74L182.1 406.75L182.59 406.76L183.08 406.78L183.57 406.81L184.06 406.83L184.55 406.86L185.04 406.9L185.54 406.93L186.03 406.97L186.52 407.02L187.02 407.07L187.51 407.12L188 407.17L188.5 407.23L188.99 407.29L189.48 407.35L189.97 407.42L190.46 407.49L190.95 407.56L191.44 407.63L191.92 407.71L192.41 407.79L192.89 407.88L193.37 407.96L193.85 408.05L194.33 408.15L194.8 408.24L195.27 408.34L195.74 408.44L196.21 408.54L196.67 408.64L197.13 408.75L197.29 408.79L267.64 278.9L266.53 277.85L265.43 276.78L264.37 275.7L263.32 274.58L262.3 273.45L261.3 272.3L260.32 271.13L259.37 269.94L258.45 268.73L257.54 267.5L256.67 266.25L255.81 264.98L254.99 263.7L254.18 262.4L253.41 261.08L252.66 259.74L251.94 258.39L251.25 257.02L250.58 255.64L249.94 254.24L249.33 252.82L248.74 251.39L248.19 249.95L247.66 248.49L247.17 247.02L246.7 245.53L246.26 244.04L245.85 242.52L245.47 241L245.13 239.47L244.81 237.92L244.53 236.36L244.27 234.79L244.05 233.21L243.86 231.62L243.71 230.02L243.58 228.41L243.49 226.79L243.44 225.17L243.41 223.53L243.46 220.43L243.64 217.35L243.93 214.31L244.35 211.31L244.88 208.35L245.52 205.43L246.28 202.55L247.14 199.72L248.12 196.94L249.19 194.21L250.37 191.53L251.65 188.91L253.03 186.35L254.5 183.84L256.07 181.4L257.72 179.03L259.46 176.73L261.29 174.49L263.2 172.33L265.2 170.24L267.27 168.23L269.41 166.3L271.63 164.46L273.92 162.7L276.28 161.02L278.71 159.44L281.2 157.94L283.75 156.55L286.36 155.25L289.03 154.04L291.75 152.94L294.53 151.95L297.35 151.06L300.22 150.28L303.14 149.61L306.1 149.06L309.09 148.62L312.13 148.3L315.2 148.1L318.31 148.02L319.91 148.05L321.51 148.01L324.62 148.06L327.69 148.24L327.69 148.24L330.73 148.53Z" id="bazGMhzLV"></path></defs><g><g><use xlink:href="#bazGMhzLV" opacity="1" fill="#4adee4" fill-opacity="1"></use><g><use xlink:href="#bazGMhzLV" opacity="1" fill-opacity="0" stroke="#000000" stroke-width="1" stroke-opacity="0"></use></g></g></g></svg>