<svg width="117" height="120" viewBox="0 0 117 120" fill="none" xmlns="http://www.w3.org/2000/svg">
<mask id="mask0" mask-type="alpha" maskUnits="userSpaceOnUse" x="0" y="0" width="117" height="120">
<path fill-rule="evenodd" clip-rule="evenodd" d="M23.56 13.0709C30.3403 3.67916 41.6727 -1.29766 52.6592 0.292833L81.2952 4.44081C91.0214 5.84835 99.0243 12.2066 102.503 21.2903L115.165 54.3472C118.644 63.4309 117.113 73.9744 111.11 82.289L93.4386 106.77C86.6603 116.162 75.3259 121.139 64.3414 119.548L35.7054 115.4C25.9771 113.992 17.9743 107.634 14.4957 98.5505L1.83547 65.4937C-1.64315 56.41 -0.114542 45.8664 5.88857 37.5518L23.56 13.0709Z" fill="white"/>
</mask>
<g mask="url(#mask0)">
<path fill-rule="evenodd" clip-rule="evenodd" d="M-95.7266 7.10564L110.955 211.336L111.806 210.364L-94.8738 6.13303L-95.7266 7.10564ZM-90.3774 4.75536L116.305 208.986L117.155 208.013L-89.5247 3.78463L-90.3774 4.75536ZM121.658 206.636L-85.0223 2.40509L-84.1716 1.43436L122.51 205.665L121.658 206.636ZM-79.6692 0.0566978L127.013 204.286L127.864 203.315L-78.8164 -0.915913L-79.6692 0.0566978ZM132.362 201.937L-74.32 -2.29358L-73.4673 -3.26616L133.213 200.965L132.362 201.937ZM-68.965 -4.64385L137.715 199.587L138.568 198.614L-68.1142 -5.61643L-68.965 -4.64385ZM143.066 197.237L-63.6159 -6.99413L-62.765 -7.96671L143.917 196.264L143.066 197.237ZM-58.2627 -9.3444L148.419 194.886L149.27 193.914L-57.41 -10.3151L-58.2627 -9.3444ZM153.768 192.536L-52.9116 -11.6947L-52.0608 -12.6654L154.619 191.563L153.768 192.536ZM-47.5586 -14.0449L159.122 190.186L159.974 189.215L-46.7077 -15.0156L-47.5586 -14.0449ZM164.473 187.836L-42.2093 -16.3933L-41.3586 -17.3659L165.323 186.865L164.473 187.836ZM-36.8543 -18.7436L169.826 185.487L170.677 184.515L-36.0035 -19.7162L-36.8543 -18.7436ZM175.175 183.137L-31.5051 -21.0939L-30.6544 -22.0665L176.026 182.164L175.175 183.137ZM-26.152 -23.4441L180.53 180.787L181.381 179.814L-25.3013 -24.4167L-26.152 -23.4441ZM185.879 178.436L-20.8029 -25.7944L-19.9501 -26.767L186.73 177.464L185.879 178.436ZM-15.4478 -28.1447L191.232 176.086L192.083 175.113L-14.597 -29.1154L-15.4478 -28.1447ZM196.581 173.736L-10.0987 -30.4931L-9.24793 -31.4657L197.434 172.765L196.581 173.736ZM-4.74557 -32.8433L201.936 171.385L202.787 170.415L-3.89484 -33.8159L-4.74557 -32.8433ZM207.286 169.037L0.603516 -35.1936L1.45631 -36.1662L208.136 168.064L207.286 169.037ZM5.95867 -37.5439L212.639 166.687L213.49 165.714L6.8094 -38.5165L5.95867 -37.5439ZM217.988 164.337L11.3078 -39.8941L12.1586 -40.8668L218.841 163.364L217.988 164.337ZM16.6609 -42.2444L223.343 161.986L224.194 161.014L17.5136 -43.217L16.6609 -42.2444ZM228.696 159.636L22.016 -44.5947L22.8667 -45.5654L229.547 158.663L228.696 159.636ZM27.3651 -46.945L234.045 157.286L234.898 156.315L28.2158 -47.9157L27.3651 -46.945ZM239.4 154.935L32.7182 -49.2934L33.569 -50.2659L240.251 153.965L239.4 154.935ZM38.0674 -51.6436L244.749 152.587L245.6 151.614L38.9201 -52.6162L38.0674 -51.6436Z" fill="#FFD112"/>
</g>
</svg>
