<?xml version="1.0"?>
<svg xmlns="http://www.w3.org/2000/svg" id="Capa_1" enable-background="new 0 0 512 512" height="512px" viewBox="0 0 512 512" width="512px"><g><g><g><path d="m97.474 346.106h317.053v129.394h-317.053z" fill="#fe7d43" data-original="#FE7D43"/><path d="m292.426 475.5h-72.853v-84.853c0-6.15 4.985-11.135 11.135-11.135h50.582c6.15 0 11.135 4.986 11.135 11.135v84.853z" fill="#fead8a" data-original="#FEAD8A"/><path d="m363.02 312.7h-214.04l22.47-149.65c6.29-41.84 42.24-72.79 84.55-72.79 42.322 0 78.25 30.95 84.55 72.79z" fill="#fe7d43" data-original="#FE7D43"/><path d="m340.55 163.05c-3.15-20.92-13.71-39.12-28.77-52.09-9.542-8.212-20.895-14.318-33.313-17.697 1.125.874 2.233 1.768 3.313 2.697 15.06 12.97 25.62 31.17 28.77 52.09l16.91 112.65c2.927 19.479-12.158 37-31.855 37h-144.371l-2.254 15h214.04z" fill="#fd6930" data-original="#FD6930"/><path d="m339.51 157.53h-167.02c2.7-12.41 8.03-23.73 15.36-33.4h136.3c7.33 9.67 12.66 20.99 15.36 33.4z" fill="#fedf30" data-original="#FEDF30"/><path d="m339.51 157.53h-27.54l-1.42-9.48c-1.28-8.48-3.79-16.5-7.31-23.92h20.91c7.33 9.67 12.66 20.99 15.36 33.4z" fill="#fed402" data-original="#FED402"/><path d="m302.98 312.7h-93.96l16.7-155.17h60.56z" fill="#fd6930" data-original="#FD6930"/><path d="m295.605 297.7h-84.972l-1.613 15h93.96l-1.668-15.508c-1.849.329-3.754.508-5.707.508z" fill="#fd5426" data-original="#FD5426"/><g fill="#fd6930"><path d="m355.74 346.11h40.38v129.39h-40.38z" data-original="#FD6930"/><path d="m340.74 346.11h40.38v129.39h-40.38z" data-original="#FD6930"/><path d="m145.88 346.11h40.38v129.39h-40.38z" data-original="#FD6930"/><path d="m130.88 346.11h40.38v129.39h-40.38z" data-original="#FD6930"/></g><path d="m439.26 504.5h-366.52c-6.502 0-11.773-6.716-11.773-15v-10c0-2.209 1.791-4 4-4h382.065c2.209 0 4 1.791 4 4v10c.001 8.284-5.27 15-11.772 15z" fill="#918291" data-original="#918291"/><path d="m248.5 62.088v-46.888c0-4.253 3.448-7.7 7.7-7.7h48.711c5.361 0 7.627 6.83 3.33 10.035z" fill="#fe646f" data-original="#FE646F"/><path d="m304.912 7.5h-15c-2.243 4.858-6.22 11.864-13.107 18.559-10.659 10.363-22.393 14.248-28.305 15.762v20.267l59.742-44.553c4.297-3.205 2.03-10.035-3.33-10.035z" fill="#fd4755" data-original="#FD4755"/><path d="m97.474 312.701h317.053c9.225 0 16.703 7.478 16.703 16.703 0 9.225-7.478 16.703-16.703 16.703h-317.053c-9.225 0-16.703-7.478-16.703-16.703 0-9.225 7.478-16.703 16.703-16.703z" fill="#fedf30" data-original="#FEDF30"/><path d="m414.526 312.701h-13.383c.057.56.086 1.128.086 1.703 0 9.225-7.478 16.703-16.703 16.703h-303.669c.853 8.425 7.967 15 16.617 15h317.053c9.225 0 16.703-7.478 16.703-16.703-.001-9.225-7.479-16.703-16.704-16.703z" fill="#fed402" data-original="#FED402"/></g><path d="m447.033 468h-25.006v-115.589c9.684-3.165 16.703-12.28 16.703-23.008 0-13.345-10.857-24.203-24.203-24.203h-45.047l-21.514-143.26c-2.184-14.308-9.238-31.07-18.135-42.698-3.872-5.061-8.261-9.754-13.151-13.964-14.965-12.886-33.617-20.621-53.179-22.206v-22.814l49.231-36.715c4.593-3.425 6.396-9.152 4.591-14.59-1.805-5.439-6.674-8.953-12.404-8.953h-48.919c-4.142 0-7.5 3.358-7.5 7.5v75.564c-4.823.388-9.608 1.141-14.294 2.269-4.027.969-6.506 5.02-5.538 9.046.969 4.027 5.02 6.503 9.046 5.538 5.961-1.435 12.113-2.162 18.285-2.162 18.66 0 36.724 6.702 50.868 18.872h-101.737c3.123-2.685 6.475-5.142 10.041-7.336 3.528-2.17 4.629-6.79 2.458-10.318-2.17-3.528-6.789-4.628-10.318-2.458-23.422 14.407-39.196 38.254-43.277 65.426l-21.514 143.26h-45.046c-13.345 0-24.203 10.857-24.203 24.203 0 10.728 7.018 19.843 16.703 23.008v115.588h-25.007c-6.341 0-11.5 5.159-11.5 11.5v10c0 12.407 8.646 22.5 19.272 22.5h366.521c10.627 0 19.272-10.093 19.272-22.5v-10c.001-6.341-5.158-11.5-11.499-11.5zm-183.533-453h35.596l-35.596 26.546zm69.761 150.032 4.347 28.946h-13.181c-4.142 0-7.5 3.358-7.5 7.5s3.358 7.5 7.5 7.5h15.433l7.781 51.811h-12.929c-4.142 0-7.5 3.358-7.5 7.5s3.358 7.5 7.5 7.5h15.182l4.417 29.412h-44.596l-4.03-37.436c-.001-.007-.002-.014-.002-.021l-11.056-102.711h38.634zm-48.966 44.178 5.577 51.812h-67.745l5.577-51.812zm-54.976-15 3.141-29.178h47.08l3.141 29.178zm62.168 81.812 3.141 29.179h-77.255l3.141-29.179zm-99.81-144.396h128.621c3.904 5.69 7.04 11.878 9.321 18.406h-43.363c-.011 0-.021 0-.032 0h-60.454c-.008 0-.016 0-.025 0h-43.383c2.284-6.549 5.423-12.733 9.315-18.406zm-29.571 144.163h15.18c4.142 0 7.5-3.358 7.5-7.5s-3.358-7.5-7.5-7.5h-12.927l7.781-51.811h15.185c4.142 0 7.5-3.358 7.5-7.5s-3.358-7.5-7.5-7.5h-12.933l4.347-28.946h38.634l-11.056 102.711c-.001.007-.002.014-.002.021l-4.03 37.436h-44.596zm-73.835 53.614c0-5.074 4.128-9.203 9.203-9.203h51.502c.004 0 .009.001.013.001.007 0 .014-.001.021-.001h60.012.009.01 93.918.01.009 60.012c.007 0 .014.001.021.001.004 0 .009-.001.013-.001h51.502c5.074 0 9.203 4.128 9.203 9.203s-4.128 9.203-9.203 9.203h-89.034c-4.142 0-7.5 3.358-7.5 7.5s3.358 7.5 7.5 7.5h7.751v114.394h-33.318v-77.353c0-10.275-8.36-18.635-18.635-18.635h-50.582c-10.275 0-18.635 8.36-18.635 18.635v77.353h-33.318v-114.394h116.737c4.142 0 7.5-3.358 7.5-7.5s-3.358-7.5-7.5-7.5h-198.018c-5.075 0-9.203-4.128-9.203-9.203zm318.755 24.203v114.394h-18.406v-114.394zm-58.782 85.217v-18.406h25.376v18.406zm25.377 15v14.177h-25.376v-14.177zm-25.377-48.406v-18.406h25.376v18.406zm0-33.405v-18.405h25.376v18.405zm-63.318 18.635v77.353h-57.853v-77.353c0-2.004 1.631-3.635 3.635-3.635h50.582c2.005 0 3.636 1.631 3.636 3.635zm-146.547 48.176v-18.406h25.376v18.406zm25.377 15v14.177h-25.376v-14.177zm-25.377-48.406v-18.406h25.376v18.406zm0-33.405v-18.405h25.376v18.405zm-15-18.406v114.394h-18.406v-114.394zm320.154 135.894c0 4.578-2.53 7.5-4.272 7.5h-366.521c-1.742 0-4.272-2.922-4.272-7.5v-6.5h375.065z" data-original="#000000" class="active-path" style="fill:#C83C3C" data-old_color="#000000"/></g><script xmlns=""/></g> </svg>
