<svg width="18" height="15" viewBox="0 0 18 15" fill="none" xmlns="http://www.w3.org/2000/svg">
<path d="M0.171875 9.87891C0.171875 12.1836 1.03125 13.6484 2.75 14.2734C3.21875 14.4688 3.72656 14.5664 4.27344 14.5664C5.83594 14.5664 6.96875 13.8242 7.67188 12.3398C7.94531 11.793 8.08203 11.207 8.08203 10.582C8.08203 8.90234 7.32031 7.71094 5.79688 7.00781C5.48438 6.89062 5.19141 6.79297 4.91797 6.71484C3.98047 6.44141 3.49219 5.97266 3.45312 5.30859C3.49219 4.13672 4.21484 2.80859 5.62109 1.32422L4.44922 0.445312C2.10547 2.90625 0.71875 5.60156 0.289062 8.53125C0.210938 9 0.171875 9.44922 0.171875 9.87891ZM9.60547 9.87891C9.60547 12.1836 10.4648 13.6484 12.1836 14.2734C12.6523 14.4688 13.1602 14.5664 13.707 14.5664C15.2695 14.5664 16.4023 13.8242 17.1055 12.3398C17.3789 11.793 17.5156 11.207 17.5156 10.582C17.5156 8.90234 16.7539 7.71094 15.2305 7.00781C14.918 6.89062 14.625 6.79297 14.3516 6.71484C13.4141 6.44141 12.9258 5.97266 12.8867 5.30859C12.9258 4.13672 13.6484 2.80859 15.0547 1.32422L13.8828 0.445312C11.5391 2.90625 10.1523 5.60156 9.72266 8.53125C9.64453 9 9.60547 9.44922 9.60547 9.87891Z" fill="black" fill-opacity="0.5"/>
</svg>
