<svg xmlns="http://www.w3.org/2000/svg" viewBox="0 0 19 27.02"><defs><style>.cls-1{fill:#272c62;}</style></defs><title>Asset 21</title><g id="Layer_2" data-name="Layer 2"><g id="Layer_1-2" data-name="Layer 1"><path class="cls-1" d="M16.3,13.55,9.62,24.71l-6.86-11a7.92,7.92,0,1,1,13.54-.11ZM9.5,0A9.5,9.5,0,0,0,1.42,14.5L9,26.65a.79.79,0,0,0,.67.37h0a.79.79,0,0,0,.67-.38l7.35-12.27A9.5,9.5,0,0,0,9.5,0Z"/><path class="cls-1" d="M9.5,12.49a3.07,3.07,0,1,1,3.06-3.07A3.07,3.07,0,0,1,9.5,12.49Zm0-7.66a4.59,4.59,0,1,0,4.59,4.59A4.59,4.59,0,0,0,9.5,4.84Z"/></g></g></svg>