<svg xmlns="http://www.w3.org/2000/svg" xmlns:xlink="http://www.w3.org/1999/xlink" viewBox="0 0 38.18 38.18"><defs><clipPath id="clip-path"><rect x="7" y="7.77" width="24" height="21" style="fill:none"/></clipPath></defs><title>Asset 10</title><g id="Layer_2" data-name="Layer 2"><g id="Layer_1-2" data-name="Layer 1"><path d="M19.09,0q-.94,0-1.87.09T15.37.37q-.92.18-1.82.46t-1.76.63q-.87.36-1.69.8t-1.61,1Q7.71,3.74,7,4.33T5.59,5.59Q4.93,6.26,4.33,7T3.22,8.49q-.52.78-1,1.61t-.8,1.69q-.36.87-.63,1.76T.37,15.37q-.18.92-.27,1.85T0,19.09Q0,20,.09,21t.27,1.85q.18.92.46,1.82t.63,1.76q.36.87.8,1.69t1,1.61q.52.78,1.12,1.5t1.26,1.39q.66.66,1.39,1.26T8.49,35q.78.52,1.61,1t1.69.8q.87.36,1.76.63t1.82.46q.92.18,1.85.27t1.87.09q.94,0,1.87-.09t1.85-.27q.92-.18,1.82-.46t1.76-.63q.87-.36,1.69-.8t1.61-1q.78-.52,1.5-1.12t1.39-1.26q.66-.66,1.26-1.39T35,29.7q.52-.78,1-1.61t.8-1.69q.36-.87.63-1.76t.46-1.82q.18-.92.27-1.85t.09-1.87q0-.94-.09-1.87t-.27-1.85q-.18-.92-.46-1.82t-.63-1.76q-.36-.87-.8-1.69T35,8.49q-.52-.78-1.12-1.5T32.59,5.59q-.66-.66-1.39-1.26T29.7,3.22q-.78-.52-1.61-1t-1.69-.8q-.87-.36-1.76-.63T22.82.37Q21.9.18,21,.09T19.09,0Z" style="fill:#4a5d6a"/><g style="clip-path:url(#clip-path)"><path d="M30.33,27.64H7.53l.49.49V12.65l-.49.49H30.33l-.49-.49V28.13a.49.49,0,0,0,1,0V12.65a.5.5,0,0,0-.49-.49H7.53a.5.5,0,0,0-.49.49V28.13a.5.5,0,0,0,.49.49H30.33A.49.49,0,0,0,30.33,27.64Z" style="fill:#fff"/><path d="M13.73,18.33h-6c-.17,0-.17,1,0,1h6C13.9,19.32,13.9,18.33,13.73,18.33Z" style="fill:#fff"/><path d="M14.13,20.41h.54V17.8h-.54Zm1.59,1.05H13.07V16.75h2.64Z" style="fill:#fff"/><path d="M23.34,20.41h.54V17.8h-.54Zm1.59,1.05H22.29V16.75h2.64Z" style="fill:#fff"/><path d="M15.52,12.32V8.26L15,8.76h7.79l-.49-.49v4.06a.49.49,0,0,0,1,0V8.26a.5.5,0,0,0-.49-.49H15a.5.5,0,0,0-.49.49v4.06A.49.49,0,0,0,15.52,12.32Z" style="fill:#fff"/><path d="M22.89,18.33H15.37c-.22,0-.22,1,0,1h7.52C23.11,19.32,23.11,18.33,22.89,18.33Z" style="fill:#fff"/><path d="M30.49,18.33H24.55c-.17,0-.17,1,0,1h5.94C30.66,19.32,30.66,18.33,30.49,18.33Z" style="fill:#fff"/></g></g></g></svg>