<svg xmlns="http://www.w3.org/2000/svg" viewBox="0 0 15.78 22.16"><defs><style>.cls-1{fill:#4A5D6A;}</style></defs><title>Asset 24</title><g id="Layer_2" data-name="Layer 2"><g id="Layer_1-2" data-name="Layer 1"><path class="cls-1" d="M1,10.13a.74.74,0,0,1,.74-.74h.39A.44.44,0,0,0,2.6,9V7.49A1.75,1.75,0,0,0,4.26,6.31a5.7,5.7,0,0,0,1.31.94,8.78,8.78,0,0,0,6.26.36V9a.44.44,0,0,0,.44.44h.39a.74.74,0,0,1,.74.74v.56a.74.74,0,0,1-.74.74h-.4a.44.44,0,0,0-.44.42,4.62,4.62,0,0,1-2.88,4h0a4.63,4.63,0,0,1-3.44,0h0a4.6,4.6,0,0,1-2.86-4,.44.44,0,0,0-.44-.42h-.4A.74.74,0,0,1,1,10.69Zm7.64,8.38a1.45,1.45,0,1,1-2.91,0V16.9a5.49,5.49,0,0,0,2.91,0ZM.49,9.13a1.61,1.61,0,0,0-.35,1v.56a1.62,1.62,0,0,0,1.62,1.62,5.48,5.48,0,0,0,3.11,4.26v.84h-.5q0,.44,0,.88h.49v.22a2.33,2.33,0,1,0,4.67,0v-.22h.77q0-.44,0-.88H9.54v-.84a5.49,5.49,0,0,0,3.11-4.26,1.62,1.62,0,0,0,1.62-1.62v-.56a1.61,1.61,0,0,0-.38-1l1-4a.44.44,0,0,0-.85-.22l-.94,3.71a1.6,1.6,0,0,0-.42-.07V7a.44.44,0,0,0-.57-.42A8.16,8.16,0,0,1,6,6.5,4.3,4.3,0,0,1,4.34,5a.44.44,0,0,0-.82.22c0,1.09-.23,1.33-1.38,1.4a.44.44,0,0,0-.41.44V8.51a1.61,1.61,0,0,0-.46.08A14.31,14.31,0,0,1,.92,7.06c-.07-.55,0-2.19,0-2.78v0A1.31,1.31,0,0,1,2.22,3h.67a.44.44,0,0,0,.31-.13L4.78,1.26A1.31,1.31,0,0,1,6,.91l5.53,1.32a3.86,3.86,0,0,0,.89.1,3.87,3.87,0,0,0,2.4-.84,0,0,0,0,1,.07,0l-.33,1.32a.44.44,0,0,0,.85.22l.33-1.32A.92.92,0,0,0,14.28.81a3,3,0,0,1-1.85.65,3,3,0,0,1-.69-.08L6.21.06A2.2,2.2,0,0,0,4.15.64L2.71,2.08H2.22A2.19,2.19,0,0,0,0,4.26,29,29,0,0,0,0,7.17,17,17,0,0,0,.49,9.13Z"/><path class="cls-1" d="M4.47,17.4H4A3.59,3.59,0,0,0,.38,21v1.17h.88V21A2.71,2.71,0,0,1,4,18.28h.51Z"/><path class="cls-1" d="M9.78,17.4h.51A3.59,3.59,0,0,1,13.87,21v1.17H13V21a2.71,2.71,0,0,0-2.71-2.7H9.78Z"/></g></g></svg>