<svg xmlns="http://www.w3.org/2000/svg" viewBox="0 0 70 70"><defs><style>.cls-1{fill:#CA58FD;}.cls-2{fill:#fff;}</style></defs><title>Asset 3</title><g id="Layer_2" data-name="Layer 2"><g id="Layer_1-2" data-name="Layer 1"><path class="cls-1" d="M35,0q1.72,0,3.43.17t3.4.5q1.69.34,3.33.83t3.23,1.16q1.59.66,3.1,1.47T54.44,5.9q1.43,1,2.76,2t2.54,2.31Q61,11.47,62.06,12.8t2,2.76q1,1.43,1.77,2.95t1.47,3.1q.66,1.59,1.16,3.23t.83,3.33q.34,1.69.5,3.4T70,35q0,1.72-.17,3.43t-.5,3.4q-.34,1.69-.83,3.33t-1.16,3.23q-.66,1.59-1.47,3.1T64.1,54.44q-1,1.43-2,2.76t-2.31,2.54Q58.53,61,57.2,62.06t-2.76,2q-1.43,1-2.95,1.77t-3.1,1.47q-1.59.66-3.23,1.16t-3.33.83q-1.69.34-3.4.5T35,70q-1.72,0-3.43-.17t-3.4-.5q-1.69-.34-3.33-.83t-3.23-1.16q-1.59-.66-3.1-1.47T15.56,64.1q-1.43-1-2.76-2t-2.54-2.31Q9,58.53,7.94,57.2t-2-2.76Q4.94,53,4.13,51.5t-1.47-3.1Q2,46.81,1.51,45.16T.67,41.83q-.34-1.69-.5-3.4T0,35q0-1.72.17-3.43t.5-3.4q.34-1.69.83-3.33t1.16-3.23Q3.32,20,4.13,18.5T5.9,15.55q1-1.43,2-2.76t2.31-2.54Q11.47,9,12.8,7.94t2.76-2q1.43-1,2.95-1.77t3.1-1.47Q23.19,2,24.84,1.51T28.17.67q1.69-.34,3.4-.5T35,0Z"/><path class="cls-2" d="M36.1,40.62H32.47V36.85H36.1ZM51.56,23.68H17a2.73,2.73,0,0,0-2.73,2.82v6a2.81,2.81,0,0,0,2.09,2.73l14.27,3.29v3a.87.87,0,0,0,.91.94H37a.87.87,0,0,0,.91-.94v-3L52.2,35.25a2.81,2.81,0,0,0,2.09-2.73v-6A2.73,2.73,0,0,0,51.56,23.68Z"/><path class="cls-2" d="M52.44,36.11a.87.87,0,0,0-.91.94V49.29a.87.87,0,0,1-.91.94H18a.87.87,0,0,1-.91-.94V37.05a.91.91,0,1,0-1.81,0V49.29A2.72,2.72,0,0,0,18,52.11H50.62a2.72,2.72,0,0,0,2.72-2.82V37.05A.87.87,0,0,0,52.44,36.11Z"/><path class="cls-2" d="M39,18.56H29.58a2.77,2.77,0,0,0-2.82,2.82v.94a.94.94,0,0,0,1.88,0v-.94a.89.89,0,0,1,.94-.94H39a.89.89,0,0,1,.94.94v.94a.94.94,0,0,0,1.88,0v-.94A2.77,2.77,0,0,0,39,18.56Z"/></g></g></svg>