<svg xmlns="http://www.w3.org/2000/svg" viewBox="0 0 20.88 21.22"><defs><style>.cls-1{fill:#272c62;}</style></defs><title>Asset 19</title><g id="Layer_2" data-name="Layer 2"><g id="Layer_1-2" data-name="Layer 1"><path class="cls-1" d="M1.74,20.53V17h.13a2.09,2.09,0,0,0,.9-.1L3,16.82l.05,0,.2-.12.06,0A2,2,0,0,0,4.18,15V13.57a.69.69,0,0,1,.2-.49L4.5,13h0l.11-.05h0l.1,0h.31a.76.76,0,0,1,.5.72v2a2.09,2.09,0,0,0,4.18,0V13.57a.69.69,0,0,1,.32-.58h0l.11-.05h0l.1,0h.31a.76.76,0,0,1,.5.72v.64a2.09,2.09,0,0,0,4.18,0v-.7a.69.69,0,0,1,.2-.49l.11-.09h0l.11-.05h0l.1,0h.31a.76.76,0,0,1,.5.72V15a2.09,2.09,0,0,0,.61,1.48l.22.19.07,0,.18.11.07,0,.22.09,0,0a2.11,2.11,0,0,0,.59.11h.43v3.51Zm-1-8.7a1,1,0,0,1,1-1h17.4a1,1,0,0,1,1,1V15a1.4,1.4,0,0,1-.83,1.28,1.42,1.42,0,0,1-1.54-.29,1.4,1.4,0,0,1-.41-1V13.57a1.39,1.39,0,0,0-.77-1.24h0l-.17-.07-.1,0-.13,0-.09,0h-.33l-.18,0-.09,0-.19.09-.07,0a1.4,1.4,0,0,0-.23.18,1.38,1.38,0,0,0-.41,1v.7a1.39,1.39,0,1,1-2.78,0v-.7a1.39,1.39,0,0,0-.77-1.24h0l-.17-.07-.1,0-.13,0-.09,0h-.33l-.18,0-.09,0-.19.09-.07,0a1.39,1.39,0,0,0-.63,1.17v2.09a1.39,1.39,0,1,1-2.78,0V13.57a1.39,1.39,0,0,0-.77-1.24h0l-.17-.07-.1,0-.13,0-.09,0h-.1a1.39,1.39,0,0,0-1.39,1.39V15a1.39,1.39,0,0,1-.4,1,1.44,1.44,0,0,1-1.3.37l-.24-.08a1.43,1.43,0,0,1-.43-.29A1.4,1.4,0,0,1,.7,15ZM3.83,7H5.22v3.13H3.83Zm5.92-.7h1.39v3.83H9.75Zm5.92.7h1.39v3.13H15.66Zm5.22,8V11.83a1.74,1.74,0,0,0-1.74-1.74H17.75V6.6a.35.35,0,0,0-.35-.35H15.32A.35.35,0,0,0,15,6.6v3.48H11.83V5.91a.35.35,0,0,0-.35-.35H9.4a.35.35,0,0,0-.35.35v4.18H5.92V6.6a.35.35,0,0,0-.35-.35H3.48a.35.35,0,0,0-.35.35v3.48H1.74A1.74,1.74,0,0,0,0,11.83V15a2,2,0,0,0,1,1.8v3.77H.35a.35.35,0,1,0,0,.7H20.54a.35.35,0,1,0,0-.7h-.7V16.76A2.09,2.09,0,0,0,20.88,15Z"/><path class="cls-1" d="M10.44,1a6.77,6.77,0,0,1,1,2.16,1,1,0,0,1-2.09,0A6.77,6.77,0,0,1,10.44,1Zm0,3.9a1.74,1.74,0,0,0,1.74-1.74c0-.84-1.21-2.63-1.45-3a.36.36,0,0,0-.57,0c-.24.35-1.45,2.15-1.45,3A1.74,1.74,0,0,0,10.44,4.86Z"/><path class="cls-1" d="M16.36,1.66a6.78,6.78,0,0,1,1,2.16,1,1,0,0,1-2.09,0A6.78,6.78,0,0,1,16.36,1.66Zm0,3.9A1.74,1.74,0,0,0,18.1,3.82c0-.84-1.21-2.63-1.45-3a.36.36,0,0,0-.57,0c-.24.35-1.45,2.15-1.45,3A1.74,1.74,0,0,0,16.36,5.56Z"/><path class="cls-1" d="M4.53,1.66a6.78,6.78,0,0,1,1,2.16,1,1,0,0,1-2.09,0A6.78,6.78,0,0,1,4.53,1.66Zm0,3.9A1.74,1.74,0,0,0,6.27,3.82c0-.84-1.21-2.63-1.45-3a.36.36,0,0,0-.57,0C4,1.19,2.78,3,2.78,3.82A1.74,1.74,0,0,0,4.53,5.56Z"/></g></g></svg>