<svg xmlns="http://www.w3.org/2000/svg" viewBox="0 0 70 70"><defs><style>.cls-1,.cls-3{fill:#69c8f3;}.cls-2{fill:#fff;}.cls-3{stroke:#fff;stroke-miterlimit:10;}</style></defs><title>Asset 7</title><g id="Layer_2" data-name="Layer 2"><g id="Layer_1-2" data-name="Layer 1"><path class="cls-1" d="M35,0q1.72,0,3.43.17t3.4.5q1.69.34,3.33.83t3.23,1.16q1.59.66,3.1,1.47T54.44,5.9q1.43,1,2.76,2t2.54,2.31Q61,11.47,62.06,12.8t2,2.76q1,1.43,1.77,2.95t1.47,3.1q.66,1.59,1.16,3.23t.83,3.33q.34,1.69.5,3.4T70,35q0,1.72-.17,3.43t-.5,3.4q-.34,1.69-.83,3.33t-1.16,3.23q-.66,1.59-1.47,3.1T64.1,54.44q-1,1.43-2,2.76t-2.31,2.54Q58.53,61,57.2,62.06t-2.76,2q-1.43,1-2.95,1.77t-3.1,1.47q-1.59.66-3.23,1.16t-3.33.83q-1.69.34-3.4.5T35,70q-1.72,0-3.43-.17t-3.4-.5q-1.69-.34-3.33-.83t-3.23-1.16q-1.59-.66-3.1-1.47T15.56,64.1q-1.43-1-2.76-2t-2.54-2.31Q9,58.53,7.94,57.2t-2-2.76Q4.94,53,4.13,51.5t-1.47-3.1Q2,46.81,1.51,45.16T.67,41.83q-.34-1.69-.5-3.4T0,35q0-1.72.17-3.43t.5-3.4q.34-1.69.83-3.33t1.16-3.23Q3.32,20,4.13,18.5T5.9,15.55q1-1.43,2-2.76t2.31-2.54Q11.47,9,12.8,7.94t2.76-2q1.43-1,2.95-1.77t3.1-1.47Q23.19,2,24.84,1.51T28.17.67q1.69-.34,3.4-.5T35,0Z"/><path class="cls-2" d="M27.11,28.92a4.45,4.45,0,1,0-4.46-4.46A4.45,4.45,0,0,0,27.11,28.92Z"/><path class="cls-2" d="M43.59,28.92a4.45,4.45,0,1,0-4.46-4.46A4.45,4.45,0,0,0,43.59,28.92Z"/><path class="cls-2" d="M45.88,31.32H42a5.83,5.83,0,0,0-5.83,5.83V51.58H51.71V37.15A5.85,5.85,0,0,0,45.88,31.32Z"/><path class="cls-2" d="M28.74,31.32H24.83A5.83,5.83,0,0,0,19,37.15V51.58H34.57V37.15A5.85,5.85,0,0,0,28.74,31.32Z"/><path class="cls-3" d="M35.35,36.81a4.78,4.78,0,0,0,0-9.57v0a4.77,4.77,0,1,0,0,9.55Z"/><path class="cls-3" d="M37.07,37.26H33.64a5.11,5.11,0,0,0-5.11,5.11V51H42.18V42.37A5.13,5.13,0,0,0,37.07,37.26Z"/></g></g></svg>