<svg xmlns="http://www.w3.org/2000/svg" viewBox="0 0 18.18 22.05"><defs><style>.cls-1{fill:#69c8f3;}</style></defs><title>Asset 26</title><g id="Layer_2" data-name="Layer 2"><g id="Layer_1-2" data-name="Layer 1"><path class="cls-1" d="M2,4A7.06,7.06,0,0,1,7.61,1.09a2.84,2.84,0,0,1,2.83,1.32.55.55,0,0,0,.74.13,3.6,3.6,0,0,1,2.28-.45,4,4,0,0,1,2.92,1.85c.92,1.52.92,3.8,0,6.6a2,2,0,0,0-.6-.13V9.51A.55.55,0,0,0,15.36,9c-2.71-.47-4.58-3.21-4.6-3.24a.55.55,0,0,0-1,.09A4.47,4.47,0,0,1,8.46,7.39,8.92,8.92,0,0,1,3,9a.55.55,0,0,0-.55.55v.91a2,2,0,0,0-.64.15C.78,7.95.86,5.75,2,4Zm13.7,9.29a.89.89,0,0,1-.4-.1,6.66,6.66,0,0,0,.46-1.7.9.9,0,0,1-.06,1.8Zm-1-2.69c0,.12,0,.24,0,.36h0A5.6,5.6,0,0,1,3.52,11h0c0-.12,0-.24,0-.36V10c4.15-.15,6.08-2,6.85-3a8.89,8.89,0,0,0,4.36,2.95Zm-5.61,7.9a1.75,1.75,0,0,1-1.6-1.05,8.63,8.63,0,0,1,3.21,0A1.75,1.75,0,0,1,9.11,18.52ZM2.53,13.31a.9.9,0,0,1-.06-1.8,6.64,6.64,0,0,0,.46,1.7A.89.89,0,0,1,2.53,13.31Zm-2-.9a2,2,0,0,0,2.91,1.77,6.74,6.74,0,0,0,2.78,2.48,9.54,9.54,0,0,0-4,2.51.55.55,0,1,0,.79.76,8.46,8.46,0,0,1,3.46-2.19,2.84,2.84,0,0,0,5.34,0,8.38,8.38,0,0,1,1.36.59c.23-.29.47-.57.72-.85A9.47,9.47,0,0,0,12,16.66a6.75,6.75,0,0,0,2.78-2.48,2,2,0,0,0,2.54-2.92c1.43-4.14.8-6.57,0-7.89A5,5,0,0,0,13.62,1,4.74,4.74,0,0,0,11,1.39,3.88,3.88,0,0,0,7.61,0,8.21,8.21,0,0,0,1.08,3.41C-.63,6,0,9.08.88,11.29A2,2,0,0,0,.54,12.41Z"/><path class="cls-1" d="M3.08,18.36l-.83.76A9.62,9.62,0,0,0,.69,21.24a.55.55,0,0,0,1,.52A8.5,8.5,0,0,1,5.77,18L5,17.19A9.62,9.62,0,0,0,3.08,18.36Z"/><path class="cls-1" d="M15.14,18.36l.83.76a9.6,9.6,0,0,1,1.56,2.12.55.55,0,1,1-1,.52A8.51,8.51,0,0,0,12.46,18l.82-.82A9.62,9.62,0,0,1,15.14,18.36Z"/></g></g></svg>