<svg xmlns="http://www.w3.org/2000/svg" viewBox="0 0 24.99 19.91"><defs><style>.cls-1{fill:#4A5D6A;}</style></defs><title>Asset 17</title><g id="Layer_2" data-name="Layer 2"><g id="Layer_1-2" data-name="Layer 1"><path class="cls-1" d="M23.53,17.61a.84.84,0,0,1-1.67,0V14.47a.84.84,0,0,1,1.67,0Zm-4.71-7.47c0,.09-.27.54-1.57,1a15.67,15.67,0,0,1-4.76.65,15.67,15.67,0,0,1-4.76-.65c-1.3-.43-1.57-.87-1.57-1V7l4.25,1.28a7.52,7.52,0,0,0,2.08.26,7.52,7.52,0,0,0,2.08-.26L18.82,7Zm-8-8.48a6.1,6.1,0,0,1,1.65-.2,6.14,6.14,0,0,1,1.65.2l8.66,2.6-3.47,1h0L14.15,6.86a6.11,6.11,0,0,1-1.65.2,6.1,6.1,0,0,1-1.65-.2L5.66,5.3h0l-3.47-1ZM23.42,12.29V5.61l.28-.08C24.77,5.2,25,4.66,25,4.26S24.77,3.32,23.7,3L14.57.26A7.49,7.49,0,0,0,12.5,0a7.5,7.5,0,0,0-2.08.26L1.29,3C.22,3.32,0,3.86,0,4.26s.22.94,1.29,1.26l3.41,1v3.6c0,.69.45,1.65,2.57,2.36a17.16,17.16,0,0,0,5.22.73,17.15,17.15,0,0,0,5.22-.73c2.12-.71,2.57-1.67,2.57-2.36V6.55L22,6v6.25a2.31,2.31,0,0,0-1.57,2.18v3.14a2.3,2.3,0,0,0,4.6,0V14.47A2.31,2.31,0,0,0,23.42,12.29Z"/></g></g></svg>