<svg xmlns="http://www.w3.org/2000/svg" viewBox="0 0 21.74 22"><defs><style>.cls-1{fill:#4A5D6A;}</style></defs><title>Asset 29</title><g id="Layer_2" data-name="Layer 2"><g id="Layer_1-2" data-name="Layer 1"><path class="cls-1" d="M18,20.71H3.74V7.8L10.87,1.5,18,7.8S18,20.71,18,20.71ZM15.94,3h1.29V5.4L15.94,4.26Zm5.58,6.22-3-2.65V2.32a.64.64,0,0,0-.64-.64H15.3a.64.64,0,0,0-.64.64v.8L11.3.16a.64.64,0,0,0-.85,0L.22,9.18a.64.64,0,0,0,.85,1L2.45,8.93V20.71h-.6a.64.64,0,1,0,0,1.29h18a.64.64,0,1,0,0-1.29h-.6V8.93l1.38,1.22a.64.64,0,1,0,.85-1Z"/></g></g></svg>