<svg xmlns="http://www.w3.org/2000/svg" viewBox="0 0 21.5 21.5"><defs><style>.cls-1{fill:#FFF;stroke:#CA58FD;}.cls-2{fill:#CA58FD;}</style></defs><title>Asset 16</title><g id="Layer_2" data-name="Layer 2"><g id="Layer_1-2" data-name="Layer 1"><path class="cls-1" d="M10.75.5a10.25,10.25,0,1,1-2,.2A10.22,10.22,0,0,1,10.75.5Z"/><path class="cls-2" d="M7.93,6.48a.54.54,0,0,1-.6-.55.53.53,0,0,1,.15-.37.57.57,0,0,1,.45-.16h5.64a.54.54,0,0,1,.59.55.54.54,0,0,1-.14.37.58.58,0,0,1-.45.16H11.85l-.44,0V6.5A2,2,0,0,1,12,7a2,2,0,0,1,.46.81h1.08a.54.54,0,0,1,.59.55.54.54,0,0,1-.14.37.58.58,0,0,1-.45.16h-1a2.78,2.78,0,0,1-1.12,2,3.29,3.29,0,0,1-1,.49,5,5,0,0,1-1,.21l3.44,3.31a.76.76,0,0,1,.24.55.69.69,0,0,1-.18.49.65.65,0,0,1-.5.2,1.07,1.07,0,0,1-.33-.05.88.88,0,0,1-.33-.22l-4.05-4a1,1,0,0,1-.24-.31.76.76,0,0,1-.08-.33.66.66,0,0,1,.18-.48.62.62,0,0,1,.47-.19h.2a5.27,5.27,0,0,0,.94-.09,2.75,2.75,0,0,0,.84-.29,2.14,2.14,0,0,0,.63-.53A1.65,1.65,0,0,0,11,8.84H7.93a.56.56,0,0,1-.45-.17.56.56,0,0,1-.15-.38.53.53,0,0,1,.15-.37.57.57,0,0,1,.45-.16h3q-.4-1.28-2.33-1.28Z"/></g></g></svg>