<svg xmlns="http://www.w3.org/2000/svg" viewBox="0 0 26.61 19.23"><defs><style>.cls-1{fill:#3e94d1;}</style></defs><title>Asset 10</title><g id="Layer_2" data-name="Layer 2"><g id="Layer_1-2" data-name="Layer 1"><path class="cls-1" d="M18.42,18.44A7.4,7.4,0,0,1,12.19,7l0,0,.13.13.05.06.1.12.06.07.1.12.05.07.1.14,0,0a6.45,6.45,0,0,0,0,6.45h0l.13.21a6.47,6.47,0,0,0,1.26,1.45l.32.28h0a6.44,6.44,0,1,0,0-10.32l0,0-.09-.1-.07-.08-.09-.1-.06-.07-.1-.11-.06-.06-.12-.12,0,0a7.4,7.4,0,1,1,4.51,13.27ZM11.59,6.52a8.19,8.19,0,0,0,0,9,5.65,5.65,0,1,1,0-9Zm1.72,6.94a5.66,5.66,0,0,1,0-4.83,5.66,5.66,0,0,1,0,4.83ZM15,6.52a5.65,5.65,0,1,1,0,9,8.19,8.19,0,0,0,0-9ZM8.19,18.44A7.4,7.4,0,1,1,14.42,15l0,0-.13-.13-.05-.06-.1-.12-.06-.07L14,14.51l-.05-.07-.1-.14,0,0a6.45,6.45,0,0,0,0-6.45h0l-.13-.21a6.47,6.47,0,0,0-.9-1.13l-.36-.33-.32-.28h0a6.44,6.44,0,1,0,0,10.32l0,0,.09.1.07.08.09.1.06.07.1.11.06.06.13.13,0,0A7.4,7.4,0,0,1,8.19,18.44ZM6.78,1.27,7.2.79h2l.41.48L8.19,2.68ZM17,1.27l.41-.48h2l.41.48L18.42,2.68ZM19.32,2.9l1.58-1.58L19.78,0H17.06L15.93,1.31,17.51,2.9a8.19,8.19,0,0,0-4.21,1.74A8.19,8.19,0,0,0,9.1,2.9l1.58-1.58L9.55,0H6.83L5.7,1.31,7.29,2.9a8.19,8.19,0,1,0,6,14.54,8.19,8.19,0,1,0,6-14.54Z"/></g></g></svg>