<svg xmlns="http://www.w3.org/2000/svg" viewBox="0 0 19.34 22.97"><defs><style>.cls-1{fill:#69c8f3;}</style></defs><title>Asset 25</title><g id="Layer_2" data-name="Layer 2"><g id="Layer_1-2" data-name="Layer 1"><path class="cls-1" d="M9.64,16.9A5.85,5.85,0,0,1,3.8,11.06v-.59c4.32-.15,6.33-2.06,7.14-3.17a9.27,9.27,0,0,0,4.54,3.07v.69A5.85,5.85,0,0,1,9.64,16.9Zm0,2.39A1.83,1.83,0,0,1,8,18.19,8.92,8.92,0,0,1,9.64,18a8.83,8.83,0,0,1,1.67.16A1.83,1.83,0,0,1,9.64,19.29Zm7-8.23V9.91a.57.57,0,0,0-.47-.56C13.32,8.86,11.37,6,11.35,6a.58.58,0,0,0-1,.1S9,9.34,3.23,9.34a.57.57,0,0,0-.57.57v1.15a7,7,0,0,0,4,6.3A9.87,9.87,0,0,0,4,18.61l.19,0a4.31,4.31,0,0,1,1,.52,8.73,8.73,0,0,1,1.57-.7,3,3,0,0,0,5.57,0,8.87,8.87,0,0,1,5,4.19.57.57,0,0,0,1-.54,10,10,0,0,0-1.63-2.21,4.65,4.65,0,0,0,1.36-1.79c1.49-3.17,1.49-9.23.44-12A9.59,9.59,0,0,0,3.31,2.38a.57.57,0,0,0,.75.86A8.45,8.45,0,0,1,17.53,6.57c1,2.48.95,8.19-.41,11.07a3.21,3.21,0,0,1-1.19,1.49,10,10,0,0,0-3.29-1.77A7,7,0,0,0,16.62,11.06Z"/><path class="cls-1" d="M5.35,17.91A10,10,0,0,0,3.4,19.13a3.21,3.21,0,0,1-1.19-1.49C.85,14.76.85,9.05,1.8,6.57A8.45,8.45,0,0,1,15.27,3.24.57.57,0,0,0,16,2.38,9.59,9.59,0,0,0,.74,6.17c-1,2.73-1.05,8.79.44,12a4.65,4.65,0,0,0,1.36,1.79A10,10,0,0,0,.91,22.13a.57.57,0,0,0,1,.54,8.86,8.86,0,0,1,4.3-3.92Z"/></g></g></svg>