<svg xmlns="http://www.w3.org/2000/svg" viewBox="0 0 25 24.94"><defs><style>.cls-1{fill:#CA58FD;}</style></defs><title>Asset 14</title><g id="Layer_2" data-name="Layer 2"><g id="Layer_1-2" data-name="Layer 1"><path class="cls-1" d="M1.57,8.74V8.22c0-.3,0-.6,0-.89s.28-.37.31-.38L5.23,5.26l1.92-1,5-2.51a.72.72,0,0,1,.71,0L14,2.35c2.87,1.45,5.84,3,8.78,4.4a1,1,0,0,1,.68,1.18,2.23,2.23,0,0,0,0,.39c0,.07,0,.14,0,.21v.21ZM18.16,19.45V10.33h3.3v9.12Zm-9.75,0V10.33h8.15v9.12Zm-4.9,0V10.33H6.79v9.12ZM23.13,23.1l.07.26H1.8l.17-.7c.11-.45.22-.89.35-1.33.06-.21.34-.29.48-.29H22.08a.58.58,0,0,1,.67.54c.07.35.16.69.25,1.05ZM23,10.83c0-.07,0-.13,0-.2l0-.31h1A.79.79,0,0,0,25,9.42c0-.27,0-.53,0-.8,0-.55,0-1.12,0-1.68a1.12,1.12,0,0,0-.72-1.18C20.67,4,16.93,2.1,13.16.18a1.31,1.31,0,0,0-1.33,0c-1.35.7-2.71,1.38-4.07,2.06L4.56,3.85l-4,2A.9.9,0,0,0,0,6.77C0,7.37,0,8,0,8.55v.86a.81.81,0,0,0,.92.91h1v9.1l-.17,0a.84.84,0,0,0-.74.66L.7,21.31c-.22.87-.44,1.75-.65,2.63a1,1,0,0,0,0,.53c.12.32.39.47.85.47H24.26a.8.8,0,0,0,.59-.33A.73.73,0,0,0,25,24c-.32-1.31-.66-2.62-1-3.92a.69.69,0,0,0-.49-.54.52.52,0,0,1-.44-.59q0-2.89,0-5.79Z"/></g></g></svg>