<svg xmlns="http://www.w3.org/2000/svg" viewBox="0 0 14.31 22.16"><defs><style>.cls-1{fill:#69c8f3;}</style></defs><title>Asset 23</title><g id="Layer_2" data-name="Layer 2"><g id="Layer_1-2" data-name="Layer 1"><path class="cls-1" d="M.87,12.12a1.6,1.6,0,0,0,.88.27,5.43,5.43,0,0,0,2,3.57H2.34A1.47,1.47,0,0,1,.87,14.49ZM1.76,9.5h.39a.44.44,0,0,0,.44-.44V6.83A11.73,11.73,0,0,0,4.27,7a11.66,11.66,0,0,0,7-2.33,4,4,0,0,1,.47,1.89V9.06a.44.44,0,0,0,.44.44h.39a.73.73,0,0,1,.73.73v.55a.73.73,0,0,1-.73.73h-.4a.44.44,0,0,0-.44.41,4.58,4.58,0,0,1-2.84,4h0a4.59,4.59,0,0,1-3.4,0h0a4.57,4.57,0,0,1-2.84-4,.44.44,0,0,0-.44-.41h-.4A.73.73,0,0,1,1,10.78v-.55A.73.73,0,0,1,1.76,9.5Zm11.68,5A1.47,1.47,0,0,1,12,16H10.53q.2-.16.38-.33a5.42,5.42,0,0,0,1.65-3.24,1.6,1.6,0,0,0,.88-.27Zm-4.84,4c0,.48-.79,1.17-1.44,1.58-.66-.41-1.44-1.1-1.44-1.58v-1.6a5.46,5.46,0,0,0,2.89,0ZM2.34,16.84h2.5v.62H4.14v.87h.69v.22c0,1.26,1.89,2.35,2.1,2.47a.44.44,0,0,0,.42,0c.22-.12,2.1-1.21,2.1-2.47v-.22h.91A2.69,2.69,0,0,1,13.06,21v1.15h.87V21a3.56,3.56,0,0,0-3.56-3.56H9.47v-.62H12a2.34,2.34,0,0,0,2.34-2.34V7.9a.44.44,0,0,0-.87,0v1a1.59,1.59,0,0,0-.84-.26V6.52a4.86,4.86,0,0,0-.87-2.79.44.44,0,0,0-.63-.09A10.78,10.78,0,0,1,4.27,6.08a10.79,10.79,0,0,1-2-.19.44.44,0,0,0-.52.41c0,.07,0,.14,0,.22v2.1a1.6,1.6,0,0,0-.84.26V5.59A4.72,4.72,0,0,1,5.59.87H8.48a1.36,1.36,0,0,1,1.25.82l.19.43a.44.44,0,0,0,.4.26h.87a2.25,2.25,0,0,1,2.25,2.25V5.84a.44.44,0,1,0,.87,0V4.63a3.12,3.12,0,0,0-3.12-3.12H10.6l-.07-.16A2.23,2.23,0,0,0,8.48,0H5.59A5.59,5.59,0,0,0,0,5.59v8.91A2.34,2.34,0,0,0,2.34,16.84Z"/><path class="cls-1" d="M1.25,22.16V21a2.69,2.69,0,0,1,2.68-2.68h.91v.22c0,1.26,1.89,2.35,2.1,2.47a.44.44,0,0,0,.42,0c.22-.12,2.1-1.21,2.1-2.47v-.22H10v-.87H9.47v-.12H8.6v1.21c0,.48-.79,1.17-1.44,1.58C6.5,19.7,5.71,19,5.71,18.53V17.32H4.84v.12H3.93A3.56,3.56,0,0,0,.38,21v1.16Z"/></g></g></svg>