<?xml version="1.0" encoding="UTF-8" standalone="no"?>
<!DOCTYPE svg PUBLIC "-//W3C//DTD SVG 1.1//EN" "http://www.w3.org/Graphics/SVG/1.1/DTD/svg11.dtd">
<svg version="1.1" xmlns="http://www.w3.org/2000/svg" xmlns:xlink="http://www.w3.org/1999/xlink" preserveAspectRatio="xMidYMid meet" viewBox="0.5790410366259806 -0.013216102583937683 510.8671646225875 472.04778379557445" width="506.87" height="468.05"><defs><path d="M451.05 454.79C445.02 459.63 438.67 464.07 432.04 468.06C430.52 468.16 418.35 468.94 416.84 469.03C409.48 468.06 402.09 467.41 394.79 466.09C362.26 459.43 331.06 447.44 302.44 430.61C253.33 403.04 209.39 368.67 167.27 331.62C128.68 298.48 93.39 261.68 61.9 221.74C40.25 193.55 21.19 163.95 9.64 130C6.8 121.63 4.88 112.97 2.54 104.66C2.44 103.13 1.67 90.97 1.58 89.45C8.01 70.24 20.99 55.44 34.62 41.2C44.76 30.76 55.15 20.93 65.85 11.2C74.69 2.81 87.07 -0.71 98.99 1.76C105.78 2.78 111.9 6.42 116.03 11.9C137.81 40.8 159.36 69.89 181.92 98.32C191.38 109.66 193.55 125.4 187.49 138.87C184.75 146.12 181.15 153.06 177.81 160.1C173.96 168.26 170.16 176.48 165.95 184.44C164.13 186.9 164.52 190.36 166.86 192.34C182.07 207.9 196.56 224.17 212.48 239.12C241.76 267.57 273.44 293.45 307.15 316.46C310.15 319.07 314.6 319.07 317.6 316.46C329.91 308.05 342.44 299.99 355.11 292.09C363.93 285.84 374.8 283.15 385.52 284.59C388.79 285.1 391.95 286.2 394.84 287.84C445.07 316.46 485.17 339.65 495.19 345.41C505.94 351.49 510.96 366.69 507.21 381.14C506.36 384.71 504.97 388.13 503.1 391.27C488.76 414.75 471.24 436.11 451.05 454.79Z" id="ar45pMWCU"></path><path d="M451.05 454.79C445.02 459.63 438.67 464.07 432.04 468.06C430.52 468.16 418.35 468.94 416.84 469.03C409.48 468.06 402.09 467.41 394.79 466.09C362.26 459.43 331.06 447.44 302.44 430.61C253.33 403.04 209.39 368.67 167.27 331.62C128.68 298.48 93.39 261.68 61.9 221.74C40.25 193.55 21.19 163.95 9.64 130C6.8 121.63 4.88 112.97 2.54 104.66C2.44 103.13 1.67 90.97 1.58 89.45C8.01 70.24 20.99 55.44 34.62 41.2C44.76 30.76 55.15 20.93 65.85 11.2C74.69 2.81 87.07 -0.71 98.99 1.76C105.78 2.78 111.9 6.42 116.03 11.9C137.81 40.8 159.36 69.89 181.92 98.32C191.38 109.66 193.55 125.4 187.49 138.87C184.75 146.12 181.15 153.06 177.81 160.1C173.96 168.26 170.16 176.48 165.95 184.44C164.13 186.9 164.52 190.36 166.86 192.34C182.07 207.9 196.56 224.17 212.48 239.12C241.76 267.57 273.44 293.45 307.15 316.46C310.15 319.07 314.6 319.07 317.6 316.46C329.91 308.05 342.44 299.99 355.11 292.09C363.93 285.84 374.8 283.15 385.52 284.59C388.79 285.1 391.95 286.2 394.84 287.84C445.07 316.46 485.17 339.65 495.19 345.41C505.94 351.49 510.96 366.69 507.21 381.14C506.36 384.71 504.97 388.13 503.1 391.27C488.76 414.75 471.24 436.11 451.05 454.79Z" id="aC6RajF6R"></path><path d="M474.34 0.99C479.45 0.99 483.63 5.61 483.63 11.27C483.63 25.66 483.63 140.82 483.63 155.21C483.63 160.87 479.45 165.49 474.34 165.49C469.53 165.49 445.46 165.49 402.14 165.49C371.36 192.79 354.26 207.96 350.84 210.99C349.21 212.53 347.12 213.3 345.03 213.3C343.64 213.3 342.25 213.05 341.08 212.28C337.83 210.48 335.75 206.88 335.75 203.02C335.75 200.52 335.75 188.01 335.75 165.49C297.72 165.49 276.59 165.49 272.37 165.49C267.26 165.49 263.08 160.87 263.08 155.21C263.08 140.82 263.08 25.66 263.08 11.27C263.08 5.61 267.26 0.99 272.37 0.99C312.76 0.99 454.15 0.99 474.34 0.99Z" id="b29thiBEff"></path></defs><g><g><use xlink:href="#ar45pMWCU" opacity="1" fill="#4adee4" fill-opacity="1"></use><g><use xlink:href="#ar45pMWCU" opacity="1" fill-opacity="0" stroke="#000000" stroke-width="1" stroke-opacity="0"></use></g></g><g><use xlink:href="#aC6RajF6R" opacity="1" fill="#000000" fill-opacity="0"></use><g><use xlink:href="#aC6RajF6R" opacity="1" fill-opacity="0" stroke="#000000" stroke-width="1" stroke-opacity="0"></use></g></g><g><use xlink:href="#b29thiBEff" opacity="1" fill="#4adee4" fill-opacity="1"></use><g><use xlink:href="#b29thiBEff" opacity="1" fill-opacity="0" stroke="#000000" stroke-width="1" stroke-opacity="0"></use></g></g></g></svg>