<?xml version="1.0" encoding="UTF-8" standalone="no"?>
<!DOCTYPE svg PUBLIC "-//W3C//DTD SVG 1.1//EN" "http://www.w3.org/Graphics/SVG/1.1/DTD/svg11.dtd">
<svg version="1.1" xmlns="http://www.w3.org/2000/svg" xmlns:xlink="http://www.w3.org/1999/xlink" preserveAspectRatio="xMidYMid meet" viewBox="164.48460606060604 6.757575757575751 313.0463030303031 500.4848484848485" width="309.05" height="496.48"><defs><path d="M320.03 47.68C267.74 47.68 225.37 91.52 225.37 145.67C225.37 199.79 267.73 243.76 320.03 243.76C372.29 243.76 414.66 199.79 414.66 145.67C414.66 91.52 372.3 47.68 320.03 47.68Z" id="bdqTMi32x"></path><path d="M319.98 366.39L352.44 301.58L319.98 259.06L287.53 301.58L319.98 366.39Z" id="acauR3tC1"></path><path d="M391.77 247.93L359.98 311.39L319.98 391.23L280.02 311.39L248.21 247.93C230.24 247.93 220.26 247.93 218.27 247.93C189.13 247.93 165.48 271.53 165.48 300.65C168.37 315.74 191.44 436.41 194.33 451.49C201.77 490.53 229.19 504.24 244.97 504.24C252.26 504.24 284.78 504.24 317.69 504.24C319.24 504.24 320.78 504.24 322.33 504.24C355.2 504.24 387.75 504.24 395.05 504.24C410.83 504.24 438.21 490.51 445.67 451.49C448.56 436.41 471.65 315.75 474.53 300.67C474.52 271.55 450.87 247.93 421.73 247.93C417.74 247.93 407.75 247.93 391.77 247.93Z" id="e2mVOZgnVD"></path><path d="M202.32 217.34C202.07 218.61 201.56 219.73 201.56 221.06C201.56 232.39 210.76 241.57 222.08 241.57C233.43 241.57 242.61 232.39 242.61 221.06C242.61 209.73 233.43 200.52 222.08 200.52C221.08 200.52 220.21 200.97 219.23 201.09C213.91 192.42 210.57 183.09 208.73 176.83C213.01 175.24 216.51 172.03 218.27 167.86C219.12 165.86 215.91 158.38 216.33 141.02C216.81 120.1 222.18 109.99 222.07 109.32C221.45 104.71 218.81 100.93 215.26 98.29C233.61 58.32 274.28 30.83 320 30.83C366.02 30.83 406.36 58.49 424.62 98.38C421.11 100.99 418.49 104.74 417.89 109.32C417.78 109.99 423.14 120.1 423.63 141.02C424.04 158.38 420.83 165.87 421.69 167.86C424.17 173.77 430.02 177.91 436.84 177.91C438.06 177.91 447.81 177.91 449.02 177.91C458.12 177.91 465.5 170.51 465.5 161.42C465.5 156.34 465.5 115.74 465.5 110.67C465.5 101.58 458.12 94.21 449.02 94.21C448.92 94.21 448.05 94.21 447.94 94.21C427.29 43.49 377.28 7.76 320.02 7.76C263.09 7.76 212.77 43.27 192.03 94.21C191.92 94.21 191.07 94.21 190.96 94.21C181.87 94.21 174.48 101.58 174.48 110.67C174.48 115.74 174.48 156.34 174.48 161.42C174.48 168.37 178.77 174.24 184.83 176.67C186.45 183.48 191.44 201.53 202.32 217.34Z" id="b2J781G58Y"></path></defs><g><g><use xlink:href="#bdqTMi32x" opacity="1" fill="#4adee4" fill-opacity="1"></use><g><use xlink:href="#bdqTMi32x" opacity="1" fill-opacity="0" stroke="#000000" stroke-width="1" stroke-opacity="0"></use></g></g><g><use xlink:href="#acauR3tC1" opacity="1" fill="#4adee4" fill-opacity="1"></use><g><use xlink:href="#acauR3tC1" opacity="1" fill-opacity="0" stroke="#000000" stroke-width="1" stroke-opacity="0"></use></g></g><g><use xlink:href="#e2mVOZgnVD" opacity="1" fill="#4adee4" fill-opacity="1"></use><g><use xlink:href="#e2mVOZgnVD" opacity="1" fill-opacity="0" stroke="#000000" stroke-width="1" stroke-opacity="0"></use></g></g><g><use xlink:href="#b2J781G58Y" opacity="1" fill="#4adee4" fill-opacity="1"></use><g><use xlink:href="#b2J781G58Y" opacity="1" fill-opacity="0" stroke="#000000" stroke-width="1" stroke-opacity="0"></use></g></g></g></svg>