<svg xmlns="http://www.w3.org/2000/svg" xmlns:xlink="http://www.w3.org/1999/xlink" viewBox="0 0 60.75 60.75"><defs><clipPath id="clip-path" transform="translate(0)"><rect width="60.75" height="60.75" style="fill:none"/></clipPath></defs><title>Asset 12</title><g id="Layer_2" data-name="Layer 2"><g id="Layer_1-2" data-name="Layer 1"><g style="clip-path:url(#clip-path)"><path d="M49.22,54,36.3,41.07a16.89,16.89,0,1,1,4.78-4.78L54,49.22ZM54,0H6.75A6.75,6.75,0,0,0,0,6.75V54a6.75,6.75,0,0,0,6.75,6.75H54A6.75,6.75,0,0,0,60.75,54V6.75A6.75,6.75,0,0,0,54,0ZM27,16.88A10.13,10.13,0,1,0,37.13,27,10.13,10.13,0,0,0,27,16.88Z" transform="translate(0)" style="fill:#4a5d6a"/></g></g></g></svg>