<?xml version="1.0" encoding="UTF-8" standalone="no"?>
<!DOCTYPE svg PUBLIC "-//W3C//DTD SVG 1.1//EN" "http://www.w3.org/Graphics/SVG/1.1/DTD/svg11.dtd">
<svg version="1.1" xmlns="http://www.w3.org/2000/svg" xmlns:xlink="http://www.w3.org/1999/xlink" preserveAspectRatio="xMidYMid meet" viewBox="95 94.996 452 308.00800000000004" width="448" height="304.01"><defs><path d="M320 285.22C316.08 285.22 310.22 284.78 304.4 282.7C293.16 278.69 203.24 246.57 192 242.56C192 258.99 192 280.85 192 302.8C192 346.99 249.31 366.8 320 366.8C390.69 366.8 448 346.99 448 302.8C448 298.78 448 278.7 448 242.56L335.6 282.7C327.81 284.38 322.61 285.22 320 285.22Z" id="a1r822oa2i"></path><path d="M144 272C130.75 272 120 282.75 120 296C120 309.25 130.75 320 144 320C157.25 320 168 309.25 168 296C168 282.75 157.25 272 144 272Z" id="aFY6AJk7u"></path><path d="M110.27 392.58C100.35 382.66 96.38 335.74 144 304C191.62 335.74 187.65 382.66 177.71 392.58C167.81 402.48 120.18 402.48 110.27 392.58Z" id="cTxRmZFBz"></path><path d="M96 182.3C96 182.4 96 183.2 96 183.3C96 188.61 98.54 192.21 103.54 193.98C107.88 195.54 142.66 207.97 147.01 209.52C128.02 229.87 128 259.25 128 278.8C131.2 278.8 156.8 278.8 160 278.8C160 251.07 161.73 230.83 184.22 222.8C197.53 218.05 304 180.02 317.31 175.26C321.52 173.76 326.05 175.95 327.54 180.11C329.02 184.27 326.85 188.85 322.69 190.34C315.04 193.07 276.81 206.71 208 231.28C269.07 253.09 302.99 265.21 309.78 267.63C313.44 268.93 317.36 269.22 320 269.22C322.64 269.22 326.56 268.93 330.22 267.63C350.85 260.27 515.85 201.33 536.48 193.97C541.46 192.19 544 188.59 544 183.28C544 183.18 544 182.39 544 182.29C544 176.99 541.46 173.38 536.46 171.6C515.84 164.24 350.85 105.32 330.22 97.95C322.91 95.34 317.1 95.34 309.79 97.95C296.04 102.86 227.29 127.42 103.54 171.62C98.51 175.21 96 178.77 96 182.3Z" id="a6hu9hY3r"></path></defs><g><g><use xlink:href="#a1r822oa2i" opacity="1" fill="#4adee4" fill-opacity="1"></use><g><use xlink:href="#a1r822oa2i" opacity="1" fill-opacity="0" stroke="#000000" stroke-width="1" stroke-opacity="0"></use></g></g><g><use xlink:href="#aFY6AJk7u" opacity="1" fill="#4adee4" fill-opacity="1"></use><g><use xlink:href="#aFY6AJk7u" opacity="1" fill-opacity="0" stroke="#000000" stroke-width="1" stroke-opacity="0"></use></g></g><g><use xlink:href="#cTxRmZFBz" opacity="1" fill="#4adee4" fill-opacity="1"></use><g><use xlink:href="#cTxRmZFBz" opacity="1" fill-opacity="0" stroke="#000000" stroke-width="1" stroke-opacity="0"></use></g></g><g><use xlink:href="#a6hu9hY3r" opacity="1" fill="#4adee4" fill-opacity="1"></use><g><use xlink:href="#a6hu9hY3r" opacity="1" fill-opacity="0" stroke="#000000" stroke-width="1" stroke-opacity="0"></use></g></g></g></svg>