<?xml version="1.0" encoding="UTF-8" standalone="no"?>
<!DOCTYPE svg PUBLIC "-//W3C//DTD SVG 1.1//EN" "http://www.w3.org/Graphics/SVG/1.1/DTD/svg11.dtd">
<svg version="1.1" xmlns="http://www.w3.org/2000/svg" xmlns:xlink="http://www.w3.org/1999/xlink" preserveAspectRatio="xMidYMid meet" viewBox="84.90454577411808 127.51199999999997 472.11167999447105 258.9760000000001" width="468.11" height="254.98"><defs><path d="M550.4 287.74C547.84 263.68 531.97 243.71 509.95 236.03C499.71 245.25 485.89 250.88 471.04 250.88C456.19 250.88 442.37 245.25 432.13 236.03C424.45 238.59 417.28 243.2 411.14 248.83C423.42 263.17 431.62 280.58 433.66 300.03C434.07 304.44 437.35 339.66 437.76 344.06C437.76 345.6 437.76 347.65 437.76 349.18C439.04 349.44 449.28 351.49 450.56 351.74C464.38 354.3 478.21 354.3 492.03 351.74C496.84 350.77 535.35 342.99 540.16 342.02C548.86 340.48 554.5 332.29 553.98 323.58C553.27 316.42 550.76 291.33 550.4 287.74Z" id="a4V5r42a"></path><path d="M368.13 238.59C355.33 249.86 338.43 257.02 320.51 257.02C302.59 257.02 285.18 250.37 272.9 238.59C246.27 247.81 225.79 272.38 223.23 302.08C222.82 306.48 219.55 341.71 219.14 346.11C218.11 356.86 225.28 366.59 236.03 369.15C241.87 370.33 288.56 379.75 294.4 380.93C298.5 381.95 302.59 382.46 307.2 382.98C311.3 383.49 315.9 383.49 320 383.49C324.1 383.49 328.7 383.49 332.8 382.98C336.9 382.46 341.5 381.95 345.6 380.93C351.54 379.7 399.05 369.87 404.99 368.64C415.74 366.59 422.91 356.86 421.89 346.11C421.89 346.08 421.89 345.91 421.89 345.6C419.43 319.49 418.07 304.98 417.79 302.08C416.26 286.72 410.11 272.9 400.9 261.63C392.19 251.39 380.93 243.2 368.13 238.59Z" id="a2wnZRRooS"></path><path d="M320 241.15C329.73 241.15 338.43 238.59 346.11 234.5C364.03 225.28 376.32 206.34 376.32 184.83C376.32 153.6 351.23 128.51 320 128.51C288.77 128.51 263.68 153.6 263.68 184.83C263.68 206.34 275.97 225.28 293.89 234.5C301.57 238.59 310.78 241.15 320 241.15Z" id="a2XPHneR0O"></path><path d="M471.04 236.54C478.72 236.54 485.89 234.5 492.54 231.42C506.88 223.74 517.12 208.38 517.12 190.98C517.12 165.89 496.64 145.41 471.55 145.41C446.46 145.41 425.98 165.89 425.98 190.98C425.47 208.38 435.2 223.74 449.54 231.42C455.68 235.01 463.36 236.54 471.04 236.54Z" id="daprBLgmw"></path><path d="M168.96 251.39C154.11 251.39 140.29 245.76 130.05 236.54C108.03 244.22 91.65 264.19 89.6 288.26C89.24 291.84 86.37 320.51 86.02 324.1C84.99 332.8 91.14 340.99 99.84 342.53C104.65 343.5 143.16 351.28 147.97 352.26C161.79 354.82 175.62 354.82 189.44 352.26C190.72 352 200.96 349.95 202.24 349.7C202.24 348.16 202.24 346.11 202.24 344.58C202.65 340.17 205.93 304.95 206.34 300.54C208.38 281.09 216.06 263.17 228.86 249.34C222.72 243.71 215.55 239.62 207.87 236.54C197.63 245.76 183.81 251.39 168.96 251.39Z" id="a2jMrPjwNc"></path><path d="M168.96 236.54C176.64 236.54 183.81 234.5 190.46 231.42C204.8 223.74 215.04 208.38 215.04 190.98C215.04 165.89 194.56 145.41 169.47 145.41C144.38 145.41 123.9 165.89 123.9 190.98C123.39 208.38 133.12 223.74 147.46 231.42C153.6 235.01 161.28 236.54 168.96 236.54Z" id="mQLRthTFg"></path></defs><g><g><use xlink:href="#a4V5r42a" opacity="1" fill="#4adee4" fill-opacity="1"></use><g><use xlink:href="#a4V5r42a" opacity="1" fill-opacity="0" stroke="#000000" stroke-width="1" stroke-opacity="0"></use></g></g><g><use xlink:href="#a2wnZRRooS" opacity="1" fill="#4adee4" fill-opacity="1"></use><g><use xlink:href="#a2wnZRRooS" opacity="1" fill-opacity="0" stroke="#000000" stroke-width="1" stroke-opacity="0"></use></g></g><g><use xlink:href="#a2XPHneR0O" opacity="1" fill="#4adee4" fill-opacity="1"></use><g><use xlink:href="#a2XPHneR0O" opacity="1" fill-opacity="0" stroke="#000000" stroke-width="1" stroke-opacity="0"></use></g></g><g><use xlink:href="#daprBLgmw" opacity="1" fill="#4adee4" fill-opacity="1"></use><g><use xlink:href="#daprBLgmw" opacity="1" fill-opacity="0" stroke="#000000" stroke-width="1" stroke-opacity="0"></use></g></g><g><use xlink:href="#a2jMrPjwNc" opacity="1" fill="#4adee4" fill-opacity="1"></use><g><use xlink:href="#a2jMrPjwNc" opacity="1" fill-opacity="0" stroke="#000000" stroke-width="1" stroke-opacity="0"></use></g></g><g><use xlink:href="#mQLRthTFg" opacity="1" fill="#4adee4" fill-opacity="1"></use><g><use xlink:href="#mQLRthTFg" opacity="1" fill-opacity="0" stroke="#000000" stroke-width="1" stroke-opacity="0"></use></g></g></g></svg>