<?xml version="1.0" encoding="UTF-8" standalone="no"?>
<!DOCTYPE svg PUBLIC "-//W3C//DTD SVG 1.1//EN" "http://www.w3.org/Graphics/SVG/1.1/DTD/svg11.dtd">
<svg version="1.1" xmlns="http://www.w3.org/2000/svg" xmlns:xlink="http://www.w3.org/1999/xlink" preserveAspectRatio="xMidYMid meet" viewBox="117.55976701754398 12.456592280701692 452.34303999999986 396.1408" width="448.34" height="392.14"><defs><path d="M445.25 13.9L450.6 14.44L455.88 15.19L461.09 16.15L466.23 17.31L471.29 18.66L476.27 20.21L481.16 21.95L485.97 23.87L490.67 25.97L495.28 28.25L499.79 30.7L504.19 33.31L508.48 36.09L512.65 39.03L516.7 42.12L520.63 45.36L524.42 48.75L528.09 52.28L531.62 55.94L535 59.74L538.24 63.67L541.33 67.72L544.27 71.89L547.05 76.18L549.66 80.58L552.11 85.08L554.39 89.69L556.49 94.4L558.41 99.21L560.15 104.1L561.7 109.08L563.05 114.14L564.21 119.28L565.17 124.49L565.92 129.77L566.46 135.12L566.79 140.53L566.9 145.99L566.88 148.7L566.79 151.4L566.66 154.09L566.47 156.76L566.23 159.42L565.94 162.06L565.59 164.69L565.19 167.3L564.75 169.89L564.25 172.47L563.7 175.03L563.11 177.57L562.46 180.09L561.77 182.59L561.03 185.07L560.25 187.53L559.41 189.97L558.53 192.39L557.61 194.79L556.64 197.16L555.63 199.51L554.57 201.84L553.47 204.14L552.32 206.42L551.14 208.67L549.91 210.9L548.64 213.1L547.33 215.28L545.98 217.42L544.59 219.54L543.16 221.63L541.7 223.7L540.19 225.73L538.65 227.73L537.07 229.71L535.45 231.65L533.8 233.56L532.11 235.44L530.39 237.28L528.63 239.09L528.57 239.17L528.5 239.25L528.43 239.33L528.37 239.41L528.3 239.48L528.24 239.56L528.17 239.64L528.1 239.72L528.03 239.8L527.97 239.87L527.9 239.95L527.83 240.03L527.76 240.11L527.69 240.19L527.63 240.26L527.56 240.34L527.49 240.42L527.42 240.49L527.35 240.57L527.28 240.65L527.21 240.73L527.14 240.8L527.07 240.88L527 240.96L526.93 241.03L526.86 241.11L526.79 241.18L526.72 241.26L526.64 241.34L526.57 241.41L526.5 241.49L526.43 241.56L526.36 241.64L526.28 241.71L526.21 241.79L526.14 241.86L526.07 241.94L525.99 242.01L525.92 242.08L525.85 242.16L375.62 392.41L374.98 393.04L374.32 393.66L373.66 394.26L372.98 394.85L372.3 395.42L371.6 395.98L370.9 396.52L370.18 397.05L369.46 397.56L368.73 398.06L367.99 398.54L367.25 399.01L366.49 399.46L365.73 399.9L364.96 400.32L364.18 400.73L363.39 401.12L362.6 401.49L361.8 401.85L360.99 402.19L360.17 402.52L359.35 402.83L358.53 403.13L357.69 403.41L356.86 403.67L356.01 403.91L355.16 404.14L354.31 404.36L353.45 404.55L352.58 404.73L351.71 404.9L350.84 405.04L349.96 405.17L349.08 405.28L348.19 405.38L347.3 405.46L346.41 405.52L345.51 405.56L344.61 405.59L343.71 405.6L342.37 405.6L341.46 405.59L340.55 405.56L339.65 405.52L338.76 405.46L337.86 405.38L336.97 405.28L336.09 405.17L335.21 405.04L334.33 404.89L333.46 404.73L332.59 404.55L331.73 404.35L330.87 404.13L330.02 403.9L329.17 403.66L328.33 403.39L327.5 403.11L326.67 402.81L325.85 402.5L325.04 402.17L324.23 401.83L323.43 401.47L322.63 401.09L321.84 400.7L321.07 400.29L320.29 399.87L319.53 399.43L318.77 398.97L318.03 398.51L317.29 398.02L316.56 397.52L315.84 397L315.13 396.47L314.42 395.93L313.73 395.37L313.05 394.8L312.37 394.21L311.71 393.6L311.06 392.98L310.42 392.35L163.09 245.04L161.06 243.2L159.07 241.31L157.12 239.39L155.21 237.43L153.34 235.42L151.51 233.38L149.72 231.31L147.97 229.19L146.27 227.04L144.61 224.85L143 222.63L141.43 220.37L139.91 218.09L138.43 215.76L137 213.41L135.62 211.02L134.29 208.6L133 206.16L131.77 203.68L130.58 201.17L129.45 198.64L128.37 196.08L127.34 193.49L126.37 190.87L125.45 188.23L124.58 185.57L123.77 182.88L123.02 180.16L122.32 177.43L121.68 174.67L121.09 171.89L120.57 169.08L120.1 166.26L119.7 163.42L119.35 160.56L119.07 157.68L118.85 154.78L118.69 151.87L118.59 148.94L118.56 145.99L118.67 140.53L119 135.12L119.54 129.78L120.29 124.5L121.25 119.28L122.41 114.14L123.77 109.08L125.32 104.1L127.05 99.21L128.97 94.4L131.08 89.7L133.35 85.09L135.8 80.58L138.42 76.18L141.19 71.89L144.13 67.72L147.22 63.67L150.46 59.74L153.85 55.94L157.38 52.28L161.04 48.75L164.84 45.36L168.77 42.12L172.82 39.03L176.99 36.09L181.28 33.31L185.68 30.7L190.19 28.25L194.8 25.97L199.51 23.87L204.31 21.95L209.21 20.21L214.19 18.66L219.25 17.31L224.39 16.15L229.6 15.19L234.88 14.44L240.23 13.9L245.64 13.57L251.1 13.46L253.76 13.48L256.41 13.56L259.04 13.69L261.66 13.87L264.27 14.1L266.86 14.39L269.44 14.72L272 15.1L274.54 15.53L277.07 16.01L279.58 16.53L282.07 17.11L284.55 17.73L287 18.39L289.44 19.1L291.86 19.86L294.25 20.66L296.63 21.51L298.98 22.4L301.32 23.33L303.63 24.31L305.92 25.33L308.19 26.39L310.43 27.49L312.65 28.63L314.84 29.81L317.01 31.03L319.16 32.3L321.27 33.6L323.37 34.94L325.43 36.31L327.47 37.73L329.48 39.18L331.46 40.66L333.41 42.19L335.33 43.75L337.23 45.34L339.09 46.97L340.92 48.63L342.72 50.33L344.52 48.63L346.36 46.97L348.22 45.34L350.11 43.75L352.04 42.19L353.99 40.66L355.97 39.18L357.98 37.73L360.02 36.31L362.08 34.94L364.17 33.6L366.29 32.3L368.44 31.03L370.61 29.81L372.8 28.63L375.02 27.49L377.26 26.39L379.53 25.33L381.82 24.31L384.13 23.33L386.47 22.4L388.82 21.51L391.2 20.66L393.6 19.86L396.02 19.1L398.46 18.39L400.91 17.73L403.39 17.11L405.88 16.53L408.39 16.01L410.92 15.53L413.47 15.1L416.03 14.72L418.61 14.39L421.2 14.1L423.81 13.87L426.43 13.69L429.07 13.56L431.72 13.48L434.38 13.46L439.84 13.57L445.25 13.9ZM388.53 77.94L387.14 78.01L385.74 78.11L384.36 78.23L382.99 78.38L381.62 78.56L380.26 78.76L378.91 78.99L377.57 79.25L376.23 79.53L374.91 79.84L373.6 80.17L372.29 80.52L371 80.9L369.72 81.31L368.45 81.74L367.18 82.19L365.93 82.66L364.7 83.16L363.47 83.68L362.25 84.23L361.05 84.79L359.86 85.38L358.68 85.99L357.52 86.62L356.37 87.28L355.23 87.95L354.11 88.64L353 89.36L351.9 90.1L350.82 90.85L349.75 91.63L348.7 92.42L347.67 93.23L346.65 94.07L345.64 94.92L344.65 95.79L343.68 96.67L342.73 97.58L341.77 96.67L340.8 95.79L339.81 94.92L338.81 94.07L337.79 93.23L336.75 92.42L335.7 91.63L334.63 90.85L333.55 90.1L332.46 89.36L331.35 88.64L330.22 87.95L329.09 87.28L327.94 86.62L326.77 85.99L325.59 85.38L324.4 84.79L323.2 84.23L321.99 83.68L320.76 83.16L319.52 82.66L318.27 82.19L317.01 81.74L315.74 81.31L314.46 80.9L313.17 80.52L311.86 80.17L310.55 79.84L309.23 79.53L307.9 79.25L306.56 78.99L305.21 78.76L303.85 78.56L302.48 78.38L301.11 78.23L299.72 78.11L298.33 78.01L296.94 77.94L295.53 77.9L294.12 77.89L291.22 77.95L288.35 78.12L285.52 78.41L282.71 78.81L279.95 79.32L277.22 79.94L274.54 80.67L271.89 81.5L269.3 82.42L266.75 83.45L264.25 84.57L261.81 85.79L259.42 87.1L257.08 88.49L254.81 89.98L252.59 91.55L250.44 93.2L248.36 94.93L246.34 96.74L244.4 98.62L242.53 100.58L240.73 102.61L239.01 104.71L237.37 106.87L235.81 109.1L234.34 111.39L232.95 113.74L231.65 116.15L230.45 118.61L229.33 121.13L228.31 123.69L227.39 126.31L226.57 128.97L225.85 131.67L225.23 134.41L224.73 137.2L224.33 140.02L224.04 142.88L223.87 145.76L223.81 148.68L223.82 150.26L223.87 151.82L223.96 153.38L224.08 154.92L224.23 156.46L224.41 157.99L224.63 159.51L224.87 161.02L225.15 162.51L225.46 164L225.8 165.47L226.17 166.93L226.57 168.38L227 169.82L227.46 171.24L227.95 172.66L228.47 174.05L229.01 175.44L229.59 176.8L230.19 178.16L230.81 179.5L231.47 180.82L232.15 182.13L232.86 183.42L233.59 184.69L234.35 185.95L235.13 187.19L235.94 188.41L236.77 189.62L237.63 190.81L238.51 191.97L239.41 193.12L240.34 194.25L241.28 195.36L242.26 196.45L243.25 197.52L244.26 198.57L245.3 199.6L246.35 200.6L247.43 201.59L325.59 280.28L325.93 280.61L326.28 280.94L326.63 281.27L326.98 281.58L327.35 281.89L327.71 282.19L328.09 282.48L328.46 282.76L328.85 283.04L329.23 283.3L329.63 283.56L330.02 283.81L330.42 284.06L330.83 284.29L331.24 284.52L331.65 284.74L332.07 284.94L332.49 285.15L332.91 285.34L333.34 285.52L333.78 285.7L334.21 285.87L334.65 286.02L335.09 286.17L335.54 286.31L335.99 286.45L336.44 286.57L336.89 286.68L337.35 286.79L337.81 286.89L338.28 286.97L338.74 287.05L339.21 287.12L339.68 287.18L340.15 287.23L340.62 287.28L341.1 287.31L341.58 287.33L342.06 287.35L342.54 287.35L343.25 287.35L343.73 287.35L344.21 287.33L344.68 287.31L345.16 287.28L345.63 287.24L346.1 287.18L346.57 287.12L347.03 287.06L347.5 286.98L347.96 286.89L348.42 286.79L348.87 286.69L349.33 286.58L349.78 286.45L350.22 286.32L350.67 286.18L351.11 286.03L351.55 285.87L351.98 285.71L352.42 285.53L352.84 285.35L353.27 285.16L353.69 284.96L354.11 284.75L354.52 284.53L354.93 284.31L355.34 284.08L355.74 283.83L356.13 283.58L356.53 283.33L356.91 283.06L357.3 282.79L357.67 282.5L358.05 282.21L358.42 281.92L358.78 281.61L359.14 281.3L359.49 280.98L359.84 280.65L360.18 280.31L439.87 200.05L439.91 200.01L439.95 199.97L439.99 199.93L440.03 199.89L440.07 199.85L440.11 199.81L440.15 199.77L440.18 199.73L440.22 199.69L440.26 199.65L440.3 199.61L440.34 199.57L440.37 199.53L440.41 199.49L440.45 199.45L440.49 199.41L440.52 199.37L440.56 199.33L440.6 199.28L440.64 199.24L440.67 199.2L440.71 199.16L440.75 199.12L440.78 199.08L440.82 199.04L440.86 199L440.89 198.95L440.93 198.91L440.96 198.87L441 198.83L441.04 198.79L441.07 198.75L441.11 198.7L441.14 198.66L441.18 198.62L441.21 198.58L441.25 198.54L441.28 198.5L441.32 198.45L441.35 198.41L442.28 197.44L443.2 196.46L444.09 195.46L444.97 194.43L445.83 193.4L446.67 192.34L447.49 191.27L448.28 190.19L449.06 189.09L449.82 187.97L450.56 186.84L451.27 185.69L451.97 184.53L452.64 183.35L453.29 182.16L453.92 180.96L454.53 179.74L455.11 178.51L455.67 177.27L456.21 176.01L456.73 174.75L457.22 173.47L457.68 172.17L458.12 170.87L458.54 169.56L458.93 168.23L459.3 166.89L459.64 165.55L459.96 164.19L460.25 162.82L460.51 161.45L460.75 160.06L460.96 158.67L461.14 157.27L461.3 155.85L461.43 154.43L461.53 153.01L461.6 151.57L461.64 150.13L461.66 148.68L461.6 145.76L461.42 142.87L461.14 140.02L460.74 137.2L460.23 134.41L459.61 131.67L458.89 128.96L458.07 126.3L457.15 123.69L456.13 121.12L455.02 118.61L453.81 116.15L452.51 113.74L451.12 111.39L449.65 109.1L448.09 106.87L446.45 104.71L444.73 102.61L442.94 100.58L441.06 98.62L439.12 96.74L437.11 94.93L435.02 93.2L432.87 91.55L430.66 89.98L428.39 88.49L426.05 87.1L423.66 85.79L421.22 84.57L418.72 83.45L416.17 82.42L413.57 81.5L410.93 80.67L408.25 79.94L405.52 79.32L402.76 78.81L399.95 78.41L397.12 78.12L394.25 77.95L391.35 77.89L389.94 77.9L388.53 77.94Z" id="bpS1s49Ve"></path></defs><g><g><use xlink:href="#bpS1s49Ve" opacity="1" fill="#4adee4" fill-opacity="1"></use><g><use xlink:href="#bpS1s49Ve" opacity="1" fill-opacity="0" stroke="#000000" stroke-width="1" stroke-opacity="0"></use></g></g></g></svg>