<?xml version="1.0" encoding="UTF-8" standalone="no"?>
<!DOCTYPE svg PUBLIC "-//W3C//DTD SVG 1.1//EN" "http://www.w3.org/Graphics/SVG/1.1/DTD/svg11.dtd">
<svg version="1.1" xmlns="http://www.w3.org/2000/svg" xmlns:xlink="http://www.w3.org/1999/xlink" preserveAspectRatio="xMidYMid meet" viewBox="159.46594928289014 149.8804210526316 340.0806099766154 258.9760000000001" width="336.08" height="254.98"><defs><path d="M442.69 260.96C429.89 272.22 412.99 279.39 395.07 279.39C377.15 279.39 359.75 272.74 347.46 260.96C320.83 270.18 300.35 294.75 297.79 324.45C297.38 328.85 294.11 364.08 293.7 368.48C292.67 379.23 299.84 388.96 310.59 391.52C316.43 392.7 363.12 402.12 368.96 403.3C373.06 404.32 377.15 404.83 381.76 405.34C385.86 405.86 390.47 405.86 394.56 405.86C398.66 405.86 403.27 405.86 407.36 405.34C411.46 404.83 416.07 404.32 420.16 403.3C426.1 402.07 473.61 392.24 479.55 391.01C490.31 388.96 497.47 379.23 496.45 368.48C496.45 368.45 496.45 368.28 496.45 367.97C493.99 341.86 492.63 327.35 492.35 324.45C490.82 309.09 484.67 295.26 475.46 284C466.75 273.76 455.49 265.57 442.69 260.96Z" id="a3H3TxQ2vc"></path><path d="M394.56 263.52C404.29 263.52 412.99 260.96 420.67 256.86C438.59 247.65 450.88 228.7 450.88 207.2C450.88 175.97 425.79 150.88 394.56 150.88C363.33 150.88 338.24 175.97 338.24 207.2C338.24 228.7 350.53 247.65 368.45 256.86C376.13 260.96 385.35 263.52 394.56 263.52Z" id="c6q7uiicof"></path><path d="M243.52 273.76C228.67 273.76 214.85 268.13 204.61 258.91C182.59 266.59 166.21 286.56 164.16 310.62C163.8 314.21 160.94 342.88 160.58 346.46C159.55 355.17 165.7 363.36 174.4 364.9C179.21 365.87 217.72 373.65 222.53 374.62C236.35 377.18 250.18 377.18 264 374.62C265.28 374.37 275.52 372.32 276.8 372.06C276.8 370.53 276.8 368.48 276.8 366.94C277.21 362.54 280.49 327.32 280.9 322.91C282.95 303.46 290.63 285.54 303.43 271.71C297.28 266.08 290.11 261.98 282.43 258.91C272.19 268.13 258.37 273.76 243.52 273.76Z" id="c13MTABjdV"></path><path d="M243.52 258.91C251.2 258.91 258.37 256.86 265.03 253.79C279.36 246.11 289.6 230.75 289.6 213.34C289.6 188.26 269.12 167.78 244.03 167.78C218.95 167.78 198.47 188.26 198.47 213.34C197.95 230.75 207.68 246.11 222.02 253.79C228.16 257.38 235.84 258.91 243.52 258.91Z" id="c2WKVbjvqt"></path></defs><g><g><use xlink:href="#a3H3TxQ2vc" opacity="1" fill="#4adee4" fill-opacity="1"></use><g><use xlink:href="#a3H3TxQ2vc" opacity="1" fill-opacity="0" stroke="#000000" stroke-width="1" stroke-opacity="0"></use></g></g><g><use xlink:href="#c6q7uiicof" opacity="1" fill="#4adee4" fill-opacity="1"></use><g><use xlink:href="#c6q7uiicof" opacity="1" fill-opacity="0" stroke="#000000" stroke-width="1" stroke-opacity="0"></use></g></g><g><use xlink:href="#c13MTABjdV" opacity="1" fill="#4adee4" fill-opacity="1"></use><g><use xlink:href="#c13MTABjdV" opacity="1" fill-opacity="0" stroke="#000000" stroke-width="1" stroke-opacity="0"></use></g></g><g><use xlink:href="#c2WKVbjvqt" opacity="1" fill="#4adee4" fill-opacity="1"></use><g><use xlink:href="#c2WKVbjvqt" opacity="1" fill-opacity="0" stroke="#000000" stroke-width="1" stroke-opacity="0"></use></g></g></g></svg>