<?xml version="1.0" encoding="UTF-8" standalone="no"?>
<!DOCTYPE svg PUBLIC "-//W3C//DTD SVG 1.1//EN" "http://www.w3.org/Graphics/SVG/1.1/DTD/svg11.dtd">
<svg version="1.1" xmlns="http://www.w3.org/2000/svg" xmlns:xlink="http://www.w3.org/1999/xlink" preserveAspectRatio="xMidYMid meet" viewBox="88.6 24.6 464.8000000000002 464.8" width="460.8" height="460.8"><defs><path d="M485.74 200.26C484.92 200.01 484.09 200 483.27 199.8C480.96 193.11 478.24 186.63 475.17 180.34C475.62 179.6 476.21 179 476.62 178.22C478.49 174.67 493.48 146.21 495.35 142.65C503 128.13 500.83 111 489.97 100.14C488.56 98.73 477.28 87.45 475.87 86.04C465.01 75.17 447.88 73 433.36 80.66C429.8 82.53 401.35 97.52 397.79 99.39C397.01 99.8 396.41 100.39 395.67 100.84C389.39 97.77 382.9 95.04 376.21 92.74C376.01 91.91 376 91.09 375.75 90.27C374.56 86.43 365.04 55.71 363.85 51.87C358.98 36.18 345.34 25.6 329.97 25.6C327.97 25.6 312.02 25.6 310.03 25.6C294.66 25.6 281.02 36.18 276.16 51.86C274.97 55.7 265.45 86.42 264.26 90.26C264 91.08 264 91.91 263.79 92.73C257.1 95.04 250.62 97.76 244.33 100.83C243.59 100.38 242.99 99.79 242.22 99.38C238.66 97.51 210.21 82.52 206.65 80.65C192.12 73 175 75.16 164.13 86.03C162.72 87.44 151.45 98.72 150.04 100.13C139.17 110.99 137 128.12 144.65 142.64C146.52 146.2 161.52 174.65 163.39 178.21C163.8 178.99 164.39 179.59 164.84 180.33C161.76 186.61 159.04 193.1 156.74 199.79C155.91 199.99 155.09 200 154.27 200.25C150.43 201.44 119.7 210.96 115.86 212.15C100.17 217.02 89.6 230.66 89.6 246.03C89.6 248.03 89.6 263.97 89.6 265.97C89.6 281.34 100.17 294.98 115.86 299.84C119.7 301.03 150.42 310.55 154.26 311.74C155.08 311.99 155.91 312 156.73 312.2C159.04 318.89 161.76 325.37 164.83 331.66C164.38 332.4 163.79 333 163.38 333.78C161.51 337.33 146.52 365.79 144.65 369.35C137 383.87 139.17 401 150.03 411.86C151.44 413.27 162.72 424.55 164.13 425.96C174.99 436.83 192.12 439 206.64 431.35C210.2 429.48 238.65 414.48 242.21 412.61C242.99 412.2 243.59 411.62 244.33 411.17C250.61 414.24 257.1 416.96 263.79 419.26C263.99 420.09 264 420.91 264.25 421.74C265.44 425.58 274.96 456.3 276.15 460.14C281.02 475.82 294.66 486.4 310.03 486.4C312.03 486.4 327.98 486.4 329.97 486.4C345.34 486.4 358.98 475.82 363.84 460.14C365.03 456.3 374.55 425.58 375.74 421.74C376 420.92 376 420.1 376.21 419.27C382.9 416.96 389.38 414.24 395.67 411.17C396.41 411.62 397.01 412.21 397.78 412.62C401.34 414.49 429.79 429.48 433.35 431.35C447.88 439 465 436.84 475.87 425.97C477.28 424.56 488.55 413.28 489.96 411.87C500.83 401 503 383.88 495.35 369.35C493.48 365.79 478.48 337.34 476.61 333.78C476.2 333 475.61 332.41 475.16 331.67C478.24 325.38 480.96 318.9 483.26 312.21C484.09 312.01 484.91 312 485.73 311.74C489.57 310.55 520.3 301.03 524.14 299.84C539.83 294.98 550.4 281.34 550.4 265.97C550.4 263.97 550.4 248.03 550.4 246.03C550.4 230.66 539.83 217.02 524.14 212.16C516.46 209.78 489.58 201.45 485.74 200.26ZM320 140.8C383.52 140.8 435.2 192.48 435.2 256C435.2 319.52 383.52 371.2 320 371.2C256.48 371.2 204.8 319.52 204.8 256C204.8 192.48 256.48 140.8 320 140.8Z" id="b2NpGCir8H"></path></defs><g><g><use xlink:href="#b2NpGCir8H" opacity="1" fill="#4adee4" fill-opacity="1"></use><g><use xlink:href="#b2NpGCir8H" opacity="1" fill-opacity="0" stroke="#000000" stroke-width="1" stroke-opacity="0"></use></g></g></g></svg>