<?xml version="1.0" encoding="UTF-8" standalone="no"?>
<!DOCTYPE svg PUBLIC "-//W3C//DTD SVG 1.1//EN" "http://www.w3.org/Graphics/SVG/1.1/DTD/svg11.dtd">
<svg version="1.1" xmlns="http://www.w3.org/2000/svg" xmlns:xlink="http://www.w3.org/1999/xlink" preserveAspectRatio="xMidYMid meet" viewBox="119.32 24.599999999999998 403.36000000000007 464.80000000000007" width="399.36" height="460.8"><defs><path d="M483.84 87.04C429.58 87.04 394.25 73.61 338.43 31.74C332.97 27.65 326.49 25.6 320 25.6C313.51 25.6 307.03 27.65 301.57 31.74C245.75 73.61 210.42 87.04 156.16 87.04C155.65 87.04 151.55 87.04 151.04 87.04C134.07 87.04 120.32 100.79 120.32 117.76C120.32 131.58 120.32 242.18 120.32 256C120.32 324.28 153.67 385.75 216.77 433.77C262.41 468.51 307.95 484.13 309.87 484.78C313.06 485.86 316.38 486.4 319.71 486.4C323.02 486.4 326.34 485.86 329.52 484.79C331.44 484.14 377.12 468.53 422.9 433.8C486.22 385.78 519.68 324.3 519.68 256C519.68 242.18 519.68 131.58 519.68 117.76C519.68 100.79 505.93 87.04 488.96 87.04C487.94 87.04 484.35 87.04 483.84 87.04ZM320 256C320 136.19 320 69.63 320 56.32C381.44 102.4 422.4 117.76 483.84 117.76C486.67 117.76 488.96 120.05 488.96 122.88C488.96 143.35 488.96 194.81 488.96 256C477.7 256 421.38 256 320 256C320 375.75 320 442.27 320 455.58C319.88 455.62 319.71 455.68 319.71 455.68C319.71 455.68 151.04 398.63 151.04 256C173.57 256 229.89 256 320 256Z" id="c39XwSkZII"></path></defs><g><g><use xlink:href="#c39XwSkZII" opacity="1" fill="#4adee4" fill-opacity="1"></use><g><use xlink:href="#c39XwSkZII" opacity="1" fill-opacity="0" stroke="#000000" stroke-width="1" stroke-opacity="0"></use></g></g></g></svg>