<svg width="35" height="30" viewBox="0 0 35 30" fill="none" xmlns="http://www.w3.org/2000/svg">
<path d="M34.6875 3.56363C33.4119 4.14942 32.0237 4.57102 30.5939 4.73522C32.0784 3.79633 33.1901 2.31303 33.7204 0.563627C32.3273 1.44583 30.8013 2.06444 29.2099 2.39203C28.5447 1.63505 27.7403 1.032 26.8467 0.620465C25.953 0.208931 24.9894 -0.00227123 24.0157 1.84189e-05C20.0763 1.84189e-05 16.9081 3.39942 16.9081 7.57102C16.9081 8.15682 16.9748 8.74262 17.0832 9.30623C11.1845 8.97782 5.92368 5.97783 2.42617 1.38463C1.78888 2.54343 1.45492 3.86285 1.45903 5.20564C1.45903 7.83285 2.7138 10.1494 4.62722 11.5118C3.49962 11.4646 2.39841 11.1346 1.41318 10.5488V10.642C1.41318 14.321 3.85602 17.3698 7.11175 18.071C6.50045 18.2401 5.8716 18.3265 5.24002 18.3284C4.7773 18.3284 4.33958 18.2796 3.89771 18.213C4.79814 21.213 7.42023 23.392 10.5426 23.463C8.09972 25.5 5.03992 26.6982 1.71749 26.6982C1.12137 26.6982 0.571108 26.676 0 26.605C3.15151 28.7574 6.89081 30 10.9177 30C23.9907 30 31.1441 18.4704 31.1441 8.46303C31.1441 8.13463 31.1441 7.80623 31.1233 7.47782C32.5073 6.39942 33.7204 5.06362 34.6875 3.56363Z" fill="white"/>
</svg>
