<svg xmlns="http://www.w3.org/2000/svg" xmlns:xlink="http://www.w3.org/1999/xlink" viewBox="0 0 30.75 30.75"><defs><clipPath id="clip-path"><rect width="30.75" height="30.75" style="fill:none"/></clipPath></defs><title>Asset 4</title><g id="Layer_2" data-name="Layer 2"><g id="Layer_1-2" data-name="Layer 1"><g style="clip-path:url(#clip-path)"><path d="M6.19,13.32A25.73,25.73,0,0,0,17.45,24.57l3.76-3.77a1.71,1.71,0,0,1,1.73-.42,19.45,19.45,0,0,0,6.1,1,1.7,1.7,0,0,1,1.71,1.71v6A1.7,1.7,0,0,1,29,30.75a29,29,0,0,1-29-29A1.71,1.71,0,0,1,1.71,0h6A1.7,1.7,0,0,1,9.4,1.71a19.45,19.45,0,0,0,1,6.1A1.71,1.71,0,0,1,10,9.54Z" style="fill:#4a5d6a"/></g></g></g></svg>