<svg xmlns="http://www.w3.org/2000/svg" viewBox="0 0 80 80"><defs><style>.cls-1{fill:#69c8f3;}.cls-2{fill:#fff;}</style></defs><title>Asset 5</title><g id="Layer_2" data-name="Layer 2"><g id="Layer_1-2" data-name="Layer 1"><path class="cls-1" d="M40,0q2,0,3.92.19T47.8.77q1.93.38,3.81,1T55.31,3q1.82.75,3.55,1.68t3.37,2q1.63,1.09,3.15,2.34t2.91,2.64q1.39,1.39,2.64,2.91t2.34,3.15q1.09,1.63,2,3.37T77,24.69q.75,1.82,1.32,3.7t1,3.81q.38,1.93.58,3.88T80,40q0,2-.19,3.92t-.58,3.88q-.38,1.93-1,3.81T77,55.31q-.75,1.82-1.68,3.55t-2,3.37q-1.09,1.63-2.34,3.15t-2.64,2.91q-1.39,1.39-2.91,2.64t-3.15,2.34q-1.63,1.09-3.37,2T55.31,77q-1.82.75-3.7,1.32t-3.81,1q-1.93.38-3.88.58T40,80q-2,0-3.92-.19t-3.88-.58q-1.93-.38-3.81-1T24.69,77q-1.82-.75-3.55-1.68t-3.37-2q-1.63-1.09-3.15-2.34t-2.91-2.64q-1.39-1.39-2.64-2.91T6.74,62.22q-1.09-1.63-2-3.37T3,55.31q-.75-1.82-1.32-3.7t-1-3.81Q.39,45.88.19,43.92T0,40q0-2,.19-3.92T.77,32.2q.38-1.93,1-3.81T3,24.69q.75-1.82,1.68-3.55t2-3.37q1.09-1.63,2.34-3.15t2.64-2.91q1.39-1.39,2.91-2.64t3.15-2.34q1.63-1.09,3.37-2T24.69,3q1.82-.75,3.7-1.32t3.81-1Q34.12.39,36.08.19T40,0Z"/><path class="cls-2" d="M51.83,52.27a22.78,22.78,0,0,1-23.65,0,11.28,11.28,0,0,1,10.91-8.5h1.83A11.28,11.28,0,0,1,51.83,52.27Z"/><path class="cls-2" d="M40,41.21a8.4,8.4,0,1,0-8.4-8.4h0A8.4,8.4,0,0,0,40,41.21Z"/></g></g></svg>