<svg width="121" height="100" viewBox="0 0 121 100" fill="none" xmlns="http://www.w3.org/2000/svg">
<path d="M46.043 12.9497L60.0717 85.2519H65.8271L79.1365 12.9497H46.043Z" fill="url(#paint0_linear)" fill-opacity="0.5"/>
<path d="M106.115 65.8276L89.9277 87.4104L92.8054 89.5686L116.546 73.0219L106.115 65.8276Z" fill="url(#paint1_linear)" fill-opacity="0.5"/>
<path d="M64.1482 1.75973L67.4559 12.6502V13.0986H67.9559H78.0347C79.7426 13.0986 80.4542 15.2826 79.0566 16.292C79.0564 16.2922 79.0561 16.2924 79.0558 16.2926L70.8135 22.18L70.5195 22.39L70.6265 22.735L73.8654 33.1763L73.8656 33.177C74.3766 34.8157 72.4722 36.1409 71.1138 35.1L71.1126 35.0991L62.755 28.7347L62.4526 28.5044L62.1499 28.7342L53.7923 35.076L53.7905 35.0774C52.4321 36.1182 50.5276 34.793 51.0386 33.1544L51.0388 33.1536L54.2777 22.7124L54.3847 22.3673L54.0907 22.1574L45.8464 16.2686L45.845 16.2675C44.4562 15.2831 45.1563 13.076 46.8695 13.076H56.9484H57.3183L57.4265 12.7222L60.7786 1.75996L60.7786 1.75997L60.78 1.75511C61.2708 0.0900982 63.6326 0.0717559 64.1481 1.75933C64.1481 1.75947 64.1482 1.7596 64.1482 1.75973Z" fill="url(#paint2_linear)" stroke="#F6891D"/>
<path d="M23.4538 33.7948L27.7989 39.0243L27.9693 39.4292L28.4302 39.2352L34.0038 36.8891C34.768 36.5674 35.5013 37.4095 35.0642 38.1284C35.064 38.1287 35.0638 38.129 35.0636 38.1293L31.8765 43.3029L31.687 43.6104L31.9195 43.8869L36.1411 48.9071L36.1416 48.9076C36.6792 49.5451 36.0763 50.4995 35.2708 50.2892L35.2694 50.2888L29.1661 48.7147L28.7981 48.6198L28.6082 48.949L25.4626 54.4015L25.4614 54.4035C25.0488 55.1265 23.9449 54.8906 23.8648 54.0605L23.8647 54.0598L23.2254 47.5318L23.1901 47.1723L22.8377 47.0928L16.9078 45.7553L16.9061 45.7549C16.1006 45.5763 15.995 44.4548 16.764 44.1311L22.3377 41.785L22.6787 41.6414L22.6411 41.2734L21.9431 34.4309L21.9431 34.4309L21.9425 34.4259C21.849 33.5924 22.9001 33.1302 23.4538 33.7948Z" fill="url(#paint3_linear)" stroke="#F6891D"/>
<path d="M104.986 28.568L104.217 35.3235L104.043 35.7267L104.502 35.9252L110.052 38.3257C110.813 38.6548 110.713 39.7668 109.891 39.9487C109.891 39.9488 109.891 39.9489 109.89 39.9489L103.95 41.2279L103.597 41.3039L103.558 41.6631L102.855 48.1845L102.855 48.1852C102.767 49.0145 101.66 49.2396 101.255 48.5126L101.254 48.5113L98.1675 43.0159L97.9813 42.6845L97.6122 42.7752L91.4993 44.2771L91.497 44.2776C90.6895 44.4801 90.0959 43.5198 90.6398 42.8877L90.6403 42.8871L94.9107 37.9084L95.1459 37.6342L94.9595 37.3248L91.8218 32.1183L91.8209 32.1168C91.3925 31.4117 92.1291 30.5594 92.8949 30.8906L98.4454 33.2911L98.7849 33.4379L99.0247 33.1561L103.482 27.9176L103.482 27.9176L103.485 27.9137C104.022 27.2694 105.083 27.7085 104.986 28.568Z" fill="url(#paint4_linear)" stroke="#F6891D"/>
<path d="M114.664 65.3805L113.277 69.6695L113.029 70.0265L113.439 70.312L116.749 72.6136C117.069 72.8361 116.922 73.3417 116.522 73.3495C116.522 73.3495 116.522 73.3495 116.521 73.3495L112.472 73.4007L112.11 73.4052L112.001 73.7496L110.68 77.9182L110.68 77.9189C110.562 78.2934 110.029 78.2953 109.909 77.9209L109.909 77.9194L108.618 73.9208L108.501 73.5591L108.121 73.5749L103.928 73.749L103.926 73.7491C103.533 73.7672 103.349 73.2667 103.659 73.0256L103.66 73.0252L107.108 70.3358L107.393 70.1137L107.271 69.7735L105.909 65.9568L105.908 65.9552C105.777 65.5917 106.195 65.2637 106.52 65.4892L109.83 67.7908L110.133 68.002L110.424 67.7733L114.028 64.9388L114.028 64.9388L114.032 64.9356C114.336 64.6915 114.791 64.9852 114.664 65.3801C114.664 65.3802 114.664 65.3804 114.664 65.3805Z" fill="url(#paint5_linear)" stroke="#F6891D"/>
<path d="M6.04109 67.0566L9.94365 69.3125L10.2406 69.6301L10.6058 69.2887L13.5508 66.5353C13.8355 66.2691 14.2989 66.5189 14.2226 66.9118C14.2225 66.9121 14.2224 66.9124 14.2224 66.9127L13.4227 70.8831L13.3513 71.2373L13.6651 71.4162L17.4638 73.5822L17.4645 73.5826C17.8059 73.7766 17.6958 74.2984 17.3046 74.3368L17.3031 74.337L13.1225 74.7605L12.7444 74.7988L12.6801 75.1734L11.9706 79.3095L11.9702 79.3118C11.9056 79.6995 11.3776 79.7743 11.2069 79.4206L11.2066 79.42L9.30063 75.4844L9.14317 75.1592L8.78504 75.2066L4.76747 75.7382L4.76569 75.7384C4.38281 75.7905 4.14993 75.3122 4.43846 75.0424L7.38339 72.2891L7.65363 72.0364L7.49104 71.7041L5.47584 67.5853L5.47586 67.5853L5.47359 67.5808C5.29868 67.2323 5.68121 66.8496 6.04075 67.0564C6.04086 67.0564 6.04098 67.0565 6.04109 67.0566Z" fill="url(#paint6_linear)" stroke="#F6891D"/>
<path d="M92.087 31.2949C84.7728 49.0407 70.1445 84.7482 70.1445 85.6115H81.2956L110.432 38.8489L92.087 31.2949Z" fill="url(#paint7_linear)" fill-opacity="0.5"/>
<path d="M16.1875 44.6041L40.6479 85.971H51.4393L34.5328 36.6904L16.1875 44.6041Z" fill="url(#paint8_linear)" fill-opacity="0.5"/>
<path d="M4.31641 75.5399L29.1365 90.2881L31.2948 87.4104L13.6689 65.8276L4.31641 75.5399Z" fill="url(#paint9_linear)" fill-opacity="0.5"/>
<path d="M62.5898 61.8705V53.5972" stroke="#FBBA1E"/>
<path d="M80.5762 73.0218C81.2956 71.4631 82.9503 68.2017 83.8136 67.6261M104.317 57.5542C105.037 55.9954 106.763 52.8779 107.914 52.8779" stroke="#76AAE8"/>
<path d="M40.6466 73.3815C40.6466 72.3024 39.9271 69.4247 38.4883 67.9858" stroke="#4B90E2"/>
<path d="M15.1085 58.993C14.7488 58.0337 13.5977 55.8994 11.8711 55.0361" stroke="#4B90E2"/>
<path d="M23.3803 85.9708C23.3803 85.6111 22.6609 84.46 19.7832 82.7334" stroke="#1ABFA2"/>
<path d="M80.5762 38.1293C80.5762 36.5705 80.9359 33.1652 82.3747 32.0142" stroke="#1ABFA2"/>
<path d="M46.7621 46.403C46.5223 45.204 45.683 42.4462 44.2441 41.0073" stroke="#EC4893"/>
<path d="M100.719 83.8128C101.078 83.0933 102.086 81.5106 103.237 80.9351" stroke="#1ABFA2"/>
<path d="M32.7344 85.9716L25.8998 95.3241C25.6121 95.8997 26.2595 96.0435 26.6193 96.0434C50.1205 96.2832 97.3387 96.6909 98.202 96.4031C99.0653 96.1154 99.0413 95.8036 98.9214 95.6837C95.684 92.6861 89.1372 86.547 88.8495 85.9715C88.5617 85.3959 87.5305 85.2521 87.0509 85.2522C69.6648 85.1323 34.6768 84.9644 33.8135 85.2522C32.9502 85.5399 32.7344 85.8517 32.7344 85.9716Z" fill="#6743A7"/>
<path d="M36.3312 86.3306L30.9355 94.2442H93.8852L87.0507 86.3306H36.3312Z" fill="#EB3B8C"/>
<path d="M25.5391 99.2807V95.6836C25.5391 95.9714 26.2585 96.0433 26.6182 96.0433C50.4791 96.1632 98.2729 96.403 98.5606 96.403C98.8484 96.403 99.1602 95.9234 99.2801 95.6836V99.2807C99.2801 99.8563 98.5606 100 98.2009 100H26.2585C25.9707 100 25.659 99.5205 25.5391 99.2807Z" fill="#51269E"/>
<defs>
<linearGradient id="paint0_linear" x1="62.5897" y1="12.9497" x2="62.5897" y2="85.2519" gradientUnits="userSpaceOnUse">
<stop stop-color="white" stop-opacity="0"/>
<stop offset="1" stop-color="#C4C4C4"/>
</linearGradient>
<linearGradient id="paint1_linear" x1="113.309" y1="67.9859" x2="90.6472" y2="90.6478" gradientUnits="userSpaceOnUse">
<stop stop-color="white" stop-opacity="0"/>
<stop offset="1" stop-color="#C4C4C4"/>
</linearGradient>
<linearGradient id="paint2_linear" x1="62.4521" y1="0" x2="62.4521" y2="35.9712" gradientUnits="userSpaceOnUse">
<stop stop-color="#FFDF1F"/>
<stop offset="1" stop-color="#F6891D"/>
</linearGradient>
<linearGradient id="paint3_linear" x1="22.2599" y1="33.0884" x2="30.6332" y2="52.9807" gradientUnits="userSpaceOnUse">
<stop stop-color="#FFDF1F"/>
<stop offset="1" stop-color="#F6891D"/>
</linearGradient>
<linearGradient id="paint4_linear" x1="104.67" y1="27.2173" x2="96.1027" y2="47.0268" gradientUnits="userSpaceOnUse">
<stop stop-color="#FFDF1F"/>
<stop offset="1" stop-color="#F6891D"/>
</linearGradient>
<linearGradient id="paint5_linear" x1="114.795" y1="64.5072" x2="106.58" y2="76.3203" gradientUnits="userSpaceOnUse">
<stop stop-color="#FFDF1F"/>
<stop offset="1" stop-color="#F6891D"/>
</linearGradient>
<linearGradient id="paint6_linear" x1="5.21457" y1="66.7458" x2="15.0411" y2="77.2561" gradientUnits="userSpaceOnUse">
<stop stop-color="#FFDF1F"/>
<stop offset="1" stop-color="#F6891D"/>
</linearGradient>
<linearGradient id="paint7_linear" x1="99.6409" y1="34.892" x2="74.4611" y2="85.6115" gradientUnits="userSpaceOnUse">
<stop stop-color="white" stop-opacity="0"/>
<stop offset="1" stop-color="#C4C4C4"/>
</linearGradient>
<linearGradient id="paint8_linear" x1="25.8997" y1="40.2876" x2="45.6839" y2="85.2516" gradientUnits="userSpaceOnUse">
<stop stop-color="white" stop-opacity="0"/>
<stop offset="1" stop-color="#C4C4C4"/>
</linearGradient>
<linearGradient id="paint9_linear" x1="8.27324" y1="70.8636" x2="30.5754" y2="89.2089" gradientUnits="userSpaceOnUse">
<stop stop-color="white" stop-opacity="0"/>
<stop offset="1" stop-color="#C4C4C4"/>
</linearGradient>
</defs>
</svg>
