<?xml version="1.0"?>
<svg xmlns="http://www.w3.org/2000/svg" id="Layer_5" enable-background="new 0 0 64 64" height="512px" viewBox="0 0 64 64" width="512px" class=""><g><g><g><g><path d="m32 16v6c-5.52 0-10 4.48-10 10 0 1.42.3 2.78.83 4h-6.83v-7l2.54-.81c.3-1.06.72-2.07 1.24-3.02l-1.22-2.36 4.25-4.25 2.36 1.22c.95-.52 1.96-.94 3.02-1.24l.81-2.54z" fill="#fcd770" data-original="#FCD770" class="" style="fill:#C7EBFF" data-old_color="#fcd770"/></g><g><path d="m48 28v7l-2.54.81c-.3 1.06-.72 2.07-1.24 3.02l1.22 2.36-4.25 4.24-2.36-1.21c-.95.52-1.96.94-3.02 1.24l-.81 2.54h-3v-6c5.52 0 10-4.48 10-10 0-1.42-.3-2.78-.83-4z" fill="#fcd770" data-original="#FCD770" class="" style="fill:#C7EBFF" data-old_color="#fcd770"/></g><g><path d="m30 36h-7.17-6.83-12c-1.1 0-2 .9-2 2v22c0 1.1.9 2 2 2h26c1.1 0 2-.9 2-2v-8-4-6-4c0-1.1-.9-2-2-2z" fill="#e6e9ed" data-original="#E6E9ED" class="active-path" style="fill:#FFCE00" data-old_color="#e6e9ed"/></g><g><path d="m60 2h-26c-1.1 0-2 .9-2 2v8 4 6 4c0 1.1.9 2 2 2h26c1.1 0 2-.9 2-2v-22c0-1.1-.9-2-2-2z" fill="#e6e9ed" data-original="#E6E9ED" class="active-path" style="fill:#FFCE00" data-old_color="#e6e9ed"/></g><g><path d="m49 20.25c3.47 1.91 3.57 2 3.66 2.09 1.44 1.45 2.34 3.45 2.34 5.66h-7-6.83-2.17c0-3.73 2.55-6.86 6-7.75v.01 1.74c0 1.1.9 2 2 2 .55 0 1.05-.22 1.41-.59.37-.36.59-.86.59-1.41v-1.74z" fill="#b4dd7f" data-original="#B4DD7F" class=""/></g><g><path d="m13.38 53.87 1.4 3.13 2.22 5h-8v-1c0-2.31.98-4.4 2.55-5.86.54-.5 1.16-.93 1.83-1.27z" fill="#ff826e" data-original="#FF826E" class="" data-old_color="#ff826e" style="fill:#E87765"/></g><g><path d="m22.45 55.14c.07.07.14.13.21.2 1.44 1.45 2.34 3.45 2.34 5.66v1h-8l2.22-5 1.4-3.13c.67.34 1.29.77 1.83 1.27z" fill="#ff826e" data-original="#FF826E" class="" data-old_color="#ff826e" style="fill:#E87765"/></g><g><path d="m19.22 57-2.22 5-2.22-5z" fill="#ffeaa7" data-original="#FFEAA7" class=""/></g><g><path d="m24 47v5c0 1.28-.62 2.41-1.55 3.14-.54-.5-1.16-.93-1.83-1.27-1.08-.56-2.32-.87-3.62-.87h1c1.66 0 3-1.34 3-3v-2.76c0-.76-.43-1.45-1.11-1.79l-2.89-1.45v-4c3.87 0 7 3.13 7 7z" fill="#b27946" data-original="#B27946" class="" data-old_color="#b27946" style="fill:#F788EE"/></g><g><path d="m13 50c0 1.66 1.34 3 3 3h1c-1.3 0-2.54.31-3.62.87-.67.34-1.29.77-1.83 1.27-.93-.73-1.55-1.86-1.55-3.14v-5c0-3.87 3.13-7 7-7v4l-2.89 1.45c-.68.34-1.11 1.03-1.11 1.79z" fill="#b27946" data-original="#B27946" class="" data-old_color="#b27946" style="fill:#F788EE"/></g><g><path d="m53 11.61c0 .9-.27 1.79-.77 2.55l-1.23 1.84v-1.76c0-.76-.43-1.45-1.11-1.79l-2.89-1.45v-4h1.39c2.55 0 4.61 2.06 4.61 4.61z" fill="#656d78" data-original="#656D78" class="" data-old_color="#656d78" style="fill:#02D0EA"/></g><g><path d="m47 7v4l-2.89 1.45c-.68.34-1.11 1.03-1.11 1.79v1.76l-1.23-1.84c-.5-.76-.77-1.65-.77-2.55 0-1.27.52-2.43 1.35-3.26s1.99-1.35 3.26-1.35z" fill="#656d78" data-original="#656D78" class="" data-old_color="#656d78" style="fill:#02D0EA"/></g><g><path d="m49 20.26v1.74c0 .55-.22 1.05-.59 1.41-.36.37-.86.59-1.41.59-1.1 0-2-.9-2-2v-1.74-.01c.64-.16 1.31-.25 2-.25s1.36.09 2 .25z" fill="#f0d0b4" data-original="#F0D0B4" class="" style="fill:#FFDECC" data-old_color="#f0d0b4"/></g><g><path d="m51 16v1c0 1.66-1.34 3-3 3h-1-1c-1.66 0-3-1.34-3-3v-1-1.76c0-.76.43-1.45 1.11-1.79l2.89-1.45 2.89 1.45c.68.34 1.11 1.03 1.11 1.79z" fill="#f0d0b4" data-original="#F0D0B4" class="" style="fill:#FFDECC" data-old_color="#f0d0b4"/></g><g><path d="m20.62 53.87-1.4 3.13h-4.44l-1.4-3.13c1.08-.56 2.32-.87 3.62-.87s2.54.31 3.62.87z" fill="#f0d0b4" data-original="#F0D0B4" class="" style="fill:#FFDECC" data-old_color="#f0d0b4"/></g><g><path d="m21 47.24v2.76c0 1.66-1.34 3-3 3h-1-1c-1.66 0-3-1.34-3-3v-2.76c0-.76.43-1.45 1.11-1.79l2.89-1.45 2.89 1.45c.68.34 1.11 1.03 1.11 1.79z" fill="#f0d0b4" data-original="#F0D0B4" class="" style="fill:#FFDECC" data-old_color="#f0d0b4"/></g><g><path d="m18 12v6h-16v-12h16z" fill="#ffeaa7" data-original="#FFEAA7" class=""/></g><g><path d="m62 46v12h-16v-6-6z" fill="#ffeaa7" data-original="#FFEAA7" class=""/></g></g><g><path d="m49 49h10v2h-10z" data-original="#000000" class="" data-old_color="#000000" style="fill:#FB5252"/><path d="m53 53h2v2h-2z" data-original="#000000" class="" data-old_color="#000000" style="fill:#FB5252"/><path d="m57 53h2v2h-2z" data-original="#000000" class="" data-old_color="#000000" style="fill:#FB5252"/><path d="m49 53h2v2h-2z" data-original="#000000" class="" data-old_color="#000000" style="fill:#FB5252"/><path d="m5 9h10v2h-10z" data-original="#000000" class="" data-old_color="#000000" style="fill:#FB5252"/><path d="m13 13h2v2h-2z" data-original="#000000" class="" data-old_color="#000000" style="fill:#FB5252"/><path d="m9 13h2v2h-2z" data-original="#000000" class="" data-old_color="#000000" style="fill:#FB5252"/><path d="m5 13h2v2h-2z" data-original="#000000" class="" data-old_color="#000000" style="fill:#FB5252"/><path d="m49 35.729v-6.729h11c1.654 0 3-1.346 3-3v-22c0-1.654-1.346-3-3-3h-26c-1.654 0-3 1.346-3 3v7h-12v-6h-18v14h18v-6h12v2h-2.729l-.876 2.734c-.772.248-1.519.556-2.229.919l-2.549-1.312-5.274 5.274 1.312 2.549c-.362.709-.67 1.455-.919 2.229l-2.736.878v6.729h-11c-1.654 0-3 1.346-3 3v22c0 1.654 1.346 3 3 3h26c1.654 0 3-1.346 3-3v-7h12v6h18v-14h-18v6h-12v-2h2.729l.876-2.734c.773-.249 1.52-.556 2.229-.919l2.549 1.312 5.274-5.274-1.312-2.549c.362-.709.67-1.455.919-2.229zm-32-18.729h-14v-10h14zm30 30h14v10h-14zm-6-15c0 4.624-3.507 8.442-8 8.941v-2.941c0-1.654-1.346-3-3-3h-6.478c-.34-.96-.522-1.965-.522-3 0-4.624 3.507-8.442 8-8.941v2.941c0 1.654 1.346 3 3 3h6.478c.34.96.522 1.965.522 3zm-.92-5c.339-2.353 1.848-4.326 3.92-5.315v.315c0 1.654 1.346 3 3 3s3-1.346 3-3v-.315c2.072.989 3.581 2.962 3.92 5.315zm1.92-15.395c0-1.988 1.617-3.605 3.605-3.605h.395v2.382l-2.342 1.171c-.623.312-1.1.817-1.379 1.422-.178-.433-.279-.895-.279-1.37zm4 9.475c.328-.047.66-.08 1-.08s.672.033 1 .08v.92c0 .551-.448 1-1 1s-1-.449-1-1zm5.721-8.106c-.279-.605-.756-1.11-1.379-1.422l-2.342-1.17v-2.382h.395c1.988 0 3.605 1.617 3.605 3.605 0 .475-.1.937-.279 1.369zm-5.721 6.026c-1.103 0-2-.897-2-2v-2.764c0-.381.212-.724.553-.894l2.447-1.224 2.447 1.224c.341.17.553.513.553.894v2.764c0 1.103-.897 2-2 2zm-13-15c0-.551.448-1 1-1h26c.552 0 1 .449 1 1v22c0 .551-.448 1-1 1h-4.059c-.353-3.174-2.364-5.847-5.144-7.148.741-.727 1.203-1.735 1.203-2.852v-.697l1.059-1.588c.616-.924.941-2 .941-3.109 0-3.091-2.515-5.606-5.605-5.606h-2.789c-3.091 0-5.606 2.515-5.606 5.605 0 1.11.325 2.185.941 3.109l1.059 1.589v.697c0 1.117.462 2.125 1.203 2.852-2.78 1.301-4.791 3.974-5.144 7.148h-4.059c-.552 0-1-.449-1-1zm-16 25.729 2.356-.755.146-.517c.28-.989.668-1.929 1.152-2.796l.263-.468-1.13-2.195 3.212-3.211 2.194 1.129.469-.262c.87-.487 1.811-.875 2.797-1.153l.517-.146.753-2.355h1.271v4.051c-5.598.507-10 5.221-10 10.949 0 1.027.151 2.029.426 3h-4.426zm-6 22.271v-5c0-2.967 2.167-5.431 5-5.91v2.292l-2.342 1.171c-1.022.511-1.658 1.539-1.658 2.683v2.764c0 1.117.462 2.125 1.203 2.852-.56.262-1.088.58-1.578.947-.398-.516-.625-1.14-.625-1.799zm5 0c-1.103 0-2-.897-2-2v-2.764c0-.381.212-.724.553-.894l2.447-1.224 2.447 1.224c.341.17.553.513.553.894v2.764c0 1.103-.897 2-2 2zm1 2c.802 0 1.569.142 2.287.391l-.715 1.609h-3.144l-.715-1.609c.718-.249 1.485-.391 2.287-.391zm.683 4-.683 1.537-.683-1.537zm3.383-2.687c1.773 1.272 2.934 3.344 2.934 5.687h-5.461zm1.934-3.313c0 .659-.227 1.283-.625 1.798-.49-.367-1.018-.684-1.578-.947.741-.726 1.203-1.734 1.203-2.851v-2.764c0-1.144-.636-2.171-1.658-2.683l-2.342-1.171v-2.292c2.833.478 5 2.942 5 5.91zm-10.066 3.313 2.527 5.687h-5.461c0-2.343 1.161-4.415 2.934-5.687zm18.066 4.687c0 .551-.448 1-1 1h-4c0-2.223-.814-4.256-2.155-5.828.742-.888 1.155-1.998 1.155-3.172v-5c0-4.411-3.589-8-8-8s-8 3.589-8 8v5c0 1.174.413 2.284 1.155 3.172-1.341 1.572-2.155 3.605-2.155 5.828h-4c-.552 0-1-.449-1-1v-22c0-.551.448-1 1-1h26c.552 0 1 .449 1 1zm13.644-24.975-.146.517c-.28.989-.668 1.929-1.152 2.796l-.263.468 1.13 2.195-3.212 3.211-2.195-1.129-.468.262c-.868.486-1.809.875-2.797 1.153l-.517.146-.753 2.356h-1.271v-4.051c5.598-.507 10-5.221 10-10.949 0-1.027-.151-2.029-.426-3h4.426v5.271z" data-original="#000000" class="" data-old_color="#000000" style="fill:#FB5252"/><path d="m5 39h2v2h-2z" data-original="#000000" class="" data-old_color="#000000" style="fill:#FB5252"/><path d="m27 39h2v2h-2z" data-original="#000000" class="" data-old_color="#000000" style="fill:#FB5252"/><path d="m35 5h2v2h-2z" data-original="#000000" class="" data-old_color="#000000" style="fill:#FB5252"/><path d="m57 5h2v2h-2z" data-original="#000000" class="" data-old_color="#000000" style="fill:#FB5252"/></g></g><script xmlns=""/></g> </svg>
