<svg xmlns="http://www.w3.org/2000/svg" width="49.996" height="50" viewBox="0 0 49.996 50">
  <defs>
    <style>
      .cls-1 {
        fill: #fff;
      }
    </style>
  </defs>
  <g id="magnifying-glass-with-check-mark" transform="translate(-0.001 -0.001)">
    <path id="Path_520" data-name="Path 520" class="cls-1" d="M48.786,42.945,37.677,31.835a4.112,4.112,0,0,0-2.07-1.116,19.6,19.6,0,0,0,3.061-15.213l-4.531,4.445a14.708,14.708,0,1,1-2.179-8.088L21.469,22.152,12.99,14.028a2.481,2.481,0,0,0-3.433,3.582L19.771,27.4a2.484,2.484,0,0,0,3.453-.02L43.6,7.392A2.48,2.48,0,1,0,40.126,3.85L35.559,8.33a19.117,19.117,0,0,0-2.166-2.608,19.566,19.566,0,1,0-2.675,29.886,4.114,4.114,0,0,0,1.118,2.072L42.942,48.787a4.131,4.131,0,1,0,5.844-5.842Z" transform="translate(0 0)"/>
  </g>
</svg>
