<svg xmlns="http://www.w3.org/2000/svg" width="18.006" height="18" viewBox="0 0 18.006 18">
  <defs>
    <style>
      .cls-1 {
        fill: #00a8ff;
      }
    </style>
  </defs>
  <path id="message" class="cls-1" d="M18.511,8.59l-12.6-6.3A2.7,2.7,0,0,0,2.234,5.8l2.161,4.834h0a.954.954,0,0,1,0,.738L2.234,16.207a2.7,2.7,0,0,0,2.467,3.8,2.827,2.827,0,0,0,1.215-.288l12.6-6.3a2.7,2.7,0,0,0,0-4.825Zm-.8,3.214-12.6,6.3a.9.9,0,0,1-1.215-1.17L6.042,12.1a1.8,1.8,0,0,0,.072-.2h6.2a.9.9,0,0,0,0-1.8h-6.2a1.8,1.8,0,0,0-.072-.2L3.891,5.07A.9.9,0,0,1,5.106,3.9l12.6,6.3a.9.9,0,0,1,0,1.6Z" transform="translate(-2 -2.006)"/>
</svg>
