<svg xmlns="http://www.w3.org/2000/svg" xmlns:xlink="http://www.w3.org/1999/xlink" width="22" height="22" viewBox="0 0 22 22">
  <defs>
    <style>
      .cls-1 {
        fill: url(#linear-gradient);
      }
    </style>
    <linearGradient id="linear-gradient" x1="0.5" x2="0.5" y2="1" gradientUnits="objectBoundingBox">
      <stop offset="0" stop-color="#64e5ff"/>
      <stop offset="1" stop-color="#00a8ff"/>
    </linearGradient>
  </defs>
  <path id="weight" class="cls-1" d="M20.7,4.2H19.1a3.388,3.388,0,0,0-.6-1.1A3.3,3.3,0,0,0,16.025,2H10A3.3,3.3,0,0,0,7.5,3.1a3.388,3.388,0,0,0-.627,1.1H5.3A3.3,3.3,0,0,0,2,7.5V20.7A3.3,3.3,0,0,0,5.3,24H20.7A3.3,3.3,0,0,0,24,20.7V7.5a3.3,3.3,0,0,0-3.3-3.3ZM9.172,4.574A1.1,1.1,0,0,1,10,4.2H16a1.114,1.114,0,0,1,1.1,1.232l-.55,4.4a1.1,1.1,0,0,1-1.1.968h-1.8L14.9,8.16a1.1,1.1,0,0,0-1.98-.946L11.207,10.8h-.66a1.1,1.1,0,0,1-1.1-.968l-.55-4.4a1.1,1.1,0,0,1,.275-.858ZM21.8,20.7a1.1,1.1,0,0,1-1.1,1.1H5.3a1.1,1.1,0,0,1-1.1-1.1V7.5A1.1,1.1,0,0,1,5.3,6.4H6.807l.462,3.707A3.3,3.3,0,0,0,10.569,13h4.906a3.3,3.3,0,0,0,3.3-2.893L19.193,6.4H20.7a1.1,1.1,0,0,1,1.1,1.1Zm-6.6-3.3H10.8a1.1,1.1,0,0,0,0,2.2h4.4a1.1,1.1,0,0,0,0-2.2Z" transform="translate(-2 -2)"/>
</svg>
