<svg width="29" height="30" viewBox="0 0 29 30" fill="none" xmlns="http://www.w3.org/2000/svg">
<path d="M14.0587 7.30355C10.0659 7.30355 6.84343 10.7409 6.84343 15C6.84343 19.2591 10.0659 22.6964 14.0587 22.6964C18.0516 22.6964 21.274 19.2591 21.274 15C21.274 10.7409 18.0516 7.30355 14.0587 7.30355ZM14.0587 20.0021C11.4766 20.0021 9.36931 17.7544 9.36931 15C9.36931 12.2456 11.4766 9.99787 14.0587 9.99787C16.6409 9.99787 18.7481 12.2456 18.7481 15C18.7481 17.7544 16.6409 20.0021 14.0587 20.0021ZM21.5695 5.19462C20.6373 5.19462 19.8844 5.99767 19.8844 6.99209C19.8844 7.98651 20.6373 8.78955 21.5695 8.78955C22.5018 8.78955 23.2546 7.99026 23.2546 6.99209C23.2549 6.75596 23.2115 6.52209 23.1269 6.30388C23.0423 6.08567 22.9182 5.8874 22.7617 5.72043C22.6051 5.55346 22.4193 5.42107 22.2147 5.33085C22.0101 5.24062 21.7909 5.19433 21.5695 5.19462ZM28.1234 15C28.1234 12.9286 28.141 10.876 28.032 8.80832C27.9229 6.40669 27.4093 4.27525 25.7629 2.51907C24.113 0.759128 22.1183 0.215011 19.8668 0.098682C17.9249 -0.0176466 16.0006 0.00111617 14.0622 0.00111617C12.1203 0.00111617 10.196 -0.0176466 8.25764 0.098682C6.00616 0.215011 4.00798 0.762881 2.36158 2.51907C0.71167 4.27901 0.201569 6.40669 0.0925127 8.80832C-0.0165433 10.8797 0.00104639 12.9324 0.00104639 15C0.00104639 17.0676 -0.0165433 19.124 0.0925127 21.1917C0.201569 23.5933 0.715187 25.7247 2.36158 27.4809C4.01149 29.2409 6.00616 29.785 8.25764 29.9013C10.1995 30.0176 12.1239 29.9989 14.0622 29.9989C16.0041 29.9989 17.9285 30.0176 19.8668 29.9013C22.1183 29.785 24.1165 29.2371 25.7629 27.4809C27.4128 25.721 27.9229 23.5933 28.032 21.1917C28.1445 19.124 28.1234 17.0714 28.1234 15ZM25.0276 23.8485C24.7708 24.5314 24.4613 25.0418 23.9652 25.5671C23.4692 26.0962 22.9943 26.4265 22.354 26.7004C20.5036 27.4847 16.1097 27.3083 14.0587 27.3083C12.0078 27.3083 7.61034 27.4847 5.75991 26.7042C5.11964 26.4302 4.6412 26.1 4.14869 25.5709C3.65266 25.0418 3.34309 24.5352 3.08628 23.8522C2.35455 21.8746 2.51989 17.1877 2.51989 15C2.51989 12.8123 2.35455 8.1216 3.08628 6.14777C3.34309 5.46481 3.65266 4.95446 4.14869 4.42911C4.64472 3.90375 5.11964 3.56978 5.75991 3.29584C7.61034 2.51532 12.0078 2.69168 14.0587 2.69168C16.1097 2.69168 20.5071 2.51532 22.3575 3.29584C22.9978 3.56978 23.4762 3.9 23.9687 4.42911C24.4648 4.95822 24.7744 5.46481 25.0312 6.14777C25.7629 8.1216 25.5976 12.8123 25.5976 15C25.5976 17.1877 25.7629 21.8746 25.0276 23.8485Z" fill="white"/>
</svg>
