<svg width="32" height="31" viewBox="0 0 32 31" fill="none" xmlns="http://www.w3.org/2000/svg">
<path d="M7.12461 30.1602V9.91922H0.39693V30.1602H7.12461ZM3.76164 7.154C6.1077 7.154 7.56801 5.59973 7.56801 3.65741C7.5243 1.67129 6.10779 0.160156 3.80616 0.160156C1.50489 0.160156 0 1.67132 0 3.65741C0 5.59982 1.45995 7.154 3.71772 7.154H3.76143H3.76164ZM10.8484 30.1602H17.576V18.8566C17.576 18.2517 17.6198 17.6474 17.7974 17.2149C18.2838 16.0062 19.3907 14.7544 21.2492 14.7544C23.6837 14.7544 24.6576 16.6106 24.6576 19.3316V30.16H31.3849V18.5541C31.3849 12.3368 28.0658 9.44402 23.6394 9.44402C20.0101 9.44402 18.4166 11.4727 17.5313 12.8544H17.5762V9.9188H10.8485C10.9368 11.8181 10.8485 30.1598 10.8485 30.1598L10.8484 30.1602Z" fill="white"/>
</svg>
