<svg width="367" height="82" viewBox="0 0 367 82" fill="none" xmlns="http://www.w3.org/2000/svg">
<path d="M360.227 11C359.718 10.2 358.53 9.33333 358 9C358.636 9 360.1 8.8 360.864 8C361.627 7.2 362.242 5 362.455 4C362.348 4.5 362.2 5.8 362.455 7C362.709 8.2 364.258 9.5 365 10C364.364 10 362.9 10.2 362.136 11C361.373 11.8 361.182 14 361.182 15C361.076 14 360.736 11.8 360.227 11Z" fill="#24ADD8" stroke="#24ADD8"/>
<path d="M345.227 72C344.718 71.2 343.53 70.3333 343 70C343.636 70 345.1 69.8 345.864 69C346.627 68.2 347.242 66 347.455 65C347.348 65.5 347.2 66.8 347.455 68C347.709 69.2 349.258 70.5 350 71C349.364 71 347.9 71.2 347.136 72C346.373 72.8 346.182 75 346.182 76C346.076 75 345.736 72.8 345.227 72Z" fill="#F79329" stroke="#F79329"/>
<path d="M5.18182 75.1818C4.45455 74.0182 2.75758 72.7576 2 72.2727C2.90909 72.2727 5 71.9818 6.09091 70.8182C7.18182 69.6545 8.06061 66.4545 8.36364 65C8.21212 65.7273 8 67.6182 8.36364 69.3636C8.72727 71.1091 10.9394 73 12 73.7273C11.0909 73.7273 9 74.0182 7.90909 75.1818C6.81818 76.3455 6.54545 79.5455 6.54545 81C6.39394 79.5455 5.90909 76.3455 5.18182 75.1818Z" fill="#F15BE2" stroke="#F79329"/>
<mask id="path-4-inside-1" fill="white">
<path d="M176.8 4.33887C176.798 4.36268 176.632 6.71483 177.68 9.58909L177.981 10.4144L177.385 10.2608C175.308 9.72255 173.968 10.7923 173.955 10.8032L173.286 11.3564L173.377 10.1734C173.379 10.1496 173.545 7.79741 172.497 4.92315L172.195 4.09705L172.791 4.25152C174.868 4.78889 176.208 3.7191 176.222 3.70809L176.89 3.15677L176.8 4.33887ZM173.377 5.38741C173.911 7.11413 174.06 8.59473 174.094 9.5138C174.652 9.24151 175.585 8.94333 176.799 9.12403C176.266 7.39811 176.116 5.91763 176.082 4.99856C175.524 5.27073 174.591 5.56903 173.377 5.38741Z"/>
</mask>
<path d="M176.8 4.33887C176.798 4.36268 176.632 6.71483 177.68 9.58909L177.981 10.4144L177.385 10.2608C175.308 9.72255 173.968 10.7923 173.955 10.8032L173.286 11.3564L173.377 10.1734C173.379 10.1496 173.545 7.79741 172.497 4.92315L172.195 4.09705L172.791 4.25152C174.868 4.78889 176.208 3.7191 176.222 3.70809L176.89 3.15677L176.8 4.33887ZM173.377 5.38741C173.911 7.11413 174.06 8.59473 174.094 9.5138C174.652 9.24151 175.585 8.94333 176.799 9.12403C176.266 7.39811 176.116 5.91763 176.082 4.99856C175.524 5.27073 174.591 5.56903 173.377 5.38741Z" fill="black"/>
<path d="M176.8 4.33887L176.018 4.0481L176.018 4.04651L176.8 4.33887ZM177.68 9.58909L177.001 10.0343L177.001 10.0341L177.68 9.58909ZM177.981 10.4144L178.66 9.96918L179.379 11.9384L177.956 11.5722L177.981 10.4144ZM177.385 10.2608L177.359 11.4186L177.358 11.4184L177.385 10.2608ZM173.955 10.8032L174.421 11.8383L174.414 11.8447L174.406 11.8509L173.955 10.8032ZM173.286 11.3564L173.737 12.4041L172.311 13.5832L172.504 11.0636L173.286 11.3564ZM173.377 10.1734L174.159 10.4641L174.159 10.4662L173.377 10.1734ZM172.497 4.92315L173.175 4.47718L173.176 4.47814L172.497 4.92315ZM172.195 4.09705L171.516 4.54301L170.795 2.57008L172.221 2.93947L172.195 4.09705ZM172.791 4.25152L172.765 5.40914L172.765 5.4091L172.791 4.25152ZM176.222 3.70809L176.673 4.75623L176.669 4.75897L176.222 3.70809ZM176.89 3.15677L176.44 2.10865L177.864 0.933215L177.672 3.44913L176.89 3.15677ZM173.377 5.38741L172.67 5.75108L172.14 4.03775L173.345 4.21796L173.377 5.38741ZM174.094 9.5138L174.429 10.6368L173.373 11.1517L173.309 9.41371L174.094 9.5138ZM176.799 9.12403L177.506 8.76079L178.035 10.4726L176.831 10.2935L176.799 9.12403ZM176.082 4.99856L175.746 3.87574L176.803 3.35988L176.867 5.09865L176.082 4.99856ZM177.582 4.62963C177.589 4.53007 177.431 6.5971 178.359 9.14408L177.001 10.0341C175.834 6.83257 176.007 4.1953 176.018 4.0481L177.582 4.62963ZM178.359 9.14387L178.66 9.96918L177.302 10.8596L177.001 10.0343L178.359 9.14387ZM177.956 11.5722L177.359 11.4186L177.41 9.10302L178.007 9.25658L177.956 11.5722ZM177.358 11.4184C175.513 10.9402 174.343 11.9067 174.421 11.8383L173.489 9.76819C173.592 9.67796 175.103 8.50488 177.411 9.10328L177.358 11.4184ZM174.406 11.8509L173.737 12.4041L172.835 10.3087L173.504 9.75553L174.406 11.8509ZM172.504 11.0636L172.595 9.88056L174.159 10.4662L174.068 11.6492L172.504 11.0636ZM172.595 9.88261C172.588 9.98217 172.746 7.91515 171.817 5.36816L173.176 4.47814C174.343 7.67967 174.17 10.3169 174.159 10.4641L172.595 9.88261ZM171.818 5.36912L171.516 4.54301L172.873 3.65108L173.175 4.47718L171.818 5.36912ZM172.221 2.93947L172.818 3.09395L172.765 5.4091L172.168 5.25462L172.221 2.93947ZM172.817 3.09391C174.658 3.57009 175.831 2.61119 175.775 2.65721L176.669 4.75897C176.586 4.82701 175.078 6.00769 172.765 5.40914L172.817 3.09391ZM175.771 2.65997L176.44 2.10865L177.341 4.20489L176.673 4.75622L175.771 2.65997ZM177.672 3.44913L177.581 4.63123L176.018 4.04651L176.109 2.86441L177.672 3.44913ZM174.083 5.02375C174.673 6.93279 174.841 8.57679 174.879 9.61389L173.309 9.41371C173.279 8.61267 173.148 7.29546 172.67 5.75108L174.083 5.02375ZM173.759 8.39083C174.389 8.08342 175.425 7.75482 176.767 7.95451L176.831 10.2935C175.745 10.1318 174.915 10.3996 174.429 10.6368L173.759 8.39083ZM176.093 9.48727C175.504 7.58002 175.335 5.93656 175.296 4.89847L176.867 5.09865C176.897 5.8987 177.029 7.21621 177.506 8.76079L176.093 9.48727ZM176.417 6.12138C175.787 6.42889 174.75 6.7576 173.408 6.55687L173.345 4.21796C174.431 4.38046 175.261 4.11256 175.746 3.87574L176.417 6.12138Z" fill="black" mask="url(#path-4-inside-1)"/>
</svg>
