<svg xmlns="http://www.w3.org/2000/svg" viewBox="0 0 824 426.82"><title>Asset 1</title><g id="Layer_2" data-name="Layer 2"><g id="Layer_1-2" data-name="Layer 1"><rect width="824" height="426.82" rx="29.03" ry="29.03" style="fill:#fff"/><path id="_Path_" data-name="&lt;Path&gt;" d="M728.13,52.63s0,0,0-.05A6.36,6.36,0,0,0,721.88,46a5.5,5.5,0,0,0-5.3,4.15h0a5.5,5.5,0,0,0-5.3-4.15A6.36,6.36,0,0,0,705,52.57s0,0,0,.05c0,.75,0,8.39,11.54,14.61h0C728.13,61,728.15,53.38,728.13,52.63Z" style="fill:#5d7ebe"/><path id="_Path_2" data-name="&lt;Path&gt;" d="M427.2,77.09c0-.1,0-.2,0-.3,0-18.88-13.65-36.16-34.18-36.16-16.31,0-25.77,11.72-29,22.7h0c-3.23-11-12.69-22.7-29-22.7-20.53,0-34.18,17.28-34.18,36.16,0,.1,0,.2,0,.3-.11,4.11,0,45.9,63.15,80h0C427.21,123,427.31,81.2,427.2,77.09Z" style="fill:#cd2038"/><path d="M341.27,142.6A178.82,178.82,0,0,0,364,157.05h0c63.16-34.06,63.26-75.86,63.15-80,0-.1,0-.2,0-.3a39.07,39.07,0,0,0-.64-7.06C406.66,117.74,367.14,135.81,341.27,142.6Z" style="fill:#8e172a"/><path d="M304.35,81.09s-.44-36,36.92-36.4C341.27,44.7,315.84,50.87,304.35,81.09Z" style="fill:#e52d4c"/><path id="_Path_3" data-name="&lt;Path&gt;" d="M510,74.53c0-.12,0-.23,0-.35,0-21.92-15.86-42-39.7-42-18.95,0-29.93,13.62-33.68,26.36h0C432.88,45.8,421.9,32.18,403,32.18c-23.84,0-39.7,20.07-39.7,42,0,.12,0,.23,0,.35-.13,4.77,0,53.31,73.34,92.87h0C510,127.84,510.13,79.3,510,74.53Z" style="fill:#acb3c6"/><path d="M410.19,150.61a207.68,207.68,0,0,0,26.42,16.79h0C510,127.84,510.13,79.3,510,74.53c0-.12,0-.23,0-.35a45.38,45.38,0,0,0-.75-8.2C486.14,121.74,440.24,142.73,410.19,150.61Z" style="fill:#747c96"/><path d="M367.32,79.18s-.51-41.78,42.87-42.27C410.19,36.91,380.67,44.08,367.32,79.18Z" style="fill:#c8cbce"/><path id="_Path_4" data-name="&lt;Path&gt;" d="M765.41,255.29s0-.07,0-.11c0-6.7-4.84-12.83-12.13-12.83-5.79,0-9.14,4.16-10.29,8.05h0c-1.14-3.89-4.5-8.05-10.29-8.05-7.28,0-12.13,6.13-12.13,12.83,0,0,0,.07,0,.11,0,1.46,0,16.28,22.4,28.37h0C765.41,271.58,765.45,256.75,765.41,255.29Z" style="fill:#d9dadd"/><path id="_Path_5" data-name="&lt;Path&gt;" d="M246.57,156.27s0-.05,0-.08c0-5.17-3.74-9.9-9.36-9.9a8.24,8.24,0,0,0-7.94,6.21h0a8.24,8.24,0,0,0-7.94-6.21c-5.62,0-9.36,4.73-9.36,9.9,0,0,0,.05,0,.08,0,1.12,0,12.57,17.29,21.9h0C246.57,168.84,246.6,157.4,246.57,156.27Z" style="fill:#e5b1bb"/><path id="_Path_6" data-name="&lt;Path&gt;" d="M125.36,140.95s0,0,0-.07c0-4.46-3.23-8.55-8.08-8.55a7.11,7.11,0,0,0-6.85,5.36h0a7.11,7.11,0,0,0-6.85-5.36c-4.85,0-8.08,4.09-8.08,8.55,0,0,0,0,0,.07,0,1,0,10.85,14.93,18.9h0C125.36,151.8,125.38,141.92,125.36,140.95Z" style="fill:#ccdaf1"/></g></g></svg>