<?xml version="1.0" encoding="UTF-8" standalone="no"?>
<!DOCTYPE svg PUBLIC "-//W3C//DTD SVG 1.1//EN" "http://www.w3.org/Graphics/SVG/1.1/DTD/svg11.dtd">
<svg version="1.1" xmlns="http://www.w3.org/2000/svg" xmlns:xlink="http://www.w3.org/1999/xlink" preserveAspectRatio="xMidYMid meet" viewBox="180.19134596491253 5.746065964912155 452.34303999999986 396.1408" width="448.34" height="392.14"><defs><path d="M497.01 6.75C461.43 6.75 429.15 20.79 405.36 43.62C381.55 20.79 349.29 6.75 313.73 6.75C240.53 6.75 181.19 66.09 181.19 139.28C181.19 178.67 198.42 214.03 225.72 238.33C240.45 253.06 358.32 370.91 373.05 385.64C381.54 394.17 392.89 398.89 405 398.89C405.44 398.89 405.91 398.89 406.34 398.89C418.4 398.89 429.73 394.21 438.25 385.7C453.27 370.68 573.45 250.47 588.48 235.45C589.46 234.47 590.39 233.42 591.26 232.38C614.92 208.43 629.53 175.55 629.53 139.28C629.53 66.09 570.2 6.75 497.01 6.75Z" id="aGYMrWdF"></path></defs><g><g><use xlink:href="#aGYMrWdF" opacity="1" fill="#4adee4" fill-opacity="1"></use><g><use xlink:href="#aGYMrWdF" opacity="1" fill-opacity="0" stroke="#000000" stroke-width="1" stroke-opacity="0"></use></g></g></g></svg>