<?xml version="1.0" encoding="UTF-8" standalone="no"?>
<!DOCTYPE svg PUBLIC "-//W3C//DTD SVG 1.1//EN" "http://www.w3.org/Graphics/SVG/1.1/DTD/svg11.dtd">
<svg version="1.1" xmlns="http://www.w3.org/2000/svg" xmlns:xlink="http://www.w3.org/1999/xlink" preserveAspectRatio="xMidYMid meet" viewBox="56.61702127659589 88.90927269094071 516.0185428834461 476.79629326650615" width="512.02" height="472.8"><defs><path d="M564.24 484.16C549.75 507.87 532.05 529.45 511.66 548.32C505.57 553.21 499.15 557.7 492.46 561.73C490.92 561.83 478.63 562.61 477.1 562.71C469.67 561.73 462.2 561.07 454.83 559.74C421.97 553.01 390.45 540.9 361.54 523.9C311.93 496.04 267.54 461.33 224.99 423.9C186.01 390.42 150.36 353.25 118.55 312.9C96.68 284.43 77.43 254.53 65.76 220.23C62.89 211.78 60.95 203.03 58.59 194.63C58.49 193.09 57.71 180.8 57.62 179.27C64.12 159.86 77.23 144.91 91 130.53C101.24 119.98 111.74 110.05 122.54 100.22C131.47 91.75 143.98 88.19 156.02 90.69C162.88 91.72 169.06 95.39 173.23 100.93C195.24 130.12 217 159.51 239.79 188.23C249.35 199.68 251.54 215.58 245.42 229.19C242.65 236.51 239.02 243.52 235.64 250.64C231.75 258.88 227.91 267.18 223.66 275.22C221.82 277.71 222.22 281.2 224.58 283.2C239.94 298.92 254.58 315.36 270.66 330.46C300.24 359.2 332.24 385.34 366.3 408.59C369.33 411.22 373.82 411.22 376.85 408.59C389.29 400.09 401.94 391.95 414.74 383.97C423.65 377.65 434.63 374.94 445.46 376.39C448.77 376.91 451.96 378.02 454.88 379.67C505.62 408.59 546.12 432.01 556.25 437.83C567.11 443.97 572.18 459.33 568.39 473.92C567.53 477.53 566.13 480.98 564.24 484.16Z" id="gahZjM7pd"></path><path d="M361.08 271.04C365.82 271.04 389.52 271.04 432.2 271.04C432.2 284.96 432.2 292.7 432.2 294.24C431.94 301.65 435.51 308.74 441.81 313.38C447.44 317.23 455.16 317.23 460.79 313.38C467.81 308.74 523.89 271.62 530.9 266.98C537.22 262.34 540.8 255.26 540.58 247.84C540.8 240.44 537.25 233.36 530.97 228.7C523.99 224.05 468.15 186.79 461.17 182.13C455.54 178.28 447.82 178.28 442.19 182.13C435.88 186.77 432.31 193.86 432.57 201.27C432.57 202.82 432.57 210.55 432.57 224.47C389.68 224.47 365.84 224.47 361.08 224.47C359.16 224.5 357.28 224.85 355.51 225.51C346.13 229.53 340.37 238.37 340.95 247.84C340.4 257.29 346.16 266.11 355.51 270.12C357.28 270.74 359.17 271.06 361.08 271.04Z" id="a1Flh7NgLh"></path></defs><g><g><use xlink:href="#gahZjM7pd" opacity="1" fill="#4adee4" fill-opacity="1"></use><g><use xlink:href="#gahZjM7pd" opacity="1" fill-opacity="0" stroke="#000000" stroke-width="1" stroke-opacity="0"></use></g></g><g><use xlink:href="#a1Flh7NgLh" opacity="1" fill="#4adee4" fill-opacity="1"></use><g><use xlink:href="#a1Flh7NgLh" opacity="1" fill-opacity="0" stroke="#000000" stroke-width="1" stroke-opacity="0"></use></g></g></g></svg>