<svg id="OBJECTS" xmlns="http://www.w3.org/2000/svg" xmlns:xlink="http://www.w3.org/1999/xlink" viewBox="0 0 463.26 338.29"><defs><style>.cls-1{fill:none;}.cls-2{fill:#cce0ff;}.cls-3{fill:url(#New_Gradient_Swatch_1);}.cls-4{fill:#4bc8cf;}.cls-5{fill:#3a8dcd;}.cls-6{fill:#93b3f4;}.cls-7{fill:#3e3cab;}.cls-8{fill:#e7490b;}.cls-9{fill:#252a60;}.cls-10{fill:#eaa4b0;}.cls-11{fill:#555a78;}.cls-12{fill:#1d2a5e;}.cls-13{fill:#d2f7ff;}.cls-14,.cls-15,.cls-17{fill-rule:evenodd;opacity:0.39;}.cls-14{fill:url(#linear-gradient);}.cls-15{fill:url(#linear-gradient-2);}.cls-16{fill:#343a7a;}.cls-17{fill:url(#linear-gradient-3);}.cls-18{clip-path:url(#clip-path);}.cls-19{fill:url(#linear-gradient-4);}.cls-20{fill:url(#linear-gradient-5);}.cls-21{fill:#3981c4;}.cls-22{fill:#2c68af;}.cls-23{fill:url(#linear-gradient-6);}.cls-24{fill:url(#linear-gradient-7);}.cls-25{fill:#1d0f60;}.cls-26{fill:#fcbba4;}.cls-27{fill:url(#linear-gradient-8);}.cls-28{fill:url(#linear-gradient-9);}.cls-29{fill:#2ba8b2;}.cls-30{fill:#4cc6d6;}.cls-31{fill:#eaa488;}.cls-32{fill:#e8713f;}.cls-33{fill:url(#linear-gradient-10);}.cls-34{fill:url(#linear-gradient-11);}.cls-35{clip-path:url(#clip-path-2);}.cls-36{fill:#fff;}.cls-37{fill:#35217d;}.cls-38{fill:#211e57;}.cls-39{fill:url(#linear-gradient-12);}.cls-40{fill:url(#linear-gradient-13);}</style><linearGradient id="New_Gradient_Swatch_1" x1="113.66" y1="237.34" x2="117.47" y2="240.3" gradientTransform="matrix(0.97, 0.23, -0.23, 0.97, 62.23, -55.37)" gradientUnits="userSpaceOnUse"><stop offset="0" stop-color="#e386c8"/><stop offset="1" stop-color="#e3ccdd"/></linearGradient><linearGradient id="linear-gradient" x1="82.34" y1="256.48" x2="139.09" y2="256.48" gradientUnits="userSpaceOnUse"><stop offset="0" stop-color="#fff" stop-opacity="0"/><stop offset="1" stop-color="#fff"/></linearGradient><linearGradient id="linear-gradient-2" x1="97.2" y1="221.52" x2="136.55" y2="221.52" xlink:href="#linear-gradient"/><linearGradient id="linear-gradient-3" x1="-219.11" y1="269.47" x2="-149.69" y2="269.47" gradientTransform="translate(535.15 -71.7)" xlink:href="#linear-gradient"/><clipPath id="clip-path" transform="translate(-25.74 -71.7)"><path class="cls-1" d="M259.62,356.58l-114.89-.17-21.79-.1-18.7-.1L99.1,330.48,85.75,263.69l-18-89.94,24.78.12,8.6,0-9.77,0,3.35,4.72c.35,1.53,2.57,2.64,3.67,2.64l20.66.1h1.76c1.1,0,3-7.32,3-7.32l15.29.07,86.25,0Z"/></clipPath><linearGradient id="linear-gradient-4" x1="238.51" y1="27.31" x2="271.35" y2="27.31" gradientTransform="matrix(0.74, -0.67, 0.67, 0.74, -161.24, 470.33)" gradientUnits="userSpaceOnUse"><stop offset="0" stop-color="#efc33b"/><stop offset="0.23" stop-color="#eec03a"/><stop offset="0.43" stop-color="#edb537"/><stop offset="0.62" stop-color="#eaa332"/><stop offset="0.81" stop-color="#e68a2b"/><stop offset="0.99" stop-color="#e06922"/><stop offset="1" stop-color="#e06721"/></linearGradient><linearGradient id="linear-gradient-5" x1="238.92" y1="33.09" x2="272.26" y2="33.09" gradientTransform="matrix(0.74, -0.67, 0.67, 0.74, -161.24, 470.33)" gradientUnits="userSpaceOnUse"><stop offset="0" stop-color="#e06721"/><stop offset="0.01" stop-color="#e06922"/><stop offset="0.19" stop-color="#e68a2b"/><stop offset="0.38" stop-color="#eaa332"/><stop offset="0.57" stop-color="#edb537"/><stop offset="0.77" stop-color="#eec03a"/><stop offset="1" stop-color="#efc33b"/></linearGradient><linearGradient id="linear-gradient-6" x1="170.04" y1="145.18" x2="203.44" y2="145.18" gradientTransform="matrix(0.02, -1, 1, 0.02, -52.43, 575.85)" xlink:href="#linear-gradient-4"/><linearGradient id="linear-gradient-7" x1="170.46" y1="151.06" x2="204.37" y2="151.06" gradientTransform="matrix(0.02, -1, 1, 0.02, -52.43, 575.85)" xlink:href="#linear-gradient-5"/><linearGradient id="linear-gradient-8" x1="248.77" y1="235.63" x2="309.87" y2="235.63" gradientTransform="translate(-171.89 123.9) rotate(-19.03)" gradientUnits="userSpaceOnUse"><stop offset="0" stop-color="#8734e0"/><stop offset="0.06" stop-color="#9538d7"/><stop offset="0.23" stop-color="#b640c1"/><stop offset="0.41" stop-color="#cf47b0"/><stop offset="0.59" stop-color="#e14ba4"/><stop offset="0.78" stop-color="#ec4e9d"/><stop offset="1" stop-color="#ef4f9b"/></linearGradient><linearGradient id="linear-gradient-9" x1="252.09" y1="240.84" x2="306.42" y2="240.84" gradientTransform="translate(-171.89 123.9) rotate(-19.03)" gradientUnits="userSpaceOnUse"><stop offset="0" stop-color="#ef4f9b"/><stop offset="0.22" stop-color="#ec4e9d"/><stop offset="0.41" stop-color="#e14ba4"/><stop offset="0.59" stop-color="#cf47b0"/><stop offset="0.77" stop-color="#b640c1"/><stop offset="0.94" stop-color="#9538d7"/><stop offset="1" stop-color="#8734e0"/></linearGradient><linearGradient id="linear-gradient-10" x1="300.89" y1="244.58" x2="361.99" y2="244.58" gradientTransform="translate(44.35 638.9) rotate(-103.53)" xlink:href="#linear-gradient-8"/><linearGradient id="linear-gradient-11" x1="304.21" y1="249.78" x2="358.54" y2="249.78" gradientTransform="translate(44.35 638.9) rotate(-103.53)" xlink:href="#linear-gradient-9"/><clipPath id="clip-path-2" transform="translate(-25.74 -71.7)"><path class="cls-1" d="M232.29,356.69l140.76-.17,21.8-.1,18.7-.1,5.14-25.73L432,263.8l18-89.94-24.78.12-8.61,0,9.78,0-3.35,4.71c-.35,1.54-2.58,2.65-3.67,2.65l-20.67.1H397c-1.1,0-3-7.32-3-7.32l-15.29.07-112.13,0Z"/></clipPath><linearGradient id="linear-gradient-12" x1="264.73" y1="415.68" x2="258.21" y2="398.43" gradientTransform="translate(-74.41 577.08) rotate(-78.9)" gradientUnits="userSpaceOnUse"><stop offset="0" stop-color="#696af7"/><stop offset="1" stop-color="#7fbbf7"/></linearGradient><linearGradient id="linear-gradient-13" x1="241.94" y1="493.74" x2="235.42" y2="476.48" gradientTransform="translate(489.85 903.82) rotate(-156.27)" xlink:href="#linear-gradient-12"/></defs><title>4</title><path class="cls-2" d="M461.26,301.58c2.27-12.21,1.89-25-2.17-34.86-6.22-15-24-28.41-37.94-35.56-15.22-7.81-36.14-4-49.44-14-19.36-14.5-20.58-41.22-24.08-63.08-5.84-36.37-33.33-66.4-68.1-77.64-36.66-11.84-78.46-2-95.91,34.87a85.65,85.65,0,0,0-6.36,19.09c-3.22,15.45-2,32.65-13.42,45-13.2,14.29-32.49,15.53-49.11,23C68.83,219.09,50.37,277.58,79,319.34c27.52,40.08,67,62.72,114.91,69.43,25.38,3.55,44.5,2.64,67.63-7.86,22.68-10.3,40.37-26.15,66-28.92,21.88-2.36,43.84,1.68,65.78,1.22,21.4-.44,42.81-5.29,56.21-23.11C455.12,322.78,459.24,312.42,461.26,301.58Z" transform="translate(-25.74 -71.7)"/><path class="cls-3" d="M123.59,209.9q-3.54-6.12-6.71-12.4l-.78.33Q119.67,204,123.59,209.9Z" transform="translate(-25.74 -71.7)"/><path class="cls-4" d="M439.21,404.47h0l0,.07.09-.32,0,0v0s0,0,0,0c3-5.43,5.8-10.48,8.12-15.52a6.26,6.26,0,0,1-1.34,0,10.66,10.66,0,0,1-3.67-1.39.72.72,0,0,1-.49-.66,1.81,1.81,0,0,1,1.05-1.42,5.51,5.51,0,0,1,4-.45,8.1,8.1,0,0,1,1.86.67,51.19,51.19,0,0,0,2.72-8.5c-.07-.33-.14-.65-.23-1,.09.32.16.64.23,1,.11-.48.23-1,.32-1.46l-.58.33h0a20.77,20.77,0,0,1-6.31,2.33,3.5,3.5,0,0,1-2.34-.41,2.63,2.63,0,0,1-1-2.58,4.34,4.34,0,0,1,2.33-2.82c1.6-1,3.25-1.74,4.88-2.59h0c.88-.46,1.75-.93,2.61-1.48.3-.2.6-.39.89-.56a35,35,0,0,0-1.18-7.64c-2.19,1.61-4.13,3.7-6.26,5.43h0a19.22,19.22,0,0,1-1.82,1.33,4.9,4.9,0,0,1-2.77,1,2.52,2.52,0,0,1-2.31-1.76,3.14,3.14,0,0,1,.33-2.39,6.55,6.55,0,0,1,.94-1.34c2.66-3,6.28-4.72,9.88-6l.68-.26a33.76,33.76,0,0,0-2.51-5c-.23-.37-.46-.76-.71-1.13a9,9,0,0,1-1.25.48,15.79,15.79,0,0,1-4.63.73,2.45,2.45,0,0,1-1.71-.45,1.39,1.39,0,0,1-.32-1.61,3.35,3.35,0,0,1,1.17-1.2c.75-.54,1.94-1.56,3.24-2.47-.38-.42-.78-.84-1.18-1.25a31.37,31.37,0,0,0-5.79-4.68,11.66,11.66,0,0,1-1.6,2.94A25,25,0,0,1,428,347.6a4.91,4.91,0,0,1-1.64.63,33.06,33.06,0,0,0-1.95,7.16h0a34.08,34.08,0,0,1,1.95-7.16,2.24,2.24,0,0,1-1.5-.21,2.21,2.21,0,0,1-.94-1.18c-.82-2.2.35-4.21,1.7-5.95a52.4,52.4,0,0,1,3.36-4.43c-.62-.16-1.27-.29-1.93-.4-6.23-1-13.79.47-16.08,3.65-1.28,1.77-.72,4.12-1.89,5.77-.76-.42-1.5-.85-2.21-1.28a51.1,51.1,0,0,0-11.13-5c-.62-.19-.88,1.27-.78,1.4.55.74,2.32,1,3.77,1.27a33.85,33.85,0,0,1,8.51,3.2c.49.26,1,.54,1.5.83a6.17,6.17,0,0,1-3.72,1.4l-.59,0a56,56,0,0,0-6.91.51c-6.38,1.31-6.27,5-4.13,8.57a47,47,0,0,1,6.92-2.66A27.1,27.1,0,0,1,410.76,352l.68,0a5.19,5.19,0,0,1,1.77.45,2,2,0,0,1,1,1.06h0a1.85,1.85,0,0,1-.54,2,8,8,0,0,1-3.8,1.37q-6.66,1.26-13.48,2.68l-.49.08c.31.33.64.65,1,.95,1,.9,1.93,1.84,2.86,2.8a45.36,45.36,0,0,1,6.87-2.46,12.15,12.15,0,0,1,5.94-.87c.28,1.32-1.12,2.25-2.41,2.86a64.09,64.09,0,0,1-7.74,3.41q1.44,1.67,2.82,3.38a.86.86,0,0,1,.13-.14,18.25,18.25,0,0,1,3.5-2.52,10.87,10.87,0,0,1,5.45-1.82,2.4,2.4,0,0,1,1.08.21,2.69,2.69,0,0,1,.86.85c.26.34.51.69.76,1.05a1,1,0,0,1,.25.57.91.91,0,0,1-.28.59,16.89,16.89,0,0,1-5.06,3.5,38.46,38.46,0,0,1-3.34,1.94l1.76,2.24c.2.24.39.49.58.73l.24.29a5.92,5.92,0,0,1,2.3-.88,2.26,2.26,0,0,1,.52,0,1,1,0,0,1,.46.17,1.39,1.39,0,0,1,.41.64,3.57,3.57,0,0,1-.87,3.68c1.29,1.63,2.56,3.27,3.81,4.87a17.8,17.8,0,0,1,.93-2.61,17.42,17.42,0,0,1,4.19-5.2c.57-.53,1.63-1.81,2.76-2.9s2.55-2.15,3.38-1.63a3,3,0,0,1,1.15,2.13,2.88,2.88,0,0,1-.06,1.37,6.12,6.12,0,0,1-1.1,1.77,37.17,37.17,0,0,1-7.83,7.86c-.41.31-1.09.91-1.76,1.34,2.52,3.21,4.9,6.19,7.2,8.65a18.69,18.69,0,0,1,1.51-2.72,30.07,30.07,0,0,1,3.86-4.51c.62-.63,1.34-1.28,2-1.2a25.2,25.2,0,0,1-4.09,10c-.19.28-.41.6-.67.95a18.93,18.93,0,0,0,4,2.78l5.45,2.77.43.22Zm.22-13.57c0-.11-.05-.22-.07-.33C439.38,390.68,439.41,390.79,439.43,390.9Zm-1.16-3.72-.12-.28Zm-.3-.7-.18-.38-.15-.3Zm-.54-1.1-.24-.45Zm-6.06-21.5-.13,0,.56.07ZM434,364h0Zm12.46,2.59a13.86,13.86,0,0,1,2.18,2.61A14.18,14.18,0,0,0,446.44,366.6ZM434.11,364l.82-.05-.27,0Zm1.44-.1.59-.06-.38,0Zm1-.11-.16,0c.34,0,.68-.1,1-.15Zm-6.64-.2h-.08l-.49-.14a4,4,0,0,1-.49-.17h0A8.71,8.71,0,0,0,429.87,363.6Zm5.7-11.05a2.16,2.16,0,0,1,2.53,1.91.67.67,0,0,1,0,.2c-.14,1.26-2,2.37-2.93,3-1.11.69-2.62,1.24-3.82.44s-1.48-1.82-1-2.65C431.22,353.91,434.11,352.71,435.57,352.55ZM424.25,357s0-.06,0-.1,0-.33,0-.51C424.25,356.59,424.25,356.79,424.25,357Zm-2.46-1.77h-.05c.57.05,1.14.08,1.72.11-.56,0-1.11-.05-1.66-.1ZM419.2,355a31.65,31.65,0,0,1-4-1.06,31.65,31.65,0,0,0,4,1.06q1.05.12,2.13.21h0Zm5.36,4.18c0-.09-.05-.19-.08-.29a2,2,0,0,1-.05-.26,5.26,5.26,0,0,0,.15.6S424.57,359.16,424.56,359.14Zm.17.45c0,.1.07.19.11.28s0,0,0-.05A1.57,1.57,0,0,1,424.73,359.59Zm.17.42.06.11a.33.33,0,0,0,0-.06Zm.51.84a2.14,2.14,0,0,0,.13.19.6.6,0,0,1-.09-.13Zm.3.39,0,0c.11.13.23.25.34.37l0,0A4,4,0,0,1,425.71,361.24Zm.5.53.26.22-.07-.06Zm.68.53.25.18-.12-.08Zm.37.25a5.54,5.54,0,0,0,.53.3h0l-.38-.2ZM421,374.68a21.37,21.37,0,0,0-4.29.72,3.15,3.15,0,0,1,.28-3,10.41,10.41,0,0,1,3.18-2.87c1.2-.8,2.43-1.58,3.64-2.37a4.64,4.64,0,0,1,1.32-.65,1.65,1.65,0,0,1,1.45.3,2.11,2.11,0,0,1,.32,2.34,7.7,7.7,0,0,1-3,3.25C423.15,373,422.1,373.9,421,374.68Zm10.7,3.49c.51.46,1,.93,1.44,1.4C432.7,379.1,432.22,378.63,431.71,378.17Zm1.58,1.54c.44.46.85.92,1.24,1.38C434.14,380.63,433.73,380.17,433.29,379.71Zm3.78,5c-.08-.14-.16-.29-.25-.43-.29-.5-.62-1-1-1.48C436.3,383.45,436.7,384.09,437.07,384.73Zm-1.31-2.05q-.51-.71-1.08-1.41Q435.25,382,435.76,382.68ZM426,389.5c-1.62-2,2.37-5.41,3.63-6a.81.81,0,0,1,.7-.09c.44.24.33,1.13.08,1.78C429.84,386.77,427.31,391.11,426,389.5Zm12.39-2c.11.28.22.57.31.85C438.63,388.09,438.52,387.8,438.41,387.52Zm.42,1.16c.17.53.33,1.06.46,1.6,0-.17-.08-.33-.13-.49C439.06,389.41,439,389.05,438.83,388.68Zm.61,2.25c.13.6.23,1.19.31,1.79v0h0C439.68,392.13,439.57,391.53,439.44,390.93ZM439,403.27Z" transform="translate(-25.74 -71.7)"/><path class="cls-5" d="M453.45,339.57a.54.54,0,0,0-.07.46c.22,1,.44,2,.67,3-2.18,5.21-2.28,11.69,1.2,16.37.44.59,3.12-7.15,2.91-8.4a19,19,0,0,0-2.91-6.86c-.11-.89-.23-1.78-.36-2.68,3.53,4.86,6.88,9.85,10.45,14.69a17.42,17.42,0,0,0,9.37,13.05c.69.33-1.13-8.12-2-9.14a19.77,19.77,0,0,0-7.22-5.21A79.09,79.09,0,0,0,458.31,344c1.38.66,2.74,1.35,4.12,2,3.62,4.51,9.3,8.15,15.3,7.5.74-.08-5.32-6.76-6.55-7.23a18.49,18.49,0,0,0-8.26-.85,41.58,41.58,0,0,1-6.87-4.7c-1.47-1.35-2.85-3.18-4.16-4.66s-1.7-3.67-3.34-4.7c.6.19,1.22.31,1.82.51l.32.11c4,4.17,9.9,7.28,15.79,6.15.73-.14-5.84-6.3-7.11-6.66a18.34,18.34,0,0,0-7.88-.25l-.85-.34c-.95-.35-2-1.07-3-.84a.61.61,0,0,0-.17.09c-1.15-.16-6.62-7.72-10.18-11.2l.84.27c4.29,3.8,10.4,6.39,16.14,4.8.72-.2-6.32-5.81-7.61-6.07a18.26,18.26,0,0,0-8.24.48c-.67-.3-1.34-.6-2-.93a.6.6,0,0,0-.57,0q-2.39-2.42-4.86-4.76-3.37-3.21-6.9-6.27a77.52,77.52,0,0,0-7.89-6.47c-.64-.42-1.53.38-.92.95,4.54,4.19,9.59,8.15,14.14,12.32l.41.39a5.84,5.84,0,0,0,.76,2.2l-.11-.09c-1.4,5.62-.48,12.2,3.82,16.37.53.52,1.92-7.57,1.5-8.78a18.18,18.18,0,0,0-2.91-5.06c-.21-.73-.46-1.46-.72-2.19,0-.1-.07-.21-.1-.32,2.9,2.79,5.73,5.68,8.46,8.64a11.36,11.36,0,0,0,.86,2.18c-1.62,5.39-1,11.79,2.85,16.1.49.55,2.42-7.43,2.09-8.66a19.18,19.18,0,0,0-3.55-6.56c-.16-.36-.31-.72-.44-1.09l.3.33Q448.28,333,453.45,339.57Zm1.62,6.55c.3,3,.31,6.08.31,9.08,0,.22-.33.2-.35,0-.18-3-.35-6.05-.24-9C454.8,346,455.06,346,455.07,346.12ZM467.55,357c2,1.7,4,4.81,4.26,7.47,0,.11-.15.13-.2.05-.64-1.19-1-2.52-1.69-3.71a30.76,30.76,0,0,0-2.57-3.62A.14.14,0,0,1,467.55,357Zm-1.78-9.83c3,.91,5.76,2.65,8.53,4,.19.09,0,.35-.17.27-2.79-1.29-5.9-2.36-8.46-4.07A.12.12,0,0,1,465.77,347.19Zm-12.61-14.95a19.73,19.73,0,0,1,4.67,1.5,33,33,0,0,1,4.47,2.07c.19.11.05.42-.15.34-1.57-.65-3.09-1.39-4.67-2s-3-1-4.39-1.66A.13.13,0,0,1,453.16,332.24Zm-12.45-13.37c1.46.37,2.85,1.08,4.29,1.54s2.93.8,4.4,1.2a.17.17,0,0,1-.06.34,24.23,24.23,0,0,1-4.5-1,16,16,0,0,1-4.26-1.78A.15.15,0,0,1,440.71,318.87Zm-8.62,2.2a45.42,45.42,0,0,1,.65,4.64,26.8,26.8,0,0,1,.46,4.27.21.21,0,0,1-.42,0,29.79,29.79,0,0,1-.65-4.64c-.17-1.41-.43-2.84-.46-4.26C431.67,320.86,432,320.85,432.09,321.07Zm10.24,9.32a12.24,12.24,0,0,1,1,6.36c0,.11-.2.15-.21,0A24.28,24.28,0,0,0,442,330.5C442,330.33,442.27,330.23,442.33,330.39Z" transform="translate(-25.74 -71.7)"/><path class="cls-6" d="M451,231.59a.6.6,0,0,0,.46.12l3-.43c5,2.6,11.47,3.23,16.42.15.62-.39-6.86-3.7-8.13-3.59a18.9,18.9,0,0,0-7.07,2.34c-.9,0-1.8.08-2.71.13,5.14-3.12,10.39-6,15.5-9.21a17.44,17.44,0,0,0,13.78-8.25c.39-.67-8.19.45-9.28,1.2a19.86,19.86,0,0,0-5.78,6.77,80.94,80.94,0,0,0-11.39,6.29q1.15-2,2.36-3.93c4.79-3.25,8.88-8.6,8.73-14.64,0-.74-7.18,4.75-7.74,5.94a18.54,18.54,0,0,0-1.53,8.16,41.88,41.88,0,0,1-5.24,6.45,60,60,0,0,1-5,3.77c-1.5,1.12-3.79,1.39-5,2.94.24-.58.42-1.19.67-1.77,0-.1.08-.21.13-.31,4.48-3.62,8.07-9.27,7.42-15.23-.08-.74-6.75,5.31-7.22,6.54a18.27,18.27,0,0,0-.89,7.83c-.14.27-.28.54-.41.82-.43.92-1.23,1.93-1.09,2.92a.81.81,0,0,0,.08.18c-.25,1.13-8.23,6-12,9.22l.34-.81c4.14-4,7.22-9.85,6.11-15.7-.14-.73-6.31,5.83-6.68,7.09a18.53,18.53,0,0,0-.2,8.25c-.35.65-.7,1.29-1.09,1.91a.61.61,0,0,0,0,.57c-1.74,1.45-3.45,2.94-5.15,4.45q-3.47,3.11-6.81,6.36a79.23,79.23,0,0,0-7.1,7.33c-.47.6.26,1.56.87,1,4.55-4.18,8.91-8.88,13.45-13.08l.41-.38a5.8,5.8,0,0,0,2.26-.57.94.94,0,0,0-.1.1c5.49,1.86,12.13,1.48,16.63-2.46.56-.49-7.39-2.53-8.62-2.22a18,18,0,0,0-5.29,2.49c-.74.14-1.49.33-2.24.53l-.33.08c3-2.67,6.14-5.25,9.31-7.73a10.9,10.9,0,0,0,2.24-.67c5.24,2.06,11.67,2,16.28-1.51.59-.45-7.2-3-8.45-2.8a19.2,19.2,0,0,0-6.84,3c-.36.13-.74.24-1.12.35l.36-.27Q444,236.21,451,231.59Zm6.66-1.07c3-.05,6.08.19,9.07.44.23,0,.18.35,0,.34-3-.06-6.06-.14-9-.5C457.5,230.78,457.49,230.52,457.65,230.52ZM469.54,219c1.86-1.84,5.13-3.62,7.8-3.62.11,0,.11.16,0,.2-1.24.54-2.59.82-3.84,1.38a31.94,31.94,0,0,0-3.82,2.26A.14.14,0,0,1,469.54,219Zm-9.94,1c1.15-2.88,3.11-5.53,4.7-8.18.11-.17.35,0,.26.19-1.51,2.68-2.83,5.69-4.75,8.1A.12.12,0,0,1,459.6,220Zm-15.94,11.33a19.89,19.89,0,0,1,1.88-4.53,35.55,35.55,0,0,1,2.43-4.29c.12-.17.43,0,.33.19-.78,1.5-1.64,3-2.39,4.49s-1.2,2.91-2,4.23C443.83,231.48,443.63,231.4,443.66,231.28Zm-14.35,11.31c.49-1.42,1.31-2.75,1.89-4.15s1-2.85,1.56-4.28c.07-.19.37-.11.33.08a24.22,24.22,0,0,1-1.4,4.4,16.09,16.09,0,0,1-2.11,4.1A.16.16,0,0,1,429.31,242.59Zm1.49,8.78a45.56,45.56,0,0,1,4.68-.28,26.64,26.64,0,0,1,4.28-.1.21.21,0,0,1,0,.42,30.47,30.47,0,0,1-4.68.27c-1.42,0-2.87.19-4.29.1A.21.21,0,0,1,430.8,251.37Zm10.13-9.45a12.22,12.22,0,0,1,6.42-.5c.11,0,.14.21,0,.21a24.61,24.61,0,0,0-6.35.59C440.84,242.27,440.76,242,440.93,241.92Z" transform="translate(-25.74 -71.7)"/><path class="cls-5" d="M464.39,248.77a4.35,4.35,0,0,0-1-.09c1.21-2.31,2.59-4.53,4-6.75a1.77,1.77,0,0,1-.46-1.7,1.51,1.51,0,0,1,2.08-1.08l.09.06a1.18,1.18,0,0,1,1.18.4,1.89,1.89,0,0,1-1.66,2.95.34.34,0,0,1-.31,0A39.2,39.2,0,0,0,464.39,248.77Zm3.89,7.18c1.42-1.12,2.81-2.26,4.19-3.43a40.5,40.5,0,0,0,3.22-2.73,1.78,1.78,0,0,0,2.28-1.68,1.6,1.6,0,0,0-.28-2,2,2,0,0,0-2.21,0,2.12,2.12,0,0,0-.7,3.05c-.85.71-1.63,1.55-2.43,2.25-1.45,1.25-2.91,2.47-4.4,3.66-.85.68-1.71,1.34-2.58,2-.65.88-1.36,1.71-2,2.61C465.07,258.47,466.69,257.21,468.28,256Zm7.18,5.28a23.57,23.57,0,0,0,4.67-2.37,1.66,1.66,0,0,0,.31.23,2.21,2.21,0,0,0,3-1.17,2,2,0,0,0-1.63-2.66,1.9,1.9,0,0,0-1,.24l-.19.05a1,1,0,0,0-.58.13,1.36,1.36,0,0,0-.63.81.36.36,0,0,0-.07.1.32.32,0,0,0,0,.36,2.58,2.58,0,0,0,.22,1.08,34.2,34.2,0,0,0-4,2,2.55,2.55,0,0,1-.23,1.3Zm-5.82,16.12a7.78,7.78,0,0,1-2.76-.28,53.09,53.09,0,0,1-10.59-4.2,4.87,4.87,0,0,1-5.72.35,3.55,3.55,0,0,1-.31-.23,24.58,24.58,0,0,1-2.51,1.89,24.24,24.24,0,0,1-5.88,2.8c-1.75.55-4,1.24-5.81.93a.55.55,0,0,1-.06-1.08c2-.59,4.05-.6,6-1.29a23.39,23.39,0,0,0,5.29-2.65,21.1,21.1,0,0,0,2.06-1.57,4.92,4.92,0,0,1-.54-4.39c-4.55-4.32-7.23-10-5.4-17.17.54-2.12,1.84-4.31,4-4.79,2.88-.65,5.44,2.26,6.08,5.14s.16,5.94.81,8.82a16.29,16.29,0,0,1,4.37-8.47,8.18,8.18,0,0,1,3.62-2.33,4.85,4.85,0,0,1,1.08-.15,4.35,4.35,0,0,1,1,.09,3.55,3.55,0,0,1,1.93,1c1.54,1.64,1,4.35-.24,6.25-.22.34-.46.68-.71,1-.65.88-1.36,1.71-2,2.61a9.84,9.84,0,0,0-1.06,2,16.42,16.42,0,0,1,6.63-4.38c1.76-.62,3.94-.85,5.3.43a3.65,3.65,0,0,1,1.31,2.3,2.55,2.55,0,0,1-.23,1.3c-1.53,3.44-9.94,5.91-12,6.77,2.31-.34,4.72-.67,6.94,0s4.22,2.75,4,5.08S471.91,277.14,469.64,277.35Zm-1.68-4.8c-2.44-.87-4.93-1.57-7.42-2.29l-3.59-1c3.92-2.08,7.92-4.12,11.64-6.51.37-.24.12-.83-.3-.64-4.43,1.94-8.68,4.39-12.93,6.68l-.54-.08a.29.29,0,0,0-.08-.31l-.3-.33c1.32-2.2,2.24-4.67,3.52-6.91s2.75-4.48,4.18-6.68a.31.31,0,0,0-.51-.35,58.49,58.49,0,0,0-4.52,6.83,40.1,40.1,0,0,0-3.32,6.41,17.47,17.47,0,0,1-3.41-4.63,18,18,0,0,1-1.43-7.39.35.35,0,0,0-.69,0c-.65,4.57,1.7,10.89,5.74,13.46a.3.3,0,0,0,0,.5,2.72,2.72,0,0,0,.65.43.54.54,0,0,0,.78.38l.09-.05c.52.15,1.06.25,1.58.39l3.44.95c2.4.66,4.79,1.32,7.23,1.83C468.16,273.28,468.39,272.7,468,272.55Z" transform="translate(-25.74 -71.7)"/><path class="cls-7" d="M430.9,280.68c.19.57.37,1.13.55,1.69-.94-.55-1.88-1.1-2.82-1.63-2.19-1.23-5.2-2.22-6.44-4.47a.67.67,0,0,1,.56-.92c2.52-.06,5,2.11,7.09,3.36,1.34.8,2.72,1.56,4.09,2.36Zm10.69,15.82a17.05,17.05,0,0,1,.21-5.75c-2.53-2-5-4-7.41-6.14-.37-.34.09-.93.49-.62,4.1,3.2,8.24,6.33,12.46,9.35a63.26,63.26,0,0,1,10.15-4.25c1.18-.38,2.43-.79,3.72-1.17-8.26-4.35-18.06-5.68-27.28-6.85l-3-.39c.19.57.37,1.13.55,1.69,3.28,10.25,5.08,19.58,11.78,26.65-.28-1.48-.53-2.94-.75-4.35A77,77,0,0,1,441.59,296.5Zm19.64,6.05,1.84,1.12q1.44.84,2.88,1.65a.38.38,0,0,1,.65,0c.13.19.25.39.37.58q3,1.67,6,3.19a.6.6,0,0,1,.38-.26,57.94,57.94,0,0,0,6.12-1.46c.66-.22,1.3-.5,1.94-.76A106.5,106.5,0,0,0,474,298c-1.72.68-3.55,1.19-5.21,1.81C466.26,300.68,463.77,301.76,461.23,302.55ZM453,298.76c-2.08-1.38-4.12-2.8-6.15-4.25l-.16.07c-.38.17-.61-.24-.47-.54q-1.81-1.31-3.59-2.67a40.31,40.31,0,0,1,.45,5.9q.3,3.63.9,7.25a64,64,0,0,0,1.53,6.64,33.52,33.52,0,0,0,7.79,4.83,43,43,0,0,0,6.55,2.35l-1.89-5.23C456.26,308.47,454,303.63,453,298.76ZM468.15,308c1.23,2.42,2.18,5,3.19,7.5.62,1.51,1.22,3,1.82,4.54A70.48,70.48,0,0,0,489,318.17,176.89,176.89,0,0,1,468.15,308Zm-1.93-1.1c-1.47-.84-2.93-1.7-4.38-2.56L459.66,303l-.1,0a.53.53,0,0,1-.7-.52c-1.44-.89-2.88-1.79-4.31-2.72,2,4,3.22,8.64,4.74,12.79l2.26,6.17a52.11,52.11,0,0,0,10,1.26c-.44-1.19-.9-2.37-1.37-3.54C468.9,313.3,467.27,310.16,466.22,306.89Zm-18.05-13c3.81,2.71,7.7,5.32,11.69,7.79,2.68-1.3,5.59-2.23,8.36-3.31,1.42-.55,2.88-1.23,4.37-1.82a63.5,63.5,0,0,0-7-6c-.71-.52-1.44-1-2.18-1.46-2.12.44-4.27.81-6.3,1.44A90.91,90.91,0,0,0,448.17,293.93Zm26.27,15.88c4.69,2.33,9.45,4.5,14.25,6.62-2.05-2.9-4.14-5.8-6.32-8.63A23.89,23.89,0,0,1,474.44,309.81Z" transform="translate(-25.74 -71.7)"/><path class="cls-5" d="M65.44,348.85a.56.56,0,0,0-.44-.18H62c-4.59-3.3-10.88-4.85-16.22-2.5-.67.29,6.26,4.64,7.53,4.72a19.13,19.13,0,0,0,7.34-1.3c.89.09,1.79.18,2.69.25-5.53,2.35-11.14,4.49-16.66,6.89a17.4,17.4,0,0,0-14.81,6.2c-.49.6,8.16.72,9.34.14a19.9,19.9,0,0,0,6.7-5.87A80.08,80.08,0,0,0,60,352.59c-.95,1.19-1.92,2.37-2.89,3.56-5.21,2.52-10,7.24-10.74,13.23-.09.74,7.78-3.67,8.51-4.76a18.59,18.59,0,0,0,2.68-7.86,41.53,41.53,0,0,1,6.12-5.64,61,61,0,0,1,5.48-3c1.64-.9,4-.83,5.33-2.2-.32.54-.58,1.12-.91,1.65-.06.1-.12.2-.17.3-5,2.93-9.32,8-9.54,14,0,.75,7.45-4.28,8.08-5.43a18.25,18.25,0,0,0,2-7.62c.17-.25.35-.5.51-.76.56-.84,1.5-1.73,1.5-2.74a.84.84,0,0,0,0-.18c.41-1.09,9-4.72,13.2-7.41-.15.26-.31.51-.46.76-4.66,3.32-8.55,8.71-8.29,14.66,0,.74,7.08-4.86,7.62-6.06a18.37,18.37,0,0,0,1.38-8.14c.44-.59.89-1.17,1.36-1.73a.6.6,0,0,0,.12-.55q2.89-1.8,5.73-3.67,3.89-2.58,7.66-5.32a77.48,77.48,0,0,0,8.07-6.24c.56-.53,0-1.58-.72-1.11-5.1,3.48-10.09,7.51-15.18,11l-.46.31a5.86,5.86,0,0,0-2.32.24l.11-.08c-5.16-2.63-11.79-3.2-16.81.05-.62.4,7,3.57,8.22,3.43a18,18,0,0,0,5.58-1.7c.76,0,1.53-.12,2.3-.21l.33,0c-3.37,2.2-6.82,4.32-10.32,6.31a12.05,12.05,0,0,0-2.31.35c-4.89-2.79-11.26-3.65-16.33-.84-.64.36,6.7,4,8,4a19,19,0,0,0,7.19-2c.38-.07.77-.13,1.16-.18l-.39.22Q73,345.28,65.44,348.85Zm-6.75.1a89.85,89.85,0,0,1-8.91-1.74c-.22,0-.13-.36.09-.33a89.12,89.12,0,0,1,8.86,1.8C58.88,348.72,58.85,349,58.69,349Zm-13.42,9.72c-2.11,1.56-5.6,2.85-8.24,2.47-.11,0-.09-.17,0-.2,1.31-.36,2.68-.44,4-.82a29.22,29.22,0,0,0,4.1-1.69A.14.14,0,0,1,45.27,358.67Zm10,.47c-1.55,2.68-3.88,5-5.83,7.41-.13.16-.34-.06-.22-.22,1.87-2.44,3.61-5.23,5.86-7.34A.12.12,0,0,1,55.25,359.14Zm17.4-8.93a20.2,20.2,0,0,1-2.51,4.21,33.52,33.52,0,0,1-3,3.89c-.14.16-.42-.05-.29-.22,1-1.38,2.05-2.7,3-4.11s1.6-2.7,2.6-3.9C72.51,350,72.69,350.09,72.65,350.21Zm15.82-9.14c-.69,1.34-1.69,2.53-2.47,3.83s-1.43,2.68-2.15,4c-.09.18-.39.06-.32-.13a23.75,23.75,0,0,1,2-4.15,15.88,15.88,0,0,1,2.68-3.76A.16.16,0,0,1,88.47,341.07Zm-.21-8.9a45.92,45.92,0,0,1-4.68-.4,27.41,27.41,0,0,1-4.25-.51c-.25-.06-.18-.4.06-.42a30.69,30.69,0,0,1,4.67.41c1.41.15,2.86.22,4.25.51A.21.21,0,0,1,88.26,332.17Zm-11.38,7.9a12.25,12.25,0,0,1-6.44-.43c-.1,0-.09-.23,0-.21a24.31,24.31,0,0,0,6.37.33C77,339.74,77.05,340,76.88,340.07Z" transform="translate(-25.74 -71.7)"/><path class="cls-4" d="M74.67,214.21a11,11,0,0,1,.49,5.63,10.17,10.17,0,0,1-1.25,2.67,33.36,33.36,0,0,0-7.75-12.19.19.19,0,1,0-.28.25,30.58,30.58,0,0,1,7.63,17c-.56-.76-1.17-1.5-1.68-2.22-1.26-1.77-2.5-3.56-3.85-5.28-.37-.47-1.11-.15-.79.38,1.11,1.83,2.35,3.62,3.56,5.41a26.52,26.52,0,0,0,2.93,4.19,33.25,33.25,0,0,1-.05,3.46c-2.92-2.49-5.93-4.87-9-7.14-.6-.45-1.21-.9-1.83-1.34,1.17-.79.83-2.8.67-4.09A11.47,11.47,0,0,0,61.83,216c-.19-.29-.74-.24-.68.12a36.61,36.61,0,0,1,.79,4.72c0,1.09-.43,2.43,0,3.55-1.29-.91-2.59-1.81-3.9-2.68-.23-1.74-.66-3.53-.89-5.28A17,17,0,0,0,55.45,211a17.84,17.84,0,0,0-7.92-8.13c-.35-.17-.79.22-.42.5,3.54,2.69,6.5,5.65,7.92,9.68a19.64,19.64,0,0,1,.87,5.48,15.88,15.88,0,0,0,.22,2q-4-2.62-8.27-5a145,145,0,0,0-18.24-8.38c-.23-.09-.29.22-.08.32a160.89,160.89,0,0,1,14.84,7.47l-.77.35a10.67,10.67,0,0,1-3.48.88,16.77,16.77,0,0,1-6.59-1.28c-.26-.09-.34.22-.14.37a12,12,0,0,0,6.87,1.89c1.64,0,4.5-.13,5.42-1.47l1.57.88c3.34,1.9,6.62,3.92,9.81,6.05l0,0a.5.5,0,0,0,.3.18c2.13,1.43,4.23,2.9,6.28,4.43a144.43,144.43,0,0,1,12.54,10.43,20.21,20.21,0,0,1-3.28.37,26.16,26.16,0,0,1-5.72-.83c-1.26-.32-2.49-.69-3.72-1.11a.73.73,0,0,0-.1-.41,40.89,40.89,0,0,0-12.73-14.32.34.34,0,0,0-.43.53A58.92,58.92,0,0,1,61.56,235.4c-2-.77-4-1.64-6-2.56s-4.1-1.89-6.19-2.75a.58.58,0,0,0-.18-.55,20,20,0,0,0-12.37-6.4c-.29,0-.33.39,0,.48a25.33,25.33,0,0,1,10.49,5.65c-4.26-1.58-8.62-2.62-13.05-2.15-.43,0-.21.65.21.62,7.93-.53,15.46,3.51,22.77,6.93a30.67,30.67,0,0,1-3.57-.13,21.91,21.91,0,0,1-6.45-2.41c-.31-.16-.67.18-.36.44,2.73,2.27,8.9,4.83,12,3.17a.5.5,0,0,0,.19-.24l.21.1a48.07,48.07,0,0,0,9.47,3.34c-1.56,1-2.93,2.22-4.93,2.75a17.64,17.64,0,0,1-7.78-.1.36.36,0,0,0-.17.7c4.42,2.1,12.6,1.16,14.48-3,2.3.39,5.47.72,7.46-.11q4.2,4,8.11,8.28a34,34,0,0,0-5.34-.43,54.48,54.48,0,0,0-6.65.13c-.34,0-.23.56.11.57,2.33,0,4.66.11,7,.3a53,53,0,0,0,6,.6c.85,0,8.59,10.08,9.38,10.92a5.07,5.07,0,0,0,3.75-2.86c.15-.35-6.51-4.28-7-4.71-7.61-6.48-4-16.34-10.29-23.42a.4.4,0,0,0-.67.45c1.52,2.94,2.94,5.57,3.48,8.73,0,.17,0,.33.08.5a46.1,46.1,0,0,0-5.25-5c-.45-.37-1,.14-.6.53a47.27,47.27,0,0,1,6.08,6.76,19.46,19.46,0,0,1-.28,4.39q-3.24-3.41-6.71-6.64a.71.71,0,0,0-.61-.62h-.07q-1.6-1.47-3.25-2.9a21.7,21.7,0,0,0-.47-10.32c1.42-.84,2-3.2,2.14-4.66A9.76,9.76,0,0,0,75.45,214C75.21,213.52,74.53,213.77,74.67,214.21Z" transform="translate(-25.74 -71.7)"/><path class="cls-6" d="M81.51,310.91a8.85,8.85,0,0,0-9.54-1,10.86,10.86,0,0,0,3.16-8.54c-.46-4.24-4.29-8-8.55-7.86-3.92.14-7.33,4.07-6.84,7.86A21.55,21.55,0,0,0,57,293.9c-1.67-2.48-4.61-4.34-7.56-3.86-3.83.62-6.12,5-5.86,8.82S46,306.19,48,309.47a8.66,8.66,0,0,0-12.07-.87,8.66,8.66,0,0,0-.15,12.1c4.2,4.07,11.64,0,15.53-2.8-2.55,2.26-7.32,7.08-8.05,10.54-1.15,5.45,4.42,10.26,9.63,8.89a8,8,0,0,0,5.36-5.13A8,8,0,0,0,63.53,339a8.48,8.48,0,0,0,10-5,9.25,9.25,0,0,0-2.31-9.69,8.46,8.46,0,0,0,10.29-13.39Zm-6.82,2.52a41,41,0,0,1-9.63,1.22,5.07,5.07,0,0,1-.12,1.4c2.35.24,4.69.52,7,.93a.4.4,0,0,1,.18.66c-.1.11-.19.22-.28.34a.24.24,0,0,1-.4-.17v-.11c-2.23-.33-4.44-.75-6.64-1.22a5,5,0,0,1-.55,1.2,4.89,4.89,0,0,1-.73.84c.71.59,1.38,1.22,2.05,1.85a7.32,7.32,0,0,1,1.72,1.88.24.24,0,0,1-.32.32,7.49,7.49,0,0,1-2-1.63c-.66-.64-1.33-1.28-2-2l0-.06a5.29,5.29,0,0,1-2,.81,27.42,27.42,0,0,1,1.5,4c.48,1.48,1.34,3.38,1.13,4.95a.22.22,0,0,1-.41.11c-.85-1.26-1-3.14-1.45-4.58s-1-2.92-1.4-4.4a5.4,5.4,0,0,1-1.79-.17,15.59,15.59,0,0,1-1.39,3.44,8.37,8.37,0,0,1-2,2.94c-.17.13-.4-.08-.35-.26a15.92,15.92,0,0,1,1.68-3.08c.57-1,1-2.15,1.6-3.19a5.1,5.1,0,0,1-1.11-.58c-.79,1-1.81,1.93-2.67,2.92-1.07,1.25-2,2.62-3,3.88-.29.35-.81-.1-.61-.47a22.26,22.26,0,0,1,2.87-3.83,16.65,16.65,0,0,1,3-2.9.48.48,0,0,1-.05-.5,5.17,5.17,0,0,1-.78-1,4.89,4.89,0,0,1-.39-.91,50.44,50.44,0,0,1-5-.52c-1.72-.15-3.44-.29-5.16-.39a.2.2,0,0,1,0-.39c1.82,0,3.62,0,5.44.14a24.62,24.62,0,0,1,4.6.57,5.55,5.55,0,0,1-.09-1,.26.26,0,0,1-.21,0,25.45,25.45,0,0,1-3.54-2.05.19.19,0,0,1,.19-.32,27,27,0,0,1,3.6,1.82,4.22,4.22,0,0,1,.17-.86,4.28,4.28,0,0,1,.82-1.46,49.2,49.2,0,0,0-6-7.59c-.19-.19.1-.48.31-.3a36.69,36.69,0,0,1,6.2,7.36,4.89,4.89,0,0,1,1.21-.75,10.88,10.88,0,0,1-1-2.59,30.05,30.05,0,0,1-1.2-3.81c0-.2.24-.34.34-.15a26.35,26.35,0,0,1,1.39,3.29,12.71,12.71,0,0,1,1.07,3,5.56,5.56,0,0,1,2.26-.23,37.63,37.63,0,0,1,1.47-4.1c.61-1.64,1.24-3.28,1.92-4.9.11-.24.49-.06.42.18-.5,1.75-1.06,3.48-1.64,5.2-.42,1.21-.75,2.59-1.3,3.79a3.56,3.56,0,0,1,.62.23,4.26,4.26,0,0,1,.85.51,54.89,54.89,0,0,1,5.13-5.21.3.3,0,0,1,.42.42,56.55,56.55,0,0,1-5.13,5.14,5.35,5.35,0,0,1,1.5,3c3.17-.43,6.34-.79,9.5-1.3C74.92,312.74,75.1,313.33,74.69,313.43Z" transform="translate(-25.74 -71.7)"/><path class="cls-7" d="M88.8,297.69c-.14-.69-.28-1.38-.41-2.06,1,.77,2.06,1.55,3.1,2.31,2.39,1.75,5.8,3.33,6.94,6.15a.81.81,0,0,1-.78,1c-3-.28-5.56-3.18-7.88-5-1.46-1.12-3-2.21-4.47-3.34Zm-10.35-20.1c-.14,2.2-.15,4.69-1,6.74,2.7,2.67,5.33,5.42,7.85,8.26a.46.46,0,0,1-.66.65c-4.37-4.33-8.8-8.59-13.35-12.73a75,75,0,0,1-12.52,3.58c-1.44.27-3,.59-4.54.84,9.11,6.28,20.44,9.21,31.12,11.88l3.5.88c-.14-.69-.28-1.38-.41-2.06-2.41-12.51-3.23-23.74-10.11-33,.12,1.77.2,3.52.27,5.21A90.22,90.22,0,0,1,78.45,277.59ZM56.2,267.74c-.66-.53-1.33-1.06-2-1.57-1.05-.8-2.1-1.58-3.16-2.35a.45.45,0,0,1-.77-.08c-.12-.24-.23-.49-.35-.74-2.19-1.58-4.41-3.1-6.64-4.59a.69.69,0,0,1-.49.26,68,68,0,0,0-7.39.86c-.8.16-1.6.4-2.39.62a124.9,124.9,0,0,0,7.58,11.2c2.13-.55,4.35-.9,6.39-1.39C50,269.23,53.1,268.31,56.2,267.74Zm9.17,5.61q3.38,2.85,6.63,5.86l.21-.07c.47-.14.68.37.48.7,1.29,1.2,2.58,2.41,3.84,3.64-.25-2.28.21-4.74.3-7,.11-2.88.09-5.77,0-8.65a76.22,76.22,0,0,0-.88-8,39.32,39.32,0,0,0-8.48-6.77,49.67,49.67,0,0,0-7.37-3.68q.75,3.21,1.49,6.41C62.88,261.47,64.89,267.49,65.37,273.35Zm-16.54-13c-1.11-3-1.85-6.23-2.7-9.26-.51-1.86-1-3.72-1.5-5.59a83.45,83.45,0,0,0-18.89,0A208.09,208.09,0,0,1,48.83,260.37Zm2.11,1.56q2.41,1.8,4.79,3.63c.8.61,1.59,1.24,2.38,1.87l.13,0a.62.62,0,0,1,.74.7q2.37,1.88,4.69,3.8c-1.73-5-2.57-10.61-3.78-15.69l-1.79-7.58a61.37,61.37,0,0,0-11.57-2.87c.36,1.45.73,2.91,1.12,4.35C48.69,254,50.17,258,50.94,261.93ZM70.36,279.7C66.25,276,62,272.37,57.7,268.91c-3.33,1.15-6.88,1.84-10.29,2.71-1.75.45-3.56,1.05-5.39,1.54a76.56,76.56,0,0,0,7.41,8c.77.7,1.56,1.38,2.37,2,2.54-.22,5.12-.36,7.61-.82A109.07,109.07,0,0,0,70.36,279.7ZM41.68,257.36c-5.18-3.4-10.47-6.61-15.82-9.78,2,3.7,4.06,7.4,6.22,11A27.84,27.84,0,0,1,41.68,257.36Z" transform="translate(-25.74 -71.7)"/><path class="cls-7" d="M99.16,361.23l-1.23.3c.44-.64.88-1.27,1.3-1.91,1-1.48,1.84-3.56,3.5-4.31a.48.48,0,0,1,.62.44c-.09,1.79-1.75,3.4-2.75,4.84-.63.9-1.24,1.83-1.87,2.75C98.87,362.63,99,361.93,99.16,361.23ZM87.42,368a11.8,11.8,0,0,1,4.06.45q2.28-2.53,4.72-4.91c.26-.25.65.11.41.37-2.47,2.73-4.9,5.49-7.25,8.32a46.34,46.34,0,0,1,2.47,7.38c.2.86.43,1.77.62,2.69,3.51-5.61,5-12.45,6.28-18.91.14-.71.28-1.41.43-2.11l-1.23.3c-7.4,1.77-14.09,2.56-19.43,6.92,1-.12,2.1-.22,3.11-.3A53.63,53.63,0,0,1,87.42,368Zm-5.3,13.55c-.29.41-.59.82-.88,1.24q-.67,1-1.32,1.95a.27.27,0,0,1,0,.46l-.43.23c-.89,1.35-1.74,2.72-2.57,4.09a.39.39,0,0,1,.17.28,40.72,40.72,0,0,0,.71,4.4c.12.47.28.94.44,1.41a75.3,75.3,0,0,0,6.49-4.83c-.39-1.25-.66-2.57-1-3.78C83.18,385.15,82.55,383.34,82.12,381.5Zm3.11-5.63q1.62-2.08,3.33-4.11s0-.09,0-.13c-.1-.27.21-.41.41-.3.68-.8,1.37-1.6,2.07-2.39a29.16,29.16,0,0,1-4.18,0c-1.73,0-3.45.1-5.17.25a46.87,46.87,0,0,0-4.77.73,23.56,23.56,0,0,0-3.82,5.25,29.54,29.54,0,0,0-2,4.5l3.79-1.06C78.2,377.68,81.74,376.32,85.23,375.87ZM77.92,386.1c-1.78.74-3.67,1.28-5.47,1.86q-1.64.54-3.3,1.05a49.52,49.52,0,0,0,.49,11.28A125.25,125.25,0,0,1,77.92,386.1Zm.87-1.3c.68-1,1.36-2,2-3l1.06-1.47,0-.08a.38.38,0,0,1,.4-.46c.71-1,1.42-1.94,2.15-2.9-3,1.17-6.27,1.82-9.28,2.67l-4.48,1.27a35.93,35.93,0,0,0-1.4,7c.85-.25,1.71-.51,2.56-.78C74.13,386.35,76.43,385.36,78.79,384.8ZM88.9,372.73q-3.18,3.82-6.12,7.85c.78,2,1.29,4.06,1.9,6.07.31,1,.72,2.1,1.06,3.19a44.6,44.6,0,0,0,4.57-4.65c.41-.47.79-1,1.15-1.46-.2-1.52-.35-3.06-.69-4.53A66.35,66.35,0,0,0,88.9,372.73ZM76.31,390.45c-1.9,3.19-3.68,6.43-5.43,9.72,2.16-1.3,4.32-2.63,6.43-4A16.72,16.72,0,0,1,76.31,390.45Z" transform="translate(-25.74 -71.7)"/><path class="cls-1" d="M106.06,362.21l-.25-.06.25.06Z" transform="translate(-25.74 -71.7)"/><path class="cls-1" d="M106.62,362.26l-.42,0h0Z" transform="translate(-25.74 -71.7)"/><path class="cls-1" d="M67.85,168.31l.08-.07,0,0S67.86,168.29,67.85,168.31Z" transform="translate(-25.74 -71.7)"/><polygon class="cls-1" points="120.11 100.86 43.3 100.49 120.11 100.86 120.11 100.86"/><path class="cls-1" d="M180.49,362.57l.14,0Z" transform="translate(-25.74 -71.7)"/><polygon class="cls-1" points="42.93 100.48 42.93 100.48 42.93 100.48 42.93 100.48"/><path class="cls-1" d="M104.76,361.73h0l-.23-.14h0Z" transform="translate(-25.74 -71.7)"/><path class="cls-1" d="M105.18,361.93h0l-.24-.11h0Z" transform="translate(-25.74 -71.7)"/><path class="cls-1" d="M105.61,362.09h0l-.26-.09h0Z" transform="translate(-25.74 -71.7)"/><path class="cls-1" d="M104.35,361.47h0l-.22-.16h0Z" transform="translate(-25.74 -71.7)"/><path class="cls-1" d="M66.74,170s0,0,0,.06a.93.93,0,0,0,0-.13h0A.19.19,0,0,1,66.74,170Z" transform="translate(-25.74 -71.7)"/><path class="cls-1" d="M66.49,171.7a.57.57,0,0,1,0-.13s0,0,0,.07Z" transform="translate(-25.74 -71.7)"/><path class="cls-1" d="M102.4,359.45h0l-.09-.13h0Z" transform="translate(-25.74 -71.7)"/><path class="cls-1" d="M67,169.35a.41.41,0,0,1,0-.09l0,0S67,169.33,67,169.35Z" transform="translate(-25.74 -71.7)"/><polygon class="cls-1" points="68.99 102.18 44.22 102.06 68.99 102.18 68.99 102.18"/><polygon class="cls-1" points="144.16 286.39 77.93 286.07 77.93 286.07 144.16 286.39 144.16 286.39"/><polygon class="cls-1" points="77.66 284.88 77.66 284.88 77.7 285.05 77.93 286.07 77.66 284.88"/><polygon class="cls-1" points="43.37 102.42 42.93 100.48 42.93 100.48 43.37 102.42 43.37 102.42"/><polygon class="cls-8" points="77.7 285.05 77.93 286.07 77.93 286.07 77.93 286.07 77.7 285.05"/><path class="cls-9" d="M180.49,362.57a2.76,2.76,0,0,1-.51.05l-71.81-.36-.42,0h0l-.14,0h0l-.25-.06-.2,0h0l-.25-.08h0l-.17-.08h0l-.24-.11h0l-.18-.09h0l-.23-.14h0l-.18-.12h0l-.22-.16h0a7.38,7.38,0,0,1-1.73-1.86h0l-.09-.13h0a9.48,9.48,0,0,1-1.25-2.95L68.25,173.58A8.46,8.46,0,0,1,68,171.7v-.06s0,0,0-.07a5.67,5.67,0,0,1,.22-1.48l0-.06a.19.19,0,0,0,0-.07h0a4.86,4.86,0,0,1,.26-.61s0,0,0,0l0,0a3.18,3.18,0,0,1,.78-.95s0,0,0,0l0,0A3,3,0,0,1,70,168h0l-6,3.95a3,3,0,0,0-.55.32h0a.74.74,0,0,0-.13.12,2.73,2.73,0,0,0-.34.34c-.05.06-.09.14-.14.21a3.88,3.88,0,0,0-.23.33v0l0,.07a3.49,3.49,0,0,0-.25.59l0,.08a5.86,5.86,0,0,0-.16.69.59.59,0,0,1,0,.13.68.68,0,0,1,0,.14,4.49,4.49,0,0,0,0,.64v.11c0,.23,0,.48,0,.72l0,.23a7,7,0,0,0,.15.88L96.6,360.32a8.52,8.52,0,0,0,.26.9l0,.1a.08.08,0,0,0,0,.05,9.4,9.4,0,0,0,.39.92.61.61,0,0,0,.07.14,8.68,8.68,0,0,0,.48.84l0,.06.06.08a8,8,0,0,0,.48.66l0,0c.17.2.35.39.53.57l.06.07.08.07.16.15.22.18.17.14.23.16.18.11.23.14.18.1.24.11.17.07.26.09.16.05.28.06.14,0,.42,0,70.26.35a2.89,2.89,0,0,0,1.11-.22l7.56-4-.08,0a2.29,2.29,0,0,1-.37.12Z" transform="translate(-25.74 -71.7)"/><polygon class="cls-8" points="43.37 102.42 43.37 102.42 42.93 100.48 42.93 100.48 42.93 100.48 77.66 284.88 77.66 284.88 43.37 102.42"/><polygon class="cls-10" points="150.27 286.42 155.12 286.44 150.27 286.42 150.27 286.42"/><polygon class="cls-10" points="120.11 100.86 155.12 286.44 120.11 100.86 120.11 100.86 120.11 100.86"/><polygon class="cls-11" points="119.56 102.42 119.56 102.42 98.06 102.32 98.06 102.32 119.56 102.42"/><polygon class="cls-11" points="75.42 102.21 92.69 102.29 68.99 102.18 68.99 102.18 75.42 102.21"/><polygon class="cls-11" points="144.16 286.39 144.16 286.39 150.27 286.42 150.27 286.42 144.16 286.39"/><polygon class="cls-11" points="119.56 102.42 129.24 144.45 119.56 102.42 119.56 102.42 119.56 102.42"/><path class="cls-12" d="M103.4,356.58l.27,1.2,66.23.31,6.11,0,4.85,0-35-185.59h0L69,172.19h-.37l.44,1.93Zm-8.67-182.7,23.7.11,5.37,0h0l21.5.1,9.68,42,24.6,140.43-75.34-.37L70,173.76Z" transform="translate(-25.74 -71.7)"/><path class="cls-12" d="M118.5,179.46c.71,0,1.1-.8.87-1.8s-1-1.8-1.7-1.8-1.1.8-.87,1.79S117.79,179.46,118.5,179.46Z" transform="translate(-25.74 -71.7)"/><path class="cls-12" d="M98.1,177.56c.23,1,1,1.81,1.7,1.81l15.26.07c.62,0,1-.61.94-1.43a2.25,2.25,0,0,0-.06-.36,3,3,0,0,0-.45-1,1.71,1.71,0,0,0-1.26-.8L99,175.77a.79.79,0,0,0-.64.3,1.18,1.18,0,0,0-.24.49A2.12,2.12,0,0,0,98.1,177.56Z" transform="translate(-25.74 -71.7)"/><path class="cls-13" d="M179.57,356.58l-34.84-.17-21.79-.1-18.7-.1L99.1,330.48,85.75,263.69l-18-89.94,24.78.12,8.6,0-9.77,0,3.35,4.72c.35,1.53,2.57,2.64,3.67,2.64l20.66.1h1.76c1.1,0,3-7.32,3-7.32l15.29.07,6.21,0L155.81,230l6.48,34.53Z" transform="translate(-25.74 -71.7)"/><path class="cls-14" d="M139.09,174.09l-40,156.39L96.93,339,82.34,272.12l3.41-8.43,33.32-82.36h1.76c1.1,0,3-7.32,3-7.32Z" transform="translate(-25.74 -71.7)"/><polygon class="cls-15" points="136.55 192.86 118.99 284.7 97.2 284.6 130.07 158.34 136.55 192.86"/><path class="cls-16" d="M182.83,356.76,148.47,174c-.75-3.25-3.24-5.89-5.56-5.9l-73.36-.35a2.78,2.78,0,0,0-1.13.23,3,3,0,0,0-.49.29l-.08.07a3.18,3.18,0,0,0-.78.95.41.41,0,0,0,0,.09,4.86,4.86,0,0,0-.26.61.93.93,0,0,1,0,.13,5.67,5.67,0,0,0-.22,1.48.57.57,0,0,0,0,.13,8.46,8.46,0,0,0,.21,1.88l34.36,182.79a9.48,9.48,0,0,0,1.25,2.95l.09.13a7.38,7.38,0,0,0,1.73,1.86l.22.16.18.12.23.14.18.09.24.11.17.08.26.09.2,0,.25.06.14,0,.42,0,73.36.36a2.76,2.76,0,0,0,.51-.05l.14,0a2.29,2.29,0,0,0,.37-.12C182.65,361.77,183.45,359.49,182.83,356.76Zm-79.16,1h0l-.23-1,0-.17L68.67,172.19H69l76.82.37,35,185.59-4.85,0-6.11,0Z" transform="translate(-25.74 -71.7)"/><path class="cls-16" d="M91.38,173.86l3.36,4.72c.35,1.54,2.57,2.65,3.67,2.65l22.42.11c1.1,0,3-7.32,3-7.32h0l-5.37,0-17.27-.08Zm25.42,3.79c-.23-1,.16-1.8.87-1.79s1.48.81,1.7,1.8-.16,1.8-.87,1.8S117,178.65,116.8,177.65Zm-18.71-1.09a1.18,1.18,0,0,1,.24-.49.79.79,0,0,1,.64-.3l15.26.07a1.71,1.71,0,0,1,1.26.8,3,3,0,0,1,.45,1,2.25,2.25,0,0,1,.06.36c.07.82-.32,1.44-.94,1.43l-15.26-.07c-.7,0-1.47-.81-1.7-1.81A2.12,2.12,0,0,1,98.09,176.56Z" transform="translate(-25.74 -71.7)"/><path class="cls-1" d="M411.73,362.32l.25-.06-.25.05Z" transform="translate(-25.74 -71.7)"/><path class="cls-1" d="M411.17,362.37a3,3,0,0,0,.42,0h0A3,3,0,0,1,411.17,362.37Z" transform="translate(-25.74 -71.7)"/><path class="cls-1" d="M449.94,168.42l-.09-.07,0,0Z" transform="translate(-25.74 -71.7)"/><polygon class="cls-1" points="346.19 100.97 423.01 100.6 346.19 100.97 346.19 100.97"/><path class="cls-1" d="M337.29,362.68l-.14,0Z" transform="translate(-25.74 -71.7)"/><polygon class="cls-1" points="423.38 100.59 423.38 100.59 423.38 100.59 423.38 100.59"/><path class="cls-1" d="M413,361.84h0l.23-.14h0Z" transform="translate(-25.74 -71.7)"/><path class="cls-1" d="M412.61,362h0l.24-.11h0Z" transform="translate(-25.74 -71.7)"/><path class="cls-1" d="M412.18,362.2h0l.25-.08h0Z" transform="translate(-25.74 -71.7)"/><path class="cls-1" d="M413.44,361.58h0a1.88,1.88,0,0,0,.23-.16h0Z" transform="translate(-25.74 -71.7)"/><path class="cls-1" d="M451.05,170.14s0,0,0,.06a.5.5,0,0,0,0-.13h0Z" transform="translate(-25.74 -71.7)"/><path class="cls-1" d="M451.29,171.81v-.13s0,0,0,.06A.15.15,0,0,1,451.29,171.81Z" transform="translate(-25.74 -71.7)"/><path class="cls-1" d="M415.39,359.56h0a1.13,1.13,0,0,0,.1-.13h0Z" transform="translate(-25.74 -71.7)"/><path class="cls-1" d="M450.77,169.46l0-.09,0,0Z" transform="translate(-25.74 -71.7)"/><polygon class="cls-1" points="397.31 102.29 422.09 102.17 397.31 102.29 397.31 102.29"/><polygon class="cls-1" points="322.14 286.5 388.37 286.18 388.37 286.18 322.14 286.5 322.14 286.5"/><polygon class="cls-1" points="388.65 284.99 388.65 284.99 388.61 285.16 388.37 286.18 388.65 284.99"/><polygon class="cls-1" points="422.93 102.53 423.38 100.59 423.38 100.59 422.93 102.53 422.93 102.53"/><polygon class="cls-8" points="388.61 285.16 388.37 286.18 388.37 286.18 388.37 286.18 388.61 285.16"/><path class="cls-9" d="M337.29,362.68a3,3,0,0,0,.52.05l71.81-.36a3,3,0,0,0,.42,0h0l.14,0h0l.25-.05.2-.06h0l.25-.08h0l.18-.08h0l.24-.11h0l.18-.09h0l.23-.14h0l.17-.12h0l.22-.16h0a7.54,7.54,0,0,0,1.72-1.86h0l.09-.13h0a9.48,9.48,0,0,0,1.25-2.95l34.36-182.79a8.46,8.46,0,0,0,.21-1.88v-.07s0,0,0-.06a5.67,5.67,0,0,0-.23-1.48s0,0,0-.06l0-.07h0a3.71,3.71,0,0,0-.25-.61l0-.05,0,0a3.18,3.18,0,0,0-.78-1l-.05,0,0,0a2.92,2.92,0,0,0-.48-.29h0l6,3.95a2.73,2.73,0,0,1,.55.32h0l.13.12c.11.11.23.21.34.33l.14.22a2.37,2.37,0,0,1,.22.33l0,0,0,.07a4.55,4.55,0,0,1,.25.59.14.14,0,0,0,0,.07,5,5,0,0,1,.16.69.78.78,0,0,1,0,.14l0,.14c0,.21,0,.42,0,.64v.11a5.9,5.9,0,0,1,0,.72,1.79,1.79,0,0,1,0,.23c0,.29-.08.58-.15.88L421.19,360.43a8.52,8.52,0,0,1-.26.9l0,.1,0,.05a9.35,9.35,0,0,1-.38.92c0,.05-.05.1-.07.14q-.23.43-.48.84l0,.06-.06.08c-.16.23-.32.45-.49.66l0,0c-.17.2-.34.39-.52.57l-.06.07a.27.27,0,0,0-.08.07l-.17.15-.21.18-.18.14-.22.16-.18.11-.23.14-.18.1-.24.11-.18.07-.25.09-.17,0-.28.06-.14,0a3,3,0,0,1-.42,0l-70.26.35a2.8,2.8,0,0,1-1.1-.22l-7.56-3.95.08,0a2.17,2.17,0,0,0,.36.12Z" transform="translate(-25.74 -71.7)"/><polygon class="cls-8" points="422.93 102.53 422.93 102.53 423.38 100.59 423.38 100.59 423.38 100.59 388.65 284.99 388.65 284.99 422.93 102.53"/><polygon class="cls-10" points="316.04 286.53 311.19 286.56 316.04 286.53 316.04 286.53"/><polygon class="cls-10" points="346.19 100.97 311.19 286.56 346.19 100.97 346.19 100.97 346.19 100.97"/><polygon class="cls-11" points="346.75 102.53 346.75 102.53 368.25 102.42 368.25 102.42 346.75 102.53"/><polygon class="cls-11" points="390.88 102.32 373.61 102.4 397.31 102.29 397.31 102.29 390.88 102.32"/><polygon class="cls-11" points="322.14 286.5 322.14 286.5 316.04 286.53 316.04 286.53 322.14 286.5"/><polygon class="cls-11" points="346.75 102.53 337.07 144.56 346.75 102.53 346.75 102.53 346.75 102.53"/><path class="cls-12" d="M448.67,174.23l.45-1.93h-.37l-76.82.37h0l-35,185.59,4.85,0,6.1,0,66.23-.31.28-1.2Zm-.84-.36L413.55,356.32l-75.34.37,24.6-140.43,9.68-42,21.5-.1h0l5.36,0,23.7-.11Z" transform="translate(-25.74 -71.7)"/><path class="cls-12" d="M399.29,179.57c-.72,0-1.11-.8-.88-1.8s1-1.8,1.71-1.8,1.1.8.87,1.79S400,179.57,399.29,179.57Z" transform="translate(-25.74 -71.7)"/><path class="cls-12" d="M419.69,177.67c-.23,1-1,1.81-1.71,1.81l-15.25.07c-.63,0-1-.61-.94-1.43a2.25,2.25,0,0,1,.06-.36,2.65,2.65,0,0,1,.45-1,1.68,1.68,0,0,1,1.26-.8l15.25-.07a.79.79,0,0,1,.65.3,1.21,1.21,0,0,1,.24.48A2.3,2.3,0,0,1,419.69,177.67Z" transform="translate(-25.74 -71.7)"/><path class="cls-13" d="M338.21,356.69l34.84-.17,21.8-.1,18.7-.1,5.14-25.73L432,263.8l18-89.94-24.78.12-8.61,0,9.78,0-3.35,4.71c-.35,1.54-2.58,2.65-3.67,2.65l-20.67.1H397c-1.1,0-3-7.32-3-7.32l-15.29.07-6.21,0L362,230.15l-6.49,34.53Z" transform="translate(-25.74 -71.7)"/><polygon class="cls-17" points="385.46 109 346.51 258.88 341.91 285.67 316.04 286.53 325.36 211.39 333.16 192.1 371.22 109.74 385.46 109"/><path class="cls-16" d="M336.79,362.53a2.17,2.17,0,0,0,.36.12l.14,0a3,3,0,0,0,.52.05l73.36-.36a3,3,0,0,0,.42,0l.14,0,.25-.06.2-.06.25-.08.18-.08.24-.11.18-.09.23-.14.17-.12a1.88,1.88,0,0,0,.23-.16,7.54,7.54,0,0,0,1.72-1.86,1.13,1.13,0,0,0,.1-.13,9.48,9.48,0,0,0,1.25-2.95l34.36-182.79a7.87,7.87,0,0,0,.2-1.88v-.13a5.67,5.67,0,0,0-.23-1.48.5.5,0,0,0,0-.13,3.71,3.71,0,0,0-.25-.61l0-.09a3.18,3.18,0,0,0-.78-1l-.09-.07a2.92,2.92,0,0,0-.48-.29,2.78,2.78,0,0,0-1.13-.23l-73.36.35c-2.33,0-4.81,2.65-5.56,5.9L335,356.87C334.33,359.6,335.14,361.88,336.79,362.53Zm11.09-4.33-6.1,0-4.85,0,35-185.59,76.82-.37h.37L414.39,356.69l0,.17-.24,1h0Z" transform="translate(-25.74 -71.7)"/><path class="cls-16" d="M416.62,174l-17.27.08-5.36,0h0s1.87,7.32,3,7.32l22.42-.11c1.09,0,3.32-1.11,3.67-2.65l3.36-4.72Zm-17.33,5.55c-.72,0-1.11-.8-.88-1.8s1-1.8,1.71-1.8,1.1.8.87,1.79S400,179.57,399.29,179.57Zm20.4-1.9c-.23,1-1,1.81-1.71,1.81l-15.25.07c-.63,0-1-.61-.94-1.43a2.25,2.25,0,0,1,.06-.36,2.65,2.65,0,0,1,.45-1,1.68,1.68,0,0,1,1.26-.8l15.25-.07a.79.79,0,0,1,.65.3,1.21,1.21,0,0,1,.24.48A2.3,2.3,0,0,1,419.69,177.67Z" transform="translate(-25.74 -71.7)"/><g class="cls-18"><path class="cls-19" d="M35.38,331.3c-1.6,0-2.6-2-2.25-3.53a8.11,8.11,0,0,1,2.74-3.86c2.14-2,4.59-5,7.52-5.78a17.92,17.92,0,0,0,4.12-1.27c1.91-1.09,2.91-3.22,4-5.12,1-1.72,2.92-4.25,5.22-3.81,1.71.32,4.13,3.4,4.06,5.12Z" transform="translate(-25.74 -71.7)"/><path class="cls-20" d="M58.94,311.07c2.71.09,4.78,4.37,7.63,5.41.36.13-5.14,7.1-5.75,7.61-3.44-2.61-7.91,1.29-11.58,2.62a81.71,81.71,0,0,1-14.83,3.87,91.43,91.43,0,0,1,20.68-18,9.59,9.59,0,0,1,3.3-1.51A2.59,2.59,0,0,1,58.94,311.07Z" transform="translate(-25.74 -71.7)"/><path class="cls-21" d="M151.65,306.88c.51,1.64-26.63,18.09-29,19.66-6.18,4.16-11.18,8.6-19,8.27-8.35-.36-16.17-3.89-24.16-5.94q-11-2.82-21.91-5.66c1-2.18,1.89-7.13,4.3-8.1,1.77-.71,3.63.58,5.37,1.35,9.22,4.07,19.57-3.87,29.11-.19,5.25,2,9.88,5,14.61.64,3.35-3.09,6.34-6.07,10.08-9,6.43-5,6.11-11.55,10.92-17.87,1.9-2.5,6-6.26,9.47-6.09,4.14.21,4.17,3.32,5.25,6.89C148.33,296.2,150,301.53,151.65,306.88Z" transform="translate(-25.74 -71.7)"/><path class="cls-22" d="M150.84,302.15a3.92,3.92,0,0,0-1.53-1.77c-3-1.43-6.28,2.44-7.62,4.55-1.59,2.48-3.09,5.36-5.83,6.45s-6.21-.06-9.2.73c-4,1.06-6.19,5.23-8.27,8.81-9.38,16.16-27,7.39-40.9,3.82Q68.3,322.39,59.12,320l-1.51,3.21q11,2.85,21.91,5.66c8,2.05,15.81,5.58,24.16,5.94,7.82.33,12.82-4.11,19-8.27,7.2-4.83,14.76-9.11,21.93-14,1.89-1.29,6.16-3.29,7.06-5.58C152.11,305.82,151.66,303.7,150.84,302.15Z" transform="translate(-25.74 -71.7)"/><path class="cls-23" d="M97.36,408.34c-1.13,1.18-3.27.55-4.19-.8a8.33,8.33,0,0,1-1-4.72c0-3-.47-6.85,1-9.6a17.77,17.77,0,0,0,1.93-3.94c.52-2.17-.36-4.4-1-6.55-.57-2-1.12-5.13.81-6.53,1.43-1,5.4-.69,6.62.56Z" transform="translate(-25.74 -71.7)"/><path class="cls-24" d="M98.79,376.78c1.95-1.95,6.56-.5,9.32-1.88.35-.18,1.68,8.75,1.64,9.56-4.34.73-4.56,6.76-6.13,10.41a83.56,83.56,0,0,1-7.47,13.68,92.87,92.87,0,0,1,1.1-27.84,9.87,9.87,0,0,1,1.18-3.5A3,3,0,0,1,98.79,376.78Z" transform="translate(-25.74 -71.7)"/><path class="cls-21" d="M168.29,290.74a60.25,60.25,0,0,1-1.73,13.52q-3.3,14-6.65,27.93c-2,8.27-3,18.19-7.67,25.38-5.72,8.76-15.73,11.23-24.48,15.95q-10.28,5.53-20.56,11c.08,0-3.36-8.73-3.41-9.52.09,1.58,13.43-7.49,14.32-8.53,5.14-5.95,8.79-11.62,16-15.43,7-3.64,6.44-6.08,7.16-13.24.55-5.52,1.18-11,1.77-16.54,1.24-11.57-1.39-36.23,12.6-41.35C165.63,276.32,168.22,283.05,168.29,290.74Z" transform="translate(-25.74 -71.7)"/><path class="cls-25" d="M201.72,198c-5.32-5.64-15.29,5.95-19.16,7.66-6.8,3-16,2.45-22.73-.4-10.55-4.46-19.57-12.57-30.92-15.12a28.54,28.54,0,0,0-20.19,3.43c-5,2.85-13.3,9.1-10.11,15.81a10.88,10.88,0,0,0,4.12,4.18c6.07,4,13.66,6.19,20.84,7,4,.44,9.59-.89,12.91,1.9,2.47,2.08,2.13,4.6-.9,5.9-4.13,1.78-14.33-3.07-16.12,3.67s13.86,11.52,18.31,12.64c8.63,2.19,18,4.9,27.11,3.75,8.38-1.07,12-4.57,18.71-9.29,6.15-4.34,9.68-11.19,15.58-15.33,2.06-1.44,4.17-2.46,5.55-4.66C209.29,211.72,205.12,201.58,201.72,198Z" transform="translate(-25.74 -71.7)"/><path class="cls-26" d="M194.23,236.66a49.47,49.47,0,0,1,5.34-4.25c2.52-1.55,6.22-.85,8.49-2.78,1.43-1.23,1.19-3.07,1.42-4.81.37-2.71.63-2.27,2.47-3.43,2.49-1.57.67-1.72-.33-3.88-1.28-2.78-.48-6.37-1.59-9.31a12,12,0,0,0-6.64-6.39c-5.07-2.22-13.19-2.13-15.25,4.15a20.1,20.1,0,0,0,4.77,20.44c-1.14,1.26-5,4.14-5.14,5.75-.11,1,4.35,6.27,3.25,7A34.67,34.67,0,0,0,194.23,236.66Z" transform="translate(-25.74 -71.7)"/><path class="cls-27" d="M180.73,247.51l-.86.21a44.12,44.12,0,0,0-12.3,4.77c-.86.49-9.58,4.91-9.19,6,1.88,5.44-.27,10.51-2.63,15.58-.37.8-3.28,7.31-3.7,7.3l-6.57-.24a175.26,175.26,0,0,1,.3-19.45c.3-3.9.62-7.8,2.43-11.27,2.65-5.07,7.38-6.63,12.08-9.34,5.67-3.27,12.19-6.83,18.44-8.79,4.62-1.44,12.12-3.8,15,1.75C198.35,242.94,187.4,245.88,180.73,247.51Z" transform="translate(-25.74 -71.7)"/><path class="cls-28" d="M176.92,244.3a18.25,18.25,0,0,0-1.75.63c-3.19,1.35-5.79,3.65-9.16,4.66s-7.34,2.55-9.33,5.7-1,6.91-3.56,10.25c-1.57,2-3.39,4.16-3.6,6.73a24.16,24.16,0,0,0,.49,4.54,5.52,5.52,0,0,1-1.08,4.15c3.2.39,2.91.7,4.5-1.9a48.69,48.69,0,0,0,2.32-5c2.36-5.07,4.51-10.14,2.63-15.58-.47-1.34,12.62-8.15,14.06-8.72a96.14,96.14,0,0,1,10.65-3.05c4-1.07,6.4-2.8,9.81-4.93-1.44.9-3.69.81-5.48,1C183.92,243.14,180.3,243.26,176.92,244.3Z" transform="translate(-25.74 -71.7)"/><path class="cls-29" d="M180.73,247.51l-.86.21a44.12,44.12,0,0,0-12.3,4.77c-.86.49-9.58,4.91-9.19,6,1.88,5.44-.27,10.51-2.63,15.58-.37.8-3.28,7.31-3.7,7.3l-6.57-.24a175.26,175.26,0,0,1,.3-19.45c.3-3.9.62-7.8,2.43-11.27,2.65-5.07,7.38-6.63,12.08-9.34,5.67-3.27,12.19-6.83,18.44-8.79,4.62-1.44,12.12-3.8,15,1.75C198.35,242.94,187.4,245.88,180.73,247.51Z" transform="translate(-25.74 -71.7)"/><path class="cls-30" d="M183.75,231.74s10.88-4.82,15.6,1.91c4,5.69,3.63,15.29,2.78,21.81-.4,3-.9,7.23-2.93,9.71-1.6,2-4.37,2-6.21,3.39-2.28,1.77-3.46,4.51-5,7.06-5,8.56-10.09,24.31-22.33,23.29-3.67-.3-7.13-1.8-10.5-3.29l-22.68-9.95a2.65,2.65,0,0,1-1.4-1c-.67-1.25.8-2.53,2-3.19,6.57-3.44,14.24-6.3,19.61-11.45A130,130,0,0,1,165,259.62S168.85,247.26,183.75,231.74Z" transform="translate(-25.74 -71.7)"/><path class="cls-25" d="M193,226.69c5.85-1.61,11-5,14.07-10.73,2.94-5.45,4.64-17.05-2.7-18.45-6.57-1.24-13.94.12-18.09,5.84-2,2.72-2.12,6.36-4.07,9.08-5.85,8.21-16.17-4.39-21.82,1a2.84,2.84,0,0,0-.72,1.47c-1.82,8.37,11.77,11.32,17.53,12.32A36.72,36.72,0,0,0,193,226.69Z" transform="translate(-25.74 -71.7)"/><polygon class="cls-31" points="179.18 159.23 168.68 156.37 171.87 161.27 179.18 159.23"/><path class="cls-32" d="M228.48,283.89c3.76-1.22,7.63,4.39,11.18,3-1.06-2.69-5-3.94-2.15-6.32,2-1.63,4.32-2.53,6.17-4.44a3.7,3.7,0,0,0-4.14.41l5-4.58c.45-.41.88-1.19.37-1.52-.33-.22-.76,0-1.08.23l-4.51,3.11a9.3,9.3,0,0,0,3.52-5.44c-2.62,2.36-5.6,5.66-8.88,7.1-2,.88-4.57.51-6.49,1.77-.3.2-2,1.06-4.38,2.23a26,26,0,0,0,3.12,5.78A8.4,8.4,0,0,1,228.48,283.89Z" transform="translate(-25.74 -71.7)"/><path class="cls-33" d="M197.64,247c.05.3.09.6.13.88a44.38,44.38,0,0,0,3.56,12.69c.41.91,4,10,5.13,9.73,5.59-1.35,10.44,1.27,15.26,4.11.75.44,7,4,6.91,4.38,0,0-.87,6.51-.87,6.51a171.84,171.84,0,0,1-19.33-2.15c-3.85-.67-7.7-1.37-11-3.5-4.8-3.12-5.9-8-8.14-12.91-2.72-6-5.64-12.8-7-19.21-1-4.73-2.62-12.43,3.18-14.77C194.78,229,196.66,240.18,197.64,247Z" transform="translate(-25.74 -71.7)"/><path class="cls-34" d="M194.08,250.47a17,17,0,0,0,.46,1.8c1,3.3,3.08,6.11,3.76,9.56s1.84,7.56,4.78,9.84,6.79,1.65,9.87,4.52c1.89,1.76,3.81,3.77,6.35,4.23a24.84,24.84,0,0,0,4.56-.06,5.55,5.55,0,0,1,4,1.48c.7-3.15,1-2.84-1.45-4.66a47.55,47.55,0,0,0-4.72-2.79c-4.83-2.84-9.67-5.46-15.26-4.11-1.38.34-6.9-13.34-7.33-14.83a96.71,96.71,0,0,1-2-10.89c-.68-4.13-2.17-6.64-4-10.24.76,1.52.46,3.75.46,5.55C193.6,243.39,193.37,247,194.08,250.47Z" transform="translate(-25.74 -71.7)"/><path class="cls-26" d="M228.48,283.89c3.76-1.22,7.63,4.39,11.18,3-1.06-2.69-5-3.94-2.15-6.32,2-1.63,4.32-2.53,6.17-4.44a3.7,3.7,0,0,0-4.14.41l5-4.58c.45-.41.88-1.19.37-1.52-.33-.22-.76,0-1.08.23l-4.51,3.11a9.3,9.3,0,0,0,3.52-5.44c-2.62,2.36-5.6,5.66-8.88,7.1-2,.88-4.57.51-6.49,1.77-.3.2-2,1.06-4.38,2.23a26,26,0,0,0,3.12,5.78A8.4,8.4,0,0,1,228.48,283.89Z" transform="translate(-25.74 -71.7)"/><path class="cls-30" d="M197.64,247c.05.3.09.6.13.88a44.38,44.38,0,0,0,3.56,12.69c.41.91,4,10,5.13,9.73,5.59-1.35,10.44,1.27,15.26,4.11.75.44,7,4,6.91,4.38,0,0-.87,6.51-.87,6.51a171.84,171.84,0,0,1-19.33-2.15c-3.85-.67-7.7-1.37-11-3.5-4.8-3.12-5.9-8-8.14-12.91-2.72-6-5.64-12.8-7-19.21-1-4.73-2.62-12.43,3.18-14.77C194.78,229,196.66,240.18,197.64,247Z" transform="translate(-25.74 -71.7)"/></g><g class="cls-35"><path class="cls-26" d="M336.91,220.44l-5.64-8.19c-2.22,1.56-5.2,2.38-6.89-.31-.86-1.38-.88-3-1.64-4.34s-1.48-1.17-2.79-1.31-1.93-.49-1.14-1.85c1.55-2.65,1.28-5.41.15-8.11-.93-2.22-1.5-4.25-.41-6.51,2.51-5.22,15.94-10.73,20.2-4.78s4.83,9.36,4.88,20l5.47,8.63Z" transform="translate(-25.74 -71.7)"/><path class="cls-25" d="M312.71,181.05c2.82.32,6.06,1.22,8.11.24,2.49-1.19,4.7-2.94,7.25-4,3.76-1.58,12.43-.29,11.61,5.55,5,.2,4.75,8.91,4.64,12.76s-.69,9.44-.69,9.44l-6.05-2.74c.48-1.27,1.48-4.1.65-5.35-2.44-3.67-2.45,3.52-2,3.27l-2.69,1.38a10.8,10.8,0,0,1-.9-3.43c-1.3-8-6,.43-9-4.26-7.39,1.54-16.41.94-16.58-8.47C307,181.07,309.61,180.7,312.71,181.05Z" transform="translate(-25.74 -71.7)"/><polygon class="cls-31" points="305.53 140.55 311.62 134.46 307.89 143.97 305.53 140.55"/><path class="cls-31" d="M401.63,325.83a76.34,76.34,0,0,0,5.71-6.1c.11-.13,5.79,3.42,6.14,3.61,2.88,1.55,5.69,1.67,8.72,2.72,8.25,2.85,16.23,7.75,23.27,12.84A126.71,126.71,0,0,1,457,348.53c.65.61,7.85,5.16,7.89,5.05l-2,5.54-54.68-20.94-10.91-6.63C399,329.73,399.89,327.67,401.63,325.83Z" transform="translate(-25.74 -71.7)"/><path class="cls-36" d="M462.64,359l-10-3.77,1.8-9.15,10.51,7.55S462.93,361.65,462.64,359Z" transform="translate(-25.74 -71.7)"/><path class="cls-31" d="M353,330.27c5.66-1.76,8-.74,13.5-3l1.8,3.78c1.41,5.43,4.46,10.09,6.4,15.41a131.27,131.27,0,0,1,5.64,20.5,137.23,137.23,0,0,1,2,16.16c0,.71,1.59,9,1.7,9l-5.33,2.66Z" transform="translate(-25.74 -71.7)"/><path class="cls-37" d="M353.32,333.17a4.54,4.54,0,0,1-.47-3.14c.55-5.25,1.38-10.49,2.07-15.72,1.62-12.34,3.9-24.21,6.1-36.41a6.28,6.28,0,0,1,1.41-3.49c1.48-1.42,3.84-1,5.88-.87,4.51.38,9-.73,13.45-1.45s9.21-1,13.34.8c5.34,2.38,5.44,6.05,6.11,10.86.84,6.07,3.13,12.25,4.83,18.18a51.4,51.4,0,0,0,5.12,11.71c.67,1.16,7.49,9.73,7.27,10.23-2.79,6.33-9.58,9.73-15.85,12.64-1.59.73-3.31,1.48-5,1.13-2.83-.58-4.28-5.94-5.51-8.23l-4.77-8.92q-3.15-5.87-6.28-11.73l-3.66,12.55c-.37,1.25-5.67,17.84-3.35,18a51.26,51.26,0,0,1-16.15-3.66C355.57,334.7,354.06,334.25,353.32,333.17Z" transform="translate(-25.74 -71.7)"/><path class="cls-38" d="M377.34,321.31c.7-2.42,3.46-8.87,4.16-11.29-1.34-2.51-2.53-5.6-4.24-1.67-1.31,3-.36,5.33-2.95,8.16-1.58,1.72-3.39,3.41-3.94,5.67s.3,4.54.87,6.76c.2.79-.36,10.07-1.17,9.95,1.3.18,2.61.32,3.92.4C371.67,339.15,377,322.56,377.34,321.31Z" transform="translate(-25.74 -71.7)"/><path class="cls-26" d="M391.86,264.19c1.26-.66,1.22-3.93.92-5.87,1.64-.91,3.42-4,5-5.06,0,10.46,1.3,15.54,1.06,16.81-.54,2.82-.95,4.34-3,3.38s-2.42,2.29-3.94,1.18-2.52,2.5-3.61.7,1.24-5.47,1.24-5.47S387,266.75,391.86,264.19Z" transform="translate(-25.74 -71.7)"/><path class="cls-22" d="M355.46,206.58c3.52.18,7.77,3.83,10.58,5.63,5.93,3.8,11.68,7.88,17.41,12,11.2,8,15,17.79,16.63,31.38.37,3.16.32,7.14-2.54,8.53-2.55,1.24-5.66-.72-6.92-3.26s-1.28-5.48-1.79-8.27c-3.49-19.12-22.07-15.73-33.8-25.86C349.67,222.07,351,206.36,355.46,206.58Z" transform="translate(-25.74 -71.7)"/><path class="cls-21" d="M346.42,202.14s-6.77,6.17-8.63,12.59a41.35,41.35,0,0,0,2.54,27.94c.57,1.15,1.21,2.26,1.84,3.37,3.36,5.94,4.93,12.65,6.62,19.2.84,3.24,1.67,6.5,2.76,9.66.67,2,3,5.1,2.14,7.06-.36.81-1.15,1.39-1.45,2.23a2.82,2.82,0,0,0,.85,2.86,6.21,6.21,0,0,0,2.82,1.34c11,2.75,22.65-5.08,33.55-5.95,3.82-.31,10,.06,13.11-2.6,1.1-.92,1.56-2.75.57-3.78a5.57,5.57,0,0,0-2.26-1.07c-4.84-1.74-9-11.21-12-15.13l-8.21-10.71S376,236,376.55,233.94s-7.48-13.53-11.18-18.88-11.34-9.85-13.53-10.48A32.1,32.1,0,0,1,346.42,202.14Z" transform="translate(-25.74 -71.7)"/><path class="cls-26" d="M313.71,264.11l4.29,9.25c-8.3,2.09-16.67,4.87-25,7-6.41,1.66-12.79,4-19.37,1.64a6.78,6.78,0,0,1,3.54-1l-7.21-.62a4.23,4.23,0,0,1,4.2-.68c-1.73-.68-3.49-.24-4.92-1.64a3.15,3.15,0,0,1,3-.71,5.79,5.79,0,0,0-1.8-.44,2.22,2.22,0,0,1-1.58-.86c-1.44-2.34,9.92-.21,10.75-1.73.54-1-1.46-3.46-1.41-4.6,1.7.23,2.88,2.86,4.45,3l2.09.21c1.27.34,4.81,3.28,4.81,3.28Z" transform="translate(-25.74 -71.7)"/><path class="cls-21" d="M349.64,236.68c2.17-5.06,4.14-10.87,2.21-15.86-2.33-6-9.22-9.53-14.79-5.5-7.1,5.14-9.31,22.34-10.19,30.42-.33,3-1.92,8.7-4.92,10.3l-.15.08c-2.42,1.33-4.89,2.87-7.4,4.38a64.78,64.78,0,0,1-12.61,6.34c-4.52,1.49-13.86,2.3-12.44,9.41s8.37,5.91,14.16,4.81c10-1.9,19.32-6.41,27.82-11.94,10-6.52,12-18,16.46-28.25C348.36,239.56,349,238.15,349.64,236.68Z" transform="translate(-25.74 -71.7)"/><polygon class="cls-36" points="353.39 322.35 348.1 310.84 356.61 311.44 362.87 321.5 353.39 322.35"/><path class="cls-39" d="M376.68,391.7c.07-.5.8-.64,1.21-.34a2.13,2.13,0,0,1,.65,1.33,2.44,2.44,0,0,0,.59,1.36c.77.71,2.09.06,2.56-.87a21.78,21.78,0,0,0,.81-3c.18-.53,3.47-3,3.77-2.28.13.28,5.69,13,5.69,13L365.34,410a.77.77,0,0,1-.75-1.31l8.82-9.13Z" transform="translate(-25.74 -71.7)"/><path class="cls-40" d="M459.81,360.83c-.47-.18-.45-.92-.07-1.25a2.09,2.09,0,0,1,1.44-.35,2.44,2.44,0,0,0,1.46-.28c.85-.59.51-2-.3-2.69a21.5,21.5,0,0,0-2.78-1.45c-.48-.29-2.15-4-1.4-4.18l13.92-2.71,3.05,28a.77.77,0,0,1-1.44.45l-7-10.61Z" transform="translate(-25.74 -71.7)"/></g><path class="cls-7" d="M280,109.87H234.67A16.13,16.13,0,0,0,218.54,126v31.94a16.13,16.13,0,0,0,16.13,16.13H247.3l-.17.16,10.21,10.21,10.2-10.21-.16-.16H280a16.13,16.13,0,0,0,16.12-16.13V126A16.13,16.13,0,0,0,280,109.87Z" transform="translate(-25.74 -71.7)"/><path class="cls-36" d="M259.82,128.25l-2.49,2.48-2.48-2.48a10.54,10.54,0,0,0-14.9,0h0a10.54,10.54,0,0,0,0,14.9l2.49,2.49,11.89,11.9a4.26,4.26,0,0,0,6,0l11.91-11.9,2.49-2.49a10.54,10.54,0,0,0,0-14.9h0A10.54,10.54,0,0,0,259.82,128.25Z" transform="translate(-25.74 -71.7)"/></svg>