<?xml version="1.0"?>
<svg xmlns="http://www.w3.org/2000/svg" height="512px" viewBox="0 -10 422.00227 422" width="512px"><g><path d="m47.550781 402h326.898438c12.679687-.03125 24.824219-5.113281 33.75-14.121094 8.921875-9.007812 13.890625-21.199218 13.800781-33.878906v-270.292969c.078125-12.648437-4.902344-24.800781-13.832031-33.761719-8.929688-8.957031-21.066407-13.980468-33.714844-13.945312h-36.453125v-28c0-4.417969-3.582031-8-8-8s-8 3.582031-8 8v28h-217v-28c0-4.417969-3.582031-8-8-8s-8 3.582031-8 8v28h-41.449219c-12.648437-.035156-24.789062 4.988281-33.714843 13.945312-8.929688 8.960938-13.9101568 21.113282-13.835938 33.761719v270.292969c-.0859375 12.679688 4.878906 24.871094 13.804688 33.878906 8.921874 9.007813 21.066406 14.089844 33.746093 14.121094zm-31.550781-318.292969c-.082031-8.40625 3.210938-16.496093 9.140625-22.453125 5.929687-5.960937 14.003906-9.292968 22.410156-9.253906h41.449219v27.417969c0 4.417969 3.582031 8 8 8s8-3.582031 8-8v-27.417969h217v27.417969c0 4.417969 3.582031 8 8 8s8-3.582031 8-8v-27.417969h36.453125c8.40625-.039062 16.476563 3.292969 22.40625 9.253906 5.933594 5.957032 9.222656 14.046875 9.140625 22.453125v33.292969h-390zm390 49.292969v221c.09375 8.4375-3.1875 16.5625-9.109375 22.570312-5.925781 6.007813-14 9.402344-22.4375 9.429688h-326.902344c-8.4375-.027344-16.515625-3.421875-22.4375-9.429688-5.925781-6.007812-9.203125-14.132812-9.113281-22.570312v-221zm0 0" data-original="#000000" class="active-path" data-old_color="#000000" fill="#34B7F1"/><path d="m112.261719 369h197.476562c4.417969 0 8.261719-3.179688 8.261719-7.597656v-27.15625c-.101562-4.515625-3.742188-8.152344-8.261719-8.246094h-4.738281v-54.933594c.015625-7.214844-2.859375-14.140625-7.980469-19.222656-5.121093-5.085938-12.066406-7.910156-19.285156-7.84375h-43.734375v-25.089844c.066406-2.082031-.714844-4.097656-2.167969-5.589844-1.453125-1.492187-3.449219-2.328124-5.53125-2.320312h-30.601562c-2.078125-.007812-4.074219.828125-5.527344 2.320312-1.453125 1.492188-2.234375 3.507813-2.171875 5.589844v25.089844h-43.734375c-7.214844-.066406-14.160156 2.757812-19.28125 7.84375-5.121094 5.082031-7.996094 12.007812-7.984375 19.222656v54.933594h-4.738281c-4.515625.09375-8.15625 3.730469-8.261719 8.246094v27.15625c0 4.417968 3.84375 7.597656 8.261719 7.597656zm189.738281-16h-182v-11h182zm-98-126h14v17h-14zm-59.734375 33h133.46875c2.976563-.070312 5.851563 1.066406 7.976563 3.152344 2.121093 2.082031 3.308593 4.941406 3.289062 7.914062v7.738282c-4.300781 1.558593-8.230469 3.984374-11.550781 7.132812-3.171875 2.777344-4.878907 4.304688-9.050781 4.304688-4.171876 0-5.898438-1.527344-9.070313-4.304688-3.984375-3.492188-9.433594-8.269531-19.621094-8.269531s-15.640625 4.777343-19.625 8.269531c-3.171875 2.777344-4.914062 4.304688-9.085937 4.304688s-5.917969-1.527344-9.089844-4.304688c-3.984375-3.492188-9.441406-8.269531-19.628906-8.269531s-15.644532 4.777343-19.632813 8.269531c-3.167969 2.777344-4.914062 4.304688-9.085937 4.304688s-5.835938-1.527344-9.007813-4.304688c-3.316406-3.148438-7.25-5.574219-11.550781-7.132812v-7.738282c-.019531-2.972656 1.167969-5.832031 3.292969-7.914062 2.121093-2.085938 5-3.222656 7.972656-3.152344zm-11.265625 37.027344c0 .296875.628906.609375 1.007812.945312 3.984376 3.492188 9.398438 8.269532 19.589844 8.269532s15.625-4.777344 19.613282-8.269532c3.167968-2.777344 4.90625-4.304687 9.078124-4.304687 4.167969 0 5.910157 1.527343 9.082032 4.304687 3.984375 3.492188 9.441406 8.269532 19.628906 8.269532s15.644531-4.777344 19.628906-8.269532c3.171875-2.777344 4.917969-4.304687 9.085938-4.304687 4.171875 0 5.921875 1.527343 9.089844 4.304687 3.988281 3.492188 9.445312 8.269532 19.632812 8.269532 10.191406 0 15.570312-4.777344 19.554688-8.269532.382812-.335937 1.007812-.652344 1.007812-.949218v28.976562h-156zm0 0" data-original="#000000" class="active-path" data-old_color="#000000" fill="#34B7F1"/><path d="m194.265625 198.664062c.164063.171876.332031.339844.5.5 4.335937 4.234376 10.164063 6.597657 16.226563 6.582032h.359374c6.1875-.078125 12.085938-2.625 16.382813-7.078125.039063-.039063.074219-.078125.109375-.117188 8.742188-9.4375 8.742188-24.015625 0-33.457031-.039062-.042969-.082031-.085938-.121094-.128906l-10.996094-11.277344c-1.503906-1.542969-3.570312-2.414062-5.726562-2.414062s-4.222656.871093-5.726562 2.414062l-10.996094 11.277344c-.039063.042968-.082032.085937-.121094.128906-8.742188 9.441406-8.742188 24.019531 0 33.457031.035156.039063.070312.074219.109375.113281zm11.542969-22.609374 5.191406-5.324219 5.191406 5.324219c2.972656 3.269531 2.972656 8.261718 0 11.527343-2.820312 2.851563-7.414062 2.894531-10.292968.101563l-.105469-.109375c-2.960938-3.273438-2.953125-8.257813.015625-11.519531zm0 0" data-original="#000000" class="active-path" data-old_color="#000000" fill="#34B7F1"/></g> </svg>
