<?xml version="1.0"?>
<svg xmlns="http://www.w3.org/2000/svg" id="Capa_1" enable-background="new 0 0 512 512" height="512px" viewBox="0 0 512 512" width="512px"><g><path d="m448.519 286.886c20.893-19.453 33.481-46.727 33.481-75.886v-60.041c18.204-13.697 30-35.475 30-59.959 0-41.355-33.645-75-75-75h-46v15c0 8.271-6.729 15-15 15h-30c-41.355 0-75 33.645-75 75v90c0 29.276 12.39 56.576 32.958 75.98-19.528 3.166-36.554 13.888-47.958 29.072-11.404-15.184-28.43-25.906-47.958-29.072 20.568-19.404 32.958-46.704 32.958-75.98 0-9.39 0-79.331 0-90 0-41.355-33.645-75-75-75h-30c-8.523 0-16-7.009-16-15v-15h-45c-41.355 0-75 33.645-75 75 0 24.484 11.796 46.262 30 59.959v60.041c0 29.276 12.39 56.576 32.958 75.98-35.649 5.779-62.958 36.764-62.958 74.02v135h512v-135c0-37.439-27.575-68.555-63.481-74.114zm-147.519-165.886c0-24.813 20.187-45 45-45h30c19.557 0 36.239-12.539 42.43-30h18.57c24.813 0 45 20.187 45 45s-20.187 45-45 45h-136zm0 90v-45h136c5.136 0 10.152-.521 15-1.509v46.509c0 59.696-59.404 72.785-61 73.901v16.099c0 8.271-6.729 15-15 15s-15-6.729-15-15v-16.099c-.371-.262-60-15.087-60-73.901zm15 105h17.575c6.192 17.459 22.87 30 42.425 30s36.234-12.54 42.426-30h18.574c24.813 0 45 20.187 45 45v45h-60v60h-91v-60h-60c0-14.095 0-30.95 0-45 0-24.813 20.187-45 45-45zm-241-270h17.656c6.18 16.841 23.082 30 43.344 30h30c24.813 0 45 20.187 45 45v15h-136c-24.813 0-45-20.187-45-45s20.187-45 45-45zm-15 165v-46.509c4.848.988 9.864 1.509 15 1.509h136v45c0 60.217-58.298 72.697-60 73.901v16.099c0 8.271-6.729 15-15 15-8.523 0-16-7.009-16-15v-16.099c-.371-.262-60-15.087-60-73.901zm15 105h17.667c6.273 17.088 23.304 30 43.333 30 19.554 0 36.233-12.541 42.425-30h17.575c24.813 0 45 20.187 45 45v45h-60v60h-91v-60h-60v-45c0-24.813 20.187-45 45-45zm-45 120h30v30h-30zm181 30v-30h30v30zm60-30h30v30h-30zm181 30v-30h30v30z" data-original="#000000" class="active-path" data-old_color="#000000" fill="#34B7F1"/></g> </svg>
