<?xml version="1.0"?>
<svg xmlns="http://www.w3.org/2000/svg" height="512px" viewBox="0 0 495 496" width="512px"><g><path d="m248.488281 112c-26.507812 0-48 21.492188-48 48s21.492188 48 48 48c26.511719 0 48-21.492188 48-48-.023437-26.5-21.5-47.972656-48-48zm0 80c-17.671875 0-32-14.328125-32-32s14.328125-32 32-32c17.675781 0 32 14.328125 32 32s-14.324219 32-32 32zm0 0" data-original="#000000" class="active-path" data-old_color="#000000" fill="#707070"/><path d="m272.488281 83.6875v-75.6875c0-4.417969-3.578125-8-8-8h-32c-4.417969 0-8 3.582031-8 8v75.6875c-33.320312 10.484375-55.988281 41.378906-55.988281 76.3125s22.667969 65.828125 55.988281 76.3125v251.6875c0 4.417969 3.582031 8 8 8h32c4.421875 0 8-3.582031 8-8v-251.6875c33.324219-10.484375 55.992188-41.378906 55.992188-76.3125s-22.667969-65.828125-55.992188-76.3125zm-32-67.6875h16v64.40625c-5.316406-.542969-10.679687-.542969-16 0zm16 464h-16v-240.40625c5.320313.542969 10.683594.542969 16 0zm-8-256c-35.34375 0-64-28.652344-64-64s28.65625-64 64-64c35.347657 0 64 28.652344 64 64-.039062 35.328125-28.667969 63.960938-64 64zm0 0" data-original="#000000" class="active-path" data-old_color="#000000" fill="#707070"/><path d="m416.488281 256c-26.507812 0-48 21.492188-48 48s21.492188 48 48 48c26.511719 0 48-21.492188 48-48-.023437-26.5-21.5-47.972656-48-48zm0 80c-17.671875 0-32-14.328125-32-32s14.328125-32 32-32c17.675781 0 32 14.328125 32 32s-14.324219 32-32 32zm0 0" data-original="#000000" class="active-path" data-old_color="#000000" fill="#707070"/><path d="m496.488281 304c-.042969-34.921875-22.699219-65.792969-56-76.3125v-219.6875c0-4.417969-3.578125-8-8-8h-32c-4.417969 0-8 3.582031-8 8v219.6875c-33.320312 10.484375-55.988281 41.378906-55.988281 76.3125s22.667969 65.828125 55.988281 76.3125v107.6875c0 4.417969 3.582031 8 8 8h32c4.421875 0 8-3.582031 8-8v-107.6875c33.300781-10.519531 55.957031-41.390625 56-76.3125zm-88-288h16v208.40625c-5.316406-.542969-10.679687-.542969-16 0zm16 464h-16v-96.40625c5.320313.542969 10.683594.542969 16 0zm-8-112c-35.34375 0-64-28.652344-64-64s28.65625-64 64-64c35.347657 0 64 28.652344 64 64-.039062 35.328125-28.667969 63.960938-64 64zm0 0" data-original="#000000" class="active-path" data-old_color="#000000" fill="#707070"/><path d="m80.488281 320c-26.507812 0-48 21.492188-48 48s21.492188 48 48 48c26.511719 0 48-21.492188 48-48-.023437-26.5-21.5-47.972656-48-48zm0 80c-17.671875 0-32-14.328125-32-32s14.328125-32 32-32c17.675781 0 32 14.328125 32 32s-14.324219 32-32 32zm0 0" data-original="#000000" class="active-path" data-old_color="#000000" fill="#707070"/><path d="m104.488281 291.6875v-283.6875c0-4.417969-3.578125-8-8-8h-32c-4.417969 0-8 3.582031-8 8v283.6875c-33.320312 10.484375-55.988281 41.378906-55.988281 76.3125s22.667969 65.828125 55.988281 76.3125v43.6875c0 4.417969 3.582031 8 8 8h32c4.421875 0 8-3.582031 8-8v-43.6875c33.324219-10.484375 55.992188-41.378906 55.992188-76.3125s-22.667969-65.828125-55.992188-76.3125zm-32-275.6875h16v272.40625c-5.316406-.542969-10.679687-.542969-16 0zm16 464h-16v-32.40625c5.320313.542969 10.683594.542969 16 0zm-8-48c-35.34375 0-64-28.652344-64-64s28.65625-64 64-64c35.347657 0 64 28.652344 64 64-.039062 35.328125-28.667969 63.960938-64 64zm0 0" data-original="#000000" class="active-path" data-old_color="#000000" fill="#707070"/></g> </svg>
