<?xml version="1.0"?>
<svg xmlns="http://www.w3.org/2000/svg" xmlns:xlink="http://www.w3.org/1999/xlink" version="1.1" id="Capa_1" x="0px" y="0px" viewBox="0 0 408.187 408.187" style="enable-background:new 0 0 408.187 408.187;" xml:space="preserve" width="512px" height="512px" class=""><g><path style="fill:#F8305F;" d="M140.493,349.494c-56.8-30.4-123.2-101.6-131.2-159.2c-4-22.4,3.2-44.8,20-60  c12.8-12.8,29.6-20.8,47.2-20.8c38.4,0,66.4,38.4,67.2,40c0,0,28.8-40,67.2-40c17.6,0.8,35.2,8,47.2,20.8c16.8,15.2,24,37.6,20,60  c-8,57.6-74.4,128.8-131.2,159.2l-4,2.4L140.493,349.494z" data-original="#F8305F" class=""/><path style="fill:#1AA0F2" d="M259.693,296.694c-7.2-4-13.6-8-20-12.8l-7.2-4.8l5.6-6.4c23.2-28.8,37.6-57.6,40.8-81.6  c4-22.4-3.2-44.8-20-60c-12.8-12.8-29.6-20.8-47.2-20.8c-28,0-50.4,20-61.6,32.8l-5.6,6.4l-6.4-6.4c-2.4-2.4-4.8-4.8-8-8l-2.4-3.2  v-3.2c-1.6-19.2,6.4-38.4,20.8-51.2c12.8-12.8,29.6-20.8,48-20.8c1.6,0,4,0,5.6,0c36,3.2,61.6,39.2,61.6,40s26.4-36,61.6-39.2  c1.6,0,4,0,5.6,0c18.4,0.8,35.2,8,48,20.8c16.8,15.2,24,37.6,20,60c-8,57.6-74.4,128.8-131.2,159.2l-4,2.4L259.693,296.694z" data-original="#FFFFFF" class="active-path" data-old_color="#FFFFFF"/><path style="fill:#28150B;" d="M324.493,48.694c-28,3.2-50.4,23.2-60.8,35.2c-10.4-11.2-32.8-32-60.8-35.2  c-22.4-1.6-44,6.4-59.2,23.2c-12.8,11.2-20.8,27.2-23.2,44.8c-12.8-8.8-28-14.4-44-14.4c-20,0.8-39.2,8.8-52.8,23.2  c-18.4,16.8-27.2,42.4-22.4,66.4c8.8,61.6,80,137.6,139.2,167.2c2.4,0.8,4.8,0.8,7.2,0c32.8-17.6,61.6-40.8,86.4-68.8  c8.8,5.6,17.6,11.2,26.4,16c2.4,0.8,4.8,0.8,7.2,0c59.2-29.6,130.4-105.6,139.2-167.2c4.8-24.8-4-49.6-22.4-66.4  C368.493,55.094,346.893,47.094,324.493,48.694z M143.693,342.294c-54.4-28.8-119.2-97.6-127.2-152.8c-4-19.2,3.2-39.2,17.6-52.8  c11.2-11.2,26.4-18.4,42.4-19.2c34.4,0,60.8,36,60.8,36.8c1.6,2.4,4,3.2,6.4,3.2l0,0c2.4,0,4.8-1.6,6.4-3.2c0,0,26.4-36.8,61.6-36.8  c16,0.8,31.2,7.2,42.4,19.2c14.4,13.6,20.8,33.6,17.6,52.8C262.893,244.694,198.893,313.494,143.693,342.294z M390.093,135.894  c-8,55.2-72,124-127.2,153.6c-6.4-4-13.6-8-20-12c22.4-28,39.2-58.4,42.4-85.6c4.8-24.8-4-49.6-22.4-66.4  c-13.6-14.4-32.8-22.4-52-23.2c-32,0-56,23.2-67.2,35.2c-2.4-2.4-4.8-5.6-8-8c-1.6-16.8,5.6-33.6,18.4-45.6  c12-12.8,29.6-20,47.2-18.4c32,3.2,56,36,56,36c1.6,2.4,4,3.2,6.4,3.2l0,0c2.4,0,4.8-1.6,6.4-3.2c0,0,24-32.8,56-36  c17.6-0.8,35.2,5.6,47.2,18.4C387.693,96.694,394.093,116.694,390.093,135.894z" data-original="#28150B" class=""/></g> </svg>
