<?xml version="1.0"?>
<svg xmlns="http://www.w3.org/2000/svg" height="512px" viewBox="0 -46 512 512" width="512px"><g><path d="m96.984375 405.621094c0 8.375 6.789063 15.164062 15.164063 15.164062h291.902343c8.375 0 15.164063-6.789062 15.164063-15.164062l4.164062-68.8125h-330.824218zm0 0" data-original="#000000" class="active-path" data-old_color="#000000" fill="#FFA800"/><path d="m512 84.886719c0-28.351563-23.066406-51.414063-51.414062-51.414063-28.351563 0-51.414063 23.0625-51.414063 51.414063 0 16.4375 7.757813 31.082031 19.796875 40.503906l-96.484375 70.191406-54.894531-98.140625c16.898437-8.433594 28.535156-25.894531 28.535156-46.027344 0-28.351562-23.0625-51.414062-51.414062-51.414062-28.351563 0-51.414063 23.0625-51.414063 51.414062 0 20.378907 11.914063 38.023438 29.144531 46.339844l-50.664062 97.933594-99.007813-73.804688c12.1875-9.410156 20.0625-24.152343 20.0625-40.707031 0-28.351562-23.0625-51.414062-51.414062-51.414062-28.355469 0-51.417969 23.0625-51.417969 51.414062 0 24.175781 16.777344 44.496094 39.296875 49.960938l45.40625 175.339843h346.101563l42.046874-171.664062c22.445313-5.515625 39.148438-25.800781 39.148438-49.925781zm0 0" data-original="#000000" class="active-path" data-old_color="#000000" fill="#FFA800"/></g> </svg>
