<svg height="458pt" viewBox="-48 0 458 458.00005" width="458pt" xmlns="http://www.w3.org/2000/svg"><path d="m353.890625 419.738281c.507813 16.570313-13.050781 30.121094-29.609375 30.121094h-276.191406c-22.0625-.0625-39.933594-17.933594-40-40v-361.71875c.066406-22.066406 17.9375-39.9375 40-40h265.800781c22.066406.054687 39.945313 17.929687 40 40zm-40.191406-42.25v-330.660156h-265.398438v330.660156zm0 0" fill="#00acea"/><path d="m313.699219 46.828125v330.660156h-265.398438v-330.660156zm-41.347657 175.820313c0-3.597657-1.601562-7.199219-4.800781-7.199219h-4.300781v-7c0-3.300781-3.898438-4.699219-7.800781-4.699219-3.898438 0-7.800781 1.398438-7.800781 4.699219v7h-8.597657l17.699219-35.5c.292969-.59375.464844-1.238281.5-1.898438 0-3.601562-5.101562-5.902343-7.800781-5.902343-2.765625-.0625-5.308594 1.503906-6.5 4l-23.097657 45.300781c-.507812.921875-.785156 1.949219-.800781 3 0 3.5 2.300781 5.402343 5.199219 5.402343h23.398438v10.597657c0 3.199219 3.902343 4.800781 7.800781 4.800781 3.902343 0 7.800781-1.601562 7.800781-4.800781v-10.597657h4.300781c2.398438 0 4.800781-3.601562 4.800781-7.203124zm-66.703124-.398438v-26.5c0-17.199219-10.796876-23.601562-24.597657-23.601562s-24.5 6.402343-24.5 23.601562v26.5c0 17.199219 10.699219 23.601562 24.5 23.601562s24.597657-6.402343 24.597657-23.601562zm-62.699219.398438c0-3.597657-1.597657-7.199219-4.800781-7.199219h-4.296876v-7c0-3.300781-3.902343-4.699219-7.800781-4.699219-3.902343 0-7.800781 1.398438-7.800781 4.699219v7h-8.601562l17.703124-35.5c.292969-.59375.460938-1.238281.5-1.898438 0-3.601562-5.101562-5.902343-7.800781-5.902343-2.765625-.0625-5.3125 1.503906-6.5 4l-23.101562 45.300781c-.507813.921875-.78125 1.949219-.800781 3 0 3.5 2.300781 5.402343 5.203124 5.402343h23.398438v10.597657c0 3.199219 3.898438 4.800781 7.800781 4.800781 3.898438 0 7.800781-1.601562 7.800781-4.800781v-10.597657h4.296876c2.402343 0 4.800781-3.601562 4.800781-7.203124zm0 0" fill="#00efd1"/><path d="m190.050781 195.75v26.5c0 6.898438-3.402343 10-9 10-5.601562 0-8.902343-3.101562-8.902343-10v-26.5c0-6.898438 3.300781-10 8.902343-10 5.597657 0 9 3.101562 9 10zm0 0" fill="#00efd1"/><g fill="#083863"><path d="m313.890625 0h-265.824219c-26.511718.144531-47.960937 21.625-48.066406 48.140625v361.746094c.121094 26.511719 21.578125 47.980469 48.089844 48.113281h276.191406c10.121094.015625 19.828125-4.042969 26.921875-11.261719 7.097656-7.222656 10.988281-16.992187 10.796875-27.117187v-371.503906c-.125-26.519532-21.589844-47.988282-48.109375-48.117188zm32.109375 419.738281c0 .082031-.054688.203125-.050781.28125.160156 5.703125-2.007813 11.222657-6.007813 15.289063-4.089844 4.273437-9.746094 6.6875-15.660156 6.691406h-276.167969c-17.699219-.113281-32.015625-14.441406-32.113281-32.140625v-361.695313c.085938-17.699218 14.390625-32.039062 32.089844-32.164062h265.777344c17.703124.109375 32.027343 14.4375 32.132812 32.140625zm0 0"/><path d="m313 39h-265c-4.417969 0-8 3.582031-8 8v331c0 4.417969 3.582031 8 8 8h265c4.417969 0 8-3.582031 8-8v-331c0-4.417969-3.582031-8-8-8zm-7 330h-250v-314h250zm0 0"/><path d="m193.550781 405h-25.101562c-4.417969 0-8 3.582031-8 8s3.582031 8 8 8h25.101562c4.417969 0 8-3.582031 8-8s-3.582031-8-8-8zm0 0"/><path d="m94.851562 230h23.148438v10.449219c0 3.640625 4 5.300781 8 5.300781s8-1.660156 8-5.300781v-10.449219h4.148438c2.675781 0 5.300781-3.613281 5.300781-7.5 0-3.710938-1.65625-7.5-5.300781-7.5h-4.148438v-6.550781c0-3.835938-4.171875-5.199219-8-5.199219s-8 1.363281-8 5.199219v6.550781h-7.542969l17.351563-34.828125c.320312-.660156.503906-1.378906.542968-2.109375 0-3.96875-5.375-6.40625-8.300781-6.40625-2.953125-.0625-5.667969 1.605469-6.945312 4.269531l-23.09375 45.285157c-.542969.933593-.839844 1.988281-.863281 3.066406-.109376 1.542968.453124 3.0625 1.546874 4.160156s2.609376 1.667969 4.15625 1.5625zm0 0"/><path d="m180.949219 246.351562c16.1875 0 25.050781-8.5625 25.050781-24.101562v-26.5c0-15.539062-8.863281-24.101562-25.050781-24.101562-16.121094 0-24.949219 8.5625-24.949219 24.101562v26.5c0 15.539062 8.828125 24.101562 24.949219 24.101562zm-7.949219-24.101562v-26.5c0-6.300781 2.875-9.5 8.449219-9.5 5.640625 0 8.550781 3.199219 8.550781 9.5v26.5c0 6.300781-2.910156 9.5-8.550781 9.5-5.574219 0-8.449219-3.195312-8.449219-9.5zm0 0"/><path d="m224.25 230h22.75v10.449219c0 3.640625 4.5 5.300781 8.5 5.300781s8.5-1.660156 8.5-5.300781v-10.449219h3.550781c2.675781 0 5.300781-3.613281 5.300781-7.5 0-3.710938-1.660156-7.5-5.300781-7.5h-3.550781v-6.550781c0-3.835938-4.671875-5.199219-8.5-5.199219s-8.5 1.363281-8.5 5.199219v6.550781h-7.140625l17.351563-34.828125c.316406-.660156.503906-1.378906.539062-2.109375 0-3.96875-5.375-6.40625-8.300781-6.40625-2.953125-.0625-5.667969 1.605469-6.945313 4.269531l-23.09375 45.285157c-.542968.933593-.839844 1.988281-.859375 3.066406-.113281 1.542968.453125 3.0625 1.546875 4.160156 1.089844 1.097656 2.605469 1.667969 4.152344 1.5625zm0 0"/></g></svg>