<?xml version="1.0"?>
<svg xmlns="http://www.w3.org/2000/svg" xmlns:xlink="http://www.w3.org/1999/xlink" version="1.1" id="Capa_1" x="0px" y="0px" viewBox="0 0 512.002 512.002" style="enable-background:new 0 0 512.002 512.002;" xml:space="preserve" width="512px" height="512px" class=""><g><g>
	<g>
		<path d="M127.168,41.818c-41.006,0-74.366,33.36-74.366,74.366v96.251c0,8.284,6.716,15,15,15h118.732c8.284,0,15-6.716,15-15    v-96.251C201.534,75.178,168.174,41.818,127.168,41.818z M171.534,197.435H82.802v-81.251c0-24.464,19.902-44.366,44.366-44.366    c24.464,0,44.366,19.902,44.366,44.366V197.435z" data-original="#000000" class="active-path" data-old_color="#000000" fill="#707070"/>
	</g>
</g><g>
	<g>
		<path d="M494.688,203.776c-11.975-12.583-28.136-19.514-45.507-19.514H325.347c-17.371,0-33.532,6.931-45.507,19.514    c-4.382,4.605-7.971,9.736-10.729,15.237c-4.231-0.899-8.615-1.381-13.111-1.381c-24.264,0-45.354,13.791-55.882,33.939    c-6.387-2.252-13.194-3.487-20.207-3.487H74.424c-32.509,0-60.632,26.395-62.69,58.837L0.03,491.297    c-0.263,4.135,1.197,8.194,4.032,11.216c2.836,3.021,6.794,4.734,10.938,4.734h469.886c7.995,0,14.585-6.271,14.981-14.256    l12.055-242.797C512.783,232.846,506.663,216.36,494.688,203.776z M255.999,247.631c18.208,0,33.021,14.813,33.021,33.021    s-14.813,33.021-33.021,33.021s-33.021-14.813-33.021-33.021S237.791,247.631,255.999,247.631z M171.652,383.455v93.793H30.982    v-0.001l10.69-168.426c1.058-16.661,16.056-30.737,32.751-30.737H179.91c4.571,0,9.012,1.061,13.078,2.936    c0.094,16.234,6.352,31.031,16.554,42.165C187.142,334.007,171.652,356.956,171.652,383.455z M310.347,477.247H201.653v-93.793    c0-20.341,16.548-36.889,36.889-36.889h34.916c20.341,0,36.889,16.548,36.889,36.889V477.247z M481.957,248.707l-11.347,228.54    H340.347v-93.793c0-26.499-15.49-49.448-37.89-60.269c10.279-11.218,16.563-26.154,16.563-42.532    c0-19.514-8.916-36.983-22.887-48.552c1.419-2.753,3.235-5.327,5.439-7.644c6.256-6.574,14.698-10.194,23.773-10.194H449.18    c9.075,0,17.518,3.62,23.773,10.194C479.208,231.031,482.407,239.644,481.957,248.707z" data-original="#000000" class="active-path" data-old_color="#000000" fill="#707070"/>
	</g>
</g><g>
	<g>
		<path d="M387.264,4.756c-45.041,0-81.685,36.644-81.685,81.686c0,45.041,36.644,81.685,81.685,81.685    c45.042,0,81.686-36.644,81.686-81.685C468.95,41.4,432.306,4.756,387.264,4.756z M387.264,138.128    c-28.499,0-51.685-23.186-51.685-51.685c0-28.499,23.186-51.686,51.685-51.686c28.5,0,51.686,23.187,51.686,51.686    C438.95,114.942,415.764,138.128,387.264,138.128z" data-original="#000000" class="active-path" data-old_color="#000000" fill="#707070"/>
	</g>
</g></g> </svg>
