<svg width="469" height="255" viewBox="0 0 469 255" fill="none" xmlns="http://www.w3.org/2000/svg">
<path d="M459.955 157.756C457.434 134.067 441.809 114.405 420.129 106.844C410.047 115.921 396.44 121.465 381.819 121.465C367.199 121.465 353.592 115.921 343.51 106.844C335.948 109.364 328.889 113.903 322.844 119.446C334.934 133.565 343.008 150.706 345.016 169.856C345.42 174.198 348.649 208.875 349.053 213.207C349.053 214.723 349.053 216.741 349.053 218.248C350.313 218.504 360.395 220.522 361.655 220.768C375.262 223.289 388.879 223.289 402.486 220.768C407.221 219.813 445.137 212.153 449.873 211.198C458.439 209.682 463.992 201.618 463.48 193.043C462.781 185.993 460.309 161.29 459.955 157.756Z" fill="white"/>
<path d="M280.497 109.364C267.894 120.46 251.255 127.51 233.612 127.51C215.968 127.51 198.827 120.962 186.736 109.364C160.517 118.442 140.353 142.633 137.833 171.875C137.429 176.207 134.209 210.893 133.806 215.225C132.792 225.809 139.851 235.389 150.435 237.91C156.185 239.072 202.155 248.346 207.904 249.508C211.941 250.512 215.968 251.014 220.507 251.526C224.544 252.028 229.073 252.028 233.109 252.028C237.146 252.028 241.675 252.028 245.712 251.526C249.749 251.014 254.278 250.512 258.314 249.508C264.163 248.297 310.94 238.619 316.788 237.408C327.372 235.389 334.432 225.809 333.427 215.225C333.427 215.196 333.427 215.028 333.427 214.723C331.005 189.016 329.666 174.73 329.391 171.875C327.884 156.752 321.829 143.145 312.761 132.049C304.186 121.967 293.099 113.903 280.497 109.364Z" fill="white"/>
<path d="M233.109 111.884C242.689 111.884 251.255 109.364 258.816 105.337C276.46 96.2593 288.56 77.6115 288.56 56.4334C288.56 25.6853 263.857 0.982422 233.109 0.982422C202.361 0.982422 177.658 25.6853 177.658 56.4334C177.658 77.6115 189.759 96.2593 207.402 105.337C214.964 109.364 224.031 111.884 233.109 111.884Z" fill="white"/>
<path d="M381.819 107.346C389.381 107.346 396.44 105.337 402.987 102.305C417.106 94.7434 427.188 79.6204 427.188 62.4889C427.188 37.7861 407.024 17.6221 382.321 17.6221C357.618 17.6221 337.454 37.7861 337.454 62.4889C336.952 79.6204 346.532 94.7434 360.651 102.305C366.696 105.84 374.258 107.346 381.819 107.346Z" fill="white"/>
<path d="M84.4 121.967C69.7791 121.967 56.1724 116.423 46.0904 107.346C24.4102 114.907 8.28289 134.569 6.26452 158.268C5.91008 161.792 3.08436 190.02 2.73976 193.555C1.72565 202.12 7.78076 210.184 16.3465 211.7C21.0823 212.655 58.9981 220.315 63.7339 221.28C77.3406 223.801 90.9572 223.801 104.564 221.28C105.824 221.024 115.906 219.006 117.167 218.76C117.167 217.243 117.167 215.225 117.167 213.719C117.57 209.377 120.8 174.7 121.203 170.358C123.212 151.208 130.773 133.565 143.376 119.948C137.33 114.405 130.271 110.378 122.71 107.346C112.628 116.423 99.0209 121.967 84.4 121.967Z" fill="white"/>
<path d="M84.3992 107.346C91.9607 107.346 99.0201 105.337 105.567 102.305C119.686 94.7434 129.768 79.6204 129.768 62.4889C129.768 37.7861 109.604 17.6221 84.9013 17.6221C60.1985 17.6221 40.0345 37.7861 40.0345 62.4889C39.5323 79.6204 49.1122 94.7434 63.2309 102.305C69.2762 105.84 76.8377 107.346 84.3992 107.346Z" fill="white"/>
</svg>
