<svg xmlns="http://www.w3.org/2000/svg" xmlns:xlink="http://www.w3.org/1999/xlink" version="1.1" width="528.473" height="528.473" style="enable-background:new 0 0 528.473 528.473;" xml:space="preserve"><rect id="backgroundrect" width="100%" height="100%" x="0" y="0" fill="none" stroke="none"/>
















<g class="currentLayer" style=""><title>Layer 1</title><g id="svg_1" class="selected" fill-opacity="1" fill="#fc3ac2">
	<g id="svg_2" fill="#fc3ac2">
		<circle cx="93.0979995727539" cy="181.99400329589844" r="27.076000213623047" id="svg_3" fill="#fc3ac2"/>
		<circle cx="415.3450012207031" cy="178.26499938964844" r="27.076000213623047" id="svg_4" fill="#fc3ac2"/>
		<path d="M311.85,377.284h9.562c5.283,0,9.562-4.284,9.562-9.562v-65.666h40.373c5.729,0,9.701-5.087,9.701-11.26v-7.454    c0-6.172-3.973-10.433-9.701-10.433h-34.439c-3.332-20.449-21.027-36.074-42.419-36.074s-39.087,15.625-42.419,36.074h-5.503    c-1.124-17.465-15.611-31.293-33.359-31.293s-32.235,13.828-33.359,31.293h-41.817c-5.728,0-10.667,4.261-10.667,10.433v7.454    c0,6.178,4.939,11.26,10.667,11.26h35.73v65.661c0,5.278,4.279,9.562,9.562,9.562h9.562c5.283,0,9.562-4.284,9.562-9.562v-35.262    h99.837v35.262C302.287,373,306.571,377.284,311.85,377.284z M202.45,322.897v-20.842h99.837v20.837H202.45V322.897z" id="svg_5" fill="#fc3ac2"/>
		<path d="M80.237,324.303c0-5.278-4.284-9.562-9.562-9.562H28.245l-9.204-69.093c-0.698-5.236-5.513-8.884-10.739-8.219    c-5.24,0.698-8.912,5.503-8.219,10.739l10.308,77.399c0.631,4.753,4.681,8.3,9.477,8.3h50.801    C75.958,333.865,80.237,329.587,80.237,324.303z" id="svg_6" fill="#fc3ac2"/>
		<path d="M457.803,333.865h50.801c4.795,0,8.85-3.547,9.477-8.3l10.308-77.399c0.698-5.235-2.979-10.045-8.219-10.739    c-5.13-0.674-10.04,2.974-10.738,8.219l-9.204,69.093h-42.429c-5.278,0-9.562,4.284-9.562,9.562    C448.235,329.582,452.52,333.865,457.803,333.865z" id="svg_7" fill="#fc3ac2"/>
		<path d="M100.858,362.854c0,6.603,5.35,11.953,11.953,11.953c6.603,0,11.953-5.351,11.953-11.953v-42.434    c0-3.916-1.922-7.593-5.14-9.825l-12.532-8.692c0.201-0.774,0.344-1.568,0.344-2.405v-43.519l5.699,6.875    c2.271,2.764,5.661,4.37,9.242,4.37h26.593c6.603,0,11.953-5.35,11.953-11.953s-5.35-11.953-11.953-11.953H128.03l-19.708-23.715    c-2.515-3.07-6.24-4.528-9.921-4.322c-0.177-0.01-0.349-0.053-0.53-0.053H63.502c-5.279,0-9.562,4.279-9.562,9.562l-7.77,74.707    c0,5.278,4.284,9.562,9.562,9.562h19.718l25.403,17.614v36.18H100.858z" id="svg_8" fill="#fc3ac2"/>
		<path d="M402.173,320.383v42.434c0,6.603,5.35,11.953,11.953,11.953c6.603,0,11.953-5.351,11.953-11.953v-36.175l23.127-17.614    h31.063c8.085,0,10.447-7.335,8.453-12.25l-29.648-72.015c-2.09-5.919-5.704-9.562-9.562-9.562h-36.381    c-2.338,0-4.451,0.87-6.115,2.267c-0.836,0.598-1.635,1.271-2.318,2.108l-19.709,23.715h-20.941    c-6.603,0-11.953,5.35-11.953,11.953s5.351,11.954,11.953,11.954h26.594c3.581,0,6.971-1.606,9.242-4.371l4.025-4.857    l-18.915,39.823c-4.666,6.794-0.482,11.236,3.997,11.236h20.354l-2.032,1.529C404.1,312.79,402.173,316.467,402.173,320.383z" id="svg_9" fill="#fc3ac2"/>
		<circle cx="213.20799255371094" cy="217.7100067138672" r="19.125" id="svg_10" fill="#fc3ac2"/>
		<circle cx="292.87799072265625" cy="201.7550048828125" r="27.076000213623047" id="svg_11" fill="#fc3ac2"/>
	</g>
</g><g id="svg_12">
</g><g id="svg_13">
</g><g id="svg_14">
</g><g id="svg_15">
</g><g id="svg_16">
</g><g id="svg_17">
</g><g id="svg_18">
</g><g id="svg_19">
</g><g id="svg_20">
</g><g id="svg_21">
</g><g id="svg_22">
</g><g id="svg_23">
</g><g id="svg_24">
</g><g id="svg_25">
</g><g id="svg_26">
</g></g></svg>