<?xml version="1.0"?>
<svg xmlns="http://www.w3.org/2000/svg" xmlns:xlink="http://www.w3.org/1999/xlink" version="1.1" id="Capa_1" x="0px" y="0px" viewBox="0 0 490.191 490.191" style="enable-background:new 0 0 490.191 490.191;" xml:space="preserve" width="512px" height="512px" class="hovered-paths"><g><g id="XMLID_333_">
	<path id="XMLID_335_" d="M291.213,163.837c10.775,0,21.486,1.63,31.824,4.833c7.709,2.384,14.836,5.869,21.678,9.811   c7.127-20.987,10.309-42.102,7.355-62.308c-7.582-51.769-55.704-87.592-107.453-80.003c-35.167,5.154-62.928,29.022-74.745,60.011   c-20.248-26.292-53.696-41.203-88.858-36.047C29.231,67.703-6.58,115.818,1.016,167.584   c13.938,95.299,165.948,171.465,200.279,187.522c-15.545-37.655-24.086-78.808-12.688-115.587   C202.625,194.248,243.86,163.837,291.213,163.837z" data-original="#000000" class="active-path" data-old_color="#000000" fill="#FAC8F1"/>
	<path id="XMLID_334_" d="M437.664,238.581c-7.336-2.272-14.752-3.355-22.041-3.355c-19.285,0-37.705,7.554-51.434,20.609   c-5.457-25.549-24.147-47.49-50.865-55.75c-7.355-2.28-14.789-3.365-22.111-3.365c-31.826,0-61.287,20.537-71.197,52.53   C194.711,330.923,302.5,455.036,302.5,455.036s158.912-41.083,184.332-123.157C499.022,292.54,476.989,250.76,437.664,238.581z" data-original="#000000" class="active-path" data-old_color="#000000" fill="#FAC8F1"/>
</g></g> </svg>
