<svg xmlns="http://www.w3.org/2000/svg" width="25" height="22" style=""><rect id="backgroundrect" width="100%" height="100%" x="0" y="0" fill="none" stroke="none" class="" style=""/>
  
<g class="currentLayer" style=""><title>Layer 1</title><path id="Icon_awesome-history" data-name="Icon awesome-history" d="M24.602000082969667,11.226368356011575 c0.013000000000000006,6.2 -5.515,11.264 -12.292,11.269 a12.98,12.98 0 0 1 -7.729,-2.49 a1.027,1.027 0 0 1 -0.09100000000000005,-1.6150000000000002 l0.559,-0.511 a1.276,1.276 0 0 1 1.582,-0.09000000000000004 a9.638,9.638 0 0 0 5.67,1.8 c5.045,0 9.126,-3.733 9.126,-8.345 s-4.083,-8.345 -9.126,-8.345 A9.57,9.57 0 0 0 6.048000082969667,5.1673683560115755 l2.517,2.3 A0.7200000000000002,0.7200000000000002 0 0 1 8.005000082969666,8.707368356011575 H0.7940000829696658 a0.7620000000000002,0.7620000000000002 0 0 1 -0.794,-0.7260000000000002 V1.389368356011575 a0.8,0.8 0 0 1 1.355,-0.513 L3.8040000829696656,3.115368356011575 a12.889,12.889 0 0 1 8.5,-3.115 C19.087000082969666,0.00036835601157514386 24.590000082969667,5.024368356011575 24.602000082969667,11.226368356011575 zm-8.973,3.573 l0.4870000000000001,-0.5730000000000002 a1.027,1.027 0 0 0 -0.20900000000000005,-1.5270000000000001 l-2.019,-1.436 V6.530368356011575 A1.143,1.143 0 0 0 12.698000082969665,5.437368356011575 h-0.794 a1.143,1.143 0 0 0 -1.19,1.088 v6.152 l3.244,2.307 A1.267,1.267 0 0 0 15.629000082969664,14.799368356011577 z" fill="#67e7e7" class="" fill-opacity="1"/></g></svg>