<svg xmlns="http://www.w3.org/2000/svg" width="24.602" height="22.495" viewBox="0 0 24.602 22.495">
  <path id="Icon_awesome-history" data-name="Icon awesome-history" d="M25.164,11.789c.013,6.2-5.515,11.264-12.292,11.269a12.98,12.98,0,0,1-7.729-2.49,1.027,1.027,0,0,1-.091-1.615l.559-.511a1.276,1.276,0,0,1,1.582-.09,9.638,9.638,0,0,0,5.67,1.8c5.045,0,9.126-3.733,9.126-8.345s-4.083-8.345-9.126-8.345A9.57,9.57,0,0,0,6.61,5.73l2.517,2.3A.72.72,0,0,1,8.567,9.27H1.356a.762.762,0,0,1-.794-.726V1.952a.8.8,0,0,1,1.355-.513L4.366,3.678a12.889,12.889,0,0,1,8.5-3.115C19.649.563,25.152,5.587,25.164,11.789Zm-8.973,3.573.487-.573a1.027,1.027,0,0,0-.209-1.527l-2.019-1.436V7.093A1.143,1.143,0,0,0,13.26,6h-.794a1.143,1.143,0,0,0-1.19,1.088v6.152l3.244,2.307A1.267,1.267,0,0,0,16.191,15.362Z" transform="translate(-0.563 -0.563)" fill="#fff"/>
</svg>
