<?xml version="1.0"?>
<svg xmlns="http://www.w3.org/2000/svg" height="512px" viewBox="0 0 192 192" width="512px"><g><circle cx="96" cy="32" r="8" data-original="#000000" class="active-path" data-old_color="#000000" fill="#FFFFFF"/><circle cx="184" cy="72" r="8" data-original="#000000" class="active-path" data-old_color="#000000" fill="#FFFFFF"/><circle cx="8" cy="72" r="8" data-original="#000000" class="active-path" data-old_color="#000000" fill="#FFFFFF"/><path d="m23.805 160h144.395l15.61-70.265a8 8 0 0 0 -12.248-8.391l-40.462 26.972-27.945-55.894a8 8 0 0 0 -14.31 0l-27.945 55.894-40.463-26.972a8 8 0 0 0 -12.247 8.391z" data-original="#000000" class="active-path" data-old_color="#000000" fill="#FFFFFF"/><path d="m24 168v16a8 8 0 0 0 8 8h128a8 8 0 0 0 8-8v-16z" data-original="#000000" class="active-path" data-old_color="#000000" fill="#FFFFFF"/></g> </svg>
