<?xml version="1.0" encoding="utf-8"?>
<!-- Generator: Adobe Illustrator 22.0.0, SVG Export Plug-In . SVG Version: 6.00 Build 0)  -->
<svg version="1.1" id="Layer_1" xmlns="http://www.w3.org/2000/svg" xmlns:xlink="http://www.w3.org/1999/xlink" x="0px" y="0px"
	 viewBox="0 0 228 225" style="enable-background:new 0 0 228 225;" xml:space="preserve">
<style type="text/css">
	.st0{clip-path:url(#SVGID_2_);}
	.st1{fill-rule:evenodd;clip-rule:evenodd;fill:#CA7F61;}
	.st2{fill:url(#SVGID_3_);}
	.st3{fill:#FFFFFF;}
	.st4{fill:#F2F1EF;}
	.st5{fill:#CA7F61;}
	.st6{fill-rule:evenodd;clip-rule:evenodd;fill:#D98663;}
	.st7{fill-rule:evenodd;clip-rule:evenodd;fill:#DB8864;}
	.st8{fill-rule:evenodd;clip-rule:evenodd;fill:#DB8966;}
	.st9{fill-rule:evenodd;clip-rule:evenodd;fill:#DB8B67;}
	.st10{fill-rule:evenodd;clip-rule:evenodd;fill:#DB8B68;}
	.st11{fill-rule:evenodd;clip-rule:evenodd;fill:#DD8B69;}
	.st12{fill-rule:evenodd;clip-rule:evenodd;fill:#DC8D6B;}
	.st13{fill-rule:evenodd;clip-rule:evenodd;fill:#DD8F6D;}
	.st14{fill-rule:evenodd;clip-rule:evenodd;fill:#DF926F;}
	.st15{fill-rule:evenodd;clip-rule:evenodd;fill:#DF9171;}
	.st16{fill-rule:evenodd;clip-rule:evenodd;fill:#E29372;}
	.st17{fill-rule:evenodd;clip-rule:evenodd;fill:#E29575;}
	.st18{fill-rule:evenodd;clip-rule:evenodd;fill:#E39677;}
	.st19{fill-rule:evenodd;clip-rule:evenodd;fill:#E49A77;}
	.st20{fill-rule:evenodd;clip-rule:evenodd;fill:#E49A79;}
	.st21{fill-rule:evenodd;clip-rule:evenodd;fill:#E59B7A;}
	.st22{fill-rule:evenodd;clip-rule:evenodd;fill:#E59D7B;}
	.st23{fill-rule:evenodd;clip-rule:evenodd;fill:#E69E7D;}
	.st24{fill-rule:evenodd;clip-rule:evenodd;fill:#E79F7E;}
	.st25{fill-rule:evenodd;clip-rule:evenodd;fill:#E7A17F;}
	.st26{fill-rule:evenodd;clip-rule:evenodd;fill:#E7A080;}
	.st27{fill-rule:evenodd;clip-rule:evenodd;fill:#E8A381;}
	.st28{fill-rule:evenodd;clip-rule:evenodd;fill:#E8A383;}
	.st29{fill-rule:evenodd;clip-rule:evenodd;fill:#E8A484;}
	.st30{fill-rule:evenodd;clip-rule:evenodd;fill:#E8A685;}
	.st31{fill-rule:evenodd;clip-rule:evenodd;fill:#EAA786;}
	.st32{fill-rule:evenodd;clip-rule:evenodd;fill:#E9AA88;}
	.st33{fill-rule:evenodd;clip-rule:evenodd;fill:#EAA98B;}
	.st34{fill-rule:evenodd;clip-rule:evenodd;fill:#EBAA8C;}
	.st35{fill-rule:evenodd;clip-rule:evenodd;fill:#EBAC8C;}
	.st36{fill-rule:evenodd;clip-rule:evenodd;fill:#EAAC8D;}
	.st37{fill-rule:evenodd;clip-rule:evenodd;fill:#EBAF8F;}
	.st38{fill-rule:evenodd;clip-rule:evenodd;fill:#ECB090;}
	.st39{fill-rule:evenodd;clip-rule:evenodd;fill:#EEAF92;}
	.st40{fill-rule:evenodd;clip-rule:evenodd;fill:#EDB193;}
	.st41{fill-rule:evenodd;clip-rule:evenodd;fill:#EDB296;}
	.st42{fill-rule:evenodd;clip-rule:evenodd;fill:#EEB497;}
	.st43{fill-rule:evenodd;clip-rule:evenodd;fill:#EFB598;}
	.st44{fill-rule:evenodd;clip-rule:evenodd;fill:#EFB59A;}
	.st45{fill-rule:evenodd;clip-rule:evenodd;fill:#F0B89C;}
	.st46{fill-rule:evenodd;clip-rule:evenodd;fill:#F1BA9D;}
	.st47{fill-rule:evenodd;clip-rule:evenodd;fill:#F2BB9D;}
	.st48{fill-rule:evenodd;clip-rule:evenodd;fill:#F2BA9F;}
	.st49{fill-rule:evenodd;clip-rule:evenodd;fill:#F4BEA1;}
	.st50{fill-rule:evenodd;clip-rule:evenodd;fill:#F4BFA2;}
	.st51{fill-rule:evenodd;clip-rule:evenodd;fill:#F5BFA4;}
	.st52{fill-rule:evenodd;clip-rule:evenodd;fill:#F6C1A6;}
	.st53{fill-rule:evenodd;clip-rule:evenodd;fill:#F7C2A7;}
	.st54{fill-rule:evenodd;clip-rule:evenodd;fill:#F9C6AA;}
	.st55{fill-rule:evenodd;clip-rule:evenodd;fill:#F9C7AB;}
	.st56{fill-rule:evenodd;clip-rule:evenodd;fill:#FAC7AD;}
	.st57{fill-rule:evenodd;clip-rule:evenodd;fill:#FBCAAD;}
	.st58{fill-rule:evenodd;clip-rule:evenodd;fill:#FAC9AF;}
	.st59{fill-rule:evenodd;clip-rule:evenodd;fill:#FBCCB0;}
	.st60{fill-rule:evenodd;clip-rule:evenodd;fill:#FCCDB2;}
	.st61{fill-rule:evenodd;clip-rule:evenodd;fill:#FCCCB3;}
	.st62{fill-rule:evenodd;clip-rule:evenodd;fill:#FCCFB4;}
	.st63{fill-rule:evenodd;clip-rule:evenodd;fill:#FCD0B6;}
	.st64{fill-rule:evenodd;clip-rule:evenodd;fill:#FBD1B6;}
	.st65{fill-rule:evenodd;clip-rule:evenodd;fill:#FFFFFF;}
	.st66{fill:#D4A293;}
	.st67{fill:url(#SVGID_4_);}
	.st68{fill-rule:evenodd;clip-rule:evenodd;fill:#ECE6DC;}
	.st69{fill-rule:evenodd;clip-rule:evenodd;fill:#066259;}
	.st70{fill-rule:evenodd;clip-rule:evenodd;fill:#074D45;}
	.st71{fill:#E6F5F7;}
	.st72{fill-rule:evenodd;clip-rule:evenodd;fill:#E6F5F7;}
	.st73{fill:#FFFFFF;stroke:#E5E5E4;stroke-width:0.1698;stroke-linecap:round;stroke-linejoin:round;}
	.st74{fill:#016A5E;}
	.st75{fill:#EBEBEB;}
	.st76{fill:#979797;}
	.st77{fill-rule:evenodd;clip-rule:evenodd;fill:#A7AAAC;}
	.st78{fill:#BCBCBC;}
	.st79{fill:#A9BE95;}
	.st80{fill:#E0EDC3;}
	.st81{fill:#E2E2E2;}
	.st82{fill:#ED1868;}
	.st83{fill:#6ABD45;stroke:#4DAF4F;stroke-width:1.1941;stroke-miterlimit:10;}
	.st84{fill:#FAFAFA;}
	.st85{fill:#F8BB45;}
	.st86{fill:none;stroke:#3383C5;stroke-miterlimit:10;}
	.st87{fill:none;stroke:#CA475F;stroke-miterlimit:10;}
	.st88{fill:none;stroke:#010101;stroke-miterlimit:10;}
	.st89{fill:none;stroke:#F8BB45;stroke-width:1.5;stroke-miterlimit:10;}
	.st90{fill:none;stroke:#F8BB45;stroke-miterlimit:10;}
	.st91{fill:#F8BB45;stroke:#FFFFFF;stroke-miterlimit:10;}
	.st92{fill:none;stroke:#F8BB45;stroke-width:0.75;stroke-miterlimit:10;}
	.st93{fill:#F8BB45;stroke:#FFFFFF;stroke-width:2;stroke-miterlimit:10;}
	.st94{fill:#FFFFFF;stroke:#F8BB45;stroke-miterlimit:10;}
	.st95{fill:none;stroke:#FFFFFF;stroke-width:1.5;stroke-miterlimit:10;}
	.st96{fill:none;stroke:#EC1C3C;stroke-width:1.5;stroke-miterlimit:10;}
	.st97{fill:#EC1C3C;}
	.st98{fill:none;stroke:#EC1C3C;stroke-miterlimit:10;}
	.st99{fill:#EC1C3C;stroke:#FFFFFF;stroke-width:2;stroke-miterlimit:10;}
	.st100{fill:none;stroke:#EC1C3C;stroke-width:2;stroke-miterlimit:10;}
	.st101{fill:#C7AE91;stroke:#A58E6D;stroke-miterlimit:10;}
	.st102{fill:#DE1868;stroke:#FFFFFF;stroke-width:1.7495;stroke-miterlimit:10;}
	.st103{fill:#DE1868;stroke:#FFFFFF;stroke-width:0.408;stroke-miterlimit:10;}
	.st104{fill:#DE1868;stroke:#FFFFFF;stroke-width:0.8424;stroke-miterlimit:10;}
	.st105{fill:#DE1868;stroke:#FFFFFF;stroke-width:0.4003;stroke-miterlimit:10;}
	.st106{fill:#DE1868;stroke:#FFFFFF;stroke-width:0.4418;stroke-miterlimit:10;}
	.st107{stroke:#000000;stroke-width:1.6421;stroke-miterlimit:10;}
	.st108{fill:none;stroke:#1A7CC1;stroke-width:1.0709;stroke-miterlimit:10;}
	.st109{fill:#DE1868;stroke:#FFFFFF;stroke-width:0.7463;stroke-miterlimit:10;}
	.st110{fill:none;stroke:#1A7CC1;stroke-width:1.7157;stroke-miterlimit:10;}
	.st111{font-family:'Heebo-Bold';}
	.st112{font-size:8.1055px;}
	.st113{opacity:0.26;fill:url(#SVGID_5_);}
	.st114{fill:#F9D130;}
	.st115{fill:none;stroke:#F9D130;stroke-width:0.5782;stroke-miterlimit:10;}
	.st116{fill:none;stroke:#F9D130;stroke-width:0.3975;stroke-miterlimit:10;}
	.st117{fill:#F9CF2D;}
	.st118{fill:#FAD954;}
	.st119{fill:#FBE280;}
	.st120{opacity:0.54;fill:#F9CF2D;}
	.st121{fill:#AB1F23;}
	.st122{fill:#BD353F;}
	.st123{opacity:0.29;fill:#9052A1;}
	.st124{opacity:0.22;fill:#9052A1;}
	.st125{opacity:0.26;fill:url(#SVGID_6_);}
	.st126{fill:none;stroke:#F8BB45;stroke-width:0.5;stroke-miterlimit:10;}
</style>
<g>
	<g>
		<g>
			<path class="st101" d="M220.7,172.5c-3.2,4.2-6.2,8.3-9.3,12.4c-0.3,0.4-0.8,1.1-1.2,1c-2.1-0.2-4.2-0.8-6.3-0.7
				c-2.7,0-3.7-1.6-4.4-3.6c-0.1-0.3-0.3-0.6-0.6-1.3c-2.8,1.1-5.5,2.2-8.2,3.1c-4,1.4-7.6,4-12.1,3.8c-0.3,0-0.8,0.4-1.1,0.7
				c-1.6,1.5-3.1,3.2-4.9,4.6c-2.1,1.7-1.7,6.5,0.8,7.6c5.8,2.5,5.8,2.5,5.6,8.7c0,1.4,0.7,2.8,1.2,4.5c-6.7,4.6-14.1,8.4-23.2,8.2
				c-3.8-0.1-7.6,1-12.4,1.6c-0.9-2.7-2.1-6-2.9-9.4c-0.6-2.3-5.3-5.9-7.8-5.4c-3.4,0.7-7.5-2-8.7-5.2c-1.2-3.3-2.7-6.5-4.5-9.5
				c-1-1.7-1.2-3-0.4-4.7c1.1-2.3,1.9-4.7,2.9-7c0.9-2.1,0.4-3.5-2.1-3.9c-0.4-0.1-0.7-0.3-1.1-0.3c-4.9-0.2-8.1-2.2-7.5-7.6
				c-2.7-0.4-5.1-1.1-7.4-1.1c-1.3,0-2.7,0.9-3.7,1.8c-2.6,2.1-7.5,1-8.7-2.1c-0.3-0.8-1-1.5-1.7-2c-4.5-3.1-9-6.1-13.5-9.1
				c-4.2,4.7-4.7,4.6,3,8.3c-0.4,0.8-0.9,1.6-1.2,2.4c-0.6,1.6-1.7,1.9-3.3,1.4c-2-0.6-3.9-1.1-6,0.4c-0.6,0.5-2.8-0.4-3.8-1.2
				c-1.7-1.4-2.9-1.4-4.5,0c-1.3,1.2-2.8,2.1-4.2,3.1c-4.2,2.9-8.6,3.8-13.1,0.8c-2.2-1.5-4-0.7-5.1-0.2c-2.5-0.9-4.3-1.9-6.2-2.2
				c-0.7-0.1-2.1,0.9-2.6,1.7c-1,1.6-1.6,3.4-2.5,5.3c-1.8-1.4-3.4-2.6-5.1-3.8c0.3-0.8,0.5-1.5,0.7-2.2c1.8-4.6,1.9-4.7-2.1-8
				c-2.5-2-4.7-4.1-5.3-7.3c-0.1-0.6-0.9-1.3-1.6-1.6c-1.2-0.6-2.5-1.3-3.9-1.5c-4.2-0.6-5.2-3.3-5.2-6.8c0-2-0.4-4-0.5-5.9
				c-0.2-2.8,1.3-4.2,4.1-4.2c2.5,0.1,5.5,0.9,7.3-0.1c1.7-1,2.2-4,3.2-6.2c1.8-3.9,3.5-7.7,5.4-11.6c1.2-2.6,2.1-2.7,4.2-0.8
				c2,1.8,4.1,1.8,6,0c2.6-2.5,4.5-2.2,6.2,0.9c1.5,2.8,4.1,3.3,6.6,1.4c0.7-0.6,1.4-1.2,2.1-1.7c-0.1-0.3-0.1-0.6-0.2-0.7
				c-4.2-2.1-5.3-6.5-7.8-9.8c-0.3-0.4-0.6-1-0.5-1.5c0.2-2.2,3.7-5.7,6.1-6.1c2.1-0.3,4.3-0.4,6.3-0.9c0.8-0.2,1.8-1.1,2-1.8
				c0.5-1.8,0.4-3.8,0.8-5.6c0.2-0.9,0.7-1.8,1.3-2.5c2-2.1,1.5-4.6-1.3-5.6c-0.9-0.3-1.8-0.6-2.6-0.9c-2-0.9-2.4-2.4-1.3-4.2
				c0.8-1.3,1.8-2.5,2.6-3.8c2.5-3.6,2.4-6.1-0.3-9.6c-1.4-1.9-2.9-3.7-4.4-5.6c1.2-1.9,2.4-3.8,3.6-5.8c-0.5-0.8-1-1.7-1.6-2.4
				c-1.3-1.7-1.8-3.3-0.2-5.1c1.1-1.2,0.6-2.2-0.5-3c-3-2-3-4.4-1.1-7.1c0.5-0.8,0.9-1.8,1.2-2.7c0.5-1.7,1.6-2.1,3.4-1.6
				c2.2,0.6,4,0.5,3.2-2.6c-0.1-0.6,1-1.8,1.8-2.3c0.5-0.3,1.9,0,2.2,0.4c1.3,2.2,3.3,1.5,5.4,1.4c0.1-0.4,0.4-0.8,0.4-1.2
				c0.1-4.3,2.4-5.8,6.7-6.2c3.7-0.3,7.1-0.6,10.1,2c0.6,0.5,1.4,1,2.1,1.3c1.8,0.8,3.1,0.7,3.9-1.4c1.6-3.9,3.5-7.8,5-11.7
				c0.8-2.1,1.9-3.1,4.2-2.8c1.1,0.2,2.2,0,3.3,0c1.4-2.6,0.4-7.2,5.8-6.3c-0.2,3,2.1,3.9,4.6,4.7c3.4,1,6.6,2.4,8.9,5.3
				c0.4,0.5,1.8,0.6,2.6,0.4c1.3-0.2,2.4-1.2,3.6-1.3c2.6-0.2,4.1,1.9,3.7,4.5c-0.8,5.5-1.3,3.9,3.4,6.8c3.1-2.9,6.4-5.7,9.5-8.7
				c2-2,4.5-1.4,6.8-1.4c0.4,0,0.8,1.4,1.2,2.1c0.7,1,1.2,2.3,2.1,2.7c1.8,0.8,2.4,1.9,2.1,3.6c-0.4,2.3,0.7,3.1,2.9,3.5
				c5.9,1.3,5.9,1.4,5.1,7.2c-0.2,1.2-0.4,2.3-0.6,3.7c-1.8,0.1-3.8,0.2-5.7,0.4c-2.6,0.3-3.9,3-2.4,5.1c0.7,1,1.6,1.8,2.2,2.8
				c1.7,2.8,4,4.2,7.5,3.8c1-0.1,2.2,0.8,3.1,1.2c-1.1,1.8-1.8,3-2.8,4.6c1.7-0.1,2.5-0.1,3.4-0.2c0.2,0.5,0.5,1,0.6,1.5
				c0.9,3.7,3.1,6.2,7.1,6.8c2,0.3,2.7,1.4,2.4,3.4c-0.3,1.9-0.3,3.9-0.5,6.1c2.9,0.3,5.7,0.5,8.5,0.8c2.4,0.3,6.2,5.1,5.7,7.2
				c-1.1,4.3-1.1,4.3,3.4,6.4c2.9-7,8.6-4.1,13.9-3.8c-0.4,1.3-0.6,2.4-1.1,3.4c-1.5,3.2-1.7,5.9,1.8,8.1c1.4,0.9,1.3,2.1-0.3,3.2
				c-1,0.7-1.8,2-2.1,3.1c-0.6,2.7-0.9,5.5-1.3,8.3c-0.2,1-0.4,2-0.9,2.8c-2,2.7-1.5,5,1.5,6.8c2.4,1.5,4.9,3,7.4,4.4
				c1.5,0.8,1.8,1.8,1.6,3.3c-0.2,1.6-0.1,3.3-0.5,4.8c-0.2,0.8-1,1.9-1.7,2.2c-2.8,1-5.6,2-8.5,2.6c-5.2,1.1-6.2,6-9.2,9.2
				c-0.2,0.2,0.1,1,0.3,1.5c0.2,0.6,0.5,1.2,0.7,1.8c1.2,5.8,4.5,9.8,10.5,11.6c1,0.3,1.9,1.2,2.5,2
				C215.2,164.7,217.8,168.5,220.7,172.5z"/>
		</g>
	</g>
	<ellipse class="st3" cx="53.8" cy="51.1" rx="8.5" ry="8.3"/>
	<ellipse class="st3" cx="67.5" cy="170" rx="20.1" ry="19.5"/>
	<ellipse class="st3" cx="194.8" cy="70.3" rx="15.2" ry="14.7"/>
	<ellipse class="st3" cx="127.6" cy="55.2" rx="4.9" ry="4.7"/>
	<ellipse class="st3" cx="159.4" cy="140.3" rx="11.1" ry="10.7"/>
	<ellipse class="st3" cx="210.1" cy="171.2" rx="8.6" ry="8.3"/>
	<ellipse class="st3" cx="141.3" cy="196.6" rx="6.5" ry="6.3"/>
	<ellipse class="st3" cx="69.9" cy="109.4" rx="5.5" ry="5.3"/>
	<g>
		<path class="st85" d="M54,45.7c-2.3-0.2-4.3,1.6-4.3,3.9c0,3.9,4,7.1,4,7.1s3.7-2.9,4-6.7C57.9,47.8,56.3,45.8,54,45.7z"/>
		<ellipse class="st3" cx="53.8" cy="49.6" rx="1.8" ry="1.7"/>
	</g>
	<ellipse class="st3" cx="105.7" cy="139.9" rx="6.2" ry="6"/>
	<g>
		<path class="st85" d="M105.9,136c-1.7-0.1-3.1,1.2-3.1,2.8c0,2.8,2.9,5.2,2.9,5.2s2.7-2.1,2.9-4.8
			C108.7,137.6,107.5,136.1,105.9,136z"/>
		<ellipse class="st3" cx="105.7" cy="138.9" rx="1.3" ry="1.2"/>
	</g>
	<g>
		<path class="st102" d="M68.3,155.5c-6.5-0.4-11.9,4.5-11.9,10.7c0,10.8,11.1,19.8,11.1,19.8s10.2-8.2,11.1-18.5
			C79.1,161.5,74.6,155.9,68.3,155.5z"/>
		<ellipse class="st3" cx="67.5" cy="166.4" rx="4.9" ry="4.7"/>
	</g>
	<g>
		<path class="st85" d="M195.4,59.1c-4.8-0.3-8.7,3.3-8.7,7.9c0,7.9,8.2,14.6,8.2,14.6s7.5-6,8.1-13.6
			C203.3,63.5,200,59.4,195.4,59.1z"/>
		<ellipse class="st3" cx="194.8" cy="67.1" rx="3.6" ry="3.5"/>
	</g>
	<g>
		<path class="st103" d="M127.8,51.9c-1.5-0.1-2.8,1.1-2.8,2.5c0,2.5,2.6,4.6,2.6,4.6s2.4-1.9,2.6-4.3
			C130.3,53.3,129.3,52,127.8,51.9z"/>
		<ellipse class="st3" cx="127.6" cy="54.4" rx="1.1" ry="1.1"/>
	</g>
	<ellipse class="st3" cx="88.4" cy="49.7" rx="4.9" ry="4.7"/>
	<g>
		<path class="st103" d="M88.6,46.4c-1.5-0.1-2.8,1.1-2.8,2.5c0,2.5,2.6,4.6,2.6,4.6s2.4-1.9,2.6-4.3C91.1,47.7,90.1,46.4,88.6,46.4
			z"/>
		<ellipse class="st3" cx="88.4" cy="48.9" rx="1.1" ry="1.1"/>
	</g>
	<g>
		<path class="st104" d="M159.8,132.9c-3.1-0.2-5.7,2.2-5.7,5.2c0,5.2,5.3,9.5,5.3,9.5s4.9-3.9,5.3-8.9
			C165,135.8,162.8,133.1,159.8,132.9z"/>
		<ellipse class="st3" cx="159.4" cy="138.1" rx="2.4" ry="2.3"/>
	</g>
	<g>
		<path class="st105" d="M70.1,106.2c-1.5-0.1-2.7,1-2.7,2.5c0,2.5,2.5,4.5,2.5,4.5s2.3-1.9,2.5-4.2
			C72.6,107.5,71.6,106.3,70.1,106.2z"/>
		<ellipse class="st3" cx="69.9" cy="108.7" rx="1.1" ry="1.1"/>
	</g>
	<g>
		<path class="st85" d="M141.5,192.8c-1.6-0.1-3,1.1-3,2.7c0,2.7,2.8,5,2.8,5s2.6-2.1,2.8-4.7C144.2,194.3,143.1,192.9,141.5,192.8z
			"/>
		<ellipse class="st3" cx="141.3" cy="195.5" rx="1.2" ry="1.2"/>
	</g>
	<ellipse class="st3" cx="194.9" cy="125.3" rx="6.5" ry="6.3"/>
	<g>
		<path class="st85" d="M195.1,121.5c-1.6-0.1-3,1.1-3,2.7c0,2.7,2.8,5,2.8,5s2.6-2.1,2.8-4.7C197.8,123,196.7,121.6,195.1,121.5z"
			/>
		<ellipse class="st3" cx="194.9" cy="124.2" rx="1.2" ry="1.2"/>
	</g>
	<g>
		<path class="st106" d="M210.3,167.2c-1.6-0.1-3,1.1-3,2.7c0,2.7,2.8,5,2.8,5s2.6-2.1,2.8-4.7C213,168.7,211.9,167.3,210.3,167.2z"
			/>
		<ellipse class="st3" cx="210.1" cy="170" rx="1.2" ry="1.2"/>
	</g>
	<g>
		<path class="st85" d="M19.4,136.8c-3.5-0.2-6.5,2.5-6.5,5.9c0,5.9,6.1,10.8,6.1,10.8s5.6-4.5,6-10.1C25.3,140,22.8,137,19.4,136.8
			z"/>
		<ellipse class="st3" cx="19" cy="142.7" rx="2.7" ry="2.6"/>
	</g>
	<ellipse class="st107" cx="124.7" cy="103.7" rx="1.8" ry="1.8"/>
	<g>
		<path class="st104" d="M125.1,89.1c-3.1-0.2-5.7,2.2-5.7,5.2c0,5.2,5.3,9.5,5.3,9.5s4.9-3.9,5.3-8.9
			C130.3,91.9,128.1,89.3,125.1,89.1z"/>
		<ellipse class="st3" cx="124.7" cy="94.3" rx="2.4" ry="2.3"/>
	</g>
	<ellipse class="st3" cx="159.4" cy="14" rx="11.1" ry="10.7"/>
	<g>
		<path class="st109" d="M159.7,7.5c-2.8-0.2-5.1,1.9-5.1,4.6c0,4.6,4.7,8.5,4.7,8.5s4.4-3.5,4.7-7.9C164.3,10,162.4,7.6,159.7,7.5z
			"/>
		<ellipse class="st3" cx="159.4" cy="12.1" rx="2.1" ry="2"/>
	</g>
	<g>
		<text transform="matrix(1.0327 0 0 1 106.9778 171.0927)" class="st3 st111 st112">South Delhi</text>
	</g>
	<text transform="matrix(1.0327 0 0 1 103.0432 79.3944)" class="st3 st111 st112">Central Delhi</text>
	<g>
		<text transform="matrix(1.0327 0 0 1 183.4534 114.7225)" class="st3 st111 st112">East Delhi</text>
	</g>
	<text transform="matrix(1.0327 0 0 1 35.9963 98.3153)" class="st3 st111 st112">West Delhi</text>
	<g>
		<text transform="matrix(1.0327 0 0 1 83.6233 18.8734)" class="st3 st111 st112">North Delhi</text>
	</g>
</g>
</svg>
