<?xml version="1.0"?>
<svg xmlns="http://www.w3.org/2000/svg" height="512px" viewBox="-8 0 480 480" width="512px" class=""><g><path d="m256.953125 368.742188c-2.960937-.488282-5.953125-.738282-8.953125-.742188h-32c-30.890625.085938-55.914062 25.109375-56 56v40c0 8.835938 7.164062 16 16 16h112c8.835938 0 16-7.164062 16-16v-40c.105469-27.507812-19.875-50.976562-47.046875-55.257812zm-13.121094 15.257812-11.832031 27.65625-11.832031-27.65625zm-67.832031 40c-.050781-17.328125 11.140625-32.6875 27.648438-37.953125l20.351562 47.554687v30.398438h-48zm112 40h-48v-30.398438l20.351562-47.585937c16.519532 5.269531 27.714844 20.644531 27.648438 37.984375zm0 0" data-original="#000000" class="active-path" data-old_color="#000000" fill="#4A5D6A"/><path d="m256 416h16v16h-16zm0 0" data-original="#000000" class="active-path" data-old_color="#000000" fill="#4A5D6A"/><path d="m272 328v-16c4.417969 0 8-3.582031 8-8v-8c-.027344-22.082031-17.917969-39.972656-40-40h-16c-22.082031.027344-39.972656 17.917969-40 40v8c0 4.417969 3.582031 8 8 8v16c0 22.089844 17.910156 40 40 40s40-17.910156 40-40zm-48-56h16c13.253906 0 24 10.746094 24 24h-30.113281l-14.3125-7.199219c-3.078125-1.539062-6.796875-.933593-9.230469 1.503907l-5.65625 5.695312h-4.6875c0-13.253906 10.746094-24 24-24zm8 80c-13.253906 0-24-10.746094-24-24v-16c2.121094 0 4.15625-.84375 5.65625-2.34375l3.917969-3.921875 10.851562 5.425781c1.109375.554688 2.332031.839844 3.574219.839844h24v16c0 13.253906-10.746094 24-24 24zm0 0" data-original="#000000" class="active-path" data-old_color="#000000" fill="#4A5D6A"/><path d="m416.953125 368.742188c-2.960937-.488282-5.953125-.738282-8.953125-.742188h-32c-30.890625.085938-55.914062 25.109375-56 56v40c0 8.835938 7.164062 16 16 16h112c8.835938 0 16-7.164062 16-16v-40c.105469-27.507812-19.875-50.976562-47.046875-55.257812zm-13.121094 15.257812-11.832031 27.65625-11.832031-27.65625zm-67.832031 40c-.050781-17.328125 11.140625-32.6875 27.648438-37.953125l20.351562 47.554687v30.398438h-48zm112 40h-48v-30.398438l20.351562-47.585937c16.519532 5.269531 27.714844 20.644531 27.648438 37.984375zm0 0" data-original="#000000" class="active-path" data-old_color="#000000" fill="#4A5D6A"/><path d="m416 416h16v16h-16zm0 0" data-original="#000000" class="active-path" data-old_color="#000000" fill="#4A5D6A"/><path d="m432 328v-16c4.417969 0 8-3.582031 8-8v-8c-.027344-22.082031-17.917969-39.972656-40-40h-16c-22.082031.027344-39.972656 17.917969-40 40v8c0 4.417969 3.582031 8 8 8v16c0 22.089844 17.910156 40 40 40s40-17.910156 40-40zm-48-56h16c13.253906 0 24 10.746094 24 24h-30.113281l-14.3125-7.199219c-3.078125-1.539062-6.796875-.933593-9.230469 1.503907l-5.65625 5.695312h-4.6875c0-13.253906 10.746094-24 24-24zm8 80c-13.253906 0-24-10.746094-24-24v-16c2.121094 0 4.15625-.84375 5.65625-2.34375l3.917969-3.921875 10.851562 5.425781c1.109375.554688 2.332031.839844 3.574219.839844h24v16c0 13.253906-10.746094 24-24 24zm0 0" data-original="#000000" class="active-path" data-old_color="#000000" fill="#4A5D6A"/><path d="m96.953125 368.742188c-2.960937-.488282-5.953125-.738282-8.953125-.742188h-32c-30.890625.085938-55.9140625 25.109375-56 56v40c0 8.835938 7.164062 16 16 16h112c8.835938 0 16-7.164062 16-16v-40c.105469-27.507812-19.875-50.976562-47.046875-55.257812zm-13.121094 15.257812-11.832031 27.65625-11.832031-27.65625zm-67.832031 40c-.050781-17.328125 11.140625-32.6875 27.648438-37.953125l20.351562 47.554687v30.398438h-48zm112 40h-48v-30.398438l20.351562-47.585937c16.519532 5.269531 27.714844 20.644531 27.648438 37.984375zm0 0" data-original="#000000" class="active-path" data-old_color="#000000" fill="#4A5D6A"/><path d="m96 416h16v16h-16zm0 0" data-original="#000000" class="active-path" data-old_color="#000000" fill="#4A5D6A"/><path d="m112 328v-16c4.417969 0 8-3.582031 8-8v-8c-.027344-22.082031-17.917969-39.972656-40-40h-16c-22.082031.027344-39.972656 17.917969-40 40v8c0 4.417969 3.582031 8 8 8v16c0 22.089844 17.910156 40 40 40s40-17.910156 40-40zm-48-56h16c13.253906 0 24 10.746094 24 24h-30.113281l-14.3125-7.199219c-3.078125-1.539062-6.796875-.933593-9.230469 1.503907l-5.65625 5.695312h-4.6875c0-13.253906 10.746094-24 24-24zm8 80c-13.253906 0-24-10.746094-24-24v-16c2.121094 0 4.15625-.84375 5.65625-2.34375l3.917969-3.921875 10.851562 5.425781c1.109375.554688 2.332031.839844 3.574219.839844h24v16c0 13.253906-10.746094 24-24 24zm0 0" data-original="#000000" class="active-path" data-old_color="#000000" fill="#4A5D6A"/><path d="m80 224h144v16h16v-16h144v16h16v-16c0-8.835938-7.164062-16-16-16h-144v-16h-16v16h-144c-8.835938 0-16 7.164062-16 16v16h16zm0 0" data-original="#000000" class="active-path" data-old_color="#000000" fill="#4A5D6A"/><path d="m96 176h272c4.417969 0 8-3.582031 8-8v-160c0-4.417969-3.582031-8-8-8h-272c-4.417969 0-8 3.582031-8 8v160c0 4.417969 3.582031 8 8 8zm55.359375-160h161.28125c3.566406 24.527344 22.832031 43.792969 47.359375 47.359375v17.28125c-24.527344 3.566406-43.792969 22.832031-47.359375 47.359375h-161.28125c-3.566406-24.527344-22.832031-43.792969-47.359375-47.359375v-17.28125c24.527344-3.566406 43.792969-22.832031 47.359375-47.359375zm208.640625 112h-31.199219c3.230469-15.699219 15.5-27.96875 31.199219-31.199219zm-224.800781 0h-31.199219v-31.199219c15.699219 3.230469 27.96875 15.5 31.199219 31.199219zm224.800781 32h-256v-16h256zm0-144v31.199219c-15.699219-3.230469-27.96875-15.5-31.199219-31.199219zm-256 0h31.199219c-3.230469 15.699219-15.5 27.96875-31.199219 31.199219zm0 0" data-original="#000000" class="active-path" data-old_color="#000000" fill="#4A5D6A"/><path d="m232 112c22.089844 0 40-17.910156 40-40s-17.910156-40-40-40-40 17.910156-40 40c.027344 22.082031 17.917969 39.972656 40 40zm0-64c13.253906 0 24 10.746094 24 24s-10.746094 24-24 24-24-10.746094-24-24 10.746094-24 24-24zm0 0" data-original="#000000" class="active-path" data-old_color="#000000" fill="#4A5D6A"/></g> </svg>
