<svg width="203" height="255" viewBox="0 0 203 255" fill="none" xmlns="http://www.w3.org/2000/svg">
<path d="M147.192 109.437C134.639 120.479 118.065 127.511 100.491 127.511C82.9172 127.511 65.8532 120.989 53.8006 109.437C27.6848 118.478 7.60031 142.574 5.08975 171.7C4.68767 176.016 1.48082 210.565 1.07874 214.88C0.0686253 225.423 7.10015 234.965 17.6426 237.475C23.3698 238.633 69.1582 247.871 74.8854 249.028C78.9062 250.028 82.9172 250.528 87.4382 251.028C91.459 251.538 95.98 251.538 99.991 251.538C104.012 251.538 108.533 251.538 112.544 251.028C116.565 250.528 121.086 250.028 125.097 249.028C130.922 247.822 177.514 238.181 183.34 236.975C193.892 234.965 200.914 225.423 199.913 214.88C199.913 214.851 199.913 214.684 199.913 214.38C197.501 188.774 196.167 174.544 195.893 171.7C194.392 156.637 188.361 143.074 179.329 132.032C170.787 121.989 159.744 113.958 147.192 109.437Z" fill="white"/>
<path d="M99.9902 111.947C109.532 111.947 118.064 109.437 125.596 105.416C143.17 96.3837 155.223 77.7996 155.223 56.7148C155.223 26.0879 130.617 1.48242 99.9902 1.48242C69.3633 1.48242 44.7578 26.0879 44.7578 56.7148C44.7578 77.7996 56.8105 96.3837 74.3845 105.416C81.9161 109.437 90.9581 111.947 99.9902 111.947Z" fill="white"/>
</svg>
