<svg width="494" height="411" viewBox="0 0 494 411" fill="none" xmlns="http://www.w3.org/2000/svg">
<path d="M207.059 76.6139C189.292 76.6139 174.883 62.1944 174.883 44.4374C174.883 26.6705 189.292 12.251 207.059 12.251C232.165 12.251 433.067 12.251 458.183 12.251C475.95 12.251 490.379 26.6606 490.379 44.4374C490.379 62.1944 475.95 76.6139 458.183 76.6139C407.952 76.6139 232.165 76.6139 207.059 76.6139Z" fill="white"/>
<path d="M33.5691 86.3882C15.8022 86.3882 1.39258 71.9786 1.39258 54.2018C1.39258 52.1023 1.39258 35.2762 1.39258 33.1668C1.39258 15.3998 15.8022 0.990234 33.5691 0.990234C38.4812 0.990234 77.7289 0.990234 82.6311 0.990234C100.398 0.990234 114.808 15.3998 114.808 33.1668C114.808 35.2762 114.808 52.1023 114.808 54.2018C114.808 71.9786 100.398 86.3882 82.6311 86.3882C72.8167 86.3882 38.4812 86.3882 33.5691 86.3882Z" fill="white"/>
<path d="M207.059 236.545C189.292 236.545 174.883 222.136 174.883 204.379C174.883 186.612 189.292 172.192 207.059 172.192C232.165 172.192 433.067 172.192 458.183 172.192C475.95 172.192 490.379 186.612 490.379 204.379C490.379 222.136 475.95 236.545 458.183 236.545C407.952 236.545 232.165 236.545 207.059 236.545Z" fill="white"/>
<path d="M33.5691 247.073C15.8022 247.073 1.39258 232.663 1.39258 214.896C1.39258 212.797 1.39258 195.961 1.39258 193.861C1.39258 176.094 15.8022 161.685 33.5691 161.685C38.4812 161.685 77.7289 161.685 82.6311 161.685C100.398 161.685 114.808 176.094 114.808 193.861C114.808 195.961 114.808 212.797 114.808 214.896C114.808 232.663 100.398 247.073 82.6311 247.073C72.8167 247.073 38.4812 247.073 33.5691 247.073Z" fill="white"/>
<path d="M207.059 397.24C189.292 397.24 174.883 382.83 174.883 365.063C174.883 347.296 189.292 332.887 207.059 332.887C232.165 332.887 433.067 332.887 458.183 332.887C475.95 332.887 490.379 347.296 490.379 365.063C490.379 382.84 475.95 397.24 458.183 397.24C407.952 397.24 232.165 397.24 207.059 397.24Z" fill="white"/>
<path d="M33.5691 407.757C15.8022 407.757 1.39258 393.347 1.39258 375.581C1.39258 373.481 1.39258 356.665 1.39258 354.555C1.39258 336.789 15.8022 322.379 33.5691 322.379C38.4812 322.379 77.7289 322.379 82.6311 322.379C100.398 322.379 114.808 336.789 114.808 354.555C114.808 356.665 114.808 373.481 114.808 375.581C114.808 393.347 100.398 407.757 82.6311 407.757C72.8167 407.757 38.4812 407.757 33.5691 407.757Z" fill="white"/>
</svg>
