<?xml version="1.0" encoding="UTF-8" standalone="no"?>
<!DOCTYPE svg PUBLIC "-//W3C//DTD SVG 1.1//EN" "http://www.w3.org/Graphics/SVG/1.1/DTD/svg11.dtd">
<svg version="1.1" xmlns="http://www.w3.org/2000/svg" xmlns:xlink="http://www.w3.org/1999/xlink" preserveAspectRatio="xMidYMid meet" viewBox="89.63424 24.6 462.72640078529696 464.80000000000007" width="458.73" height="460.8"><defs><path d="M146.25 25.6C115.67 25.6 90.63 50.63 90.63 81.22C90.63 116.18 90.63 395.83 90.63 430.78C90.63 461.37 115.67 486.4 146.25 486.4C181 486.4 458.99 486.4 493.74 486.4C524.33 486.4 549.36 461.37 549.36 430.78C549.36 395.83 549.36 116.18 549.36 81.22C549.37 50.63 524.33 25.6 493.75 25.6C424.25 25.6 181 25.6 146.25 25.6ZM433.56 387.21C429.04 387.21 424.51 385.49 421.07 382.04C414.28 375.25 359.95 320.92 353.16 314.13C335.69 326.53 314.87 333.24 293.01 333.24C265.17 333.24 239 322.4 219.31 302.71C178.67 262.07 178.67 195.95 219.31 155.32C238.99 135.63 265.17 124.78 293.01 124.78C320.86 124.78 347.02 135.63 366.71 155.32C386.4 175 397.24 201.18 397.24 229.02C397.24 250.87 390.53 271.69 378.13 289.16C384.92 295.95 439.25 350.28 446.04 357.07C452.94 363.96 452.94 375.15 446.04 382.04C442.59 385.49 438.07 387.21 433.56 387.21Z" id="dBVRXzIN"></path><path d="M244.29 180.29C217.42 207.16 217.42 250.87 244.29 277.73C257.3 290.75 274.6 297.92 293.01 297.92C311.41 297.92 328.71 290.75 341.73 277.74C341.73 277.74 341.73 277.74 341.73 277.73C341.74 277.73 341.74 277.73 341.74 277.73C354.75 264.71 361.92 247.41 361.92 229.01C361.92 210.61 354.75 193.3 341.73 180.29C328.72 167.28 311.42 160.11 293.01 160.11C274.61 160.11 257.3 167.28 244.29 180.29Z" id="dcmVrzQQV"></path></defs><g><g><use xlink:href="#dBVRXzIN" opacity="1" fill="#4adee4" fill-opacity="1"></use><g><use xlink:href="#dBVRXzIN" opacity="1" fill-opacity="0" stroke="#000000" stroke-width="1" stroke-opacity="0"></use></g></g><g><use xlink:href="#dcmVrzQQV" opacity="1" fill="#4adee4" fill-opacity="1"></use><g><use xlink:href="#dcmVrzQQV" opacity="1" fill-opacity="0" stroke="#000000" stroke-width="1" stroke-opacity="0"></use></g></g></g></svg>