<?xml version="1.0"?>
<svg xmlns="http://www.w3.org/2000/svg" id="Layer_1" enable-background="new 0 0 512.019 512.019" height="512px" viewBox="0 0 512.019 512.019" width="512px" class=""><g><path d="m510.522 427.363-34.242-48c-1.501-2.104-3.927-3.354-6.513-3.354h-29.758v-16c3.884 0 8.118.59 10.821-3.819 1.454-2.373 1.571-5.331.308-7.812l-40-78.546c-2.959-5.808-11.29-5.825-14.258 0l-37.775 74.177h-16.312l-18.573-112.137c-2.527-15.999-14.027-28.439-28.938-32.57l-5.922-49.299c-.527-4.387-4.51-7.503-8.897-6.989-4.387.527-7.516 4.511-6.989 8.897l5.516 45.916h-45.963l21.717-180.782c.276-1.374 2.252-1.374 2.528 0l9.801 81.59c.526 4.386 4.508 7.504 8.897 6.989 4.387-.527 7.516-4.511 6.989-8.897l-9.822-81.761c-.975-8.208-8.125-14.957-17.129-14.957-8.984 0-16.153 6.733-17.129 14.957l-22.144 184.336c-14.91 4.129-26.409 16.56-28.929 32.511l-13.187 79.62c-.722 4.359 2.227 8.479 6.585 9.2 4.357.716 8.478-2.226 9.2-6.586l13.196-79.679c1.88-11.902 11.99-20.541 24.04-20.541h56.736c12.05 0 22.16 8.639 24.049 20.601l18.149 109.581h-34.587v-23.272c3.88 0 8.225.61 10.907-3.929 1.439-2.435 1.487-5.448.124-7.927l-40-72.728c-3.035-5.518-10.984-5.519-14.02 0l-40 72.728c-1.363 2.479-1.316 5.492.124 7.927 2.725 4.611 7.326 3.929 10.907 3.929v23.272h-67.117l-37.775-74.177c-2.959-5.808-11.29-5.825-14.258 0l-11.797 23.165c-2.005 3.938-.438 8.755 3.499 10.76 3.938 2.006 8.754.438 10.759-3.498l4.668-9.167 26.948 52.917h-53.895l9.433-18.521c2.005-3.938.438-8.755-3.499-10.76-3.936-2.001-8.754-.438-10.759 3.498l-15.356 30.153c-1.263 2.48-1.146 5.438.308 7.812 2.665 4.347 6.768 3.819 10.821 3.819v16h-29.757c-2.585 0-5.011 1.249-6.513 3.354l-34.242 48c-3.769 5.285.014 12.646 6.513 12.646h16v64c0 4.418 3.582 8 8 8h448c4.418 0 8-3.582 8-8v-44.33c0-4.418-3.582-8-8-8s-8 3.582-8 8v36.33h-168v-56h200c6.491 0 10.285-7.356 6.512-12.647zm-330.392-35.353h55.293l-23.466 32h-54.654zm75.879.448 23.903 31.551h-47.805zm44.054 31.552-23.466-32h55.293l22.828 32zm-35.2-48-2.403-3.276c-3.188-4.349-9.704-4.363-12.902 0l-2.403 3.276c-12.585 0-90.833 0-103.146 0v-16h224v16c-12.301 0-90.565 0-103.146 0zm159.146 0h-40v-16h40zm-20-84.917 26.948 52.917h-53.896zm-148-34.483 26.47 48.127h-52.939zm-19.979 64.127h39.958v23.272h-39.958zm-148.021 39.273h40v16h-40zm-48 136v-56h8.333c4.418 0 8-3.582 8-8s-3.582-8-8-8h-24.798l22.828-32h114.103l-22.828 32h-61.97c-4.418 0-8 3.582-8 8s3.582 8 8 8h132.333v34.325c0 4.418 3.582 8 8 8s8-3.582 8-8v-34.325h64v56zm334.363-72-22.828-32h114.103l22.828 32z" data-original="#000000" class="active-path" data-old_color="#000000" fill="#34B7F1"/><path d="m276.381 109.025c-4.387.527-7.516 4.511-6.989 8.897l1.334 11.108c.522 4.347 4.459 7.512 8.896 6.989 4.387-.527 7.516-4.511 6.989-8.897l-1.334-11.108c-.526-4.385-4.52-7.496-8.896-6.989z" data-original="#000000" class="active-path" data-old_color="#000000" fill="#34B7F1"/></g> </svg>
