<?xml version="1.0"?>
<svg xmlns="http://www.w3.org/2000/svg" height="512px" viewBox="0 0 480 480.00626" width="512px" class=""><g><path d="m312.003906 240.003906c-.050781-39.746094-32.257812-71.953125-72-72v16c30.914063.035156 55.964844 25.085938 56 56zm0 0" data-original="#000000" class="active-path" data-old_color="#000000" fill="#34B7F1"/><path d="m168.003906 240.003906c.046875 39.742188 32.253906 71.949219 72 72v-16c-30.914062-.035156-55.964844-25.085937-56-56zm0 0" data-original="#000000" class="active-path" data-old_color="#000000" fill="#34B7F1"/><path d="m251.402344 365.402344c1.648437-7.128906-.050782-14.621094-4.605469-20.34375-4.558594-5.726563-11.476563-9.058594-18.792969-9.054688h-68v-61.335937c-.03125-27.96875-22.695312-50.632813-50.664062-50.664063h-1.128906c-5.066407 0-9.921876 2.03125-13.480469 5.640625-3.558594 3.605469-5.519531 8.492188-5.449219 13.558594 1.394531 15.257813 1.453125 30.609375.167969 45.878906-2.515625 6.597657-5.84375 12.855469-9.902344 18.632813-6.585937 10.445312-14.542969 19.957031-23.65625 28.289062h-2.398437c-3.910157.007813-7.625 1.71875-10.167969 4.6875-3-3.007812-7.074219-4.695312-11.320313-4.6875h-24c-4.417968 0-7.99999975 3.582032-7.99999975 8v128c0 4.417969 3.58203175 8 7.99999975 8h24c4.230469.003906 8.289063-1.679687 11.277344-4.671875 2.507812 2.953125 6.183594 4.660157 10.058594 4.671875h173.773437c11.429688.179688 21.488281-7.519531 24.289063-18.601562 1.710937-7.628906-.40625-15.617188-5.671875-21.398438 2.808593-2.96875 4.765625-6.640625 5.671875-10.625 1.703125-7.625-.414063-15.597656-5.671875-21.375 2.808593-2.96875 4.765625-6.640625 5.671875-10.625 1.703125-7.625-.414063-15.597656-5.671875-21.375 2.804687-2.964844 4.761719-6.625 5.671875-10.601562zm-235.398438 98.601562v-112h16v112zm212-80c2.121094-.003906 4.152344.839844 5.648438 2.34375 1.988281 1.972656 2.796875 4.84375 2.136718 7.566406-1.175781 3.761719-4.738281 6.261719-8.675781 6.089844h-27.109375v16h28c2.121094-.003906 4.152344.839844 5.648438 2.34375 1.988281 1.972656 2.796875 4.84375 2.136718 7.566406-1.175781 3.761719-4.738281 6.261719-8.675781 6.089844h-27.109375v16h28c2.121094-.003906 4.152344.839844 5.648438 2.34375 1.988281 1.972656 2.796875 4.84375 2.136718 7.566406-1.175781 3.761719-4.738281 6.261719-8.675781 6.089844h-171.109375v-112h2.953125c1.941407 0 3.820313-.710937 5.277344-1.992187 11.234375-9.839844 20.984375-21.257813 28.945313-33.898438 5.136718-7.207031 9.148437-15.152343 11.894531-23.566406 1.582031-16.585937 1.644531-33.28125.191406-49.878906.082031-1.546875 1.398437-2.738281 2.945313-2.664063h1.128906c19.132812.019532 34.640625 15.527344 34.664062 34.664063v69.335937c0 4.417969 3.582032 8 8 8h76c2.121094-.003906 4.152344.839844 5.648438 2.34375 1.988281 1.972656 2.796875 4.84375 2.136718 7.566406-1.175781 3.761719-4.738281 6.261719-8.675781 6.089844h-27.109375v16zm0 0" data-original="#000000" class="active-path" data-old_color="#000000" fill="#34B7F1"/><path d="m472.003906.00390625h-24c-4.230468-.00390625-8.292968 1.67578175-11.28125 4.67187475-2.507812-2.953125-6.179687-4.660156-10.054687-4.67187475h-173.777344c-11.429687-.18359425-21.484375 7.51562475-24.289063 18.59765575-1.707031 7.632813.410157 15.617188 5.671876 21.402344-2.804688 2.96875-4.765626 6.636719-5.671876 10.625-1.699218 7.621094.417969 15.597656 5.671876 21.375-2.804688 2.96875-4.765626 6.636719-5.671876 10.625-1.699218 7.621094.417969 15.597656 5.671876 21.375-2.804688 2.96875-4.765626 6.636719-5.671876 10.625-1.636718 7.125.0625 14.609375 4.621094 20.328125 4.554688 5.71875 11.46875 9.050781 18.78125 9.046875h68v61.335938c.03125 27.96875 22.695313 50.632812 50.664063 50.664062h1.128906c5.066406 0 9.921875-2.03125 13.480469-5.640625 3.554687-3.609375 5.519531-8.492187 5.445312-13.558593-1.394531-15.261719-1.449218-30.613282-.167968-45.882813 2.519531-6.59375 5.847656-12.851563 9.90625-18.628906 6.585937-10.445313 14.539062-19.960938 23.652343-28.289063h2.402344c3.910156-.007812 7.621094-1.71875 10.167969-4.6875 2.996094 3.007813 7.074218 4.695313 11.320312 4.6875h24c4.417969 0 8-3.582031 8-8v-128c0-4.417968-3.582031-7.99999975-8-7.99999975zm-48 127.99999975h-2.953125c-1.941406 0-3.820312.707032-5.28125 1.992188-11.234375 9.839844-20.984375 21.257812-28.941406 33.894531-5.136719 7.207031-9.148437 15.15625-11.898437 23.570313-1.578126 16.585937-1.640626 33.28125-.191407 49.878906-.082031 1.546875-1.394531 2.734375-2.941406 2.664062h-1.128906c-19.136719-.023437-34.644531-15.53125-34.664063-34.664062v-69.335938c0-4.417968-3.582031-8-8-8h-76c-2.121094.003906-4.15625-.839844-5.648437-2.34375-1.988281-1.976562-2.800781-4.847656-2.136719-7.570312 1.175781-3.761719 4.734375-6.257813 8.671875-6.085938h27.113281v-16h-28c-2.121094.003906-4.15625-.839844-5.648437-2.34375-1.988281-1.976562-2.800781-4.847656-2.136719-7.570312 1.175781-3.761719 4.734375-6.257813 8.671875-6.085938h27.113281v-16h-28c-2.121094.003906-4.15625-.839844-5.648437-2.34375-1.988281-1.976562-2.800781-4.847656-2.136719-7.570312 1.175781-3.761719 4.734375-6.257813 8.671875-6.085938h27.113281v-16h-28c-2.121094.003906-4.15625-.839844-5.648437-2.34375-1.988281-1.976562-2.800781-4.847656-2.136719-7.570312 1.175781-3.761719 4.734375-6.257813 8.671875-6.085938h171.113281zm40 0h-16v-112h16zm0 0" data-original="#000000" class="active-path" data-old_color="#000000" fill="#34B7F1"/><path d="m425.460938 190.308594c27.445312 102.421875-33.335938 207.703125-135.761719 235.152344l4.136719 15.453124c110.960937-29.730468 176.808593-143.78125 147.078124-254.742187zm0 0" data-original="#000000" class="active-path" data-old_color="#000000" fill="#34B7F1"/><path d="m54.546875 289.699219c-27.445313-102.425781 33.335937-207.707031 135.761719-235.152344l-4.136719-15.457031c-110.960937 29.734375-176.8125 143.785156-147.082031 254.746094zm0 0" data-original="#000000" class="active-path" data-old_color="#000000" fill="#34B7F1"/></g> </svg>
