<svg id="Layer_1" enable-background="new 0 0 490.648 490.648" viewBox="0 0 490.648 490.648" xmlns="http://www.w3.org/2000/svg"><g><g><g><path d="m309.195 245.43h-10.667v21.333h10.667c5.867 0 10.667-4.779 10.667-10.667s-4.8-10.666-10.667-10.666z"/><path d="m490.08 188.556c-1.323-3.84-4.693-6.613-8.704-7.147l-154.496-20.48-72.021-144.384c-1.792-3.605-5.504-5.888-9.536-5.888s-7.723 2.283-9.536 5.909l-72.043 144.363-154.474 20.48c-4.011.533-7.403 3.307-8.704 7.147-1.301 3.84-.32 8.085 2.56 10.965l113.301 113.301-30.869 154.39c-.789 4.011.747 8.085 3.989 10.581 3.243 2.496 7.637 2.88 11.243 1.067l144.555-72.277 144.555 72.277c1.515.747 3.136 1.131 4.779 1.131 2.283 0 4.587-.747 6.485-2.197 3.221-2.475 4.779-6.571 3.989-10.581l-30.869-154.389 113.301-113.301c2.815-2.861 3.797-7.127 2.495-10.967zm-266.901 49.984-32 85.333c-1.557 4.16-5.547 6.912-9.984 6.912s-8.427-2.752-9.984-6.912l-32-85.333c-2.091-5.525.704-11.669 6.229-13.739 5.483-2.027 11.669.725 13.739 6.229l22.016 58.709 22.016-58.709c2.069-5.525 8.235-8.277 13.739-6.229 5.525 2.069 8.298 8.192 6.229 13.739zm32.683 81.557c0 5.888-4.779 10.667-10.667 10.667s-10.667-4.779-10.667-10.667v-85.333c0-5.888 4.779-10.667 10.667-10.667s10.667 4.779 10.667 10.667zm53.333-32h-10.667v32c0 5.888-4.779 10.667-10.667 10.667s-10.667-4.779-10.667-10.667v-85.333c0-5.888 4.779-10.667 10.667-10.667h21.333c17.643 0 32 14.357 32 32 .001 17.664-14.356 32-31.999 32z"/></g></g></g><g/><g/><g/><g/><g/><g/><g/><g/><g/><g/><g/><g/><g/><g/><g/></svg>