<?xml version="1.0"?>
<svg xmlns="http://www.w3.org/2000/svg" height="512px" viewBox="0 0 512 512" width="512px" class=""><g><path d="m512 256c0 141.386719-114.613281 256-256 256s-256-114.613281-256-256 114.613281-256 256-256 256 114.613281 256 256zm0 0" fill="#fc1f80" data-original="#FC1F80" class=""/><path d="m512 256c0-6.644531-.253906-13.230469-.75-19.75l-75.75-75.75-359 45.636719 119.066406 119.066406-119.066406 26.296875 159.75 159.75c6.515625.496094 13.105469.75 19.75.75 141.386719 0 256-114.613281 256-256zm0 0" fill="#af1154" data-original="#AF1154" class=""/><path d="m393 256c0-25.167969 18.410156-46.027344 42.5-49.863281v-45.636719h-359v45.636719c24.089844 3.835937 42.5 24.695312 42.5 49.863281s-18.410156 46.027344-42.5 49.863281v45.636719h359v-45.636719c-24.089844-3.835937-42.5-24.695312-42.5-49.863281zm0 0" fill="#fee900" data-original="#FEE900" class=""/><path d="m435.5 206.136719v-45.636719h-179.953125v191h179.953125v-45.636719c-24.089844-3.835937-42.5-24.695312-42.5-49.863281s18.410156-46.027344 42.5-49.863281zm0 0" fill="#fed500" data-original="#FED500" class=""/><path d="m170.34375 207.96875 25.898438 72.4375 25.628906-72.4375h19.5625l-37.367188 95.777344h-15.648437l-37.636719-95.777344zm0 0" fill="#6e79e4" data-original="#6E79E4"/><path d="m246.691406 303.746094v-95.640625h18.617188v95.640625zm0 0" fill="#6e79e4" data-original="#6E79E4"/><g fill="#2038da"><path d="m255.546875 208.105469h9.761719v95.640625h-9.761719zm0 0" data-original="#2038DA" class="active-path"/><path d="m290.128906 303.746094v-95.777344h40.601563c4.40625 0 8.476562.921875 12.210937 2.765625 3.730469 1.84375 6.945313 4.273437 9.644532 7.285156 2.695312 3.011719 4.808593 6.429688 6.339843 10.25 1.527344 3.824219 2.292969 7.667969 2.292969 11.535157 0 4.046874-.722656 7.980468-2.160156 11.804687s-3.460938 7.214844-6.070313 10.183594c-2.605469 2.96875-5.753906 5.351562-9.441406 7.148437-3.6875 1.800782-7.734375 2.699219-12.140625 2.699219h-22.664062v32.105469zm18.613282-48.429688h21.582031c3.417969 0 6.273437-1.394531 8.566406-4.179687 2.292969-2.789063 3.441406-6.566407 3.441406-11.332031 0-2.429688-.359375-4.609376-1.078125-6.542969-.722656-1.933594-1.667968-3.574219-2.835937-4.921875-1.167969-1.351563-2.539063-2.363282-4.113281-3.035156-1.574219-.675782-3.167969-1.015626-4.789063-1.015626h-20.773437zm0 0" data-original="#2038DA" class="active-path"/></g></g> </svg>
