<?xml version="1.0" encoding="UTF-8" standalone="no"?>
<!DOCTYPE svg PUBLIC "-//W3C//DTD SVG 1.1//EN" "http://www.w3.org/Graphics/SVG/1.1/DTD/svg11.dtd">
<svg version="1.1" xmlns="http://www.w3.org/2000/svg" xmlns:xlink="http://www.w3.org/1999/xlink" preserveAspectRatio="xMidYMid meet" viewBox="88.62600935877671 24.60125132282453 464.77462650682094 464.77273931839886" width="460.77" height="460.77"><defs><path d="M497.96 34.6C486.09 46.46 426.77 105.78 320 212.56C213.23 105.78 153.91 46.46 142.04 34.6C130.03 22.61 110.58 22.64 98.6 34.65C86.64 46.64 86.64 66.05 98.6 78.04C110.46 89.91 169.78 149.23 276.56 256C169.78 362.77 110.46 422.09 98.6 433.96C86.61 445.97 86.64 465.42 98.65 477.4C110.64 489.36 130.05 489.36 142.04 477.4C153.91 465.54 213.23 406.22 320 299.44C426.77 406.22 486.09 465.54 497.96 477.4C509.97 489.39 529.42 489.36 541.4 477.35C553.36 465.36 553.36 445.95 541.4 433.96C529.54 422.09 470.22 362.77 363.44 256C470.22 149.23 529.54 89.91 541.4 78.04C553.4 66.05 553.4 46.6 541.4 34.6C541.4 34.6 541.4 34.6 541.4 34.6C529.4 22.6 509.96 22.6 497.96 34.6Z" id="b4rknqf5q"></path></defs><g><g><use xlink:href="#b4rknqf5q" opacity="1" fill="#4adee4" fill-opacity="1"></use><g><use xlink:href="#b4rknqf5q" opacity="1" fill-opacity="0" stroke="#000000" stroke-width="1" stroke-opacity="0"></use></g></g></g></svg>