<?xml version="1.0" encoding="utf-8"?>
<!-- Generator: Adobe Illustrator 24.0.2, SVG Export Plug-In . SVG Version: 6.00 Build 0)  -->
<svg version="1.1" id="Layer_2" xmlns="http://www.w3.org/2000/svg" xmlns:xlink="http://www.w3.org/1999/xlink" x="0px" y="0px"
	 viewBox="0 0 3500 2000" style="enable-background:new 0 0 3500 2000;" xml:space="preserve">
<style type="text/css">
	.st0{fill:#DDE8FD;}
	.st1{fill:#CCE0FF;}
	.st2{fill:#D4F1FF;}
	.st3{fill:#4D60B3;}
	.st4{fill:#10ACC1;}
	.st5{fill:#81ACEF;}
	.st6{fill:#ADC9F7;}
	.st7{fill:#3A8DCD;}
	.st8{fill:#4BC8CF;}
	.st9{fill:#35217D;}
	.st10{fill:#FCBBA4;}
	.st11{fill:#EAA488;}
	.st12{fill:#1D0F60;}
	.st13{fill:#211E57;}
	.st14{fill:#48C5D5;}
	.st15{fill:#34B3C7;}
	.st16{fill:#A9C2F6;}
	.st17{fill:#6952CF;}
	.st18{fill:#4947BA;}
	.st19{fill:#3E3CAB;}
	.st20{fill:#93B3F4;}
	.st21{fill:#FFFFFF;}
	.st22{fill:#482FC1;}
	.st23{fill:#3662C1;}
	.st24{fill:#311C7A;}
	.st25{fill:#36BFD1;}
	.st26{fill:#4CC6D6;}
	.st27{fill:#583EC9;}
	.st28{fill:#C6CDF4;}
	.st29{fill:#CFDEFA;}
	.st30{fill:#FCBDA6;}
	.st31{fill:#EBA78D;}
	.st32{fill:#3981C4;}
	.st33{opacity:0.4;fill:#583EC9;}
</style>
<g>
	<path class="st0" d="M3326.15,1326.5c-64.82,47.55-170.78,60.96-290.86,39.04c-193.55-35.3-369.64-152.83-406.08-213.6
		c-27.99-46.53-34.43-102.54-27.43-161.65c10.25-86.82,139.22-499.44,392.14-562.07c91.41-22.63,212.21-8.2,344.97,124.27
		c84.16,83.43,114.18,200.97,117.23,322.32C3460.25,1031.53,3411.23,1264.17,3326.15,1326.5z"/>
	<path class="st1" d="M3173.33,1965.98H12.84c-15.36-154.98,6.58-361.47,71.77-522.47c87.23-215.68,271.86-416.32,657.42-412.28
		c828.4,8.68,764.83-466.53,1344.7-496.94c236.16-12.39,380.15,211.85,337.68,532.21
		C2352.58,1608.42,3162.82,1215.56,3173.33,1965.98z"/>
	<g>
		<path class="st2" d="M1507.28,802.92h-87.38c-22.99,0-41.8,19.89-41.8,44.19v76.11c0,24.3,18.81,44.19,41.8,44.19h87.38
			c22.99,0,41.79-19.89,41.79-44.19v-76.11C1549.07,822.81,1530.27,802.92,1507.28,802.92z"/>
		<g>
			<polygon class="st3" points="1394.66,850.58 1512.88,839.79 1451.13,882.2 			"/>
			<polygon class="st4" points="1455.18,949.43 1512.88,839.79 1451.01,882.01 			"/>
		</g>
	</g>
	<g>
		<g>
			<path class="st5" d="M1563.1,1071.14h-182.79c0,0-81.04,5.8-51.95,149.67c29.09,143.87,124.68,435.45,95.59,523.64h203.64
				L1563.1,1071.14z"/>
			<path class="st6" d="M1976.04,1597.66c-24.2-125.61-63.15-337.49-83.81-450.38c-8.09-44.22-44.71-76.15-87.31-76.15h-287.53
				c-55.19,0-97.06,52.6-87.62,110.1l79.63,485.25c8.03,48.93,50.67,82.83,97.36,77.39l291.87-34
				C1950.63,1703.82,1986.48,1651.86,1976.04,1597.66z"/>
		</g>
		<g>
			<path class="st7" d="M1204.09,1772.18c-5.81,70.19-43.3,91.86-59.77,90c-16.49-1.86-112.9-40.78-114.99-26.5
				c-2.1,14.28,55.93,60.94,96.56,63.12c0,0-76.73,89.47-127.71,63.65c-51-25.82-55.34-66.75-87.13-82.1
				c-31.79-15.35-58.92-15.31-45.79,0.35c13.12,15.65,70.65,30.86,88.82,64.87c4.29,8.02,8.48,15.43,11.69,21.96l-107.36-0.23
				c-34.04-17.88-62.72-42.55-64.86-69.15c-0.17-2.03-0.32-3.97-0.46-5.82c-3.31-40.91-3.31-40.91-3.31-40.91
				s-55.13-68-26.47-124.41c4.75-9.37,11.83-18.42,21.85-26.8c0,0,51.38-32.89,93.28-30.21c0,0-32.47,57.56-41.61,91.77
				c-3.23,12.06-3.55,21.22,1.45,23.94c5.47,2.99,12.56-5.69,19.89-19.62c18.36-34.87,38.26-102.7,38.26-102.7
				s30.89-3.17,66.05-3.64c15.77-0.22,32.4,0.11,47.49,1.5c16.66,1.54,31.41,4.4,41,9.28c0,0-2.1,1.81-5.63,4.93
				c-5.24,4.65-13.64,12.18-22.99,20.92c-27.73,25.93-63.76,62.49-50.29,65.79c10.9,2.67,45.13-18.83,75.58-40.17
				c28.36-19.85,53.43-39.57,53.43-39.57S1209.89,1701.99,1204.09,1772.18z"/>
			<g>
				<path class="st7" d="M1150.62,1774.08c0,0-295.58-12.04-360.85,77.33c0,0-14.44,45.71-58.86,87.34l-6.92,19.95
					c0,0,51.22-57.1,69.55-60.55C793.54,1898.15,764.88,1787.42,1150.62,1774.08z"/>
				<path class="st7" d="M743.34,1938.23c-2.54,2.94-6.33,6.94-11.76,12.23l-0.12,0.12c-1.88,1.84-3.72,3.83-5.5,5.95
					c-2.74,3.21-5.37,6.72-7.88,10.46l-13.81-0.03c14.22-18.5,26.64-28.22,26.64-28.22s0.01-0.01,0.04-0.03
					C732.03,1938.03,757.48,1921.76,743.34,1938.23z"/>
			</g>
		</g>
		<g>
			<path class="st8" d="M467.11,1735.12c0,0,119.25-70.61,63.6-166.43c0,0-44.52-58.84-92.22-73.97c0,0,25.44,142.89,0,146.26
				c-25.44,3.36-17.49-161.39-17.49-161.39s-125.61-63.88-174.9-58.84c0,0,77.91,139.53,52.47,136.17
				c-25.44-3.36-112.89-144.57-112.89-144.57s-128.79-25.22-149.46,55.48c-20.67,80.69,12.72,121.04,31.8,126.08
				c19.08,5.04,141.51,3.36,138.33,20.17c-3.18,16.81-85.86,43.71-131.97,28.58c0,0,50.88,132.81,117.66,126.08
				c66.78-6.73,87.45-50.43,128.79-53.8c41.34-3.36,71.55,8.4,50.88,20.17c-20.67,11.77-90.63,3.85-124.02,33.87
				c-33.39,30.01-60.42,48.5,1.59,61.95c62.01,13.45,173.31,5.04,195.57-45.39C467.11,1735.12,467.11,1735.12,467.11,1735.12z"/>
			<g>
				<path class="st7" d="M95.05,1493.04c0,0,333.9,114.32,372.06,242.08c0,0-1.59,57.16,31.8,122.72v25.22
					c0,0-34.98-85.74-54.06-97.5C444.85,1785.55,519.58,1674.6,95.05,1493.04z"/>
				<path class="st7" d="M529.84,1966.72l-19.08-0.04c-0.6-29.18-3.79-61.94-13.21-86.89c0-0.01,0-0.01,0-0.01
					c-1.18-3.13-2.45-6.12-3.83-8.98c-0.01-0.03-0.02-0.07-0.04-0.09c-3.96-8.2-6.64-14.24-8.33-18.62l-0.01-0.01
					c-9.76-25.31,13.57,5.77,13.57,5.77S526.89,1902.78,529.84,1966.72z"/>
			</g>
		</g>
		<g>
			<path class="st8" d="M656.83,1637.74c0,0-157.19-93.07-83.84-219.39c0,0,58.69-77.56,121.56-97.5c0,0-33.53,188.36,0,192.79
				c33.53,4.43,23.06-212.74,23.06-212.74s165.58-84.21,230.55-77.56c0,0-102.7,183.93-69.16,179.5
				c33.53-4.43,148.81-190.58,148.81-190.58s169.77-33.24,197.02,73.13c27.25,106.37-16.77,159.55-41.92,166.2
				c-25.15,6.65-186.54,4.43-182.34,26.59c4.19,22.16,113.18,57.61,173.96,37.67c0,0-67.07,175.07-155.1,166.2
				c-88.03-8.86-115.27-66.48-169.77-70.91c-54.49-4.43-94.32,11.08-67.07,26.59c27.24,15.51,119.47,5.08,163.48,44.65
				c44.01,39.56,79.65,63.94-2.09,81.67c-81.74,17.73-228.45,6.65-257.8-59.83C656.83,1637.74,656.83,1637.74,656.83,1637.74z"/>
			<g>
				<path class="st7" d="M1147.27,1318.64c0,0-440.14,150.69-490.44,319.11c0,0,2.1,75.35-41.92,161.77v33.24
					c0,0,46.11-113.02,71.26-128.53C686.17,1704.22,587.66,1557.97,1147.27,1318.64z"/>
				<path class="st7" d="M632.81,1791.87c-0.01,0.03-0.02,0.04-0.02,0.05c-2.23,5.79-5.77,13.78-10.99,24.6
					c-0.01,0.03-0.03,0.04-0.04,0.07c-1.82,3.75-3.48,7.71-5.04,11.81c-0.01,0-0.01,0.01-0.01,0.03
					c-15.07,39.92-18.05,95.02-17.49,138.44l-25.25-0.05c-3.01-96.71,40.95-167.31,40.95-167.31s0,0,0.01-0.01
					C615.59,1798.61,645.51,1758.95,632.81,1791.87z"/>
			</g>
		</g>
		<g>
			<path class="st9" d="M2049.78,1203.81l47.71,530.3c0,0-54.19,61.18-268.73,82.16c-5.35,0.56-10.78,1.08-16.36,1.53
				c-123.13,10.52-168.84-157.44-184.83-314.21c-13.65-133.7-5.67-259.26-5.67-259.26
				C1909.36,1116.36,2049.78,1203.81,2049.78,1203.81z"/>
			<path class="st9" d="M2517.9,1625.61c-42.59,20.9-295.86,38.45-320.19,31.04c-12.48-3.81-64.69-52.44-117.23-112.26
				c-0.05-0.04-0.05-0.04-0.05-0.04c-49.71-56.59-99.83-123.19-116.74-171.12c-34.77-98.5-4.88-185.95-4.88-185.95
				s64.62-0.29,90.97,16.53c26.35,16.86,176.98,310.18,197.12,317.92c20.14,7.78,258.76,22.2,286.07,35.91
				C2532.98,1557.64,2560.44,1604.71,2517.9,1625.61z"/>
			<path class="st10" d="M1900.33,1186.63l-0.06,16.58c0,0,4.35,51.85-56.04,59.53c-60.39,7.69-106.18-20.05-104.61-60.07
				c5.4-31,11.34-52.28,11.7-77.92c0.13-9.53-0.5-19.64-2.19-31.05l117.03-2.66l34.48,5.9L1900.33,1186.63z"/>
			<path class="st11" d="M1900.64,1096.93l-0.32,89.7c-12.42,6.13-26.44,9.89-42.17,9.91c-53.79,0.09-107.33-91.44-109.02-102.85
				L1900.64,1096.93z"/>
			<path class="st10" d="M1907.54,1140.51c0,0-149.85,32.26-167.41-66.72c-17.57-98.97-48.73-161.47,46.2-186.25
				c94.93-24.78,120.28,9.29,133.74,40.82C1933.52,959.88,1946.06,1129.56,1907.54,1140.51z"/>
			<path class="st12" d="M1949.1,854.76c0,0-41.8-3.33-91.14-25.91c-40.04-18.33-90.5,2.01-106.87,11.17
				c0.44-2.79,1.49-6.61,3.98-10.43c0,0-7.35,5.53-8.42,13.24c-0.76,0.59-1.09,1-0.9,1.13c0,0-8.34-1.6-13.7,0.96
				c0,0,3.75-0.57,5.09,1.97c0.14,0.27,0.35,0.5,0.6,0.7c-62.38,31.99-67.98,136.3-47.86,160.4c24.21,29,53.29,94.34,53.29,94.34
				s10.54-15.47,6.11-41.01c-4.43-25.54,16.44-25.58,42.79-37.23c26.35-11.66,4.33-44.14,27.37-63.93
				c23.04-19.78,107.64-8.3,106.52-23.4C1957.33,924.61,1949.11,858.16,1949.1,854.76z"/>
			<path class="st13" d="M1828.76,1816.27c-5.35,0.56-10.78,1.08-16.36,1.53c-123.13,10.52-168.84-157.44-184.83-314.21
				C1642.46,1511.33,1844.32,1619.96,1828.76,1816.27z"/>
			<path class="st10" d="M1719.54,1669.97c0,0,43.42-29.79,57.79-27.08c14.37,2.71,73.14,20.96,81.22,31.12
				c12.59,15.84,34.82,41.02,22.16,43.69c-12.66,2.67-124.46,8.6-137.34,7.43C1730.47,1723.97,1700.44,1710.7,1719.54,1669.97z"/>
			<path class="st9" d="M1674.62,1225.96c0,0-90.62,21.44-135.99,76.53c-41.24,50.07-160.69,294.56-193.57,382.5
				c-5.24,14.01,9.5,44.48,21.36,52.82c29.69,20.9,90.82,36.06,242.06,9.68l135.19-20.84c0,0,9.87-64.21-19.53-77.6l-218.91-3.21
				c0,0,125.39-137.21,149.61-176.65C1679.07,1429.75,1674.62,1225.96,1674.62,1225.96z"/>
			<path class="st13" d="M2517.9,1625.61c-42.59,20.9-295.86,38.45-320.19,31.04c-12.48-3.81-64.69-52.44-117.23-112.26
				c2.59,0.36,85.24,12.8,136.16,59.34c0,0,28.69,13.5,106.76,5.94C2401.47,1602.12,2501.73,1599.34,2517.9,1625.61z"/>
			<path class="st3" d="M1689.67,1217.03c0,0-94.82,22.4-125.95,50.16c-31.13,27.76-25.09,35.3-25.09,35.3s11.97,19.18,60.17-1.88
				c48.2-21.06,111.32-62.71,111.32-62.71S1708.2,1217.59,1689.67,1217.03z"/>
			<path class="st3" d="M1918.27,1174.77c0,0,5.71,14.57,14.36,16.55c8.65,1.98,94.59,26.46,105.87,19.47
				c11.28-6.98-20.24-35.41-65.55-37.44C1927.64,1171.32,1918.27,1174.77,1918.27,1174.77z"/>
		</g>
		<g>
			<path class="st14" d="M2269.08,1698.42h-289.54l0,0c0-13.48,10.33-24.4,23.08-24.4h266.46V1698.42z"/>
			<polygon class="st14" points="2268.25,1365.01 2715.9,1365.01 2608.53,1698.42 2157.97,1698.42 			"/>
			<polygon class="st15" points="2722.49,1365 2615.12,1698.42 2164.56,1698.42 2274.84,1365 			"/>
			<path class="st16" d="M2481.15,1528.63c-2.78,12.74-14.8,23.06-26.85,23.06s-19.56-10.33-16.78-23.06
				c2.78-12.74,14.8-23.07,26.85-23.07C2476.42,1505.56,2483.93,1515.89,2481.15,1528.63z"/>
			<polygon class="st14" points="2722.49,1365 2615.12,1698.42 2405.52,1698.42 2656.57,1365 			"/>
		</g>
		<g>
			<g>
				<path class="st17" d="M2826.39,1965.99H1026.46l46.47-135.88c27.04-79.04,98.02-131.69,177.52-131.69h1404.47
					c58.51,0,109.95,40.96,126.1,100.43L2826.39,1965.99z"/>
				<path class="st18" d="M3185.95,1965.99H1449.91l-3.37-68.52c-5.33-108.21,76.22-199.04,178.71-199.04H3014.5
					c58.51,0,109.95,40.96,126.09,100.43L3185.95,1965.99z"/>
				<path class="st19" d="M3185.95,1965.99H2125.79c-58.9-108.06-112.55-205.49-147.95-267.56H3014.5
					c58.51,0,109.95,40.96,126.09,100.43L3185.95,1965.99z"/>
			</g>
		</g>
	</g>
	<g>
		<g>
			<path class="st20" d="M1800.92,494.63h-227.7c-32.28,0-58.69-26.41-58.69-58.69v-214.6c0-32.28,26.41-58.69,58.69-58.69h227.7
				c32.28,0,58.69,26.41,58.69,58.69v214.61C1859.61,468.22,1833.2,494.63,1800.92,494.63z"/>
			<g>
				<path class="st21" d="M1595.37,325.92c9.59,26.71,91.76,96.85,91.76,96.85s26.78-23.01,51.58-47.78
					c18.56-18.34,35.91-37.65,40.02-49.07c9.74-26.55-0.61-64.52-36.52-70.95c-35.76-6.44-55.09,33.14-55.09,33.14
					s-19.32-39.58-55.24-33.14c-6.24,1.13-11.72,3.22-16.43,6.12C1593.09,274.27,1587.45,304.04,1595.37,325.92z"/>
			</g>
		</g>
		<g>
			<path class="st20" d="M1703.13,658.58c-2.69-1.21-5.8,0.12-6.95,2.97c-1.14,2.85,0.11,6.14,2.81,7.35
				c2.69,1.21,5.81-0.12,6.95-2.97C1707.08,663.08,1705.82,659.79,1703.13,658.58z"/>
			<path class="st20" d="M1664.88,612.25c-5.1-2.29-11,0.23-13.17,5.62c-2.17,5.4,0.21,11.63,5.32,13.92
				c5.1,2.29,11-0.22,13.17-5.62C1672.37,620.77,1669.99,614.54,1664.88,612.25z"/>
			<path class="st20" d="M1641.5,535.62c-8.11-3.64-17.46,0.36-20.91,8.93c-3.44,8.57,0.34,18.46,8.44,22.1
				c8.1,3.64,17.46-0.36,20.9-8.93C1653.38,549.15,1649.6,539.26,1641.5,535.62z"/>
		</g>
	</g>
	<g>
		<g>
			<g>
				<g>
					<path class="st3" d="M2746.75,1252.51c-7.61-4.64-15.2-9.4-22.76-14.32h-0.01v-0.02c-28.33-173.04-83.72-289.49-84.49-291.08
						c-1.76-3.63-1.43-11.76,9.77-12.79c9.8-0.91,15.87,1.34,17.63,4.98c0.19,0.4,12.55,28.11,29.21,78.07
						c1.5,4.5,3.03,9.17,4.59,14.03c3.41,10.58,6.95,22.01,10.59,34.24c1.34,4.59,2.73,9.27,4.09,14.09
						c0.25,0.84,0.49,1.69,0.73,2.54C2728.62,1126.19,2739.54,1184.86,2746.75,1252.51z"/>
				</g>
				<g>
					<path class="st3" d="M2986.14,1354.77c-3.15-0.8-6.32-1.63-9.48-2.48c-2.52-0.67-5.05-1.36-7.58-2.08
						c-0.99-13.72-2.2-27.2-3.59-40.46c-14.41-136.65-54.03-277.84-94.15-362.66c-1.76-3.63-1.43-11.76,9.78-12.79
						c9.8-0.91,15.87,1.34,17.63,4.98c0.07,0.16,2.1,4.69,5.57,13.28c49.54,122.47,69.7,226.2,78.96,352.26
						C2984.46,1321.11,2985.42,1337.77,2986.14,1354.77z"/>
				</g>
				<g>
					<path class="st3" d="M2679.23,1034.39c-3.69,0-6.95-2.49-7.59-6.01c-0.72-3.94,2.11-7.67,6.3-8.34
						c6.68-1.07,164.37-25.96,234.96-5.19c4.06,1.19,6.32,5.25,5.05,9.06c-1.27,3.81-5.61,5.94-9.67,4.73
						c-67.04-19.72-226.14,5.4-227.74,5.65C2680.09,1034.36,2679.66,1034.39,2679.23,1034.39z"/>
				</g>
				<g>
					<path class="st3" d="M2697.25,1082.27c-3.69,0-6.95-2.49-7.59-6.01c-0.72-3.94,2.1-7.67,6.3-8.34
						c6.68-1.07,164.37-25.97,234.95-5.19c4.06,1.19,6.33,5.25,5.05,9.06c-1.28,3.81-5.6,5.94-9.67,4.73
						c-67.07-19.73-226.14,5.4-227.73,5.65C2698.12,1082.24,2697.68,1082.27,2697.25,1082.27z"/>
				</g>
			</g>
		</g>
		<path class="st22" d="M3391.16,1234.15c5.42-12.23,10.54-25.19,15.33-38.74h-261.66c-5.05,0-9.16,4.35-9.16,9.69v19.36
			c0,5.32,4.12,9.69,9.16,9.69H3391.16z"/>
		<g>
			<g>
				<path class="st12" d="M2839.22,681.68c-0.81-3.28-10.68-38.27-62.3-28.12c0,0,25.86-2.73,32.67,7.96c0,0-20.19-10.45-33.19-2.52
					c-12.99,7.93-15.77,35.73-14.07,44.26c1.7,8.53,15.22,34.15,24.57,34.41c3.54,0.1,7.36-1.05,10.74-2.5
					c-1.54,4.45-2.96,9.29-4.16,14.6c-11.14,49.17,19.03,87.59,35.34,78.74c10.46-5.67,21.1,17.27,21.1,17.27l85.19-121.24
					C2935.11,724.54,2877.34,647.16,2839.22,681.68z"/>
				<path class="st23" d="M3326.15,1326.5c-64.82,47.55-170.78,60.96-290.86,39.04c-16.15-2.95-32.55-6.52-49.15-10.76
					c-3.15-0.8-6.32-1.63-9.48-2.48c-2.52-0.67-5.05-1.36-7.58-2.08c-0.99-0.27-1.99-0.56-2.99-0.84
					c-5.01-1.41-10.02-2.88-15.04-4.42h-0.01c-1.82-0.56-3.64-1.11-5.46-1.69c-8.19-2.54-16.38-5.24-24.62-8.11c0,0-0.01,0-0.02,0
					c-2.29-0.79-4.55-1.6-6.83-2.42c-11.51-4.11-23.07-8.5-34.65-13.21c-3.95-1.6-7.89-3.23-11.84-4.91l22.12-12.4l32.4-18.15
					c0,0,11.81,0.19,31.37,0.7c2.87,0.06,5.91,0.14,9.1,0.25c5.89,0.16,12.29,0.34,19.14,0.54c23.66,0.72,52.61,1.74,83.54,3.15
					c104.9,4.79,232.58,14.07,254.1,31.22C3321.51,1321.6,3323.76,1323.8,3326.15,1326.5z"/>
				<path class="st24" d="M2945.58,1343.26c-8.19-2.54-16.38-5.24-24.62-8.11c0,0-0.01,0-0.02,0c-2.29-0.79-4.55-1.6-6.83-2.42
					c-11.51-4.11-23.07-8.5-34.65-13.21c-3.95-1.6-7.89-3.23-11.84-4.91l22.12-12.4l51.53,23.11
					C2941.28,1325.32,2940.74,1332.51,2945.58,1343.26z"/>
				<path class="st11" d="M3240.89,1156.51c-6.7-21.21-25.21-22.09-25.21-22.09s-17.76-1.38-30.55,2.59
					c-12.79,3.97-34.06-3.88-34.06-3.88s-77.97-28.66-96.2-40.65c-39.11-25.74-109.83-192.55-133.91-172.22
					c0,0-31.12,31.05-14.03,84.45c17.09,53.4,84.64,126.91,125.64,138.78c30.29,8.77,109.43,13.44,119.94,14.03
					c13.07,1.78,30.8,9.77,35.55,10.17c5.25,0.43,16.94-7.8,25.04-6.59C3242.61,1165.51,3240.89,1156.51,3240.89,1156.51z"/>
				<path class="st10" d="M2934.92,922.21c-32.3,0.49-68.11-3.07-98.72-7.35c5.64-9.97,12.36-38.7,14.27-78.35v-0.14l11.38,0.64
					l53.86,3.04c0,0-0.06,0.83-0.16,2.28c-0.51,7.68-2.11,32.81-1.85,46.97c0.1,5.44,2.78,17.19,3.6,17.76
					C2923.18,912.41,2929.08,917.37,2934.92,922.21z"/>
				<path class="st11" d="M2913.69,889.3c-32.64-4.09-53.49-34.4-63.23-52.79c-0.12-0.22-0.24-0.44-0.36-0.66l11.74,1.16l53.7,5.32
					C2915.03,850,2913.42,875.14,2913.69,889.3z"/>
				<path class="st10" d="M2918.31,862.81c0,0-76.38-0.75-75.21-51.04c1.17-50.29-7.89-84.25,40.93-85.9
					c48.82-1.65,57.84,17.79,61.31,34.68C2948.81,777.43,2938.22,861.71,2918.31,862.81z"/>
				<path class="st12" d="M2943.76,732.53c-11.43-15.45-20.43-12.37-25.54-7.96c-41.14-25.4-68.91,9.73-68.91,9.73
					c-5.99,35.94-31.1,55.94-31.1,55.94s13.7,9.47,45.99,1.62c9.87-2.4,18.79-9.52,26.45-18.25
					c-13.54,22.66-31.62,38.75-31.62,38.75c38.78-17.68,55.54-73.62,57.22-79.53c4.55,4.55,13.51,14.42,16.08,23.92
					c3.49,12.91,4.56,39.32,11.85,38.62C2944.17,795.36,2960.9,755.69,2943.76,732.53z"/>
				<path class="st25" d="M2993.55,1015.44c0,0,49.1,67.1,60.26,68.15c11.16,1.05,5.95,45.71,0,57.2
					c-5.95,11.49-44.17,36.09-68.58,9.64C2960.82,1123.96,2993.55,1015.44,2993.55,1015.44z"/>
				<path class="st26" d="M3065.31,1288.7c-2.2,2.51-5.9,4.31-11.5,5.17c-19.7,2.97-47.33,5.72-70.53,10.97
					c-6.34,1.43-12.35,3.05-17.79,4.92c-11.46,3.93-20.33,8.94-24.22,15.56c-3.19,5.44-10.74,8.5-20.31,9.83c0,0-0.01,0-0.02,0
					c-2.29-0.79-4.55-1.6-6.83-2.42c-11.51-4.11-23.07-8.5-34.65-13.21c-3.95-1.6-7.89-3.23-11.84-4.91
					c-4.71-1.98-9.41-4.02-14.11-6.12c-0.87-0.37-1.73-0.75-2.63-1.16c-3.02-1.34-6.04-2.71-9.05-4.11
					c0.91-33.99,12.99-110.29,4.42-125.45c-6.4-11.31-25.67-64.33-40.13-107.22c-1.66-4.91-3.26-9.69-4.77-14.26
					c-1.42-4.33-2.76-8.46-4.01-12.34c-2.77-8.64-5.02-16.04-6.53-21.44c-1.01-3.66-1.69-6.39-1.93-8.01
					c-0.25-1.69-0.6-3.85-0.94-6.38c-2.98-21.4-6.93-69.17,26.69-84.31c0,0,18.23-8.28,19.72-15.09c0.36-1.6,0.4-4.12,0.43-6.95
					v-0.03c0.07-9.2-0.16-21.79,8.32-18.2c0.69,0.3,1.38,0.61,2.07,0.96c10.49,5.15,21.92,15.23,39.68,14.25
					c11.53-0.63,22.11-4.2,29.19-5.57c4.53-0.89,7.62-0.88,8.59,1.38c2.47,5.68-4.23,13.27-0.16,17.1c0.01,0.01,0.01,0.01,0.02,0.02
					c0.05,0.05,0.09,0.09,0.13,0.13c0.02,0.03,0.06,0.05,0.1,0.08c0.03,0.03,0.07,0.05,0.11,0.09c0.01,0.01,0.02,0.03,0.04,0.03
					c5.89,4.7,59.79,39.9,76.64,90.92c0,0,4.57,12.3,8.47,28.7v0.01c0.32,1.33,0.63,2.69,0.94,4.07v0.01
					c2.48,11.26,4.48,24.04,4.48,35.92c0,2.43-0.02,4.88-0.09,7.36c-0.21,10.2-0.78,20.77-0.97,31.05
					c-0.05,2.36-0.07,4.72-0.07,7.04c0.01,6.01,0.22,11.87,0.8,17.45c0.01,0.09,0.01,0.17,0.02,0.25c0.09,0.93,0.18,1.83,0.31,2.75
					c1.07,8.37,2.16,16.57,3.29,24.4c1.47,10.15,2.97,19.69,4.5,28.15c0.37,2.02,0.73,3.98,1.1,5.86
					c1.56,8.04,3.14,14.88,4.71,20.09c1.5,5,3.02,8.47,4.5,10.05C3044.09,1239.52,3077.48,1274.83,3065.31,1288.7z"/>
				<path class="st10" d="M3249.09,1157.79c-0.97-3.15-3.59-7.86-6.07-12.58c-2.48-4.72-21.33-25.17-28.77-27.27
					c-7.44-2.1-43.87,8.66-43.87,8.66s-143.29,2-166.14-12.85c-29.76-19.34-102.04-99.4-152.33-140.25
					c-23.97-19.48-42.96-30.04-49.98-20.9c0,0-19.15,19.43,4.96,67.44c1.33,2.69,2.81,5.46,4.45,8.33
					c30.77,54.11,148.97,158.36,196.46,161.79c47.49,3.43,167.94-39.23,167.94-39.23s12.54-3.62,18.99,1.62
					c6.45,5.24,31.35,4.27,34.89,7.86C3236.26,1167.13,3250.7,1163.03,3249.09,1157.79z"/>
				<path class="st25" d="M3022.28,1195.97c-1.87-1.54-4.19-3.42-6.9-5.63h-0.03c-11.57-9.45-30.27-24.58-51.92-41.76
					c-10.05-7.97-20.74-16.39-31.65-24.87c-24.89-19.34-50.9-39.05-73.07-54.73c-7.49-5.3-14.53-10.13-20.94-14.34h-0.02
					c-5.63-3.68-10.78-6.9-15.31-9.49c-2.75-1.59-5.27-2.94-7.52-4.07h-0.01c-2.87-1.41-5.33-2.43-7.32-3.01
					c-4.59-1.33-7.92,0.93-10.23,5.88c1.25,3.88,2.59,8.01,4.01,12.34c1.5,4.57,3.1,9.35,4.77,14.26
					c14.46,42.9,33.73,95.91,40.13,107.22c8.4,14.87-3.22,90.56-4.52,125.52c25.21,11.57,51.81,22.37,79.39,31.92
					c10.32-1.67,17.18-4.81,20.15-9.89c-1.17-14.82,3.95-28.46,12.24-40.56c2.36-3.44,4.97-6.74,7.78-9.93c0,0,0,0,0-0.01
					c5.43-6.16,11.54-11.83,17.86-16.95c24.72-20.05,52.33-31.76,52.33-31.76c-1.48-1.58-2.99-5.05-4.5-10.05
					C3025.42,1210.85,3023.84,1204,3022.28,1195.97z"/>
				<path class="st25" d="M3013.09,1134.8c-46.58-20.94-162.19-139.45-163.86-141.15c1.33,0.49,38.62-17.11,128.95,69.83
					c10.46,10.06,25.19,30.43,28.59,39.26C3010.86,1113.37,3012.24,1126.58,3013.09,1134.8z"/>
				<path class="st26" d="M2812.04,949.26c0,0,22.81,3.5,45.13,21.85c22.32,18.35,133.8,133.49,152.45,138.32
					c18.65,4.83,58.8,2.56,58.32,14.97c-0.48,12.41-9.41,73.24-21.31,84.25c-11.9,11.01-74.89,16.26-102.17-2.1
					c-27.28-18.35-162.67-190.87-154.24-228.1C2798.64,941.22,2812.04,949.26,2812.04,949.26z"/>
				<path class="st25" d="M2864.48,923.8c-11.9-3.13-49.84,0-49.84,0s18.23-8.27,19.71-15.09c0.36-1.6,0.4-4.12,0.43-6.95
					c1.92,8.27,7.75,12.19,23.38,12.98C2873.78,915.53,2876.38,926.93,2864.48,923.8z"/>
			</g>
			<g>
				<path class="st25" d="M3316.81,1185.51h-140.4c-2.58,0-4.68,2.23-4.68,4.95c0,2.72,2.11,4.95,4.68,4.95h140.4
					c2.58,0,4.68-2.23,4.68-4.95C3321.49,1187.74,3319.38,1185.51,3316.81,1185.51z"/>
				<path class="st25" d="M3366.24,1046.3L3366.24,1046.3c-2.42-0.93-5.12,0.4-6,2.96l-47.99,139.51c-0.88,2.56,0.38,5.42,2.8,6.35
					c2.42,0.93,5.12-0.4,6-2.96l47.99-139.51C3369.92,1050.09,3368.66,1047.23,3366.24,1046.3z"/>
			</g>
		</g>
	</g>
	<g>
		<path class="st20" d="M2479.27,734.16h-420.39c-11.56,0-21.02,10-21.02,22.23v225.47c0,12.23,9.46,22.23,21.02,22.23h35.54
			l-17.16,76.63l107.73-76.63h294.28c11.56,0,21.02-10,21.02-22.23V756.39C2500.3,744.16,2490.83,734.16,2479.27,734.16z"/>
		<g>
			<path class="st0" d="M2455.2,834.63h-371.37c-5.06,0-9.2,4.38-9.2,9.72l0,0c0,5.35,4.14,9.72,9.2,9.72h371.37
				c5.06,0,9.2-4.37,9.2-9.72l0,0C2464.4,839.01,2460.26,834.63,2455.2,834.63z"/>
			<path class="st0" d="M2455.2,878.16h-371.37c-5.06,0-9.2,4.38-9.2,9.72c0,5.35,4.14,9.73,9.2,9.73h371.37
				c5.06,0,9.2-4.38,9.2-9.73C2464.4,882.53,2460.26,878.16,2455.2,878.16z"/>
			<path class="st0" d="M2455.2,921.68h-371.37c-5.06,0-9.2,4.38-9.2,9.72c0,5.35,4.14,9.72,9.2,9.72h371.37
				c5.06,0,9.2-4.38,9.2-9.72C2464.4,926.06,2460.26,921.68,2455.2,921.68z"/>
			<path class="st0" d="M2095.22,786.48h157.66c6.02,0,10.95-5.21,10.95-11.58c0-6.37-4.93-11.58-10.95-11.58h-157.66
				c-6.02,0-10.95,5.21-10.95,11.58C2084.27,781.27,2089.2,786.48,2095.22,786.48z"/>
			<path class="st0" d="M2293.5,786.48h94.87c4.76,0,8.65-4.12,8.65-9.15v-4.85c0-5.03-3.89-9.15-8.65-9.15h-94.87
				c-4.76,0-8.65,4.12-8.65,9.15v4.85C2284.84,782.36,2288.74,786.48,2293.5,786.48z"/>
		</g>
	</g>
	<g>
		<path class="st27" d="M3472.8,596.63h-380.99c-10.48,0-19.05,9.06-19.05,20.14V821.1c0,11.08,8.57,20.14,19.05,20.14h32.21
			l-15.55,69.45l97.63-69.45h266.7c10.48,0,19.05-9.06,19.05-20.14V616.77C3491.85,605.69,3483.28,596.63,3472.8,596.63z"/>
		<g>
			<path class="st28" d="M3114.43,705.3h336.56c4.58,0,8.33-3.97,8.33-8.81c0-4.85-3.75-8.81-8.33-8.81h-336.56
				c-4.58,0-8.33,3.97-8.33,8.81C3106.09,701.34,3109.84,705.3,3114.43,705.3z"/>
			<path class="st28" d="M3450.99,727.13h-336.56c-4.58,0-8.33,3.96-8.33,8.81c0,4.85,3.75,8.81,8.33,8.81h336.56
				c4.58,0,8.33-3.97,8.33-8.81C3459.32,731.09,3455.57,727.13,3450.99,727.13z"/>
			<path class="st28" d="M3450.99,766.57h-336.56c-4.58,0-8.33,3.97-8.33,8.81l0,0c0,4.85,3.75,8.81,8.33,8.81h336.56
				c4.58,0,8.33-3.97,8.33-8.81l0,0C3459.32,770.54,3455.57,766.57,3450.99,766.57z"/>
			<path class="st28" d="M3124.74,644.04h142.88c5.46,0,9.92-4.72,9.92-10.49c0-5.77-4.47-10.49-9.92-10.49h-142.88
				c-5.46,0-9.92,4.72-9.92,10.49C3114.82,639.32,3119.29,644.04,3124.74,644.04z"/>
			<path class="st28" d="M3304.44,644.04h85.98c4.31,0,7.84-3.73,7.84-8.29v-4.4c0-4.56-3.53-8.29-7.84-8.29h-85.98
				c-4.31,0-7.84,3.73-7.84,8.29v4.4C3296.6,640.31,3300.13,644.04,3304.44,644.04z"/>
		</g>
	</g>
	<g>
		<path class="st29" d="M1409.62,621.35c-63.48,118.22-233.61,194.23-363.25,238.92c-178.3,62.2-448.58,95.64-548.98-69.53
			c-72.41-119.25,99.79-322,321.76-464.63l0.03-0.01c79.64-51.21,169.1-96.76,258.15-126.74
			C1334.55,112.82,1526.22,404.13,1409.62,621.35z"/>
		<g>
			<path class="st27" d="M464.99,233.05h411.68c11.32,0,20.58,9.79,20.58,21.76v220.79c0,11.97-9.26,21.77-20.58,21.77h-34.81
				l16.81,75.04l-105.5-75.04H464.99c-11.32,0-20.58-9.79-20.58-21.77V254.82C444.4,242.85,453.67,233.05,464.99,233.05z"/>
			<g>
				<path class="st28" d="M488.56,350.49h363.67c4.95,0,9.01-4.28,9.01-9.52c0-5.24-4.05-9.52-9.01-9.52H488.56
					c-4.95,0-9.01,4.29-9.01,9.52C479.56,346.2,483.61,350.49,488.56,350.49z"/>
				<path class="st28" d="M852.23,374.07H488.56c-4.95,0-9.01,4.28-9.01,9.52c0,5.24,4.05,9.52,9.01,9.52h363.67
					c4.95,0,9.01-4.29,9.01-9.52C861.24,378.35,857.18,374.07,852.23,374.07z"/>
				<path class="st28" d="M852.23,416.69H488.56c-4.95,0-9.01,4.29-9.01,9.52l0,0c0,5.24,4.05,9.52,9.01,9.52h363.67
					c4.95,0,9.01-4.29,9.01-9.52l0,0C861.24,420.97,857.18,416.69,852.23,416.69z"/>
				<path class="st28" d="M686.69,284.29h154.39c5.9,0,10.72-5.1,10.72-11.34c0-6.23-4.82-11.34-10.72-11.34H686.69
					c-5.9,0-10.72,5.1-10.72,11.34C675.97,279.19,680.8,284.29,686.69,284.29z"/>
				<path class="st28" d="M554.01,284.29h92.9c4.66,0,8.47-4.03,8.47-8.96v-4.75c0-4.93-3.81-8.96-8.47-8.96h-92.9
					c-4.66,0-8.47,4.03-8.47,8.96v4.75C545.54,280.25,549.35,284.29,554.01,284.29z"/>
			</g>
		</g>
		<g>
			<g>
				<g>
					<path class="st12" d="M1178.32,311.51c-15.27-9.88-39.65,1.93-39.65,1.93c8.43-12.53,39.19-8.43,39.19-8.43
						c-61.27-13.78-74.06,27.63-75.12,31.51c-44.44-42.41-115.6,47.99-115.6,47.99l102.11,143.11c0,0,9.31-22.77,21.62-15.66
						c19.19,11.08,56.29-33.76,44.43-92.75c-1.28-6.38-2.82-12.19-4.53-17.55c3.99,1.85,8.51,3.33,12.74,3.33
						c11.16,0,28.03-30.11,30.31-40.23C1196.09,354.63,1193.58,321.38,1178.32,311.51z"/>
					<path class="st30" d="M1187.52,803.07c4.64-78.7-31.47-163.92-60.97-188.34c-4.64-3.86-9.14-6.34-13.32-7.25
						c-0.87-0.25-1.78-0.77-2.75-1.59c-8.31-7.07-19.5-35.21-21.31-78.38c-0.18-4.28-0.27-8.68-0.26-13.24c0,0,0.01,0,0-0.01
						l-4.09,0.85l-3.91,0.81h-0.01l-64.9,13.59c0.37,4.92,1.61,27.83,1.61,44.47c0.05,17.98-0.98,35.02-4.84,37.16
						c-0.11,0.01-1.07,0.09-2.08,0.2c-2.29,0.24-5.67,0.62-5.91,0.67c0,0-25.05,36.84-43.46,84.57c0,0.01,0,0.04,0,0.05l-0.01,0.01
						c-9.37,24.32-16.98,51.45-18.62,77.91c-1.01,16.43,0.42,30.91,2.88,44.98v0.01c3.65,20.77,9.81,42.57,13.47,66.61
						c30.63-7.56,60.05-16.39,87.31-25.9C1090.65,845,1139.66,826.08,1187.52,803.07z"/>
					<path class="st31" d="M1016.01,529.52c0,0,1.57,22.9,1.61,44.47c38.51-1.14,58.86-38.29,67.21-58.88L1016.01,529.52z"/>
					<path class="st13" d="M1091.93,507.19c0,0,20.18-33.71,25.02-62.54c3.46-20.58-6.46-96.87-78.96-85.88
						c0,0-21.06,2.19-40.85,16.33c-15.74,11.24-38.46,35.51-13.06,102.08l6.6,22.49L1091.93,507.19z"/>
					<path class="st30" d="M1003.15,549.94c0,0,91.11,1.59,91.17-58.42c0.06-60.01,11.87-100.22-46.31-103.77
						c-58.17-3.55-69.5,19.33-74.13,39.36C969.26,447.14,979.45,547.99,1003.15,549.94z"/>
					<path class="st12" d="M1006.52,386.29c0,0,24.95,70.4,63.23,80.81c38.28,10.41,54.89-0.44,54.89-0.44s-29.37-24.66-35.46-67.72
						C1089.18,398.94,1025.34,352.78,1006.52,386.29z"/>
					<path class="st12" d="M1012.7,392.01c0,0-18.63,15.72-23.17,31c-4.54,15.28-6.59,46.74-15.26,45.67c0,0-18.79-47.85,2.33-74.92
						C999,365.05,1012.7,392.01,1012.7,392.01z"/>
					<path class="st30" d="M1231.05,779.47c-15.16,8.01-30.05,15.53-44.66,22.6c-8.52,4.13-16.93,8.11-25.24,11.94
						c-1.09,0.5-2.17,0.99-3.25,1.49c-10.63-40.53-19.56-73.81-19.56-73.81l-6.73-30.83l-13.57-62.16v-0.01l-9.4-43
						c0,0,0.65,0.07,1.84,0.22c2.99,0.36,9.42,1.19,17.46,2.53c14.64,2.47,34.67,6.65,49.3,12.88c0.11,0.05,0.22,0.09,0.33,0.16
						c0.27,0.1,0.53,0.22,0.78,0.33c7.39,3.27,13.27,7.08,16.16,11.47c0.01,0.01,0.02,0.03,0.04,0.04c0,0.01,0.01,0.03,0.03,0.04
						c0.01,0,0.01,0.01,0.01,0.03c0.4,0.63,0.76,1.28,1.04,1.94C1207.96,663.99,1220.29,721.2,1231.05,779.47z"/>
					<path class="st12" d="M1009.24,394.38c0,0,17.77,73.72,66.08,97.33c0,0-48.31-45.29-52.41-93.96
						C1018.81,349.09,1009.24,394.38,1009.24,394.38z"/>
					<path class="st30" d="M884.3,773.55c-1.34,6.38-2.62,13.02-3.8,19.94c-3.13,18.19-5.66,38.29-7.4,60.43
						c0,0-76.43-50.45-93.41-76.73c0-2.17,1.26-25.77-0.89-41.82c-0.79-5.9-2.05-10.79-4-13.21c-0.93-1.15-1.97-2.36-3.1-3.62
						c-0.01-0.01,0-0.01,0-0.01c-3.7-4.04-8.31-8.37-12.56-11.76c-4.46-3.55-8.52-6.07-10.73-6.12c-0.11-0.01-0.21-0.01-0.3,0
						c-0.15,0.01-0.31,0.05-0.48,0.12c-5.28,1.86-22.2,26.45-16.9,45.43c5.46,19.6,28.55,46.1,28.55,46.1s38.78,71.08,85.29,114.56
						c27.9-3.11,55.73-7.72,82.88-13.45c6.99-20.11,13.34-47.21,18.14-73.86v-0.01c7.42-41.19,12.46-86.33,15.74-122.88l0.01-0.01
						v-0.07c1.72-19.26,2.97-36.13,3.8-48.79c0.68-10.28,1.1-17.77,1.28-21.49c0.11-1.73,0.15-2.63,0.15-2.63s-1.19,0.49-3.29,1.75
						C950.99,632.75,907.03,665.82,884.3,773.55z"/>
					<path class="st32" d="M1046.37,860.26c59.68-20.57,127.94-47.79,190.42-82.69c-12.09-55.22-27.54-115.23-40.91-142.15
						c-0.34-0.7-0.78-1.38-1.29-2.04c0-0.01,0-0.03-0.01-0.03c-0.01-0.01-0.03-0.03-0.03-0.04c-0.01-0.01-0.02-0.03-0.04-0.04
						c-1.04-1.36-2.41-2.65-4.04-3.89c0.13-0.18,0.21-0.28,0.21-0.28c-3.78-2.91-8.27-5.44-13.11-7.63
						c-0.11-0.06-0.22-0.1-0.33-0.16c-21.48-9.7-49.28-12.92-49.28-12.92s0,0.01-0.01,0.04c-0.07,0.35-0.57,2.69-1.39,6.3
						c-1.75,7.74-4.95,21.33-8.51,33.95v0.01c-3.74,13.18-7.89,25.29-11.25,28.53c-8.21,7.94-127.16,20.95-129.89,6.51
						c-2.61-13.81,31.31-67.64,33.81-72.38c-9.88,0.97-28.2,3.78-35.82,5.15c-13.51,2.45-21.77,8.56-22.55,9.51
						c-16,12.82-53.65,52.2-68.35,147.07c0,0,0.11,0.17,0.32,0.46c2.61,3.6,20.32,27.13,44.51,34.46c0.68,0.22,1.38,0.4,2.08,0.58
						c-1.31,23.07-5.33,55.99-9.15,85.99C965.78,885.57,1008.19,873.58,1046.37,860.26z"/>
					<g>
						<path class="st18" d="M812.9,724.56l-42.17,13.36c-1.4,0.44-2.88-0.4-3.29-1.88l-24.1-85.03c-0.42-1.48,0.37-3.04,1.78-3.48
							l42.18-13.37c1.4-0.44,2.87,0.4,3.29,1.88l24.1,85.03C815.09,722.55,814.3,724.11,812.9,724.56z"/>
						<path class="st27" d="M801.94,728.03l-38.25,12.12c-2.48,0.79-5.1-0.7-5.84-3.33l-22.93-80.88c-0.75-2.63,0.67-5.39,3.15-6.18
							l38.26-12.12c2.48-0.79,5.1,0.7,5.84,3.33l22.93,80.88C805.83,724.48,804.42,727.24,801.94,728.03z"/>
					</g>
					<path class="st33" d="M1157.41,816.96c-3.99-11.12-8.67-20.5-11.76-19.75c-2.91,0.71-12.6,14.98-21.11,33.73
						C1135.45,826.49,1146.43,821.83,1157.41,816.96z"/>
					<path class="st30" d="M744.46,703.56c0,0,13.31-12.77,24.18-0.69c10.87,12.07-4.11,33.65-15.08,38.79
						c-10.96,5.14-14.61,8.05-14.61,8.05L744.46,703.56z"/>
				</g>
			</g>
			<path class="st21" d="M1020.95,514.32c0,0-1.58,7.07-18.21,5.98c0,0-13.97-0.91-13.54-8.68
				C989.19,511.62,1002.74,506.09,1020.95,514.32z"/>
		</g>
	</g>
	<g>
		<polygon class="st4" points="2377.8,525.57 2518.28,574.12 2434.13,487.41 2425.59,508.6 2389.43,508.78 		"/>
		<polygon class="st18" points="2518.28,574.12 2409.25,486.43 2292.77,458.3 		"/>
		<polygon class="st18" points="2434.13,487.41 2518.28,574.12 2462.19,452.64 		"/>
	</g>
	<g>
		<polygon class="st32" points="404.49,994.61 264.01,1043.17 348.16,956.45 356.7,977.64 392.86,977.82 		"/>
		<polygon class="st4" points="264.01,1043.17 373.04,955.47 489.52,927.34 		"/>
		<polygon class="st18" points="348.16,956.45 264.01,1043.17 320.1,921.68 		"/>
	</g>
</g>
</svg>
