<?xml version="1.0" encoding="utf-8"?>
<!-- Generator: Adobe Illustrator 24.0.2, SVG Export Plug-In . SVG Version: 6.00 Build 0)  -->
<svg version="1.1" id="Layer_1" xmlns="http://www.w3.org/2000/svg" xmlns:xlink="http://www.w3.org/1999/xlink" x="0px" y="0px"
	 viewBox="0 0 3547 2000" style="enable-background:new 0 0 3547 2000;" xml:space="preserve">
<style type="text/css">
	.st0{fill:#55769F;}
	.st1{fill:#432BA3;}
	.st2{fill:#371894;}
	.st3{fill:#26CED4;}
	.st4{fill:#00B1BA;}
	.st5{fill:#07085B;}
	.st6{opacity:0.1;fill:#FFFFFF;}
	.st7{fill:#F7BDAD;}
	.st8{fill:#CBDFFE;}
	.st9{fill:#1D0F60;}
	.st10{fill:#F9A693;}
	.st11{fill:#C0EFFF;}
	.st12{fill:#1E1E1E;}
	.st13{fill:#282828;}
	.st14{fill:#FFFFFF;}
	.st15{fill:#333333;}
	.st16{fill:#06BFAD;}
	.st17{fill:#F3FDFF;}
	.st18{fill:#02CCC0;}
	.st19{fill:#FBFBFB;}
	.st20{fill:#FCFCFC;}
	.st21{opacity:0.6;fill:#FCFCFC;}
	.st22{fill:#DAEEF7;}
	.st23{fill:#090C8A;}
	.st24{fill:#050842;}
	.st25{fill:#00AAAA;}
	.st26{fill:#040744;}
	.st27{fill:#444444;}
	.st28{fill:#CAF0FF;}
	.st29{fill:#076B93;}
	.st30{fill:#1E1E1D;}
	.st31{fill:#B5DBE8;}
	.st32{fill:#F3FCFF;}
	.st33{fill:#CFE4FF;}
	.st34{fill:#026EAF;}
</style>
<g>
	<g>
		<g>
			<g>
				<line class="st0" x1="1417.93" y1="641" x2="1417.36" y2="644.25"/>
				
					<rect x="1407.09" y="711.65" transform="matrix(-0.9846 -0.1746 0.1746 -0.9846 2919.2339 1683.3561)" class="st0" width="253.11" height="3.3"/>
			</g>
		</g>
	</g>
	<g>
		<path class="st1" d="M170.8,385.35c178.68,281.93,619.08,533.18,619.08,533.18S439.79,890.1,266.06,663.85l63-52.17
			c0,0-50.07,4.84-92.01,9.69C198.41,557.27,173.38,479.54,170.8,385.35z"/>
		<path class="st2" d="M639.63,501.95c-27.17,12.33-67.37,31.11-67.37,31.11L611,477.42c-45.11-35.1-94.75-58.48-143.94-73.79
			c-19.94,29.03-43.38,61.48-43.38,61.48l-4.65-74.07c-131.85-28.4-248.23-5.69-248.23-5.69
			c178.68,281.93,619.08,533.19,619.08,533.19C787.89,711.38,724.81,582.04,639.63,501.95z"/>
	</g>
	<g>
		<path class="st3" d="M105.19,783.15c52.55-30.88,105.88-47.53,157.7-54.32c15.61,17.82,34.76,38.77,34.76,38.77l1.06-41.96
			C497.88,716.1,665.8,841.54,665.8,841.54c-113.97,69.33-212.05,88.77-292.86,83.02c-5.1-14.65-12.34-36.52-12.34-36.52
			l-13.52,33.77c-38.8-5.52-73.17-16.76-102.95-30.55c7.17-17.52,14.69-37.54,14.69-37.54l-42.47,23.27
			C143.46,835.74,105.19,783.15,105.19,783.15z"/>
		<path class="st4" d="M372.94,924.56c-5.1-14.65-12.34-36.52-12.34-36.52l-13.52,33.77c-38.8-5.52-73.17-16.76-102.95-30.55
			c7.17-17.52,14.69-37.54,14.69-37.54l-42.47,23.27c-72.9-41.25-111.16-93.84-111.16-93.84c231.72-26.48,560.6,58.38,560.6,58.38
			C551.83,910.87,453.75,930.31,372.94,924.56z"/>
	</g>
	<g>
		<g>
			<path class="st5" d="M2803.93,1766.78c0,0-218.64-290.27-109.15-346.88c0,0,19.15-31.63,100.81,78.54
				c0,0,49.43,15.21,51.13-41.82c1.7-57.03-80.64-142.14-30.17-192.54s78.75,37.97,115.33,54.16
				c36.58,16.18,15.01-210.63,64.81-235.97c49.8-25.34,65.22,64.01,93.56,73.92c28.34,9.91,106.36-256.38,241.8-209.78
				c135.45,46.59-16.28,148.66-79.62,211.24c-63.34,62.58,69.2,25.77,84.63,103.91c15.43,78.14-223.52,19.59-200.5,95.43
				c23.01,75.84,90.3,31.06,104.09,87.77c22.31,91.69-214.94,7.73-208.4,71.03c5.22,50.48,89.98,15.57,99.84,54.47
				C3141.95,1609.16,2996.78,1752.1,2803.93,1766.78z"/>
			<path class="st6" d="M2687.38,1424.43c0.96-0.69,1.96-1.36,2.99-2c4.28,12.02,9.52,25.14,15.91,38.77
				c23.46,50.07,67.54,117.43,144.46,155.03c18.63-42.49,41.81-87.04,69.46-133.44c-22.44-114.71-64.05-178.23-95-211.31
				c-2.68-2.87-5.33-5.54-7.94-8.07c0.86-0.84,1.71-1.63,2.56-2.39c2.54,2.47,5.11,5.07,7.72,7.86
				c31,33.05,72.53,96.14,95.33,209.45c0.12-0.19,0.23-0.39,0.35-0.58c28.58-47.55,61.85-97.08,99.45-148.14
				c0.62-5.1,6.29-53.72,4.77-111.89c-1.09-41.78-6.17-94.92-22.2-138.78c1.17-0.31,2.31-0.56,3.43-0.74
				c16.07,44.24,21.17,97.52,22.26,139.43c1.27,48.7-2.48,90.76-4.12,106.38c28.79-38.84,60.06-78.55,93.71-118.94
				c93.83-112.64,184.33-204.27,231.55-250.38c1.12,0.56,2.2,1.13,3.26,1.7c-46.91,45.77-137.82,137.71-232.12,250.91
				c-15.86,19.04-32.22,39.19-48.79,60.25c13.07-2.55,52.1-9.52,102.91-12.78c42.81-2.75,100.72-3.2,159.63,6.22
				c0.04,0.19,0.08,0.37,0.12,0.56c0.21,1.05,0.36,2.06,0.48,3.06c-58.97-9.55-117.07-9.11-159.94-6.36
				c-58.14,3.73-100.76,12.32-106.51,13.52c-36.63,46.77-74.13,97.93-109.15,151.35c82.54-11.91,214.85,14.04,279.97,28.85
				c0.13,1.25,0.2,2.46,0.21,3.63c-65.35-14.9-200.6-41.58-282.75-28.55c-49.63,76.14-94.07,156.75-123.7,235.7
				c69.46,9.92,151.05-22.41,207.54-51.48c34.94-17.98,64.8-36.94,84.28-50.13c0.75,0.88,1.42,1.83,2.03,2.84
				c-19.57,13.25-49.56,32.29-84.67,50.37c-57.16,29.43-139.89,62.15-210.45,51.76c-12.59,33.99-22.39,67.66-28.66,100.52
				c-0.61,0.05-1.21,0.11-1.81,0.16c0,0-0.49-0.65-1.41-1.89c8.7-45.13,24.36-93.75,46.8-145.45c-5.02-2.45-9.96-5.04-14.82-7.79
				c-28.33-16.04-53.97-37.21-76.43-63.12c-21.33-24.61-39.84-53.53-55.02-85.94C2696.79,1449.2,2691.62,1436.3,2687.38,1424.43z"/>
		</g>
		<path class="st3" d="M2779.17,1728.36c0,0,87.51-208.42,357.07-288.63l-24.3,79.43l54.31-83.77c0,0,158.52-40.02,276.42-38.37
			c0,0-184.99,196.22-238.4,226.18l-83.82,3.45l60.68,42.74c0,0-100.54,111.59-233.13,141.22
			C2815.42,1840.25,2779.17,1728.36,2779.17,1728.36z"/>
		<g>
			<g>
				<path class="st2" d="M3483,1714.26c-47.19,61.95-100.48,102.38-155.7,127.32c-23.93-22.83-52.95-49.45-52.95-49.45l14.22,64.39
					c-218.31,70.58-451.38-73.81-451.38-73.81c101.48-137.96,203.58-195.23,295.69-209.16c11.06,20.95,27.15,52.31,27.15,52.31
					l2.66-55.39c45.24-2.47,87.65,5.03,125.87,17.73c-1.55,28.78-2.58,61.47-2.58,61.47l38.75-47.49
					C3421.08,1644.69,3483,1714.26,3483,1714.26z"/>
				<path class="st1" d="M3132.88,1573.54c11.06,20.95,27.15,52.31,27.15,52.31l2.66-55.39c45.24-2.47,87.65,5.03,125.87,17.73
					c-1.55,28.78-2.58,61.47-2.58,61.47l38.75-47.49c96.33,42.52,158.26,112.08,158.26,112.08
					c-248.35,105.6-645.81,68.44-645.81,68.44C2938.67,1644.75,3040.77,1587.47,3132.88,1573.54z"/>
			</g>
		</g>
	</g>
	<path class="st7" d="M3101.29,1501.19c0,0,2.39,0.57,3.32,3.46s2.87,11.99,3.09,15.24c0.05,0.74-5.84-2.34-5.84-2.34
		s-1.96-10.02-1.18-11.74C3101.46,1504.09,3101.29,1501.19,3101.29,1501.19z"/>
	<path class="st7" d="M3211.83,1542.08l-34.28-15.87l3.11,36.3c0,0-64.9-29.46-68.18-32.43c-1.09-0.99-2.34-3.58-3.54-6.62
		c-1.26-3.19-2.11-6.51-2.86-9.85c-1.14-5.04-5.45-9.08-6.9-10.39c-0.63-0.57-2.46-4-2.89-5.58c-0.29-1.06-1.88-0.98-2.04,0.11
		l-0.35,2.27c-0.34,2.23,0.44,4.53,0.93,5.76l-0.9-0.34l-1.49,15.27l1.83,13.35l10.27,7.73c0,0,90.43,65.09,98.7,56.59
		C3212.13,1589.24,3211.83,1542.08,3211.83,1542.08z"/>
	<path class="st8" d="M2903.56,1905.28h-498.12c-24.46,0-44.3-19.83-44.3-44.3v-498.12c0-24.46,19.83-44.3,44.3-44.3h498.12
		c24.46,0,44.3,19.83,44.3,44.3v498.12C2947.86,1885.45,2928.02,1905.28,2903.56,1905.28z"/>
	<g>
		<path class="st7" d="M2620.62,1743.93h95.25l-3.99,15.19l-60.4,40.89c0,0-13.68-26.67-16.26-29.52
			C2632.64,1767.63,2620.62,1743.93,2620.62,1743.93z"/>
		<rect x="2638.96" y="1706.43" class="st7" width="58.61" height="102.86"/>
		<path class="st3" d="M2838.54,1825.26c-7.71-20.02-17.84-39.34-30.86-51.97c-38.39-37.26-91.46-29.36-91.46-29.36
			c-5.93,5.93-11.88,10.41-17.75,13.77c-8.25,4.19-18.56,7.81-30.04,8.24c-11.48-0.44-21.8-4.05-30.04-8.24
			c-5.88-3.35-11.82-7.83-17.76-13.77c0,0-53.07-7.9-91.46,29.36c-7.98,7.74-17.16,27.29-26.38,51.97H2838.54z"/>
		<path class="st9" d="M2669.74,1474.41c0,0,99.15-5.56,104.41,115.85c0,0-7.21-0.52-12.57,2.37c0,0-78.53-19.64-98.02-95.74
			L2669.74,1474.41z"/>
		<path class="st10" d="M2697.47,1724v-35.08h-58.51v29.84C2651.55,1725.54,2670.2,1729.43,2697.47,1724z"/>
		<path class="st4" d="M2668.24,1768.02c51.02,21.8,48.05-19.82,47.66-23.79c-5.83,5.78-11.67,10.17-17.44,13.46
			c-8.25,4.19-18.56,7.81-30.04,8.24c-11.48-0.44-21.8-4.05-30.04-8.24c-5.88-3.35-11.82-7.83-17.76-13.77
			C2620.62,1743.93,2614.7,1790.9,2668.24,1768.02z"/>
		<path class="st7" d="M2779.57,1591.91c-5.6-2.76-12.11-2.27-18,0.71c2.02-53-41.2-97.58-95.64-95.69
			c-54.44-1.88-97.66,42.69-95.64,95.69c-5.89-2.98-12.39-3.48-18-0.71c-10.75,5.3-14.09,20.5-7.46,33.94
			c6.63,13.44,20.72,20.04,31.47,14.73c1.49-0.74,2.83-1.68,4.03-2.77c6.16,43.81,42.71,76.66,85.6,76.05
			c42.89,0.61,79.44-32.24,85.6-76.05c1.2,1.09,2.54,2.03,4.03,2.77c10.75,5.3,24.84-1.29,31.47-14.73
			C2793.66,1612.41,2790.32,1597.22,2779.57,1591.91z"/>
		<path class="st9" d="M2553.44,1591.35c0,0-5.93-109.69,116.29-116.93c0,0-3.8,107.75-99.44,118.21L2553.44,1591.35z"/>
		<path class="st9" d="M2570.3,1592.63c0,0,136.76-17.79,151.25-85.44l-32.86-25.61l-45.17,4.35c0,0-24.41,38.66-27.79,42.52
			C2612.35,1532.31,2570.3,1592.63,2570.3,1592.63z"/>
		<path class="st9" d="M2697.47,1505.74c0,0,11.35,68.44,64.1,86.89c0,0,4.92-14.41,5.88-17.79c0.97-3.38-14.98-53.15-14.98-53.15
			s-7.25-8.7-14.01-13.05s-36.14-11.76-36.14-11.76L2697.47,1505.74z"/>
		<ellipse class="st9" cx="2663.27" cy="1447.38" rx="87.49" ry="68.01"/>
		<g>
			<path class="st9" d="M2595.74,1496.06l-0.01-0.03c-0.75-2.18,0.47-4.55,2.69-5.19c14.39-4.13,65.15-16.08,132.33-2.04
				c2.19,0.46,3.58,2.64,3.09,4.83l0,0c-0.48,2.17-2.62,3.52-4.79,3.07c-64.8-13.5-114.88-1.85-128.42,1.94
				C2598.58,1499.21,2596.44,1498.07,2595.74,1496.06z"/>
		</g>
	</g>
	<g>
		<polygon class="st11" points="3176.85,1965.08 3194.05,1965.08 2972.28,852.21 2955.08,852.21 		"/>
		<polygon class="st11" points="2995.22,1976.27 3012.42,1976.27 2788,852.21 2770.79,852.21 		"/>
		<polygon class="st11" points="2785.07,880.66 2969.35,880.66 2967.05,869.14 2782.77,869.14 		"/>
		<polygon class="st11" points="2799.95,955.36 2984.24,955.36 2981.94,943.83 2797.65,943.83 		"/>
		<polygon class="st11" points="2814.83,1030.05 2999.12,1030.05 2996.82,1018.52 2812.54,1018.52 		"/>
		<polygon class="st11" points="2829.72,1104.74 3014,1104.74 3011.71,1093.22 2827.42,1093.22 		"/>
		<polygon class="st11" points="2844.6,1179.43 3028.89,1179.43 3026.59,1167.91 2842.31,1167.91 		"/>
		<polygon class="st11" points="2859.49,1254.12 3043.77,1254.12 3041.48,1242.6 2857.19,1242.6 		"/>
		<polygon class="st11" points="2874.37,1328.81 3058.66,1328.81 3056.36,1317.29 2872.08,1317.29 		"/>
		<polygon class="st11" points="2889.26,1403.51 3073.54,1403.51 3071.25,1391.98 2886.96,1391.98 		"/>
		<polygon class="st11" points="2904.14,1478.2 3088.43,1478.2 3086.13,1466.68 2901.85,1466.68 		"/>
		<polygon class="st11" points="2919.03,1552.89 3103.31,1552.89 3101.01,1541.37 2916.73,1541.37 		"/>
		<polygon class="st11" points="2933.91,1627.58 3118.2,1627.58 3115.9,1616.06 2931.61,1616.06 		"/>
		<polygon class="st11" points="2948.79,1702.27 3133.08,1702.27 3130.78,1690.75 2946.5,1690.75 		"/>
		<polygon class="st11" points="2963.68,1776.97 3147.96,1776.97 3145.67,1765.44 2961.38,1765.44 		"/>
	</g>
	<g>
		<polygon class="st7" points="206.64,1953.34 206.64,1935.98 226.5,1930.47 230.92,1932.42 231.68,1953.34 225.42,1971.57 		"/>
		<polygon class="st12" points="249.84,1597.25 235.75,1940.77 202.92,1940.77 174,1681.13 211.92,1564.8 		"/>
		<polygon class="st7" points="79.71,1953.34 79.71,1935.98 99.57,1930.47 103.99,1932.42 104.75,1953.34 98.49,1971.57 		"/>
		<path class="st13" d="M235.75,1597.98l-128.58,342.79l-31.49-2.57c0,0,39.2-314.28,62.66-344.16
			c23.46-29.89,74.87-23.46,74.87-23.46L235.75,1597.98z"/>
		<g>
			<path class="st14" d="M260.94,1975.89l-57.28-0.04c-0.96,0-1.74-0.78-1.74-1.74l0-2.63c0-0.96,0.78-1.74,1.74-1.74l57.28,0.04
				c0.96,0,1.74,0.78,1.74,1.74l0,2.63C262.68,1975.11,261.9,1975.89,260.94,1975.89z"/>
			<path class="st15" d="M204.71,1951.16l-2.02,17.01c-0.25,2.1,0.92,4,2.46,4l53.54,0.03c1.39,0,2.77-0.87,3.5-2.5
				c0.75-1.67,0.9-4.19-1.49-7.58c-4.66-6.59-19.67-8.34-27.57-13.76c-0.46-0.31-1-0.48-1.55-0.48l-24.06-0.02
				C206.13,1947.87,204.94,1949.27,204.71,1951.16z"/>
		</g>
		<g>
			<path class="st14" d="M134.69,1975.89l-57.28-0.04c-0.96,0-1.74-0.78-1.74-1.74l0-2.63c0-0.96,0.78-1.74,1.74-1.74l57.28,0.04
				c0.96,0,1.74,0.78,1.74,1.74l0,2.63C136.43,1975.11,135.65,1975.89,134.69,1975.89z"/>
			<path class="st15" d="M78.46,1951.16l-2.02,17.01c-0.25,2.1,0.92,4,2.46,4l53.54,0.03c1.39,0,2.77-0.87,3.5-2.5
				c0.75-1.67,0.9-4.19-1.49-7.58c-4.66-6.59-19.67-8.34-27.57-13.76c-0.46-0.31-1-0.48-1.55-0.48l-24.06-0.02
				C79.88,1947.87,78.69,1949.27,78.46,1951.16z"/>
		</g>
	</g>
	<path class="st4" d="M224.1,1389.23c0,0,26.06,30.97,87.44,36.43c61.38,5.46,15.42,37.87,15.42,37.87s-73.97,10.65-99.81-6.7
		C201.32,1439.47,224.1,1389.23,224.1,1389.23z"/>
	<path class="st13" d="M3306.42,1362.41c9.98,0,26.91-6.64,45.35,5.36c5.22,3.39,8.57,8.93,10.67,14.79
		c1.85,5.19,3.06,10.59,3.99,16.03c1.81,10.57,27.12,7.89,35.8,26.4c11.28,24.07-8.59,45.79-23.04,62.42
		c-31.38,36.14-71.89,26.57-81.84,31.34c-7.16,3.44-1.87-11.09-9.8-10.58c-7.82,0.5-17.11,0.34-21.58-6.09
		c-2.55-3.67-2.75-8.47-4.55-12.57c-2.53-5.74-7.93-9.58-13.09-13.14c-6.51-4.49-13.06-9-20.21-12.38
		c-7.59-3.59-50.03-7.97-37.35-62.67c4.91-21.19,17.44-33.78,30.45-42.89c9.33-6.53,17.99-8.88,31.04-9.23
		C3282.21,1348.41,3280.09,1362.41,3306.42,1362.41z"/>
	<polygon class="st7" points="3194.42,1707.08 3198.3,1954.36 3204.61,1972.2 3223.56,1954.36 3241.53,1700.74 	"/>
	<path class="st7" d="M3307.55,1715.45h-47.41c0,0,22.31,237.43,22.15,238.91s8,12.14,8,12.14l17.26-12.14V1715.45z"/>
	<path class="st15" d="M3183.08,1916.69c13.47,5.39,34.39,10.8,57.49,5.86l4.3-197.48l3.2-34.77c2.42,2.11,3.86,3.12,3.86,3.12
		l11.54,225.62c0,0,25.61,9.35,56.92,3.57c0.1-13.57-8.31-220.69-8.4-230.31c-0.61-69.45-22.08-79.61-22.08-79.61l-36.55-9.25
		l-8.02,1.38c-12.78-4.2-35.89-8.99-45.41,6.96c-13.48,22.6-12.69,92.25-12.69,92.25S3182.98,1907.13,3183.08,1916.69z"/>
	<path class="st16" d="M3204.04,1465.29c0,0-7.02,1.67-17.18,14.24c-10.16,12.57-19.2,47.34-19.2,47.34l32.42,17.71l21.09-41.99
		L3204.04,1465.29z"/>
	<path class="st17" d="M3275.1,1635.45c0.13,0.35,0.31,0.67,0.48,1.01l0.52,0.99l1.05,1.98l1.76,3.27l5.01,8.7
		c0.69,1.32,7.27,12.77,8.83,15.33c-1.94-2.31-4.27-4.6-5.85-7.15c-0.8-1.27-1.54-2.57-2.29-3.87c-0.74-1.3-1.45-2.62-2.16-3.94
		c-1.39-2.65-2.73-5.32-3.98-8.03c-0.63-1.35-1.23-2.72-1.82-4.09c-0.28-0.69-0.57-1.38-0.84-2.08
		C3275.57,1636.87,3275.28,1636.17,3275.1,1635.45z"/>
	<path class="st18" d="M3338.91,1505.76c-14.74-17.79-31.77-37.09-46.67-44.61c-5.7-2.88-19.22-3.45-27.08-4.73
		c0,0-20.51-2.53-40.73,0.14c-10.91,4-29.97,10.75-30.21,17.22c-1.25,32.29-1.61,57.03-1.43,76.01c0,0.06-0.54,68.8-0.04,83.48
		c0,0,74.73,16.11,112.96,6.43c0,0,6.31-89.91-2.75-114.19l3.86,4.92C3306.8,1530.42,3322.18,1526.92,3338.91,1505.76z"/>
	<path class="st7" d="M3336.65,1508.55c-10.14,12.33-21.36,18.88-26.98,20.94l36.14,43.29l-66.11,71.27l11.64,20.27
		c9.19-4.46,11.27-21.37,11.27-21.37s81.82-54.71,81.82-67.79C3384.42,1557.63,3336.65,1508.55,3336.65,1508.55z"/>
	<path class="st19" d="M3337.23,1507.7c-0.57,0.64-1.08,1.32-1.67,1.93l-1.75,1.86l-0.87,0.93l-0.92,0.89l-1.83,1.77
		c-0.62,0.58-1.27,1.13-1.91,1.69c-1.25,1.15-2.64,2.14-3.94,3.22c-2.72,2.03-5.58,3.86-8.55,5.48l-1.12,0.6
		c-0.38,0.19-0.76,0.37-1.14,0.55c-0.76,0.38-1.53,0.71-2.31,1.04c-0.38,0.17-0.78,0.32-1.17,0.47c-0.39,0.15-0.78,0.31-1.18,0.45
		c-0.54,0.19-1.1,0.38-1.63,0.54l-3.96-4.73l-4.5-5.28c-2.98-3.53-6.04-7.01-9.07-10.5c-3.06-3.47-6.12-6.94-9.23-10.37
		s-6.24-6.85-9.46-10.19c2.75,3.72,5.58,7.37,8.43,11c2.85,3.64,5.75,7.23,8.65,10.83c2.94,3.57,5.84,7.16,8.82,10.69l4.45,5.32
		l4.5,5.28l0.49,0.58l0.71-0.19c0.95-0.25,1.76-0.53,2.61-0.84c0.84-0.31,1.66-0.64,2.46-1.01s1.61-0.74,2.38-1.15
		c0.39-0.2,0.79-0.4,1.17-0.61l1.14-0.65c3.05-1.74,5.89-3.8,8.58-6l1.95-1.73c0.66-0.57,1.27-1.18,1.88-1.79
		c0.61-0.61,1.23-1.21,1.82-1.84l1.71-1.93l0.85-0.97l0.8-1.01l1.58-2.03c1.02-1.37,1.93-2.82,2.89-4.22L3337.23,1507.7z"/>
	<path class="st7" d="M3232.16,1455.83c0,0,14.84,8.8,26.4,0l0,0l-2.73-21.47l-23-4.74L3232.16,1455.83L3232.16,1455.83z"/>
	<path class="st20" d="M3232.47,1443.62l0.36-14l23.33,7.26l0.66,5.25C3251.64,1444.01,3241.8,1446.29,3232.47,1443.62z"/>
	<path class="st10" d="M3215.7,1394.64c0.62,4.21-1.68,7.98-5.14,8.43c-3.46,0.45-6.77-2.59-7.4-6.8c-0.62-4.21,1.68-7.98,5.14-8.43
		C3211.76,1387.39,3215.08,1390.43,3215.7,1394.64z"/>
	<path class="st7" d="M3211.11,1417.17c-0.56-1.89-0.94-3.83-1.13-5.82c-0.62-5.37-0.24-10.8,0.47-15.44c0.15-1,0.25-2,0.32-3.01
		c0.3-4.06,1.37-8.18,3.4-12.17c6.54-12.87,21.33-20.08,35.96-17.5c19.71,3.48,31.9,22.28,27.2,40.56c2.34-0.59,4.71-0.26,6.51,1.13
		c3.46,2.66,3.52,8.2,0.14,12.36c-3.39,4.17-8.94,5.38-12.4,2.72c-0.48-0.37-0.89-0.8-1.24-1.27
		c-5.64,15.14-21.89,23.84-37.62,19.61c-7.69-2.07-13.9-6.86-17.91-13.08c-0.28-0.37-0.56-0.8-0.85-1.29
		C3212.7,1421.85,3211.77,1419.55,3211.11,1417.17z"/>
	<g>
		<path class="st14" d="M3252.21,1976.05l56.42-0.04c1.74,0,3.16-1.42,3.15-3.16l0,0c0-1.74-1.42-3.16-3.16-3.16l-56.42,0.04
			c-1.74,0-3.16,1.42-3.15,3.16l0,0C3249.05,1974.63,3250.46,1976.05,3252.21,1976.05z"/>
		<path class="st3" d="M3308.89,1950.52l2.09,17.56c0.26,2.17-0.95,4.13-2.54,4.13l-55.28,0.03c-1.44,0-2.86-0.89-3.61-2.58
			c-0.77-1.73-0.93-4.33,1.54-7.83c4.81-6.8,20.3-8.62,28.47-14.2c0.47-0.32,1.03-0.49,1.6-0.49l24.84-0.02
			C3307.44,1947.12,3308.66,1948.56,3308.89,1950.52z"/>
		<g>
			<path class="st14" d="M3284.16,1957.33L3284.16,1957.33c0.4-0.25,0.54-0.92,0.31-1.43c-1.09-2.4-4.48-8.26-11.39-7.05
				c-0.4,0.07-0.67,0.6-0.6,1.15l0,0.02c0.07,0.53,0.43,0.88,0.81,0.81c6.19-1.06,9.07,4.1,9.95,6.12
				C3283.44,1957.37,3283.83,1957.54,3284.16,1957.33z"/>
		</g>
		<g>
			<path class="st14" d="M3278.42,1959.6L3278.42,1959.6c0.4-0.25,0.55-0.92,0.31-1.43c-1.09-2.4-4.48-8.26-11.38-7.05
				c-0.4,0.07-0.67,0.6-0.6,1.15l0,0.02c0.07,0.53,0.42,0.88,0.81,0.81c6.19-1.06,9.07,4.1,9.95,6.12
				C3277.71,1959.63,3278.09,1959.8,3278.42,1959.6z"/>
		</g>
		<g>
			<path class="st14" d="M3273.08,1961.71L3273.08,1961.71c0.4-0.25,0.54-0.92,0.31-1.43c-1.09-2.41-4.48-8.26-11.39-7.05
				c-0.4,0.07-0.67,0.6-0.6,1.15l0,0.02c0.07,0.53,0.42,0.88,0.81,0.81c6.19-1.06,9.07,4.1,9.95,6.12
				C3272.37,1961.75,3272.75,1961.91,3273.08,1961.71z"/>
		</g>
	</g>
	<g>
		<path class="st14" d="M3170.13,1976.05l56.42-0.04c1.74,0,3.16-1.42,3.15-3.16l0,0c0-1.74-1.42-3.16-3.16-3.16l-56.42,0.04
			c-1.74,0-3.16,1.42-3.16,3.16l0,0C3166.97,1974.63,3168.38,1976.05,3170.13,1976.05z"/>
		<path class="st3" d="M3226.82,1950.52l2.09,17.56c0.26,2.17-0.95,4.13-2.54,4.13l-55.28,0.03c-1.44,0-2.86-0.89-3.61-2.58
			c-0.77-1.73-0.93-4.33,1.54-7.83c4.81-6.8,20.3-8.62,28.47-14.2c0.47-0.32,1.03-0.49,1.6-0.49l24.84-0.02
			C3225.36,1947.12,3226.58,1948.56,3226.82,1950.52z"/>
		<g>
			<path class="st14" d="M3202.08,1957.33L3202.08,1957.33c0.4-0.25,0.54-0.92,0.31-1.43c-1.09-2.4-4.48-8.26-11.39-7.05
				c-0.4,0.07-0.67,0.6-0.6,1.15l0,0.02c0.07,0.53,0.43,0.88,0.81,0.81c6.19-1.06,9.07,4.1,9.95,6.12
				C3201.36,1957.37,3201.75,1957.54,3202.08,1957.33z"/>
		</g>
		<g>
			<path class="st14" d="M3196.34,1959.6L3196.34,1959.6c0.4-0.25,0.55-0.92,0.31-1.43c-1.09-2.4-4.48-8.26-11.39-7.05
				c-0.4,0.07-0.67,0.6-0.6,1.15l0,0.02c0.07,0.53,0.43,0.88,0.81,0.81c6.19-1.06,9.07,4.1,9.95,6.12
				C3195.63,1959.63,3196.01,1959.8,3196.34,1959.6z"/>
		</g>
		<g>
			<path class="st14" d="M3191,1961.71L3191,1961.71c0.4-0.25,0.54-0.92,0.31-1.43c-1.09-2.41-4.48-8.26-11.39-7.05
				c-0.4,0.07-0.67,0.6-0.6,1.15l0,0.02c0.07,0.53,0.42,0.88,0.81,0.81c6.19-1.06,9.07,4.1,9.95,6.12
				C3190.29,1961.75,3190.67,1961.91,3191,1961.71z"/>
		</g>
	</g>
	<path class="st13" d="M3281.44,1399.57l-0.77-0.17l0.15-7.01l-2.28-6.71c0,0-9.69-18.4-10.05-18.87c-0.36-0.47-8.49-6.89-9-7.23
		s-12.86,0.62-12.86,0.62s-20.88-7.01-18.52,6.13c2.37,13.14,17.32,21.31,18.18,20.82c-2.26-3.11-1.73-11.28-1.73-11.28
		c10.56,16.04,32.2,28.01,32.2,28.01s2.55-1.7,6.5,0.33L3281.44,1399.57z"/>
	<path class="st8" d="M938.85,1211.78H440.74c-24.47,0-44.3-19.83-44.3-44.3V669.36c0-24.47,19.83-44.3,44.3-44.3h498.12
		c24.47,0,44.3,19.83,44.3,44.3v498.12C983.15,1191.94,963.32,1211.78,938.85,1211.78z"/>
	<path class="st8" d="M1606.15,1895.65h-498.12c-24.47,0-44.3-19.83-44.3-44.3v-498.12c0-24.47,19.83-44.3,44.3-44.3h498.12
		c24.46,0,44.3,19.83,44.3,44.3v498.12C1650.45,1875.82,1630.61,1895.65,1606.15,1895.65z"/>
	<path class="st11" d="M2256.99,1905.28h-498.12c-24.46,0-44.3-19.83-44.3-44.3v-498.12c0-24.46,19.83-44.3,44.3-44.3h498.12
		c24.47,0,44.3,19.83,44.3,44.3v498.12C2301.29,1885.45,2281.45,1905.28,2256.99,1905.28z"/>
	<path class="st11" d="M1615.42,1211.78H1117.3c-24.47,0-44.3-19.83-44.3-44.3V669.36c0-24.47,19.83-44.3,44.3-44.3h498.12
		c24.47,0,44.3,19.83,44.3,44.3v498.12C1659.71,1191.94,1639.88,1211.78,1615.42,1211.78z"/>
	<path class="st8" d="M2256.99,1211.78h-498.12c-24.46,0-44.3-19.83-44.3-44.3V669.36c0-24.47,19.83-44.3,44.3-44.3h498.12
		c24.47,0,44.3,19.83,44.3,44.3v498.12C2301.29,1191.94,2281.45,1211.78,2256.99,1211.78z"/>
	<g>
		<g>
			<path class="st14" d="M1100.44,788.5l41.97-18.28c1.3-0.56,1.89-2.07,1.33-3.37l0,0c-0.56-1.3-2.07-1.89-3.37-1.33l-41.97,18.28
				c-1.3,0.57-1.89,2.07-1.33,3.37l0,0C1097.63,788.47,1099.14,789.06,1100.44,788.5z"/>
			<path class="st5" d="M1134.36,751.16l7.24,12.39c0.89,1.53,0.63,3.38-0.56,3.9l-41.12,17.91c-1.07,0.47-2.41,0.26-3.52-0.75
				c-1.14-1.03-2.09-2.92-1.39-6.32c1.37-6.62,12.32-12.98,16.59-19.78c0.25-0.39,0.6-0.7,1.03-0.88l18.48-8.05
				C1132.17,749.11,1133.55,749.78,1134.36,751.16z"/>
			<g>
				<path class="st14" d="M1118.16,764.23L1118.16,764.23c0.22-0.31,0.11-0.86-0.23-1.17c-1.59-1.44-6.01-4.69-10.75-1.56
					c-0.27,0.18-0.3,0.66-0.08,1.05l0.01,0.01c0.22,0.37,0.6,0.51,0.87,0.34c4.26-2.79,8.08,0.12,9.38,1.33
					C1117.64,764.49,1117.98,764.49,1118.16,764.23z"/>
			</g>
			<g>
				<path class="st14" d="M1114.62,767.78L1114.62,767.78c0.22-0.31,0.11-0.86-0.23-1.17c-1.59-1.44-6.01-4.7-10.75-1.56
					c-0.27,0.18-0.3,0.66-0.08,1.05l0.01,0.01c0.22,0.37,0.6,0.51,0.87,0.34c4.26-2.79,8.08,0.12,9.38,1.33
					C1114.1,768.04,1114.44,768.04,1114.62,767.78z"/>
			</g>
			<g>
				<path class="st14" d="M1111.33,771.08L1111.33,771.08c0.22-0.31,0.11-0.86-0.23-1.17c-1.59-1.44-6.01-4.69-10.75-1.56
					c-0.27,0.18-0.3,0.66-0.08,1.05l0.01,0.01c0.22,0.37,0.6,0.51,0.87,0.34c4.26-2.79,8.08,0.11,9.39,1.33
					C1110.81,771.33,1111.15,771.34,1111.33,771.08z"/>
			</g>
		</g>
		<g>
			<path class="st14" d="M1142.54,786.99l41.97-18.28c1.3-0.57,1.89-2.07,1.33-3.37l0,0c-0.57-1.3-2.07-1.89-3.37-1.33l-41.97,18.28
				c-1.3,0.56-1.89,2.07-1.33,3.37v0C1139.74,786.96,1141.25,787.56,1142.54,786.99z"/>
			<path class="st5" d="M1176.46,749.65l7.24,12.39c0.89,1.53,0.63,3.38-0.56,3.9l-41.12,17.91c-1.07,0.47-2.41,0.26-3.52-0.75
				c-1.13-1.03-2.09-2.92-1.39-6.32c1.37-6.62,12.32-12.98,16.59-19.78c0.25-0.39,0.61-0.7,1.03-0.88l18.48-8.05
				C1174.28,747.6,1175.65,748.27,1176.46,749.65z"/>
			<g>
				<path class="st14" d="M1160.26,762.73L1160.26,762.73c0.22-0.31,0.11-0.86-0.23-1.17c-1.59-1.44-6.01-4.69-10.75-1.56
					c-0.27,0.18-0.3,0.66-0.08,1.05l0.01,0.01c0.22,0.37,0.6,0.51,0.87,0.34c4.26-2.79,8.08,0.12,9.39,1.33
					C1159.74,762.99,1160.08,762.99,1160.26,762.73z"/>
			</g>
			<g>
				<path class="st14" d="M1156.73,766.27L1156.73,766.27c0.22-0.31,0.11-0.86-0.23-1.17c-1.59-1.44-6.01-4.69-10.75-1.56
					c-0.27,0.18-0.3,0.66-0.08,1.05l0.01,0.01c0.22,0.37,0.6,0.51,0.87,0.34c4.26-2.79,8.08,0.12,9.39,1.33
					C1156.2,766.53,1156.54,766.53,1156.73,766.27z"/>
			</g>
			<g>
				<path class="st14" d="M1153.44,769.57L1153.44,769.57c0.22-0.31,0.11-0.86-0.23-1.17c-1.59-1.44-6.01-4.69-10.75-1.56
					c-0.27,0.18-0.3,0.66-0.08,1.05l0.01,0.01c0.22,0.37,0.6,0.51,0.87,0.34c4.26-2.79,8.08,0.11,9.39,1.33
					C1152.91,769.83,1153.26,769.83,1153.44,769.57z"/>
			</g>
		</g>
		<g>
			<path class="st4" d="M1280.54,568.19c0,0,10.35,48.72-36.62,60.28c-46.97,11.57-106.25,12.74-106.25,12.74l-1.1,113.48
				l-24.72,2.83c0,0-73.78-152.91,13.08-183.03l79.47-4.63l32.57-4.4c0,0,32.59-10.27,33.07-8.73
				C1270.53,558.27,1279.81,569.02,1280.54,568.19z"/>
			<path class="st9" d="M1096.96,438.35c-7.07-8.92-4.35-16.4,5.23-29.63c14.55-20.08,32.44-23.09,47.75-36.51
				c5.36-4.7,14.21-19.56,20.03-29.94c3.01-5.35,5.57-10.93,7.92-16.61c13.01-31.51,43.42-26.38,43.42-26.38s-1.57,39.86-1.68,40.98
				c-0.02,0.22-1.26,0.87-3.19,1.75c6.07,5.98,15.88,15.69,17.81,18.9c2.81,4.68,14.36,24.96,14.36,24.96s-20.02,55.57-21.9,71.11
				c-1,8.22-13.4,10.58-27.39,11.36c-8.85,17.04-21.14,34.29-34.21,33.16c-25.44-2.2-24.54-12.03-32.87-20.1
				c-8.33-8.07-26.03,0.41-37.42-13.43C1086.11,457.4,1101.37,443.92,1096.96,438.35z"/>
			<path class="st7" d="M1188.11,471.06c0,0,8.85,89.94,0.52,101.54h33.99V465.7L1188.11,471.06z"/>
			<path class="st9" d="M1276.17,316.44c0,0,9.94,14.95,15.01,20.88c12.76,14.91,14.4,10.23,22.33,23.06
				c8.56,13.85-0.1,22.51-5.02,26.5c-4.92,3.99,3.31,18.75-5.86,27.02c-12,10.83-23.11,0.62-31.37,6.68
				c-8.26,6.07-10.06,15.06-29.64,13.36c-19.58-1.7-19.38-65.7-19.38-65.7s16.02-33.93,16.66-34.21
				C1239.53,333.76,1276.17,316.44,1276.17,316.44z"/>
			<path class="st7" d="M1225.24,407.41c0,0,32.67-6.01,47.69-5.5c15.02,0.51-9.1,39.57-9.1,39.57l-24.54,0.54
				c0,0-15.04-16.8-14.05-18.75c0.99-1.96-0.05-14.77-0.05-14.77L1225.24,407.41z"/>
			<path class="st7" d="M1254.37,376.24l8.62,26.16c0,0-7.5,15.51-30.48,8.82c0,0,2.62-5.42-0.9-16.57
				C1228.02,383.24,1254.37,376.24,1254.37,376.24z"/>
			<path class="st21" d="M1254.37,376.24l4.04,12.22c-2.41,8.93-10.23,15.01-24.97,16.9c0.01-2.65-0.41-6.21-1.83-10.71
				C1228.02,383.24,1254.37,376.24,1254.37,376.24z"/>
			<path class="st10" d="M1201.81,357.09c1.86,4.25,0.62,8.9-2.78,10.39s-7.66-0.74-9.53-4.99c-1.86-4.25-0.62-8.9,2.78-10.39
				C1195.67,350.6,1199.94,352.84,1201.81,357.09z"/>
			<path class="st7" d="M1203.71,382.17c-1.12-1.82-2.07-3.76-2.85-5.8c-2.2-5.47-3.4-11.31-4.03-16.41
				c-0.14-1.09-0.33-2.18-0.55-3.26c-0.89-4.37-0.99-9.02-0.09-13.83c2.9-15.48,15.88-27.42,31.54-29
				c21.1-2.13,39.03,14.09,39.58,34.73c2.21-1.31,4.72-1.66,6.97-0.73c4.31,1.79,5.99,7.6,3.75,12.99
				c-2.23,5.38-7.54,8.3-11.85,6.51c-0.6-0.25-1.14-0.58-1.63-0.97c-1.32,17.61-15.35,31.55-32.62,31.72
				c-8.44,0.09-16.18-3.14-22.08-8.51c-0.39-0.31-0.81-0.68-1.24-1.11C1206.7,386.63,1205.08,384.48,1203.71,382.17z"/>
			<path class="st18" d="M1207.63,481.17c0,0,6.38,18.65,7.54,28.55c2.88,24.59-2.45,45.71-7.54,59.71
				c-7.14,19.64,53.37,8.73,54.56,8.13c1.19-0.6,51.17-19.93,51.17-19.93l3.77-38.55l5.75-37.92l-2.68-22.31L1207.63,481.17z"/>
			<path class="st7" d="M1303.49,426.97c0,0-7.74,0.67-6.9,14.14c0.84,13.47,7.13,39.11,7.13,39.11s61.08,132.35,74.46,143.77
				c0.73,0.62,1.64,0.96,2.6,1l23.51,0.3l17.52-0.23c-1.74-2.36-2.51-2.88-5.35-3.64l-19.18-5.09c-0.76-0.2-1.4-0.7-1.77-1.39
				l-6.15-11.22l-46.32-138.53c-4.73-11.01-15.97-17.3-23.69-26.45C1313.7,432.07,1307.54,426.31,1303.49,426.97z"/>
			<path class="st18" d="M1225.24,407.41c0,0,22.21,25.92,47.69-5.5c0,0,27.84-2.27,48.37,12.31
				c20.53,14.58,32.82,47.32,32.82,47.32s-37.19,18.74-46.41,19.64h-103.24c0,0-15.77-1.19-30.94-8.93
				C1173.53,472.25,1176.15,420.2,1225.24,407.41z"/>
			<path class="st22" d="M1291.18,442.02c1.06,3.18,2,6.4,2.96,9.61c0.96,3.21,1.82,6.45,2.68,9.7c0.82,3.25,1.64,6.51,2.35,9.79
				c0.71,3.28,1.4,6.58,1.92,9.91l-0.79-0.79c1.01,0.11,2.26,0.07,3.41-0.02c1.17-0.08,2.35-0.25,3.52-0.42
				c2.34-0.42,4.68-0.86,6.99-1.51l1.73-0.46l1.72-0.53c1.14-0.36,2.3-0.69,3.43-1.1l3.4-1.18l3.36-1.3
				c2.25-0.85,4.45-1.84,6.68-2.75l6.58-3l6.52-3.16c2.15-1.11,4.3-2.21,6.47-3.29c-2.04,1.29-4.11,2.56-6.18,3.81
				c-2.09,1.23-4.2,2.42-6.32,3.59c-2.14,1.14-4.3,2.24-6.48,3.33l-3.31,1.53c-1.1,0.51-2.2,1.03-3.33,1.48
				c-4.47,1.93-9.07,3.56-13.78,4.86l-1.77,0.48l-1.79,0.41c-1.19,0.3-2.41,0.48-3.62,0.69c-1.22,0.17-2.44,0.34-3.69,0.41
				c-1.26,0.08-2.44,0.13-3.84-0.02l-0.68-0.08l-0.11-0.71c-1-6.58-2.34-13.13-3.73-19.67l-2.13-9.81L1291.18,442.02z"/>
			<path class="st22" d="M1212.69,434.49c-1.46,3.81-2.78,7.63-3.96,11.48c-1.16,3.86-2.19,7.75-2.87,11.69
				c-0.38,1.96-0.63,3.95-0.79,5.93c-0.2,1.98-0.22,3.98-0.15,5.96c0.15,3.97,6.04,22.67,7.77,26.37
				c-2.45-3.28-8.86-22.14-9.29-26.25c-0.5-4.13-0.16-8.3,0.54-12.36c0.39-2.02,0.84-4.03,1.4-6.01c0.59-1.97,1.21-3.92,1.96-5.83
				C1208.76,441.66,1210.5,437.94,1212.69,434.49z"/>
			<path class="st9" d="M1267.3,348.61c0,0-38.14-9.2-56.37-35.12c0,0-0.32-23.6,34.7-18.25
				C1279.66,300.44,1287.63,333.55,1267.3,348.61z"/>
			<path class="st3" d="M1315.04,556.24c9.98,13.1,12.08,30.81,4.79,45.58c-5.06,10.26-14.61,19.82-32.23,24.16
				c-46.97,11.57-106.25,12.74-106.25,12.74l-1.1,113.48l-24.72,2.83c0,0-73.78-152.91,13.08-183.03l79.47-4.63l32.57-4.4
				c0,0,32.59-10.27,33.07-8.73C1313.83,554.56,1314.32,555.29,1315.04,556.24z"/>
			<path class="st22" d="M1168.15,641.75c1.26-0.23,2.52-0.44,3.76-0.73c1.24-0.29,2.47-0.62,3.69-0.99
				c0.61-0.19,1.22-0.4,1.82-0.62c-0.63-0.13-1.24-0.31-1.85-0.53c-1.2-0.42-2.32-1.03-3.38-1.73c-1.02-0.75-1.98-1.56-2.83-2.49
				c-0.85-0.92-1.57-1.94-2.21-2.99l1.25,1.36c0.45,0.42,0.87,0.87,1.33,1.26c0.89,0.83,1.89,1.53,2.91,2.16
				c1.03,0.62,2.12,1.13,3.24,1.52c1.12,0.38,2.32,0.65,3.44,0.69l2.04,0.07l-1.81,0.84c-1.23,0.57-2.46,0.95-3.72,1.3
				c-1.25,0.35-2.53,0.6-3.8,0.82c-1.28,0.21-2.56,0.39-3.84,0.48c-1.29,0.1-2.57,0.16-3.86,0.15
				C1165.62,642.13,1166.89,641.98,1168.15,641.75z"/>
		</g>
	</g>
	<g>
		<path class="st7" d="M1476.77,1682.96l-16.86-4.14l-58.55-13.68l-19.09,12.09c0,0-12.09,51.87-11.14,51.87
			s32.14,18.14,37.87,16.86c5.73-1.27,70,4.14,72.55-2.86c2.55-7,14.64-30.55,13.05-31.5
			C1493,1710.65,1476.77,1682.96,1476.77,1682.96z"/>
		<polygon class="st7" points="1404.39,1620.64 1401.36,1665.14 1444.74,1691.88 1462.01,1683.38 1462.98,1628.28 		"/>
		<path class="st10" d="M1462.35,1664.11l0.63-35.83l-58.58-7.64l-1.26,18.44C1414.61,1648.37,1434.63,1660.81,1462.35,1664.11z"/>
		<path class="st9" d="M1344.11,1553.48c0,0-28.46-70.96,12.21-104.42c40.67-33.45,88.08-36.69,122.31-24.5
			c34.23,12.19,61.09,67.1,51.14,101.86l-110.47-17.12L1344.11,1553.48z"/>
		<path class="st10" d="M1517.69,1541.26c-2.46,10.39,2.53,20.28,11.14,22.09s17.59-5.15,20.05-15.54
			c2.46-10.39-2.53-20.28-11.14-22.09S1520.15,1530.87,1517.69,1541.26z"/>
		<path class="st7" d="M1524.47,1598.5c1.8-4.61,3.17-9.4,4.07-14.33c2.7-13.29,2.88-26.95,2.08-38.7
			c-0.17-2.52-0.19-5.05-0.16-7.58c0.12-10.21-1.71-20.71-5.98-31.11c-13.72-33.46-49.4-54.41-86.74-50.85
			c-50.31,4.8-84.96,49.4-77.01,96.03c-5.75-1.93-11.79-1.59-16.62,1.52c-9.27,5.97-10.6,19.8-2.96,30.89s21.34,15.22,30.61,9.25
			c1.29-0.83,2.41-1.82,3.38-2.93c10.97,38.97,50.01,63.92,90.47,56.47c19.78-3.64,36.42-14.41,47.81-29.15
			c0.78-0.88,1.58-1.89,2.41-3.05C1519.48,1609.88,1522.29,1604.31,1524.47,1598.5z"/>
		<path class="st9" d="M1360.73,1551.96c0,0,54.64-30.12,80.74-68.29c0,0,1.82,18.76-3.77,26.18c2.22,1.04,40-19.54,45.3-50.08
			s-47.71-11.95-47.71-11.95s-31.65-0.76-32.93,0.08c-1.27,0.84-21.7,16.58-22.59,17.7c-0.89,1.12-24.61,44.64-24.61,44.64
			l-5.44,15.73l-5.59,27.51L1360.73,1551.96z"/>
		<path class="st9" d="M1401.36,1439.54c0,0-50.28-96.73-134.28-88.46s-102.46,76.37-98.64,110.1s26.73,71.28,5.09,118.37
			c-21.64,47.09-16.55,117.75,49.64,112.33c66.19-5.42,51.55-73.08,52.19-97.16c0.64-24.08,47.09-21.57,35.64-65.46
			c-11.46-43.9-42-89.08,0.64-95.44s68.1,13.36,68.1,13.36L1401.36,1439.54z"/>
		<path class="st14" d="M1382.52,1827.11l1.02-107.55c55.37,28,106.28-5.73,106.28-5.73l13.93,113.28H1382.52z"/>
		<path class="st2" d="M1481.4,1827.11l-4.62-144.15c0,0,59.19,7.64,69.69,88.78c1.8,13.93,3.07,33,3.92,55.37H1481.4z"/>
		<path class="st2" d="M1234.34,1827.11c8.57-21.79,17.27-42.04,25.95-59.71c18.4-37.49,51.15-65.98,90.67-79.47l31.3-10.69
			c0,0,9.16,64.39,17.71,149.87H1234.34z"/>
	</g>
	<g>
		<path class="st7" d="M1293.13,1052.7c0,0,64.68-10.54,156.7,0c92.02,10.54-51.01,92.04-65.2,86.79
			c-14.2-5.26-82.03-22.08-84.66-27.34C1297.33,1106.88,1293.13,1052.7,1293.13,1052.7z"/>
		<rect x="1340.5" y="1005.24" class="st7" width="59.64" height="104.5"/>
		<path class="st10" d="M1400.04,1023.09v-35.64h-59.54v30.32C1353.31,1024.65,1372.29,1028.61,1400.04,1023.09z"/>
		<path class="st7" d="M1493.91,881.06c-6.21-3.06-13.42-2.51-19.95,0.79c2.24-58.66-45.67-107.99-106.01-105.91
			c-60.34-2.09-108.25,47.25-106.01,105.91c-6.53-3.3-13.74-3.85-19.95-0.79c-11.92,5.87-15.62,22.69-8.27,37.56
			c7.35,14.87,22.97,22.17,34.89,16.3c1.66-0.82,3.13-1.86,4.46-3.06c6.83,48.49,47.35,84.84,94.88,84.17
			c47.54,0.67,88.05-35.68,94.88-84.17c1.33,1.2,2.81,2.25,4.47,3.06c11.92,5.87,27.54-1.43,34.89-16.3
			S1505.83,886.93,1493.91,881.06z"/>
		<path class="st9" d="M1483.29,766.86c-16.86-36.99-91.33-65.62-139.03-59.16c0,0-0.17,12.07,3.75,18.77
			c-4.8-6.15-23.84-24.87-71.56-13.64c0,0,6.42,15.61,9.95,21.51c0,0-16.68-0.08-30.25-6.65c0,0-15.09,25.55-3.32,50.26l-16.15-6.46
			c0,0,5.24,56.11,11.8,90.5l0,0c0.67,10.41,1.59,17.05,1.59,17.05c0.87,0.02,10.27-1.3,23.02,11.56c0.83-0.42,1.71-0.86,2.68-1.36
			c10.65-5.39,12.79-53.44,29.73-72.73c29.19-12.35,93.63-14.43,116.4-7.06c26.57,8.6,27.34,73.47,39.82,79.78
			c0.98,0.5,1.85,0.94,2.68,1.36c10.27-13.85,22.13-11.42,23-11.45C1487.39,879.16,1500.15,803.86,1483.29,766.86z"/>
		<path class="st5" d="M1432.02,935.91c0,0-21.27,10.85-34.84,0c-12.72-10.17-25.34-3.27-26.87-2.37
			c-1.53-0.9-14.15-7.81-26.87,2.37c-13.57,10.85-34.84,0-34.84,0s7.42,13.41,22.48,18.13l-4.17,1.63
			c8.16,3.38,19.11,0.81,26.45-1.73c1.57-0.45,3.17-0.96,4.82-1.61c0,0,4.71-1.62,8.62-4.73c0,0,2.87-0.33,3.51-1.89
			c0.64,1.56,3.51,1.89,3.51,1.89c3.91,3.11,8.62,4.73,8.62,4.73c1.65,0.65,3.25,1.16,4.82,1.61c7.35,2.54,18.3,5.1,26.45,1.73
			l-4.17-1.63C1424.6,949.33,1432.02,935.91,1432.02,935.91z"/>
		<path class="st9" d="M1364.34,973.19c0,0-4.79,14.67-21.37,17.07c-6.99,1.01-14.13-1.27-19.34-6.03
			c-0.02-0.02-0.05-0.04-0.07-0.06c-35.17-32.24-46-88.58-49.2-114.43l-14.42,11.12c0,0,11.92,17.17,11.35,51
			c0,0,0.2,10.13,4.04,23.63l0,0c0,0,5.7,31.5,17.79,43.86l1.76-6.62c6.17,7.14,13.96,13.7,23.78,18.88
			c5.8,5.98,16.35,15.53,27.18,18.57l-4.27-10.01c0.32-0.3,0.08-0.07,0.4-0.37c6.81,3.42,25.35,11.51,29.14,15.13
			c0,0,14.9-8.71,26.31-14.67c1.14-0.6,2.11-1.15,2.98-1.67l-1.51,8.83c2.66-0.85,11.46-9.91,17.88-16.8
			c8.43-4.71,15.31-10.46,20.91-16.69l1.24,8.84c10.45-9.66,17.16-40.41,17.16-40.41l0,0c5.97-16.78,6.25-30.5,6.25-30.5
			c-0.58-33.84,11.13-50.01,11.13-50.01l-14.2-12.11c-3.2,25.85-14.03,82.18-49.2,114.43c-0.03,0.02-0.05,0.05-0.08,0.07
			c-5.88,5.37-14.9,5.82-21.28,1.05c-6.85-5.12-9.13-12.09-9.13-12.09"/>
		<path class="st3" d="M1590.73,1139.73c-26.48-41.03-85.09-83.09-141.67-94.41c-11.77,16.8-37.31,42.81-82.84,43.16
			c-44.23,0.35-62.57-24.44-69.95-41.47c-21.86,5.58-58.62,18.32-86.58,45.07c-10.74,10.27-26.37,27.33-43.74,47.65H1590.73z"/>
	</g>
	<g>
		<path class="st23" d="M2232.54,1826.69c-13.94-42.8-26.33-74.5-35.11-85.2c-39.41-47.95-114.79-51.13-114.79-51.13
			s-4.66,64.58-9.8,136.33H2232.54z"/>
		<path class="st9" d="M1927.27,1524.04c0,0-18.83-94.96,36.21-128.36c55.04-33.4,111.75-27.49,149.65-5.01
			c37.9,22.48,58.21,96.97,39.19,138.47l-126.99-44.68L1927.27,1524.04z"/>
		<polygon class="st7" points="1985.46,1610.45 1976.26,1716.49 2072.52,1712.02 2061.42,1618.12 		"/>
		<path class="st10" d="M2066.7,1662.78l-5.28-44.66l-75.97-7.67l-3.19,36.72C1997.37,1661.8,2024.54,1676.97,2066.7,1662.78z"/>
		<path class="st10" d="M2125.73,1539c-5.79,11.64-2.72,24.72,6.86,29.22c9.58,4.5,22.03-1.28,27.82-12.92
			c5.79-11.64,2.72-24.72-6.86-29.22C2143.97,1521.58,2131.52,1527.37,2125.73,1539z"/>
		<path class="st7" d="M2117.64,1608.67c3.4-4.96,6.34-10.27,8.78-15.86c6.89-15,10.92-31.13,13.27-45.28
			c0.5-3.03,1.19-6.03,1.93-9.02c3-12.07,3.79-25,1.71-38.49c-6.69-43.39-42.6-77.98-87.32-83.99
			c-60.24-8.09-113.3,35.26-117.04,92.67c-6.2-3.87-13.36-5.11-19.88-2.75c-12.53,4.54-17.95,20.56-12.11,35.78
			c5.84,15.22,20.72,23.88,33.25,19.34c1.74-0.63,3.33-1.5,4.78-2.54c1.93,49.17,40.65,89.42,90.1,91.67
			c24.18,1.1,46.67-7.09,64.14-21.44c1.16-0.83,2.38-1.81,3.68-2.95C2108.61,1620.78,2113.46,1614.96,2117.64,1608.67z"/>
		<path class="st9" d="M1940.41,1510.1c-5.7-5.19-10.24-4.99-10.24-4.99l3.89-30.34l10.47-17.97c0,0,40.1-47.9,41.5-49.08
			s31.13-16.03,32.95-16.78c1.82-0.75,42.34,6.77,42.34,6.77s72.25-11.52,58.69,24.46c-13.56,35.97-66.66,53.09-69.29,51.37
			c8.83-7.84,10.63-31,10.63-31C2022.72,1480.2,1951.5,1506.21,1940.41,1510.1z"/>
		<path class="st7" d="M1934.5,1691.1c0,0,144.29-0.29,146.52-0.14s13.3-1.03,17.38,3.23c4.08,4.27,11.11,27.76-8.97,39.27
			c-20.07,11.51,22.59,11.99-31.85,21.58s-38.13,22.54-79.4,5.75c-41.27-16.78-46.59-9.59-48.01-24.46S1934.5,1691.1,1934.5,1691.1z
			"/>
		<path class="st5" d="M2206.48,1826.69c-9.87-34.73-22.74-61.49-36.52-82.08c-16.97-25.36-42.68-42.98-71.57-50.42
			c-0.13,0.5-7.31,27.32-44.4,31.6c-37.43,4.31-118.07-34.78-119.5-34.69l0,0c-41.66,2.59-77.68,10.42-96.45,32.29
			c-11.84,13.81-32.34,53.77-54.73,103.3H2206.48z"/>
	</g>
	<g>
		<path class="st24" d="M800.48,953.78c0,0,46.33-5.14,55.32,91.46l6.09,94.49h-55.65c0,0,6.03-113.84,5.05-117.9
			C810.29,1017.77,800.48,953.78,800.48,953.78z"/>
		<path class="st5" d="M610.51,1139.73c9.12-23.42,16.09-41.83,17.24-46.13l8.7,46.13h187.78c11.37-67.78,23.83-188.33-31.86-186.65
			l-104.54-1.36c0,0-68.43-7.51-90.13,19.19c-13.29,16.35-45.98,92.18-70.29,168.82H610.51z"/>
		<polygon class="st7" points="751.01,926.48 751.15,938.01 752.46,966.69 695.9,959.26 689.8,953.74 689.24,929.1 687.38,908.7 
			724.98,908.7 		"/>
		<path class="st10" d="M798.65,835.73c-3.46,9.4-0.17,19.26,7.35,22.02c7.52,2.77,16.42-2.61,19.87-12.01
			c3.46-9.4,0.17-19.26-7.35-22.02C811,820.96,802.1,826.34,798.65,835.73z"/>
		<path class="st10" d="M686.77,903.53c0,0,1.49,11.57,2.47,25.57c12.64,10.23,28.99,15.46,46.02,13.26
			c5.6-0.72,10.92-2.22,15.89-4.35c-0.39-9.13-0.26-17.6,1.15-21.65C756.19,905.21,686.77,903.53,686.77,903.53z"/>
		<path class="st7" d="M797.85,890.04c2.17-4.08,3.97-8.38,5.38-12.88c4.03-12.07,5.83-24.81,6.52-35.88
			c0.15-2.38,0.43-4.74,0.76-7.1c1.33-9.52,0.95-19.56-1.63-29.8c-8.3-32.96-37.82-57-71.79-58.34
			c-45.76-1.81-82.25,35.51-80.71,80.05c-4.94-2.52-10.4-2.96-15.11-0.66c-9.05,4.42-11.9,17.17-6.38,28.48
			c5.52,11.31,17.34,16.89,26.38,12.47c1.26-0.61,2.38-1.4,3.39-2.31c5.17,37.77,37.23,65.96,74.45,64.06
			c18.21-0.93,34.44-8.9,46.45-21.25c0.81-0.72,1.65-1.57,2.53-2.55C792,900.04,795.19,895.2,797.85,890.04z"/>
		<g>
		</g>
		<g>
		</g>
		<path class="st7" d="M675,950.89c0,0,8.91,11.3,20.16,26.24c23.48,31.19,73.64,16.1,75.21-22.91c0.02-0.48,0.04-0.96,0.05-1.44
			L675,950.89z"/>
		<path class="st9" d="M627.75,1093.59c1.09-3.59,1.92-7.25,2.56-10.93c0.7-3.67,1.2-7.38,1.68-11.08
			c0.88-7.42,1.35-14.88,1.56-22.35l0.14-5.6l-0.03-5.61c0.07-3.74-0.19-7.48-0.24-11.22c-0.01-1.87-0.2-3.74-0.27-5.61l-0.28-5.61
			c-0.23-3.74-0.57-7.47-0.77-11.23c0.62,3.7,1.14,7.42,1.68,11.14c0.38,3.74,0.84,7.47,1.1,11.22l0.34,5.63
			c0.13,1.88,0.17,3.76,0.21,5.64l0.09,5.65l-0.1,5.65c-0.25,7.53-0.81,15.05-1.99,22.5c-0.33,1.85-0.61,3.72-0.99,5.56
			c-0.41,1.84-0.75,3.69-1.24,5.51C630.25,1086.5,629.24,1090.14,627.75,1093.59z"/>
		<path class="st9" d="M806.12,764.58c-14.32-49.22-79.71-50.96-79.71-50.96c-101.13,7.01-85.2,95.72-81.86,110.4
			c2.93-0.68,6.95-0.59,11.85,2.06c2.06,1.12,3.72,2.3,5.08,3.48c11.91-3.63,15.52-23.41,21.69-32.94
			c8.37-12.93,45.24-6.26,59.23-15.43c13.99-9.18,15.42-23.36,15.42-23.36c53.94,8.55,53.1,65.55,53.1,65.55
			c2.33-0.52,5.21-0.27,5.21-0.27S818.91,808.55,806.12,764.58z"/>
		<path class="st9" d="M679.03,749.09c0,0-92.14-40.13-138.28,24.65c-46.14,64.78-32.03,113.86-74.12,145.63
			c0,0,88.46,58.53,119.38-35.45c30.93-93.98,101.36-109.55,101.36-109.55L679.03,749.09z"/>
	</g>
	<g>
		<path class="st11" d="M722.48,1922.12l-485.41-111.77c-23.84-5.49-38.72-29.27-33.23-53.11l111.77-485.41
			c5.49-23.84,29.27-38.72,53.11-33.23l485.41,111.77c23.84,5.49,38.72,29.27,33.23,53.11l-111.77,485.41
			C770.1,1912.73,746.32,1927.61,722.48,1922.12z"/>
		<g>
			<path class="st25" d="M607.38,1812.7c15.62-45.32,44.25-126.76,44.25-126.76s12.78,62.02,11.93,139.7L607.38,1812.7z"/>
			<path class="st7" d="M489.62,1713.31c-0.01-0.1-0.01-0.21-0.02-0.31C489.6,1713.1,489.61,1713.21,489.62,1713.31z"/>
			<path class="st7" d="M489.22,1706.59c-0.01-0.14-0.02-0.27-0.02-0.41C489.21,1706.32,489.22,1706.45,489.22,1706.59z"/>
			<path class="st7" d="M488.85,1700.03c0-0.08-0.01-0.16-0.01-0.24C488.84,1699.87,488.85,1699.94,488.85,1700.03z"/>
			<path class="st7" d="M488.21,1688.08c0-0.06-0.01-0.13-0.01-0.19C488.21,1687.95,488.21,1688.02,488.21,1688.08z"/>
			<path class="st18" d="M333.3,1749.59c44.18-117.32,77-144.71,79.07-145.92c44.25-25.99,179.34,26.99,179.34,26.99
				s52.19,18.71,59.75,55.24c3.07,14.86-4.69,71.51-14.99,133.5L333.3,1749.59z"/>
			<path class="st25" d="M366.89,1757.32c0.47-8.21,1.25-16.38,2.39-24.42c14.33-101.33,74.61-151.22,107.34-99.05
				c7.03,11.21,10.65,24.23,11.26,37.47c1.07,23.26,5.14,71.8,10.65,116.32L366.89,1757.32z"/>
			<path class="st7" d="M487.46,1672.96c-0.01-0.16-0.02-0.31-0.02-0.47C487.45,1672.64,487.46,1672.79,487.46,1672.96z"/>
			<path class="st7" d="M487.69,1677.57c-0.01-0.11-0.01-0.22-0.02-0.33C487.68,1677.35,487.68,1677.46,487.69,1677.57z"/>
			<path class="st7" d="M487.95,1682.85c-0.01-0.22-0.02-0.45-0.03-0.67C487.92,1682.4,487.94,1682.63,487.95,1682.85z"/>
			<path class="st7" d="M576.43,1627.07l9.51-59.04l-56.36-22.35l-24.92,66.57c-3.19,8.51,1.04,17.98,9.49,21.31
				c10.5,4.14,25.01,9.08,38.5,11C564.02,1646.18,574.61,1638.41,576.43,1627.07z"/>
			<path class="st10" d="M580.1,1604.27l5.84-36.24l-56.36-22.35l-10.55,28.18C527.34,1588.61,544.74,1606.36,580.1,1604.27z"/>
			<path class="st10" d="M649.74,1496.54c-6.17,10.08-4.64,22.26,3.43,27.2c8.07,4.94,19.62,0.77,25.79-9.31
				c6.17-10.08,4.64-22.26-3.43-27.2C667.46,1482.29,655.92,1486.46,649.74,1496.54z"/>
			<path class="st7" d="M636.29,1559.24c3.45-4.22,6.54-8.79,9.21-13.67c7.45-13.05,12.48-27.38,15.84-40.05
				c0.72-2.72,1.6-5.39,2.52-8.04c3.74-10.72,5.62-22.43,5-34.89c-2-40.08-30.65-74.73-69.68-84.13
				c-52.58-12.66-103.46,22.13-111.96,74.07c-5.13-4.06-11.36-5.83-17.35-4.25c-11.5,3.03-17.75,17.13-13.96,31.5
				c3.79,14.37,16.18,23.56,27.68,20.53c1.6-0.42,3.08-1.07,4.46-1.89c-2.73,44.93,27.89,84.97,71.45,91.36
				c21.3,3.13,41.95-2.35,58.7-13.88c1.1-0.65,2.27-1.43,3.52-2.36C627.2,1569.48,632.02,1564.6,636.29,1559.24z"/>
			<path class="st9" d="M686.57,1442.74c0,0,15.54,1.95,21.67-3.47c0,0-20.19,2.84-24.03-21.04c-3.84-23.88-20.09-50.52-48.35-63.05
				s-105.92-22.89-129.27-7.02c-23.35,15.86-34.21,33.62-37.75,60.61c-3.54,26.99-13.55,36.53-21.29,35.18c0,0,8.82,5.85,19.79,2.28
				c0,0-3.04,11.55-13.85,12.92c0,0,24.75,2.67,32.99-11.42c0,0-5.83,29.02-13.38,34.33c0,0,21.02-4.25,35.37-51.03
				c0,0,85.31-14.7,106.22-49.55c0,0-18.46,35.41-32.27,38.75c0,0,33.02,8.59,57.46-21.19c0,0,20.67,24.26,24.54,38.56
				c3.74,13.81,2.33,46.34,1.93,48.62l17.68-33.73c0,0,7.17,8.67,20.22,6C704.24,1458.49,688.12,1450.23,686.57,1442.74z"/>
		</g>
	</g>
	<g>
		
			<rect x="2595.05" y="805.8" transform="matrix(0.1315 -0.9913 0.9913 0.1315 1467.0197 3307.5576)" class="st7" width="52.11" height="21.52"/>
		<path class="st7" d="M2586.22,740.45c2.37-0.8,4.92-0.26,7.1,1.23c1.98-21.09,21.46-36.46,42.94-32.85
			c21.68,2.12,36.48,22.04,32.89,42.91c2.49-0.87,5.1-0.73,7.17,0.66c3.98,2.67,4.51,8.86,1.18,13.83
			c-3.33,4.97-9.27,6.84-13.25,4.18c-0.55-0.37-1.03-0.81-1.45-1.31c-4.74,17.02-20.96,28.1-37.93,25.6
			c-17.04-2.01-29.8-16.94-29.95-34.61c-0.53,0.37-1.11,0.67-1.74,0.88c-4.54,1.53-9.78-1.82-11.71-7.49
			C2579.55,747.82,2581.68,741.98,2586.22,740.45z"/>
		<path class="st26" d="M2595.44,700.11c7.79-12.43,35.78-19.14,52.54-14.56c0,0-0.51,4.33-2.23,6.54
			c2.01-1.97,9.71-7.77,26.24-1.48c0,0-3.04,5.28-4.58,7.22c0,0,5.97,0.76,11.14-0.94c0,0,4.18,9.86-1.2,18.13l6.08-1.54
			c0,0-4.54,19.82-8.51,31.81l0,0c-0.73,3.69-1.38,6.02-1.38,6.02c-0.31-0.03-3.61-0.95-8.78,3.04c-0.28-0.19-0.57-0.39-0.9-0.61
			c-3.55-2.43-2.04-19.72-7.18-27.42c-9.86-5.8-32.8-9.6-41.3-8.05c-9.91,1.81-13.26,24.98-18.03,26.65
			c-0.37,0.13-0.71,0.25-1.02,0.36c-3.02-5.44-7.38-5.14-7.68-5.19C2588.64,740.08,2587.65,712.54,2595.44,700.11z"/>
		<path class="st7" d="M2649.17,805.88l-52.48-6.96l11.12,25.28c0,0,23.38,4.19,25.68,3.41
			C2635.8,826.83,2649.17,805.88,2649.17,805.88z"/>
		<path class="st13" d="M2662.17,968.45c0,0,23.21,206.99,19.44,279.12l-40.99,4.89l-42.69-239.47l-5.4,0.21l-27.5,240.86h-37.22
			c0,0-6.14-240.44,13.93-308.19C2561.81,878.13,2662.17,968.45,2662.17,968.45z"/>
		<path class="st7" d="M2647.74,1263l0.85,29.98l19.9,14.43c0,0,7.55-14.4,7.37-16.15c-0.19-1.75,0.01-36.14,0.01-36.14
			L2647.74,1263z"/>
		<path class="st7" d="M2558.11,1263l-0.85,29.98l-19.9,14.43c0,0-6.51-14.4-6.33-16.15c0.19-1.75-1.05-36.14-1.05-36.14
			L2558.11,1263z"/>
		<path class="st27" d="M2682.79,1244.88l-43.13,5.14c-1.19,0.14-2.01,1.26-1.78,2.44l2.92,15.21c0.21,1.08,1.22,1.81,2.31,1.66
			l40.39-5.58c1.03-0.14,1.8-1.03,1.78-2.07l-0.18-14.76C2685.09,1245.68,2684.01,1244.74,2682.79,1244.88z"/>
		<path class="st7" d="M2708.45,847l-13.32-39.03l11.07-2.48c23.46-0.71,45.6-11.67,49.18-15.39c7.59-7.9-19.18-60.78-19.18-60.78
			l20.72-4.19c0,0,47.66,63.87,27.32,85.69c-20.33,21.83-70.12,35.66-70.12,35.66L2708.45,847z"/>
		<path class="st7" d="M2528.85,823.18l23.03-34.21l-10.04-5.28c-22.47-6.8-40.98-23.15-43.47-27.68
			c-5.26-9.6,34.37-53.68,34.37-53.68l-18.91-9.45c0,0-62.66,49.24-48.72,75.61c13.94,26.37,58.4,52.7,58.4,52.7L2528.85,823.18z"/>
		<path class="st27" d="M2524.19,1246.03l43.13,5.14c1.19,0.14,2.01,1.26,1.78,2.44l-2.92,15.21c-0.21,1.08-1.22,1.81-2.31,1.66
			l-40.39-5.58c-1.03-0.14-1.79-1.03-1.78-2.07l0.18-14.76C2521.9,1246.83,2522.97,1245.89,2524.19,1246.03z"/>
		<path class="st2" d="M2519.38,822.83l22.16-41.75c13.62,6.18,34.9,11.74,45.79,14.37c4.51,1.09,8.81,2.91,12.75,5.36
			c0.15,0.09,0.29,0.18,0.44,0.27c13.29,8.24,29.44,10.38,44.41,5.89c0.16-0.05,0.33-0.1,0.5-0.15c4.44-1.34,9.07-1.98,13.71-1.86
			c11.19,0.29,33.19,0.48,47.95-1.94l10.51,46.08c-22.59,4.83-43.01,3.83-43.01,3.83l-6.69,132.62l0,0
			c-45.76,4.22-91.88-1.82-135.01-17.66l-1.07-0.39l28.11-129.78C2559.91,837.74,2539.92,833.39,2519.38,822.83z"/>
		<g>
			<path class="st27" d="M2704.02,1318.57l-56.32-0.04c-1.74,0-3.15-1.41-3.15-3.15l0,0c0-1.74,1.41-3.15,3.15-3.15l56.32,0.04
				c1.74,0,3.15,1.41,3.15,3.15l0,0C2707.17,1317.16,2705.76,1318.57,2704.02,1318.57z"/>
			<path class="st2" d="M2647.43,1293.08l-2.09,17.53c-0.26,2.16,0.95,4.12,2.54,4.13l55.18,0.03c1.43,0,2.85-0.89,3.6-2.57
				c0.77-1.72,0.93-4.32-1.54-7.81c-4.8-6.79-20.27-8.6-28.42-14.18c-0.47-0.32-1.03-0.49-1.6-0.49l-24.79-0.02
				C2648.89,1289.7,2647.66,1291.13,2647.43,1293.08z"/>
			<g>
				<path class="st14" d="M2672.12,1299.89L2672.12,1299.89c-0.4-0.25-0.54-0.92-0.31-1.43c1.08-2.4,4.48-8.25,11.37-7.04
					c0.4,0.07,0.67,0.6,0.6,1.14l0,0.02c-0.07,0.53-0.42,0.87-0.81,0.81c-6.17-1.06-9.06,4.09-9.94,6.11
					C2672.84,1299.92,2672.45,1300.09,2672.12,1299.89z"/>
			</g>
			<g>
				<path class="st14" d="M2677.85,1302.15L2677.85,1302.15c-0.4-0.25-0.54-0.92-0.31-1.43c1.08-2.4,4.48-8.25,11.37-7.04
					c0.4,0.07,0.67,0.6,0.6,1.14l0,0.02c-0.07,0.53-0.43,0.87-0.81,0.81c-6.17-1.06-9.06,4.09-9.94,6.11
					C2678.57,1302.18,2678.18,1302.35,2677.85,1302.15z"/>
			</g>
			<g>
				<path class="st14" d="M2683.18,1304.26L2683.18,1304.26c-0.4-0.25-0.54-0.92-0.31-1.43c1.08-2.4,4.47-8.25,11.37-7.04
					c0.4,0.07,0.67,0.6,0.6,1.14l0,0.02c-0.07,0.53-0.42,0.87-0.81,0.81c-6.17-1.06-9.06,4.09-9.94,6.11
					C2683.9,1304.29,2683.51,1304.46,2683.18,1304.26z"/>
			</g>
		</g>
		<g>
			<path class="st27" d="M2503.26,1318.57l56.32-0.04c1.74,0,3.15-1.41,3.15-3.15l0,0c0-1.74-1.41-3.15-3.15-3.15l-56.32,0.04
				c-1.74,0-3.15,1.41-3.15,3.15l0,0C2500.11,1317.16,2501.52,1318.57,2503.26,1318.57z"/>
			<path class="st2" d="M2559.84,1293.08l2.09,17.53c0.26,2.16-0.95,4.12-2.54,4.13l-55.18,0.03c-1.43,0-2.85-0.89-3.6-2.57
				c-0.77-1.72-0.93-4.32,1.54-7.81c4.8-6.79,20.27-8.6,28.42-14.18c0.47-0.32,1.03-0.49,1.59-0.49l24.79-0.02
				C2558.39,1289.7,2559.61,1291.13,2559.84,1293.08z"/>
			<g>
				<path class="st14" d="M2535.16,1299.89L2535.16,1299.89c0.4-0.25,0.54-0.92,0.31-1.43c-1.08-2.4-4.48-8.25-11.37-7.04
					c-0.4,0.07-0.67,0.6-0.6,1.14l0,0.02c0.07,0.53,0.42,0.87,0.81,0.81c6.17-1.06,9.06,4.09,9.94,6.11
					C2534.44,1299.92,2534.82,1300.09,2535.16,1299.89z"/>
			</g>
			<g>
				<path class="st14" d="M2529.43,1302.15L2529.43,1302.15c0.4-0.25,0.54-0.92,0.31-1.43c-1.08-2.4-4.47-8.25-11.37-7.04
					c-0.4,0.07-0.67,0.6-0.6,1.14l0,0.02c0.07,0.53,0.42,0.87,0.81,0.81c6.17-1.06,9.06,4.09,9.94,6.11
					C2528.71,1302.18,2529.09,1302.35,2529.43,1302.15z"/>
			</g>
			<g>
				<path class="st14" d="M2524.1,1304.26L2524.1,1304.26c0.4-0.25,0.54-0.92,0.31-1.43c-1.08-2.4-4.47-8.25-11.36-7.04
					c-0.4,0.07-0.67,0.6-0.6,1.14l0,0.02c0.07,0.53,0.42,0.87,0.81,0.81c6.17-1.06,9.06,4.09,9.94,6.11
					C2523.38,1304.29,2523.77,1304.46,2524.1,1304.26z"/>
			</g>
		</g>
		<path class="st11" d="M2362.24,671.67l509.21,70.18c24.24,3.34,46.59-13.6,49.93-37.84l70.18-509.21
			c3.34-24.24-13.6-46.59-37.83-49.93l-509.21-70.18c-24.24-3.34-46.59,13.6-49.93,37.83l-70.18,509.21
			C2321.06,645.97,2338,668.33,2362.24,671.67z"/>
		<path class="st7" d="M2734.43,722.15c0,0-5.95-2.37-6.12-7.29c-0.16-4.93-3.46-2.64-3.75-0.5c-0.28,2.14-3.76,11.9,11.64,14.96
			c15.4,3.06,20.72-4.19,20.72-4.19L2734.43,722.15z"/>
		<path class="st7" d="M2536.32,695.87c0,0,6.36-0.73,7.81-5.45c1.44-4.71,4.03-1.65,3.75,0.5c-0.28,2.14,0.53,12.47-15.14,11.41
			c-15.66-1.06-18.91-9.45-18.91-9.45L2536.32,695.87z"/>
		<g>
			<path class="st4" d="M2725.72,646.98c11.74-47.44,33.4-132.74,33.4-132.74s18.62,61.82,24.83,140.77L2725.72,646.98z"/>
			<path class="st7" d="M2597.09,556.77c-0.01-0.11-0.03-0.21-0.05-0.31C2597.06,556.56,2597.07,556.66,2597.09,556.77z"/>
			<path class="st7" d="M2596.08,549.98c-0.02-0.14-0.04-0.28-0.06-0.41C2596.04,549.7,2596.06,549.84,2596.08,549.98z"/>
			<path class="st7" d="M2595.11,543.35c-0.01-0.08-0.02-0.16-0.04-0.24C2595.08,543.19,2595.09,543.27,2595.11,543.35z"/>
			<path class="st7" d="M2593.37,531.28c-0.01-0.06-0.02-0.13-0.03-0.2C2593.35,531.15,2593.36,531.21,2593.37,531.28z"/>
			<path class="st3" d="M2441.65,607.82c34.19-123.15,65.03-153.95,67.02-155.37c42.57-30.42,184.57,11.09,184.57,11.09
				s54.7,14.25,65.7,50.66c4.47,14.81,1.74,73.05-3.08,136.92L2441.65,607.82z"/>
			<path class="st4" d="M2476.47,612.62c-0.27-8.38-0.22-16.74,0.2-25.02c5.33-104.2,62.01-160.35,99.99-110.35
				c8.16,10.75,13.02,23.64,14.84,37.02c3.2,23.53,11.76,72.44,21.4,117.15L2476.47,612.62z"/>
			<path class="st7" d="M2621.76,393.47l-10.24,74.32c-0.57,4.13,1.27,8.22,4.76,10.48c10.61,6.88,34.76,19.11,60.35,8.46
				c3.45-1.44,5.82-4.7,6.34-8.41l9.25-67.13L2621.76,393.47z"/>
			<path class="st10" d="M2616.28,433.28l5.49-39.8l70.45,17.73l-4.65,33.77C2673.58,447.19,2648.04,447.81,2616.28,433.28z"/>
			<path class="st10" d="M2750,329.66c-5.5,11.25-2.68,23.93,6.3,28.34c8.98,4.4,20.71-1.15,26.21-12.4
				c5.5-11.25,2.68-23.93-6.3-28.34C2767.23,312.86,2755.5,318.41,2750,329.66z"/>
			<path class="st7" d="M2742.05,397.11c3.22-4.79,6.01-9.92,8.33-15.33c6.55-14.5,10.42-30.11,12.7-43.8
				c0.49-2.94,1.15-5.84,1.86-8.73c2.88-11.68,3.69-24.21,1.8-37.28c-6.07-42.06-39.65-75.73-81.63-81.74
				c-56.56-8.1-106.64,33.66-110.45,89.27c-5.8-3.77-12.53-5.01-18.67-2.75c-11.79,4.34-16.97,19.84-11.56,34.61
				c5.41,14.77,19.36,23.22,31.15,18.88c1.64-0.6,3.13-1.44,4.51-2.44c1.57,47.64,37.76,86.8,84.21,89.19
				c22.72,1.17,43.9-6.67,60.38-20.49c1.09-0.8,2.25-1.74,3.47-2.84C2733.5,408.8,2738.09,403.18,2742.05,397.11z"/>
			<path class="st9" d="M2615.06,180.63c0,0,29.76-20.92,91.27-10.38c61.51,10.54,69.76,45.25,68.23,93.38l-7.1,52.18
				c0,0-16.8-14.58-32.72-64.28c0,0-38.92,36.52-53.51,30.12s9.28-33.14,9.28-33.14s-74.3,56.19-115.9,51.61
				c0,0-17.2-76.91,16.55-100.58c0,0-23.4-1.36-24.13-6.23c-0.73-4.87,12.35-10.63,34.44-5.54c0,0-12.53-33.99-3.27-36.39
				C2607.45,148.97,2615.06,180.63,2615.06,180.63z"/>
			<path class="st7" d="M2591.23,515.99c-0.02-0.16-0.04-0.32-0.07-0.48C2591.19,515.67,2591.21,515.82,2591.23,515.99z"/>
			<path class="st7" d="M2591.88,520.65c-0.02-0.11-0.03-0.23-0.05-0.34C2591.85,520.43,2591.86,520.54,2591.88,520.65z"/>
			<path class="st7" d="M2592.62,525.99c-0.03-0.23-0.06-0.45-0.09-0.68C2592.56,525.53,2592.59,525.76,2592.62,525.99z"/>
		</g>
	</g>
	<g>
		<path class="st1" d="M2113.54,1139.24h88.89c-9.01-44.48-23.64-102.48-42.35-127.21c-25.75-34.05-90.39-38.14-90.39-38.14
			s38.85,128.13,38.85,132.38C2108.54,1107.57,2110.63,1121.09,2113.54,1139.24z"/>
		<path class="st2" d="M2173.25,1139.24c-0.47-8.49-1.12-16.93-2.01-25.25c-5.51-51.12-31.07-97.62-70.46-129.79
			c-4.78-3.9-10.41-6.67-16.41-8.1c-16.31-3.9-37.6-4.65-48.04-4.77h-34.3c0,0-54.01,8.44-79.55,10.71
			c-64.33,5.72-67.55,112.9-78.79,157.2H2173.25z"/>
		<path class="st9" d="M1953.87,834.75c0,0-18.85-77.36,26.06-106.33c44.91-28.97,92.51-25.75,124.94-8.39
			c32.42,17.36,51.83,77.88,37.3,112.47l-107.62-33.02L1953.87,834.75z"/>
		<path class="st7" d="M2126.86,1009.99c-7.82-9.32-16.51-17.96-26.03-25.74c-4.8-3.92-10.43-6.7-16.46-8.15
			c-16.32-3.91-37.61-4.65-48.05-4.77h-34.3c0,0-9.38,0.52-22.1,1.67C2007.62,994.14,2059.49,1022.7,2126.86,1009.99z"/>
		<path class="st7" d="M2013.63,978.9l72.2,1.5c-1.46-16.03-2.71-37.27-0.05-44.93c4.5-12.92-75.94-14.87-75.94-14.87
			S2014.13,953.78,2013.63,978.9z"/>
		<path class="st10" d="M2009.85,920.6c0,0,1.73,13.41,2.86,29.63c14.65,11.85,33.59,17.91,53.32,15.36
			c6.49-0.84,12.66-2.57,18.41-5.04c-0.46-10.58-0.3-20.39,1.34-25.08C2090.29,922.55,2009.85,920.6,2009.85,920.6z"/>
		<path class="st9" d="M2001.45,818.06c0,0-38.46-3.45-77.52,28.97c-39.06,32.42-57.26,120.19-1.59,174.61
			c55.66,54.42,86.02,55.68,100.5,108.17c0,0,38.63-50.12,0-120.58c0,0,15.5,5.39,24.14,20.9c0,0,9.18-50.65-29.9-82.39
			s-43.22-75.42-12.86-84.27C2034.56,854.62,2001.45,818.06,2001.45,818.06z"/>
		<path class="st10" d="M2128.17,846.16c-3.83,10.41-0.19,21.33,8.14,24.4c8.33,3.06,18.18-2.89,22.01-13.3
			c3.83-10.41,0.19-21.33-8.14-24.4C2141.86,829.8,2132,835.75,2128.17,846.16z"/>
		<path class="st7" d="M2127.29,906.31c2.4-4.52,4.4-9.29,5.96-14.26c4.46-13.37,6.46-27.48,7.23-39.75
			c0.17-2.63,0.48-5.25,0.85-7.86c1.48-10.55,1.05-21.66-1.8-33.01c-9.19-36.51-41.9-63.13-79.52-64.63
			c-50.68-2.01-91.1,39.33-89.41,88.67c-5.47-2.8-11.52-3.28-16.74-0.73c-10.02,4.9-13.18,19.02-7.06,31.54
			c6.12,12.52,19.2,18.71,29.22,13.81c1.39-0.68,2.64-1.55,3.76-2.56c5.72,41.84,41.24,73.06,82.47,70.96
			c20.17-1.03,38.15-9.86,51.45-23.53c0.89-0.8,1.83-1.74,2.81-2.82C2120.8,917.39,2124.34,912.02,2127.29,906.31z"/>
		<path class="st9" d="M1970.6,835.47c0,0,58.37-23.59,89.42-59.46c0,0-0.69,19.66-7.24,26.56c2.07,1.38,42.4-14.68,51.74-45.53
			c9.34-30.85-45.88-18.97-45.88-18.97s-31.39-5.17-32.77-4.48c-1.38,0.69-23.8,14.14-24.83,15.18
			c-1.04,1.03-30.43,42.77-30.43,42.77l-7.51,15.52l-1.73,21.39L1970.6,835.47z"/>
	</g>
	<path class="st7" d="M336.8,1505.9c-0.58,0.51-0.36,1.47,0.38,1.67c5.8,1.57,24,6.62,23.94,8.19c-0.08,1.86-16.45-2.26-17.41-0.82
		c-0.96,1.44,15.12,5.05,14.71,7.03c-0.4,1.98-14.95-1.81-15.41-1.04c-0.46,0.77,13.09,5.89,13.55,7.2
		c0.46,1.3-14.67-2.4-15.49-1.62c-0.82,0.78,8.77,6.81,8.34,7.69c-0.42,0.88-0.56,1.54-26.04-5.84l-9.91-3.34l-6.62-7.09l4.95-10.56
		c0,0,31.91-12.13,33.06-11.31C345.96,1496.84,345.73,1497.98,336.8,1505.9z"/>
	<path class="st7" d="M221.48,1389.54c0,0-15.88,9.42-28.26,0l0,0l2.92-22.98l24.62-5.07L221.48,1389.54L221.48,1389.54z"/>
	<path class="st20" d="M221.14,1376.48l-0.38-14.99l-24.98,7.77l-0.7,5.62C200.62,1376.89,211.15,1379.33,221.14,1376.48z"/>
	<path class="st3" d="M317,1494.42c-12.59,3.01-42.2,1.51-64.64-0.25c-0.18-18.56-0.89-35.83-2.52-47.95
		c-5.78-43.06-25.74-57-25.74-57c-19.89,2.37-33.71-8.24-33.71-8.24c-26.67,0.32-42.1,14.78-42.1,14.78
		c-40.98,35.34-9.96,107.65-9.96,107.65l-11.25,95.53c25.39,8.68,129.18,3.46,129.18,3.46s-5.07-30.42-4.33-61.39
		c32.89-1.84,65.06-7.08,65.06-7.08C318.29,1526.88,317,1494.42,317,1494.42z"/>
	<path class="st28" d="M180,1430.05c-0.07,14.3,6.2,28.08,16.09,37.91c4.94,4.95,10.68,9.08,16.88,12.35
		c6.19,3.27,12.73,5.96,19.53,7.83c0.84,0.25,1.68,0.54,2.53,0.76l2.57,0.63c1.72,0.41,3.42,0.87,5.14,1.24l5.21,0.98l2.6,0.49
		l2.63,0.37c3.5,0.5,7,1.03,10.54,1.29l5.29,0.49c1.77,0.13,3.54,0.2,5.31,0.3c14.17,0.74,28.42,0.46,42.67-0.26
		c-14.14,1.84-28.44,2.88-42.76,2.51c-14.3-0.39-28.71-1.92-42.55-6.02c-6.94-1.96-13.67-4.74-20.02-8.21
		c-6.32-3.52-12.25-7.86-17.2-13.19c-2.51-2.62-4.69-5.55-6.66-8.59c-1.89-3.1-3.52-6.34-4.8-9.72c-1.22-3.4-2.13-6.9-2.67-10.45
		C179.8,1437.21,179.6,1433.6,180,1430.05z"/>
	<path class="st28" d="M317,1533.95c-15.53,3.48-31.33,5.8-47.21,7.2c-15.88,1.4-31.88,1.82-47.84,0.84
		c-15.92-1.09-31.95-3.46-47.04-9.07c-7.53-2.78-14.78-6.47-21.19-11.33c-6.36-4.89-11.87-11.01-15.39-18.17
		c4.1,6.83,9.72,12.6,16.23,17.02c6.47,4.49,13.67,7.81,21.11,10.35c7.45,2.53,15.14,4.36,22.93,5.66
		c7.78,1.31,15.65,2.17,23.54,2.65c15.79,1.03,31.66,0.74,47.49-0.2c7.92-0.49,15.83-1.15,23.72-1.98
		C301.25,1536.15,309.13,1535.12,317,1533.95z"/>
	<path class="st5" d="M164,1330.96c0,0-6.84-35.46,13.14-47.94c19.98-12.47,40.57-10.27,54.33-1.87
		c13.76,8.4,21.13,36.22,14.23,51.71l-46.1-16.69L164,1330.96z"/>
	<path class="st10" d="M237.77,1330.23c-1.42,4.32,0.33,8.72,3.9,9.82c3.57,1.1,7.62-1.51,9.04-5.84c1.42-4.32-0.33-8.72-3.9-9.82
		C243.24,1323.29,239.19,1325.9,237.77,1330.23z"/>
	<path class="st7" d="M238.54,1354.83c0.93-1.89,1.68-3.88,2.25-5.94c1.63-5.55,2.2-11.35,2.3-16.38c0.02-1.08,0.1-2.15,0.21-3.23
		c0.42-4.34,0.04-8.87-1.38-13.46c-4.57-14.76-18.87-25.04-34.77-24.97c-21.42,0.1-37.69,17.73-36.04,37.87
		c-2.36-1.04-4.92-1.13-7.07,0.01c-4.13,2.18-5.2,8.01-2.38,13.02c2.82,5.01,8.46,7.3,12.59,5.11c0.57-0.3,1.08-0.68,1.54-1.11
		c3.21,16.99,18.78,29.11,36.13,27.5c8.49-0.79,15.91-4.72,21.26-10.55c0.36-0.34,0.74-0.74,1.13-1.2
		C236.02,1359.48,237.41,1357.22,238.54,1354.83z"/>
	<path class="st9" d="M172.02,1329.82c-2.07-1.94-3.72-1.86-3.72-1.86l1.41-11.33l3.8-6.71c0,0,14.56-17.89,15.06-18.33
		c0.51-0.44,11.3-5.99,11.96-6.27c0.66-0.28,15.37,2.53,15.37,2.53s26.23-4.3,21.31,9.13c-4.92,13.44-24.2,19.83-25.15,19.18
		c3.2-2.93,3.86-11.58,3.86-11.58C201.9,1318.66,176.05,1328.37,172.02,1329.82z"/>
	<path class="st7" d="M3086.66,1528.56c-0.19-0.56-0.51-2.42-0.54-2.83c-0.07-1.14,0.52-2.23,1.51-2.85l1.13-0.71l0.86,2.74l0,0
		c0.47,2.14,0.38,2.01,3.66,2.49c4.67,0.69,3.51,3.36,3.51,3.36s-0.74,1.87-6.55,0.69
		C3090.24,1531.46,3087.44,1530.83,3086.66,1528.56z"/>
	<path class="st7" d="M3083.68,1518.52c-0.24-0.7-0.64-3-0.67-3.51c-0.08-1.42,0.64-2.77,1.88-3.54l1.41-0.88l1.06,3.41l0,0
		c0.58,2.66,0.48,2.49,4.55,3.1c5.8,0.86,4.36,4.17,4.36,4.17s-0.92,2.32-8.13,0.85
		C3088.13,1522.11,3084.65,1521.33,3083.68,1518.52z"/>
	<path class="st7" d="M3085.79,1525.33c-0.19-0.56-0.51-2.42-0.54-2.83c-0.07-1.14,0.52-2.23,1.51-2.85l1.13-0.71l0.86,2.74l0,0
		c0.47,2.14,0.38,2.01,3.66,2.49c4.67,0.69,3.51,3.36,3.51,3.36s-0.74,1.87-6.55,0.69
		C3089.37,1528.22,3086.57,1527.6,3085.79,1525.33z"/>
	<path class="st7" d="M3083.93,1521.61c-0.23-0.66-0.61-2.85-0.64-3.34c-0.08-1.35,0.61-2.64,1.79-3.37l1.34-0.83l1.01,3.24l0,0
		c0.55,2.54,0.45,2.37,4.33,2.95c5.52,0.82,4.15,3.97,4.15,3.97s-0.88,2.21-7.74,0.81
		C3088.17,1525.04,3084.86,1524.29,3083.93,1521.61z"/>
	<path class="st10" d="M3094.46,1517.8c0.87,0.33,1.71,0.95,2.02,1.9c0.14,0.47,0.15,0.97,0.02,1.46c-0.02,0.11-0.09,0.27-0.17,0.38
		c-0.08,0.11-0.17,0.21-0.26,0.29c-0.19,0.18-0.41,0.31-0.63,0.44c-0.91,0.46-1.91,0.58-2.87,0.62c-0.97,0.02-1.93-0.05-2.88-0.19
		c-0.48-0.06-0.94-0.17-1.41-0.25c-0.49-0.09-0.95-0.26-1.4-0.45c-0.88-0.4-1.72-0.93-2.36-1.66c-0.33-0.35-0.58-0.77-0.8-1.2
		c-0.08-0.22-0.19-0.44-0.24-0.67l-0.15-0.69c-0.15-0.92-0.29-1.83-0.32-2.76c0.17,0.9,0.37,1.81,0.61,2.69l0.19,0.65
		c0.06,0.22,0.17,0.41,0.26,0.61c0.22,0.38,0.47,0.75,0.8,1.06c0.63,0.63,1.41,1.11,2.25,1.45c0.42,0.17,0.85,0.33,1.29,0.4
		c0.46,0.07,0.92,0.18,1.38,0.23c0.92,0.15,1.85,0.22,2.78,0.22c0.92,0,1.85-0.12,2.67-0.46c0.39-0.18,0.8-0.45,0.9-0.8
		c0.13-0.41,0.15-0.86,0.06-1.28c-0.09-0.42-0.32-0.82-0.63-1.15C3095.26,1518.29,3094.87,1518.04,3094.46,1517.8z"/>
	<path class="st10" d="M3095.83,1528.25c0.54,0.27,1.02,0.75,1.2,1.38c0.09,0.31,0.09,0.64,0.03,0.97
		c-0.02,0.08-0.03,0.16-0.07,0.25c-0.05,0.11-0.1,0.18-0.16,0.25c-0.11,0.14-0.25,0.25-0.39,0.35c-0.56,0.39-1.22,0.54-1.85,0.63
		c-0.64,0.08-1.27,0.08-1.9,0.03c-0.63-0.05-1.25-0.13-1.86-0.25c-0.3-0.07-0.61-0.11-0.93-0.22c-0.3-0.1-0.6-0.22-0.88-0.37
		c-1.12-0.55-2.11-1.51-2.38-2.71c0.51,1.11,1.52,1.83,2.59,2.29c0.27,0.11,0.55,0.21,0.83,0.29c0.27,0.08,0.58,0.1,0.87,0.16
		c0.6,0.1,1.2,0.18,1.8,0.22c0.6,0.05,1.2,0.06,1.79,0c0.58-0.05,1.17-0.18,1.65-0.45c0.12-0.07,0.23-0.15,0.31-0.24
		c0.04-0.04,0.08-0.1,0.1-0.13c0.02-0.05,0.05-0.12,0.07-0.18c0.08-0.26,0.11-0.54,0.07-0.82c-0.03-0.28-0.14-0.55-0.3-0.79
		C3096.28,1528.66,3096.06,1528.45,3095.83,1528.25z"/>
	<path class="st10" d="M3094.96,1525.02c0.54,0.27,1.02,0.75,1.19,1.38c0.09,0.31,0.09,0.64,0.03,0.97
		c-0.02,0.08-0.03,0.16-0.07,0.25c-0.05,0.11-0.1,0.18-0.16,0.25c-0.11,0.14-0.25,0.25-0.38,0.35c-0.57,0.39-1.22,0.54-1.85,0.63
		c-0.64,0.08-1.27,0.08-1.9,0.03c-0.63-0.05-1.25-0.13-1.86-0.25c-0.3-0.07-0.61-0.11-0.93-0.21c-0.3-0.1-0.6-0.22-0.88-0.37
		c-1.12-0.55-2.11-1.52-2.38-2.71c0.51,1.11,1.52,1.83,2.59,2.29c0.27,0.11,0.55,0.21,0.83,0.29c0.27,0.08,0.58,0.1,0.87,0.16
		c0.59,0.1,1.2,0.18,1.8,0.22c0.6,0.05,1.2,0.06,1.79,0c0.59-0.05,1.17-0.18,1.65-0.45c0.12-0.07,0.23-0.15,0.31-0.24
		c0.04-0.04,0.08-0.1,0.1-0.13c0.02-0.05,0.05-0.12,0.07-0.18c0.08-0.26,0.11-0.55,0.07-0.82c-0.03-0.28-0.14-0.55-0.29-0.79
		C3095.41,1525.42,3095.19,1525.22,3094.96,1525.02z"/>
	<path class="st10" d="M3095.61,1522c0.46,0.49,0.65,1.22,0.55,1.91c-0.03,0.17-0.06,0.36-0.18,0.53c-0.11,0.16-0.24,0.29-0.38,0.41
		c-0.29,0.24-0.62,0.39-0.95,0.53c-1.36,0.49-2.79,0.44-4.16,0.32c-0.68-0.08-1.36-0.19-2.03-0.33c-0.7-0.13-1.36-0.39-1.96-0.73
		c-0.6-0.34-1.16-0.75-1.63-1.26c-0.44-0.52-0.79-1.12-0.95-1.77c0.55,1.22,1.61,2.08,2.79,2.63c0.6,0.26,1.21,0.51,1.86,0.58
		c0.66,0.12,1.32,0.21,1.99,0.29c0.66,0.07,1.33,0.11,1.99,0.09c0.66,0,1.32-0.08,1.94-0.25c0.3-0.1,0.61-0.21,0.86-0.39
		c0.12-0.09,0.25-0.19,0.33-0.3c0.09-0.1,0.12-0.25,0.17-0.4C3096.05,1523.25,3095.95,1522.57,3095.61,1522z"/>
	<g>
		<path class="st9" d="M998.43,1618.29c0,0,6.67,23.73,2.11,41.23c-3.93,15.06-7.67,40.72,17.44,47.66
			c25.11,6.94,48.69-21.42,48.67-22.93c-0.03-1.51,4.85-20.2,0-32.28s-4.18-28.65-17.79-35.75
			C1035.26,1609.13,998.43,1618.29,998.43,1618.29z"/>
		<path class="st7" d="M779.68,1966.51l19.8-12.21l17.1,10.33l-5.97,4.25l-20.73,2.92c0,0-8.09-1.04-8.45-1.28
			C781.06,1970.28,779.68,1966.51,779.68,1966.51z"/>
		<path class="st3" d="M779.68,1966.51l-5.02,3.23c-2.32,1.47-1.3,5.06,1.45,5.07l37.98,0.18c1.34,0.01,2.43-1.07,2.44-2.41
			l0.04-7.95C791.24,1972.56,782.52,1970.07,779.68,1966.51z"/>
		<path class="st9" d="M1122.09,1629.58c-13.78-14.44-19.19-28-22.77-40.93c-1.5-5.42-4.46-21.34-19.62-32.32
			c-21.94-15.89-43.04-16.63-62.68-5.99c-22.73,12.31-27.54,46.22-20.17,63.75l44.58-13.68c-6.66,3.76-11.4,6.44-11.4,6.44
			c-4.35,85.23,15,81.98,23.12,90.09c8.12,8.11,41.82,8.11,64.31-3.91C1153.66,1673.7,1139.44,1647.76,1122.09,1629.58z"/>
		<path class="st7" d="M876.41,1966.53l19.8-12.21l17.1,10.33l-5.97,4.25l-20.73,2.92c0,0-8.09-1.04-8.45-1.28
			C877.79,1970.3,876.41,1966.53,876.41,1966.53z"/>
		<path class="st3" d="M876.41,1966.53l-5.02,3.23c-2.32,1.47-1.29,5.06,1.45,5.07l37.98,0.18c1.34,0.01,2.43-1.07,2.44-2.41
			l0.04-7.95C887.96,1972.58,879.24,1970.08,876.41,1966.53z"/>
		<path class="st29" d="M1049.65,1667.1c0,0-59.02,72.63-69.03,84.17l-59.79-59.02c0,0-12.06,6.67-18.22,13.86
			c0,0,24.12,55.69,44.91,70.32l41.57,27.97l-7.96,18.99l14.88,11.55l7.83-18.73l21.43-47.48l20.27-63.13l3.85-31.31L1049.65,1667.1
			z"/>
		<polygon class="st30" points="939.81,1864.44 913.29,1965.62 889.25,1958.37 889,1870.35 924.16,1846.22 		"/>
		<path class="st31" d="M1049.39,1674.28c0,0-24.89,40.55-30.03,56.2c-5.13,15.65-1.03,16.94-3.34,35.93
			c-2.31,18.99-19.76,69.8-19.76,69.8l29,19.5c0,0,15.65-50.04,15.65-52.1s14.63-93.67,14.63-93.67l12.06-34.13L1049.39,1674.28z"/>
		<path class="st15" d="M1022.44,1853.66c0,0-49.79-44.65-88.28-53.63c-38.49-8.98-137.81,155.26-137.81,155.26l20.53,9.75
			c0,0,89.56-64.41,106.5-93.16c0,0,72.76,95.95,97.14,98.26c24.38,2.31,51.88-2.84,84.29-41.8
			C1141.57,1884.18,1022.44,1853.66,1022.44,1853.66z"/>
		<path class="st7" d="M1071.97,1634.76l11.04,29.77c0,0-7.99,18.19-34.74,11.45c0,0,2.79-6.35-1.73-19.05
			C1041.91,1643.95,1071.97,1634.76,1071.97,1634.76z"/>
		<path class="st21" d="M1071.97,1634.76l5.18,13.91c-2.4,10.39-11.15,17.73-28.06,20.53c-0.11-3.06-0.73-7.13-2.56-12.27
			C1041.91,1643.95,1071.97,1634.76,1071.97,1634.76z"/>
		<path class="st14" d="M919.02,1842.76c-0.49,2.44-0.71,4.94-0.7,7.43c0.01,2.5,0.22,5,0.6,7.46c0.39,2.47,0.94,4.91,1.61,7.32
			c0.67,2.41,1.49,4.76,2.49,7.08l0.58-0.5c-1.33-0.88-2.6-1.95-3.82-3.04c-1.21-1.1-2.39-2.24-3.52-3.44
			c-1.12-1.21-2.19-2.46-3.23-3.73c-1.05-1.27-2.02-2.61-2.99-3.94c0.85,1.42,1.75,2.81,2.72,4.15c0.95,1.36,2.01,2.64,3.08,3.91
			c1.1,1.25,2.23,2.47,3.44,3.61c1.23,1.13,2.48,2.21,3.89,3.18l1.11,0.76l-0.53-1.26c-0.95-2.25-1.71-4.62-2.42-6.98
			c-0.69-2.37-1.27-4.78-1.68-7.21c-0.43-2.43-0.75-4.88-0.85-7.35C918.66,1847.71,918.74,1845.23,919.02,1842.76z"/>
		<path class="st10" d="M1010.6,1614.92c2.33,4.81,1.09,10.23-2.76,12.09c-3.85,1.86-8.86-0.53-11.19-5.35
			c-2.33-4.81-1.09-10.23,2.76-12.09S1008.27,1610.11,1010.6,1614.92z"/>
		<path class="st7" d="M1013.85,1643.75c-1.37-2.05-2.55-4.25-3.53-6.56c-2.77-6.21-4.39-12.88-5.34-18.73
			c-0.2-1.26-0.48-2.5-0.78-3.73c-1.2-4.99-1.53-10.35-0.69-15.93c2.69-17.95,17.13-32.27,35.12-34.75
			c24.22-3.35,45.56,14.59,47.07,38.34c2.49-1.6,5.37-2.11,8-1.14c5.04,1.88,7.22,8.51,4.87,14.8c-2.35,6.3-8.33,9.88-13.37,8
			c-0.7-0.26-1.34-0.62-1.92-1.05c-0.78,20.34-16.35,37-36.24,37.93c-9.72,0.46-18.77-2.93-25.8-8.87
			c-0.47-0.34-0.96-0.75-1.48-1.22C1017.49,1648.76,1015.54,1646.35,1013.85,1643.75z"/>
		<path class="st9" d="M1080.82,1603.9c1.94-1.08,2.23-0.97,4.88-1.51l1.98-1l-1.35-2.45l-0.92-0.11l-0.62-7.66l-3.43-7.08
			c0,0-13.41-19.04-13.89-19.51c-0.47-0.47-10.7-6.61-11.33-6.92c-0.63-0.31-14.95,2.05-14.95,2.05s-25.19-5.42-20.93,8.66
			c4.26,14.08,22.66,21.4,23.61,20.77c-2.99-3.15-3.31-12.12-3.31-12.12C1053.56,1592,1077.01,1602.29,1080.82,1603.9z"/>
		<path class="st9" d="M1072.35,1599.93c0,0,6.78,11.78,0,16.3c0,0,12.09-0.22,16.29-15.17c4.2-14.95-4.71-8.95-5.63-8.72
			C1082.08,1592.57,1072.35,1599.93,1072.35,1599.93z"/>
		<path class="st9" d="M1009.26,1569.3l-10.83,38.72c0,0,14.92-31.63,26.77-35.7s-2.63-10.11-2.63-10.11L1009.26,1569.3z"/>
		<g>
			<path class="st4" d="M800.35,1698.96l111.54-35.82c2.34-0.75,4.85,0.54,5.61,2.88l51.19,159.42c0.75,2.34-0.54,4.85-2.88,5.61
				l-111.54,35.82c-2.34,0.75-4.85-0.54-5.61-2.88l-51.19-159.42C796.72,1702.22,798.01,1699.71,800.35,1698.96z"/>
			
				<rect x="827.94" y="1685.47" transform="matrix(0.9521 -0.3057 0.3057 0.9521 -496.0936 353.8852)" class="st32" width="107.5" height="150.38"/>
			<path class="st33" d="M885.41,1684.56L830,1702.36l-2.34-7.29c-1.71-5.32,1.22-11.01,6.54-12.72l36.16-11.61
				c5.32-1.71,11.01,1.22,12.72,6.54L885.41,1684.56z"/>
			
				<rect x="819.6" y="1710.84" transform="matrix(0.9521 -0.3057 0.3057 0.9521 -483.1222 341.2598)" class="st33" width="56.54" height="4.2"/>
			
				<rect x="824.31" y="1725.5" transform="matrix(0.9521 -0.3057 0.3057 0.9521 -487.3779 343.3989)" class="st33" width="56.54" height="4.2"/>
			
				<rect x="829.02" y="1740.17" transform="matrix(0.9521 -0.3057 0.3057 0.9521 -491.6413 345.5453)" class="st33" width="56.54" height="4.2"/>
			
				<rect x="833.73" y="1754.84" transform="matrix(0.9521 -0.3057 0.3057 0.9521 -495.8771 347.6651)" class="st33" width="56.54" height="4.2"/>
			
				<rect x="838.44" y="1769.51" transform="matrix(0.9521 -0.3057 0.3057 0.9521 -500.1604 349.8308)" class="st33" width="56.54" height="4.2"/>
			
				<rect x="843.15" y="1784.18" transform="matrix(0.9521 -0.3057 0.3057 0.9521 -504.4193 351.9729)" class="st33" width="56.54" height="4.2"/>
			
				<rect x="847.86" y="1798.85" transform="matrix(0.9521 -0.3057 0.3057 0.9521 -508.6754 354.1124)" class="st33" width="56.54" height="4.2"/>
			
				<rect x="852.57" y="1813.52" transform="matrix(0.9521 -0.3057 0.3057 0.9521 -512.9146 356.2355)" class="st33" width="56.54" height="4.2"/>
			
				<rect x="885.29" y="1694.34" transform="matrix(0.9521 -0.3057 0.3057 0.9521 -479.5815 357.4508)" class="st33" width="32.07" height="30.78"/>
			
				<rect x="897.09" y="1731.09" transform="matrix(0.9521 -0.3057 0.3057 0.9521 -490.2531 362.8186)" class="st33" width="32.07" height="30.78"/>
			
				<rect x="909.51" y="1769.78" transform="matrix(0.9521 -0.3057 0.3057 0.9521 -501.4868 368.4694)" class="st33" width="32.07" height="30.78"/>
		</g>
		<path class="st7" d="M925.8,1761.56c0.28,0.71-0.34,1.45-1.08,1.29c-5.77-1.22-23.96-4.94-24.6-3.54
			c-0.77,1.66,15.4,5.38,15.6,7.07c0.19,1.69-15.48-2.34-16.02-0.43c-0.53,1.91,13.89,5.1,13.94,5.99
			c0.06,0.88-14.09-0.7-15.07,0.23c-0.99,0.94,13.9,4.46,14.28,5.51c0.37,1.05-10.71,2.04-10.74,3c-0.03,0.96-0.2,1.6,25.39,6.54
			l10.16,1.51l8.96-3.24l0.39-11.45c0,0-22.49-24.89-23.86-24.69C921.84,1749.54,921.53,1750.64,925.8,1761.56z"/>
		<path class="st34" d="M1082.24,1659.53c0,0,50.81,61.21,43.88,168.99c-6.93,107.78-8.08,108.55-8.08,108.55
			s-31.18-3.34-54.28-21.81c-23.1-18.48-51.33-31.05-51.33-31.05l18.73-60.82c0,0-24.38,0.77-42.09-6.67
			c-17.71-7.44-54.66-27.2-54.66-27.2s3.08-18.22,6.93-23.87c0,0,46.96,14.37,70.57,14.63
			C1011.92,1780.27,1039.38,1695.58,1082.24,1659.53z"/>
		<path class="st14" d="M1078.58,1679.16c-7.72,6.69-14.87,14.05-21.57,21.77c-6.71,7.73-12.91,15.9-18.65,24.38l-2.13,3.2
			c-0.71,1.06-1.42,2.13-2.07,3.23l-3.99,6.56c-0.68,1.08-1.26,2.23-1.88,3.35l-1.83,3.37l-1.83,3.38c-0.6,1.13-1.11,2.31-1.67,3.46
			l-3.29,6.94l-2.89,7.11l-1.41,3.56l-1.2,3.64c-0.81,2.42-1.59,4.86-2.37,7.29c0.95-2.37,1.88-4.75,2.8-7.13l1.38-3.56l1.59-3.48
			l3.14-6.96l3.47-6.8c0.59-1.13,1.13-2.28,1.75-3.39l1.88-3.32l1.87-3.32c0.63-1.1,1.23-2.23,1.92-3.29l4.01-6.49
			c0.65-1.09,1.36-2.15,2.08-3.2l2.13-3.17c5.68-8.44,11.77-16.6,18.24-24.47l4.93-5.84c1.69-1.91,3.35-3.84,5.06-5.72
			C1071.42,1686.43,1074.95,1682.75,1078.58,1679.16z"/>
		<path class="st14" d="M1100.52,1721.89c-4.18,9.41-8.65,18.69-13.26,27.88c-2.33,4.58-4.69,9.15-7.16,13.66
			c-2.44,4.52-4.96,9-7.6,13.4c-2.6,4.43-5.32,8.78-8.18,13.04c-1.4,2.15-2.89,4.23-4.37,6.33c-1.53,2.06-3.03,4.13-4.64,6.13
			c-3.19,4.01-6.54,7.89-10.24,11.45c-3.68,3.56-7.74,6.76-12.31,9.16c4.74-2.05,8.98-5.15,12.88-8.53
			c3.87-3.44,7.4-7.25,10.71-11.22c3.34-3.96,6.38-8.14,9.31-12.4c2.92-4.26,5.68-8.64,8.31-13.07
			c5.27-8.88,10.05-18.04,14.48-27.35C1092.89,1741.04,1096.96,1731.55,1100.52,1721.89z"/>
	</g>
</g>
</svg>
