<?xml version="1.0" encoding="utf-8"?>
<!-- Generator: Adobe Illustrator 24.0.2, SVG Export Plug-In . SVG Version: 6.00 Build 0)  -->
<svg version="1.1" id="Layer_2" xmlns="http://www.w3.org/2000/svg" xmlns:xlink="http://www.w3.org/1999/xlink" x="0px" y="0px"
	 viewBox="0 0 450 450" style="enable-background:new 0 0 450 450;" xml:space="preserve">
<style type="text/css">
	.st0{fill:#DCEDF4;}
	.st1{fill:#C7DCE2;}
	.st2{fill:#C3D2D9;}
	.st3{fill:#B6CDD3;}
	.st4{fill:#86A4AD;}
	.st5{fill:#A7C2C9;}
	.st6{fill:#EEFBFF;}
	.st7{fill:#D1E3E8;}
	.st8{fill:#7695A1;}
	.st9{fill:#B2CCD3;}
	.st10{fill:#3B87A3;}
	.st11{fill:#33567F;}
	.st12{fill:#C5DDDD;}
	.st13{fill:#54D2CC;}
	.st14{fill:#1D587A;}
</style>
<g id="_x31_5_1_">
	<g>
		<path class="st0" d="M177.43,307.88l3.54-0.26l40.25-2.94l-3.18-161.3c0,0,1.18-32.01-3.99-38.4c0,0-0.59,0.69-1.63,1.97
			c-6.49,7.98-30.48,38.92-37.4,68.44c-10.08,35.19-18.19,119.83-19.37,132.5H177.43z"/>
		<path class="st1" d="M221.22,304.68l-40.25,2.94c1.12-27.66,3.4-70.61,7.68-104.88c2.98-36.92,16.91-78.1,23.77-95.8
			c1.03-1.28,1.63-1.97,1.63-1.97c5.16,6.4,4.56,39.04,4.56,39.04L221.22,304.68z"/>
		<path class="st2" d="M159.24,307.56l-40.48-2.96l-3.43-0.25c0,0,2.3-30.08,15.49-89.29c10.37-50.42,57.14-93.27,69.93-104.19
			c0,0,0-0.01,0.01-0.01c1.95-1.66,3.1-2.59,3.23-2.68C147.76,208.35,159.24,307.56,159.24,307.56z"/>
		<path class="st0" d="M183.17,152.43c5.62-14.51,12.47-29.37,20.83-44.25c-0.13,0.1-1.28,1.02-3.23,2.68
			c-0.01,0-0.01,0.01-0.01,0.01c-12.74,10.88-59.18,53.43-69.8,103.59C144.52,190.16,161.02,168.45,183.17,152.43z"/>
		<path class="st3" d="M130.96,214.47c-0.04,0.2-0.09,0.4-0.13,0.6c-13.2,59.21-15.49,89.29-15.49,89.29l3.43,0.25l40.48,2.96
			c0,0-8.31-71.93,23.93-155.13C161.02,168.45,144.52,190.16,130.96,214.47z"/>
		<path class="st1" d="M200.76,110.87c-18.41,19.59-63.3,72.71-69.93,121.16c-4.12,33-8.6,56.88-12.07,72.58l-3.43-0.25
			c0,0,2.3-30.08,15.49-89.29C141.2,164.64,187.97,121.8,200.76,110.87z"/>
		<path class="st0" d="M92.47,307.24H45.52c-0.88-3.26-8.77-31.36-22-41.6c0,0,0.13-0.03,0.39-0.08c0.18-0.04,0.42-0.08,0.72-0.12
			c3.96-0.59,18.31-1.71,38.2,8.85C80.67,284.46,89.23,299.9,92.47,307.24z"/>
		<path class="st2" d="M57.46,307.24H45.52c-0.88-3.26-8.77-31.36-22-41.6c0,0,0.13-0.03,0.39-0.08c0.18-0.04,0.42-0.08,0.72-0.12
			c4.69,1.71,13.37,7.29,24.11,25.48C53.01,298.29,55.73,303.55,57.46,307.24z"/>
		<path class="st4" d="M54.45,307.24h-8.93c-0.88-3.26-8.77-31.36-22-41.6c0,0,0.13-0.03,0.39-0.08c5.69,3.7,14.91,12.87,27.44,35.6
			C52.48,303.35,53.51,305.38,54.45,307.24z"/>
		<path class="st1" d="M65.51,307.69c3.42,0.06,7.88,0.12,12.9,0.19h55.88c1.03-0.09,1.54-0.19,1.43-0.32
			c-1.26-1.41,1.03-128,1.14-133.89c0.01-0.14,0.01-0.21,0.01-0.21s-59.68,22.73-73.17,88.97c-6.59,35.2-5.16,45.13-5.16,45.13
			S61.18,307.61,65.51,307.69z"/>
		<path class="st0" d="M134.29,307.88c1.03-0.09,1.54-0.19,1.43-0.32c-1.26-1.41,1.03-128,1.14-133.89
			c-11.52,6.94-51.02,33.87-62.26,82.36c-5.08,24-7.71,40.52-9.08,51.65c3.42,0.06,7.88,0.12,12.9,0.19H134.29z"/>
		<path class="st1" d="M224.33,307.88c-1.73-85.82-38.4-139.22-38.4-139.22c-0.28,0.32-0.57,0.63-0.84,0.96
			c-43.78,49.7-51.28,108.42-51.65,138.26H224.33z"/>
		<path class="st5" d="M141.37,251.85c-6.07,22.34-7.76,42.27-7.93,56.03h6.9C138.24,289.44,138.93,270.56,141.37,251.85z"/>
		<path class="st0" d="M224.33,307.88c-1.73-85.82-38.4-139.22-38.4-139.22c-0.28,0.32-0.57,0.63-0.84,0.96
			c-8.2,14.12-27.88,57.33-32.98,138.26H224.33z"/>
		<g>
			<path class="st6" d="M127.83,307.88h23.49c-1.01-1.82-3.88-6.53-11.95-18.72c-20.23-24.73-54.81-30.5-55.11-29.84
				C77.47,274.38,117.68,301.37,127.83,307.88z"/>
			<path class="st7" d="M145.54,307.88c-6.8-8.74-14.68-16.31-22.47-22.62c-14.04-11.37-28.44-21.33-38.81-25.95
				c-3.79,4.55-9.3,14.59-12.99,26.47c-2.65,8.53-5.39,16.58-5.69,22.09H145.54z"/>
			<path class="st5" d="M141.46,307.88c-6.3-8.16-13.59-15.24-20.8-21.13c-13.03-10.66-26.39-19.98-36.02-24.31
				c-3.52,4.26-8.63,13.67-12.05,24.8c-2.45,7.96-4.99,15.48-5.28,20.64H141.46z"/>
			<path class="st8" d="M142.48,307.88c-4.09-5.64-8.33-9.84-12.86-13.75c-10.21,3.13-20.03,8.1-29.38,13.75H142.48z"/>
			<path class="st4" d="M100.24,307.88c9.34-5.66,19.17-10.62,29.38-13.75c-2.86-2.47-5.84-4.83-8.96-7.38
				c-16.56,4.21-29.15,13.29-37.5,21.13H100.24z"/>
		</g>
	</g>
	<g>
		<path class="st0" d="M260.46,307.88l-3.54-0.26l-40.25-2.94l3.8-160.66c0,0-1.8-32.65,3.37-39.04c0,0,0.59,0.69,1.63,1.97
			c6.49,7.98,30.47,38.92,37.4,68.44c10.08,35.19,18.19,119.83,19.37,132.5H260.46z"/>
		<path class="st3" d="M216.67,304.68l40.25,2.94c-1.12-27.66-3.4-70.61-7.68-104.88c-2.98-36.92-16.91-78.1-23.77-95.8
			c-1.03-1.28-1.63-1.97-1.63-1.97c-5.17,6.4-4.56,39.04-4.56,39.04L216.67,304.68z"/>
		<path class="st2" d="M278.66,307.56l40.48-2.96l3.43-0.25c0,0-2.3-30.08-15.5-89.29c-10.37-50.42-57.14-93.27-69.93-104.19
			c0,0,0-0.01-0.01-0.01c-1.95-1.66-3.1-2.59-3.23-2.68C290.13,208.35,278.66,307.56,278.66,307.56z"/>
		<path class="st0" d="M254.73,152.43c-5.62-14.51-12.47-29.37-20.83-44.25c0.13,0.1,1.28,1.02,3.23,2.68
			c0.01,0,0.01,0.01,0.01,0.01c12.74,10.88,59.18,53.43,69.8,103.59C293.37,190.16,276.87,168.45,254.73,152.43z"/>
		<path class="st1" d="M306.93,214.47c0.04,0.2,0.09,0.4,0.13,0.6c13.2,59.21,15.5,89.29,15.5,89.29l-3.43,0.25l-40.48,2.96
			c0,0,8.31-71.93-23.93-155.13C276.87,168.45,293.37,190.16,306.93,214.47z"/>
		<path class="st6" d="M237.14,110.87c18.4,19.59,63.3,72.71,69.93,121.16c4.12,33,8.6,56.88,12.07,72.58l3.43-0.25
			c0,0-2.3-30.08-15.5-89.29C296.69,164.64,249.93,121.8,237.14,110.87z"/>
		<path class="st6" d="M345.42,307.24h46.95c0.88-3.26,8.77-31.36,22-41.6c0,0-0.13-0.03-0.39-0.08c-0.18-0.04-0.42-0.08-0.72-0.12
			c-3.96-0.59-18.31-1.71-38.2,8.85C357.22,284.46,348.67,299.9,345.42,307.24z"/>
		<path class="st2" d="M380.43,307.24h11.94c0.88-3.26,8.77-31.36,22-41.6c0,0-0.13-0.03-0.39-0.08c-0.18-0.04-0.42-0.08-0.72-0.12
			c-4.69,1.71-13.37,7.29-24.11,25.48C384.89,298.29,382.17,303.55,380.43,307.24z"/>
		<path class="st9" d="M383.45,307.24h8.93c0.88-3.26,8.77-31.36,22-41.6c0,0-0.13-0.03-0.39-0.08c-5.69,3.7-14.91,12.87-27.44,35.6
			C385.42,303.35,384.39,305.38,383.45,307.24z"/>
		<path class="st6" d="M372.39,307.69c-3.42,0.06-7.88,0.12-12.9,0.19h-55.88c-1.03-0.09-1.54-0.19-1.43-0.32
			c1.27-1.41-1.03-128-1.14-133.89c-0.01-0.14-0.01-0.21-0.01-0.21s59.68,22.73,73.17,88.97c6.59,35.2,5.17,45.13,5.17,45.13
			S376.72,307.61,372.39,307.69z"/>
		<path class="st0" d="M303.61,307.88c-1.03-0.09-1.54-0.19-1.43-0.32c1.27-1.41-1.03-128-1.14-133.89
			c11.52,6.94,51.02,33.87,62.26,82.36c5.08,24,7.71,40.52,9.08,51.65c-3.42,0.06-7.88,0.12-12.9,0.19H303.61z"/>
		<path class="st6" d="M213.57,307.88c1.73-85.82,38.4-139.22,38.4-139.22c0.28,0.32,0.57,0.63,0.84,0.96
			c43.78,49.7,51.28,108.42,51.65,138.26H213.57z"/>
		<path class="st0" d="M296.53,251.85c6.07,22.34,7.76,42.27,7.93,56.03h-6.9C299.65,289.44,298.96,270.56,296.53,251.85z"/>
		<path class="st1" d="M213.57,307.88c1.73-85.82,38.4-139.22,38.4-139.22c0.28,0.32,0.57,0.63,0.84,0.96
			c8.2,14.12,27.88,57.33,32.98,138.26H213.57z"/>
		<g>
			<path class="st6" d="M310.06,307.88h-23.49c1.01-1.82,3.88-6.53,11.95-18.72c20.23-24.73,54.81-30.5,55.11-29.84
				C360.43,274.38,320.21,301.37,310.06,307.88z"/>
			<path class="st7" d="M292.35,307.88c6.8-8.74,14.67-16.31,22.47-22.62c14.04-11.37,28.44-21.33,38.81-25.95
				c3.8,4.55,9.3,14.59,12.99,26.47c2.65,8.53,5.4,16.58,5.69,22.09H292.35z"/>
			<path class="st9" d="M296.44,307.88c6.3-8.16,13.59-15.24,20.8-21.13c13.03-10.66,26.4-19.98,36.02-24.31
				c3.52,4.26,8.63,13.67,12.05,24.8c2.45,7.96,4.99,15.48,5.28,20.64H296.44z"/>
			<path class="st8" d="M295.42,307.88c4.09-5.64,8.34-9.84,12.86-13.75c10.21,3.13,20.03,8.1,29.38,13.75H295.42z"/>
			<path class="st4" d="M337.66,307.88c-9.34-5.66-19.17-10.62-29.38-13.75c2.87-2.47,5.84-4.83,8.96-7.38
				c16.56,4.21,29.15,13.29,37.5,21.13H337.66z"/>
		</g>
	</g>
	<g>
		<path class="st6" d="M209.82,307.24l12.12-1.05l12.12,1.05h43.5c-7.63-11.29-30.81-43.32-55.18-54.24v-0.39
			c-0.15,0.06-0.29,0.13-0.44,0.19c-0.15-0.06-0.29-0.13-0.44-0.19V253c-24.37,10.91-47.56,42.95-55.18,54.24H209.82z"/>
		<path class="st5" d="M222.37,258.26v-0.35c-0.14,0.06-0.29,0.12-0.43,0.18c-0.14-0.06-0.29-0.12-0.43-0.18v0.35
			c-0.01,0-0.02,0.01-0.03,0.01v48.41l0.46-0.04l7.38,0.59h46.75C268.35,296.66,245.93,268.08,222.37,258.26z"/>
		<path class="st9" d="M167.81,307.24h46.75l6.92-0.56v-48.41C197.94,268.1,175.53,296.67,167.81,307.24z"/>
		<path class="st4" d="M214.56,307.24l7.38-0.59l7.38,0.59h43.17c-11.66-9.02-31.59-22.21-50.12-23.78v-0.08
			c-0.14,0.01-0.29,0.03-0.43,0.04c-0.14-0.01-0.29-0.03-0.43-0.04v0.08c-18.54,1.57-38.46,14.76-50.12,23.78H214.56z"/>
		<path class="st8" d="M262.44,307.24c-9.89-6.39-25.53-14.88-40.14-15.95v-0.06c-0.12,0.01-0.24,0.02-0.36,0.03
			c-0.12-0.01-0.24-0.02-0.36-0.03v0.06c-14.61,1.06-30.25,9.56-40.14,15.95H262.44z"/>
	</g>
	<g>
		<polygon class="st10" points="197.95,306.72 182,306.72 39.6,306.72 39.6,351.06 182,351.06 197.95,351.06 417.24,351.06 
			417.24,306.72 		"/>
		<g>
			<rect x="198.63" y="306.72" class="st11" width="59.58" height="44.35"/>
			<g>
				<rect x="198.63" y="314.76" class="st12" width="59.58" height="4.48"/>
				<rect x="198.63" y="324.2" class="st12" width="59.58" height="4.48"/>
				<rect x="198.63" y="333.65" class="st12" width="59.58" height="4.48"/>
				<rect x="198.63" y="343.09" class="st12" width="59.58" height="4.48"/>
				<rect x="198.63" y="305.32" class="st12" width="59.58" height="4.48"/>
			</g>
		</g>
		<g>
			<g>
				<g>
					<rect x="39.48" y="304.68" class="st0" width="162.49" height="6.21"/>
					<rect x="38.61" y="316.62" class="st0" width="164.4" height="6.21"/>
					<rect x="39.07" y="328.56" class="st0" width="157.66" height="6.21"/>
				</g>
				<rect x="39.6" y="339.25" class="st13" width="122.43" height="11.82"/>
				<rect x="170.74" y="339.89" class="st14" width="17.96" height="11.17"/>
			</g>
			<g>
				<g>
					<rect x="255.35" y="304.68" class="st0" width="162.01" height="6.21"/>
					<rect x="254.3" y="316.62" class="st0" width="163.92" height="6.21"/>
					<rect x="260.57" y="328.56" class="st0" width="157.2" height="6.21"/>
				</g>
				<rect x="294.8" y="339.25" class="st13" width="122.43" height="11.82"/>
				<rect x="268.14" y="339.89" class="st14" width="17.96" height="11.17"/>
			</g>
		</g>
	</g>
</g>
</svg>
