<?xml version="1.0" encoding="UTF-8"?>
<svg xmlns="http://www.w3.org/2000/svg" xmlns:xlink="http://www.w3.org/1999/xlink" width="3500pt" height="2000pt" viewBox="0 0 3500 2000" version="1.1">
<defs>
<clipPath id="clip1">
  <path d="M 142 1637 L 3494 1637 L 3494 1997.484375 L 142 1997.484375 Z M 142 1637 "/>
</clipPath>
<clipPath id="clip2">
  <path d="M 1553 1637 L 2083 1637 L 2083 1997.484375 L 1553 1997.484375 Z M 1553 1637 "/>
</clipPath>
<clipPath id="clip3">
  <path d="M 142 1901 L 1230 1901 L 1230 1997.484375 L 142 1997.484375 Z M 142 1901 "/>
</clipPath>
<clipPath id="clip4">
  <path d="M 1306 1906 L 1466 1906 L 1466 1997.484375 L 1306 1997.484375 Z M 1306 1906 "/>
</clipPath>
<clipPath id="clip5">
  <path d="M 2103.195312 1814 L 3499 1814 L 3499 1866 L 2103.195312 1866 Z M 2103.195312 1814 "/>
</clipPath>
<clipPath id="clip6">
  <path d="M 2407 1901 L 3494 1901 L 3494 1997.484375 L 2407 1997.484375 Z M 2407 1901 "/>
</clipPath>
<clipPath id="clip7">
  <path d="M 2170 1906 L 2331 1906 L 2331 1997.484375 L 2170 1997.484375 Z M 2170 1906 "/>
</clipPath>
</defs>
<g id="surface1">
<path style=" stroke:none;fill-rule:nonzero;fill:rgb(86.27451%,92.941176%,95.686275%);fill-opacity:1;" d="M 1365.871094 1646.964844 L 1397.347656 1644.875 L 1754.464844 1621.03125 L 1726.210938 311.738281 C 1726.210938 311.738281 1736.683594 51.933594 1690.855469 0.03125 C 1690.855469 0.03125 1685.550781 5.613281 1676.398438 15.980469 C 1618.785156 80.757812 1405.976562 331.9375 1344.550781 571.511719 C 1255.117188 857.1875 1183.082031 1544.171875 1172.683594 1646.964844 "/>
<path style=" stroke:none;fill-rule:nonzero;fill:rgb(78.039216%,86.27451%,88.627451%);fill-opacity:1;" d="M 1754.464844 1621 L 1397.347656 1644.875 C 1407.261719 1420.328125 1427.503906 1071.746094 1465.496094 793.617188 C 1491.914062 493.957031 1615.527344 159.707031 1676.398438 15.980469 C 1685.550781 5.613281 1690.855469 0.03125 1690.855469 0.03125 C 1736.683594 51.933594 1731.34375 316.9375 1731.34375 316.9375 "/>
<path style=" stroke:none;fill-rule:nonzero;fill:rgb(76.470588%,82.352941%,85.098039%);fill-opacity:1;" d="M 1204.433594 1644.398438 L 845.238281 1620.394531 L 814.835938 1618.367188 C 814.835938 1618.367188 835.21875 1374.226562 952.316406 893.585938 C 1044.386719 484.316406 1459.363281 136.558594 1572.890625 47.875 C 1572.890625 47.875 1572.890625 47.8125 1572.957031 47.8125 C 1590.222656 34.304688 1600.449219 26.824219 1601.59375 26.0625 C 1102.589844 839.113281 1204.433594 1644.398438 1204.433594 1644.398438 "/>
<path style=" stroke:none;fill-rule:nonzero;fill:rgb(86.27451%,92.941176%,95.686275%);fill-opacity:1;" d="M 1416.792969 385.203125 C 1466.710938 267.382812 1527.511719 146.800781 1601.625 26.03125 C 1600.449219 26.824219 1590.222656 34.304688 1572.992188 47.8125 C 1572.890625 47.8125 1572.890625 47.875 1572.890625 47.875 C 1459.8125 136.210938 1047.714844 481.558594 953.496094 888.734375 C 1073.816406 691.425781 1220.242188 515.261719 1416.792969 385.203125 "/>
<path style=" stroke:none;fill-rule:nonzero;fill:rgb(71.372549%,80.392157%,82.745098%);fill-opacity:1;" d="M 953.496094 888.734375 C 953.113281 890.382812 952.699219 891.96875 952.316406 893.585938 C 835.21875 1374.226562 814.835938 1618.367188 814.835938 1618.367188 L 845.238281 1620.394531 L 1204.433594 1644.398438 C 1204.433594 1644.398438 1130.703125 1060.554688 1416.792969 385.203125 C 1220.242188 515.261719 1073.816406 691.425781 953.496094 888.734375 "/>
<path style=" stroke:none;fill-rule:nonzero;fill:rgb(78.039216%,86.27451%,88.627451%);fill-opacity:1;" d="M 1572.890625 47.875 C 1409.546875 206.855469 1011.144531 638.0625 952.316406 1031.320312 C 915.746094 1299.175781 876.019531 1493 845.238281 1620.394531 L 814.835938 1618.367188 C 814.835938 1618.367188 835.21875 1374.226562 952.316406 893.585938 C 1044.386719 484.285156 1459.363281 136.527344 1572.890625 47.875 "/>
<path style=" stroke:none;fill-rule:nonzero;fill:rgb(86.27451%,92.941176%,95.686275%);fill-opacity:1;" d="M 611.941406 1641.765625 L 195.269531 1641.765625 C 187.46875 1615.257812 117.410156 1387.226562 0 1304.058594 C 0 1304.058594 1.144531 1303.835938 3.433594 1303.425781 C 5.0625 1303.140625 7.175781 1302.824219 9.84375 1302.410156 C 44.996094 1297.589844 172.355469 1288.554688 348.832031 1374.226562 C 507.183594 1456.886719 583.132812 1582.222656 611.941406 1641.765625 "/>
<path style=" stroke:none;fill-rule:nonzero;fill:rgb(76.470588%,82.352941%,85.098039%);fill-opacity:1;" d="M 301.238281 1641.765625 L 195.269531 1641.765625 C 187.46875 1615.257812 117.410156 1387.226562 0 1304.058594 C 0 1304.058594 1.144531 1303.835938 3.433594 1303.425781 C 5.0625 1303.140625 7.210938 1302.824219 9.84375 1302.410156 C 51.511719 1316.296875 128.503906 1361.574219 223.832031 1509.296875 C 261.722656 1569.125 285.882812 1611.835938 301.238281 1641.765625 "/>
<path style=" stroke:none;fill-rule:nonzero;fill:rgb(52.54902%,64.313725%,67.843137%);fill-opacity:1;" d="M 274.476562 1641.765625 L 195.269531 1641.765625 C 187.46875 1615.257812 117.410156 1387.226562 0 1304.058594 C 0 1304.058594 1.144531 1303.835938 3.433594 1303.425781 C 53.9375 1333.453125 135.75 1407.867188 246.988281 1592.429688 C 257.007812 1610.1875 266.15625 1626.640625 274.476562 1641.765625 "/>
<path style=" stroke:none;fill-rule:nonzero;fill:rgb(78.039216%,86.27451%,88.627451%);fill-opacity:1;" d="M 372.648438 1645.414062 C 402.980469 1645.855469 442.636719 1646.425781 487.148438 1646.964844 L 982.996094 1646.964844 C 992.113281 1646.269531 996.652344 1645.445312 995.648438 1644.398438 C 984.417969 1632.953125 1004.835938 605.46875 1005.734375 557.625 C 1005.804688 556.449219 1005.804688 555.910156 1005.804688 555.910156 C 1005.804688 555.910156 476.160156 740.378906 356.460938 1278.09375 C 297.945312 1563.832031 310.632812 1644.398438 310.632812 1644.398438 C 310.632812 1644.398438 334.238281 1644.808594 372.648438 1645.414062 "/>
<path style=" stroke:none;fill-rule:nonzero;fill:rgb(86.27451%,92.941176%,95.686275%);fill-opacity:1;" d="M 982.996094 1646.964844 C 992.113281 1646.269531 996.652344 1645.445312 995.648438 1644.398438 C 984.417969 1632.953125 1004.800781 605.46875 1005.734375 557.625 C 903.507812 613.964844 552.941406 832.550781 453.246094 1226.15625 C 408.179688 1420.992188 384.78125 1555.050781 372.648438 1645.414062 C 402.980469 1645.855469 442.601562 1646.425781 487.148438 1646.964844 "/>
<path style=" stroke:none;fill-rule:nonzero;fill:rgb(78.039216%,86.27451%,88.627451%);fill-opacity:1;" d="M 1782.058594 1646.964844 C 1766.734375 950.40625 1441.265625 516.945312 1441.265625 516.945312 C 1438.734375 519.511719 1436.238281 522.082031 1433.777344 524.742188 C 1045.253906 928.113281 978.695312 1404.792969 975.4375 1646.964844 "/>
<path style=" stroke:none;fill-rule:nonzero;fill:rgb(65.490196%,76.078431%,78.823529%);fill-opacity:1;" d="M 1045.84375 1192.167969 C 991.972656 1373.527344 976.964844 1535.230469 975.4375 1646.964844 L 1036.621094 1646.964844 C 1018.078125 1497.3125 1024.246094 1344.011719 1045.84375 1192.167969 "/>
<path style=" stroke:none;fill-rule:nonzero;fill:rgb(86.27451%,92.941176%,95.686275%);fill-opacity:1;" d="M 1782.058594 1646.964844 C 1766.734375 950.40625 1441.265625 516.945312 1441.265625 516.945312 C 1438.734375 519.511719 1436.238281 522.082031 1433.777344 524.742188 C 1360.949219 639.394531 1186.375 990.101562 1141.101562 1646.964844 "/>
<path style=" stroke:none;fill-rule:nonzero;fill:rgb(93.333333%,98.431373%,100%);fill-opacity:1;" d="M 925.730469 1646.964844 L 1134.167969 1646.964844 C 1125.191406 1632.191406 1099.710938 1593.953125 1028.128906 1495.027344 C 848.597656 1294.324219 541.710938 1247.433594 539.074219 1252.789062 C 478.792969 1375.019531 835.632812 1594.144531 925.730469 1646.964844 "/>
<path style=" stroke:none;fill-rule:nonzero;fill:rgb(81.960784%,89.019608%,90.980392%);fill-opacity:1;" d="M 1082.863281 1646.964844 C 1022.546875 1576.039062 952.628906 1514.558594 883.507812 1463.417969 C 758.957031 1371.085938 631.109375 1290.300781 539.074219 1252.789062 C 505.414062 1289.695312 456.605469 1371.246094 423.8125 1467.632812 C 400.277344 1536.882812 375.941406 1602.226562 373.308594 1646.964844 "/>
<path style=" stroke:none;fill-rule:nonzero;fill:rgb(65.490196%,76.078431%,78.823529%);fill-opacity:1;" d="M 1046.640625 1646.964844 C 990.761719 1580.730469 926.039062 1523.277344 862.050781 1475.433594 C 746.441406 1388.9375 627.816406 1313.285156 542.402344 1278.125 C 511.171875 1312.714844 465.863281 1389.097656 435.460938 1479.429688 C 413.691406 1544.046875 391.195312 1605.082031 388.59375 1646.964844 "/>
<path style=" stroke:none;fill-rule:nonzero;fill:rgb(46.27451%,58.431373%,63.137255%);fill-opacity:1;" d="M 1055.6875 1646.964844 C 1019.394531 1601.183594 981.710938 1567.066406 941.535156 1535.359375 C 850.921875 1560.789062 763.773438 1601.085938 680.820312 1646.964844 "/>
<path style=" stroke:none;fill-rule:nonzero;fill:rgb(52.54902%,64.313725%,67.843137%);fill-opacity:1;" d="M 680.855469 1646.964844 C 763.773438 1601.085938 850.921875 1560.789062 941.535156 1535.359375 C 916.125 1515.289062 889.710938 1496.136719 862.050781 1475.433594 C 715.105469 1509.644531 603.34375 1583.332031 529.265625 1646.964844 "/>
<path style=" stroke:none;fill-rule:nonzero;fill:rgb(86.27451%,92.941176%,95.686275%);fill-opacity:1;" d="M 2102.710938 1646.964844 L 2071.269531 1644.875 L 1714.113281 1621.03125 L 1747.878906 316.9375 C 1747.878906 316.9375 1731.933594 51.933594 1777.757812 0.03125 C 1777.757812 0.03125 1783.027344 5.613281 1792.214844 15.980469 C 1849.792969 80.757812 2062.636719 331.9375 2124.0625 571.511719 C 2213.5 857.1875 2285.496094 1544.171875 2295.933594 1646.964844 "/>
<path style=" stroke:none;fill-rule:nonzero;fill:rgb(71.372549%,80.392157%,82.745098%);fill-opacity:1;" d="M 1714.113281 1621 L 2071.269531 1644.875 C 2061.355469 1420.328125 2041.109375 1071.746094 2003.117188 793.617188 C 1976.703125 493.957031 1853.085938 159.707031 1792.214844 15.980469 C 1783.027344 5.613281 1777.757812 0.03125 1777.757812 0.03125 C 1731.933594 51.933594 1737.269531 316.9375 1737.269531 316.9375 "/>
<path style=" stroke:none;fill-rule:nonzero;fill:rgb(76.470588%,82.352941%,85.098039%);fill-opacity:1;" d="M 2264.179688 1644.398438 L 2623.378906 1620.394531 L 2653.777344 1618.367188 C 2653.777344 1618.367188 2633.359375 1374.226562 2516.261719 893.585938 C 2424.191406 484.316406 2009.21875 136.558594 1895.726562 47.875 C 1895.726562 47.875 1895.726562 47.8125 1895.65625 47.8125 C 1878.359375 34.304688 1868.132812 26.824219 1866.988281 26.0625 C 2365.988281 839.113281 2264.179688 1644.398438 2264.179688 1644.398438 "/>
<path style=" stroke:none;fill-rule:nonzero;fill:rgb(86.27451%,92.941176%,95.686275%);fill-opacity:1;" d="M 2051.820312 385.203125 C 2001.902344 267.382812 1941.101562 146.800781 1866.988281 26.03125 C 1868.132812 26.824219 1878.359375 34.304688 1895.65625 47.8125 C 1895.726562 47.8125 1895.726562 47.875 1895.726562 47.875 C 2008.800781 136.210938 2420.898438 481.558594 2515.117188 888.734375 C 2394.796875 691.425781 2248.371094 515.261719 2051.820312 385.203125 "/>
<path style=" stroke:none;fill-rule:nonzero;fill:rgb(78.039216%,86.27451%,88.627451%);fill-opacity:1;" d="M 2515.117188 888.734375 C 2515.5 890.382812 2515.917969 891.96875 2516.261719 893.585938 C 2633.359375 1374.226562 2653.777344 1618.367188 2653.777344 1618.367188 L 2623.378906 1620.394531 L 2264.179688 1644.398438 C 2264.179688 1644.398438 2337.910156 1060.554688 2051.820312 385.203125 C 2248.371094 515.261719 2394.796875 691.425781 2515.117188 888.734375 "/>
<path style=" stroke:none;fill-rule:nonzero;fill:rgb(93.333333%,98.431373%,100%);fill-opacity:1;" d="M 1895.726562 47.875 C 2059.03125 206.855469 2457.4375 638.0625 2516.261719 1031.320312 C 2552.867188 1299.175781 2592.558594 1493 2623.378906 1620.394531 L 2653.777344 1618.367188 C 2653.777344 1618.367188 2633.359375 1374.226562 2516.261719 893.585938 C 2424.226562 484.285156 2009.21875 136.527344 1895.726562 47.875 "/>
<path style=" stroke:none;fill-rule:nonzero;fill:rgb(93.333333%,98.431373%,100%);fill-opacity:1;" d="M 2856.671875 1641.765625 L 3273.347656 1641.765625 C 3281.113281 1615.257812 3351.203125 1387.226562 3468.613281 1304.058594 C 3468.613281 1304.058594 3467.46875 1303.835938 3465.148438 1303.425781 C 3463.585938 1303.140625 3461.4375 1302.824219 3458.769531 1302.410156 C 3423.621094 1297.589844 3296.261719 1288.554688 3119.78125 1374.226562 C 2961.394531 1456.886719 2885.480469 1582.222656 2856.671875 1641.765625 "/>
<path style=" stroke:none;fill-rule:nonzero;fill:rgb(76.470588%,82.352941%,85.098039%);fill-opacity:1;" d="M 3167.375 1641.765625 L 3273.347656 1641.765625 C 3281.113281 1615.257812 3351.203125 1387.226562 3468.613281 1304.058594 C 3468.613281 1304.058594 3467.46875 1303.835938 3465.183594 1303.425781 C 3463.585938 1303.140625 3461.4375 1302.824219 3458.769531 1302.410156 C 3417.101562 1316.296875 3340.109375 1361.574219 3244.78125 1509.296875 C 3206.859375 1569.125 3182.730469 1611.835938 3167.375 1641.765625 "/>
<path style=" stroke:none;fill-rule:nonzero;fill:rgb(69.803922%,80%,82.745098%);fill-opacity:1;" d="M 3194.136719 1641.765625 L 3273.347656 1641.765625 C 3281.113281 1615.257812 3351.203125 1387.226562 3468.613281 1304.058594 C 3468.613281 1304.058594 3467.46875 1303.835938 3465.148438 1303.425781 C 3414.675781 1333.453125 3332.832031 1407.867188 3221.625 1592.429688 C 3211.609375 1610.1875 3202.421875 1626.640625 3194.136719 1641.765625 "/>
<path style=" stroke:none;fill-rule:nonzero;fill:rgb(93.333333%,98.431373%,100%);fill-opacity:1;" d="M 3095.929688 1645.414062 C 3065.597656 1645.855469 3025.976562 1646.425781 2981.46875 1646.964844 L 2485.617188 1646.964844 C 2476.503906 1646.269531 2471.960938 1645.445312 2472.929688 1644.398438 C 2484.164062 1632.953125 2463.78125 605.46875 2462.878906 557.625 C 2462.808594 556.449219 2462.808594 555.910156 2462.808594 555.910156 C 2462.808594 555.910156 2992.421875 740.378906 3112.152344 1278.09375 C 3170.667969 1563.832031 3157.980469 1644.398438 3157.980469 1644.398438 C 3157.980469 1644.398438 3134.375 1644.808594 3095.929688 1645.414062 "/>
<path style=" stroke:none;fill-rule:nonzero;fill:rgb(86.27451%,92.941176%,95.686275%);fill-opacity:1;" d="M 2485.617188 1646.964844 C 2476.503906 1646.269531 2471.925781 1645.445312 2472.929688 1644.398438 C 2484.199219 1632.953125 2463.78125 605.46875 2462.878906 557.625 C 2565.070312 613.964844 2915.671875 832.550781 3015.335938 1226.15625 C 3060.433594 1420.992188 3083.761719 1555.050781 3095.929688 1645.414062 C 3065.597656 1645.855469 3025.976562 1646.425781 2981.46875 1646.964844 "/>
<path style=" stroke:none;fill-rule:nonzero;fill:rgb(93.333333%,98.431373%,100%);fill-opacity:1;" d="M 1686.554688 1646.964844 C 1701.878906 950.40625 2027.347656 516.945312 2027.347656 516.945312 C 2029.878906 519.511719 2032.375 522.082031 2034.835938 524.742188 C 2423.359375 928.113281 2489.882812 1404.792969 2493.140625 1646.964844 "/>
<path style=" stroke:none;fill-rule:nonzero;fill:rgb(86.27451%,92.941176%,95.686275%);fill-opacity:1;" d="M 2422.769531 1192.167969 C 2476.640625 1373.527344 2491.652344 1535.230469 2493.140625 1646.964844 L 2431.957031 1646.964844 C 2450.503906 1497.3125 2444.367188 1344.011719 2422.769531 1192.167969 "/>
<path style=" stroke:none;fill-rule:nonzero;fill:rgb(78.039216%,86.27451%,88.627451%);fill-opacity:1;" d="M 1686.554688 1646.964844 C 1701.878906 950.40625 2027.347656 516.945312 2027.347656 516.945312 C 2029.878906 519.511719 2032.375 522.082031 2034.835938 524.742188 C 2107.632812 639.394531 2282.238281 990.101562 2327.476562 1646.964844 "/>
<path style=" stroke:none;fill-rule:nonzero;fill:rgb(93.333333%,98.431373%,100%);fill-opacity:1;" d="M 2542.886719 1646.964844 L 2334.410156 1646.964844 C 2343.386719 1632.191406 2368.902344 1593.953125 2440.484375 1495.027344 C 2620.015625 1294.324219 2926.871094 1247.433594 2929.503906 1252.789062 C 2989.820312 1375.019531 2632.945312 1594.144531 2542.886719 1646.964844 "/>
<path style=" stroke:none;fill-rule:nonzero;fill:rgb(81.960784%,89.019608%,90.980392%);fill-opacity:1;" d="M 2385.75 1646.964844 C 2446.066406 1576.039062 2515.949219 1514.558594 2585.109375 1463.417969 C 2709.660156 1371.085938 2837.503906 1290.300781 2929.503906 1252.789062 C 2963.199219 1289.695312 3012.007812 1371.246094 3044.765625 1467.632812 C 3068.304688 1536.882812 3092.636719 1602.226562 3095.308594 1646.964844 "/>
<path style=" stroke:none;fill-rule:nonzero;fill:rgb(69.803922%,80%,82.745098%);fill-opacity:1;" d="M 2421.972656 1646.964844 C 2477.855469 1580.730469 2542.574219 1523.277344 2606.566406 1475.433594 C 2722.136719 1388.9375 2840.796875 1313.285156 2926.210938 1278.125 C 2957.445312 1312.714844 3002.75 1389.097656 3033.152344 1479.429688 C 3054.921875 1544.046875 3077.417969 1605.082031 3080.019531 1646.964844 "/>
<path style=" stroke:none;fill-rule:nonzero;fill:rgb(46.27451%,58.431373%,63.137255%);fill-opacity:1;" d="M 2412.925781 1646.964844 C 2449.222656 1601.183594 2486.902344 1567.066406 2527.042969 1535.359375 C 2617.65625 1560.789062 2704.839844 1601.085938 2787.757812 1646.964844 "/>
<path style=" stroke:none;fill-rule:nonzero;fill:rgb(52.54902%,64.313725%,67.843137%);fill-opacity:1;" d="M 2787.757812 1646.964844 C 2704.839844 1601.085938 2617.65625 1560.789062 2527.042969 1535.359375 C 2552.488281 1515.289062 2578.902344 1496.136719 2606.566406 1475.433594 C 2753.476562 1509.644531 2865.234375 1583.332031 2939.347656 1646.964844 "/>
<path style=" stroke:none;fill-rule:nonzero;fill:rgb(93.333333%,98.431373%,100%);fill-opacity:1;" d="M 1653.277344 1641.765625 L 1760.878906 1633.238281 L 1868.476562 1641.765625 L 2254.507812 1641.765625 C 2186.808594 1550.132812 1981.035156 1290.140625 1764.761719 1201.550781 L 1764.761719 1198.382812 C 1763.476562 1198.890625 1762.160156 1199.429688 1760.878906 1199.933594 C 1759.5625 1199.429688 1758.277344 1198.890625 1756.960938 1198.382812 L 1756.960938 1201.550781 C 1540.6875 1290.140625 1334.949219 1550.132812 1267.25 1641.765625 "/>
<path style=" stroke:none;fill-rule:nonzero;fill:rgb(65.490196%,76.078431%,78.823529%);fill-opacity:1;" d="M 1764.691406 1244.230469 L 1764.691406 1241.34375 C 1763.410156 1241.789062 1762.125 1242.328125 1760.878906 1242.769531 C 1759.59375 1242.328125 1758.3125 1241.789062 1757.03125 1241.34375 L 1757.03125 1244.230469 C 1756.960938 1244.261719 1756.890625 1244.324219 1756.789062 1244.324219 L 1756.789062 1637.265625 L 1760.878906 1636.945312 L 1826.359375 1641.796875 L 2241.230469 1641.796875 C 2172.734375 1555.90625 1973.722656 1323.90625 1764.691406 1244.230469 "/>
<path style=" stroke:none;fill-rule:nonzero;fill:rgb(69.803922%,80%,82.745098%);fill-opacity:1;" d="M 1280.523438 1641.765625 L 1695.394531 1641.765625 L 1756.789062 1637.230469 L 1756.789062 1244.324219 C 1547.863281 1324.097656 1348.988281 1555.96875 1280.523438 1641.765625 "/>
<path style=" stroke:none;fill-rule:nonzero;fill:rgb(52.54902%,64.313725%,67.843137%);fill-opacity:1;" d="M 1695.394531 1641.765625 L 1760.878906 1636.945312 L 1826.359375 1641.765625 L 2209.476562 1641.765625 C 2106.003906 1568.585938 1929.175781 1461.546875 1764.691406 1448.769531 L 1764.691406 1448.167969 C 1763.410156 1448.199219 1762.125 1448.355469 1760.878906 1448.453125 C 1759.59375 1448.355469 1758.3125 1448.199219 1757.03125 1448.167969 L 1757.03125 1448.769531 C 1592.542969 1461.546875 1415.71875 1568.585938 1312.242188 1641.765625 "/>
<path style=" stroke:none;fill-rule:nonzero;fill:rgb(46.27451%,58.431373%,63.137255%);fill-opacity:1;" d="M 2120.25 1641.765625 C 2032.511719 1589.925781 1893.714844 1520.996094 1764.066406 1512.339844 L 1764.066406 1511.894531 C 1762.992188 1511.960938 1761.953125 1512.054688 1760.878906 1512.117188 C 1759.804688 1512.054688 1758.761719 1511.960938 1757.6875 1511.894531 L 1757.6875 1512.339844 C 1628.042969 1520.996094 1489.207031 1589.925781 1401.472656 1641.765625 "/>
<g clip-path="url(#clip1)" clip-rule="nonzero">
<path style=" stroke:none;fill-rule:nonzero;fill:rgb(23.137255%,52.941176%,63.921569%);fill-opacity:1;" d="M 1547.929688 1637.519531 L 142.679688 1637.519531 L 142.679688 1997.484375 L 3493.953125 1997.484375 L 3493.953125 1637.519531 "/>
</g>
<g clip-path="url(#clip2)" clip-rule="nonzero">
<path style=" stroke:none;fill-rule:nonzero;fill:rgb(20%,33.72549%,49.803922%);fill-opacity:1;" d="M 1553.960938 1997.484375 L 2082.707031 1997.484375 L 2082.707031 1637.519531 L 1553.960938 1637.519531 Z M 1553.960938 1997.484375 "/>
</g>
<path style=" stroke:none;fill-rule:nonzero;fill:rgb(77.254902%,86.666667%,86.666667%);fill-opacity:1;" d="M 1553.960938 1739.199219 L 2082.707031 1739.199219 L 2082.707031 1702.832031 L 1553.960938 1702.832031 Z M 1553.960938 1739.199219 "/>
<path style=" stroke:none;fill-rule:nonzero;fill:rgb(77.254902%,86.666667%,86.666667%);fill-opacity:1;" d="M 1553.960938 1815.835938 L 2082.707031 1815.835938 L 2082.707031 1779.46875 L 1553.960938 1779.46875 Z M 1553.960938 1815.835938 "/>
<path style=" stroke:none;fill-rule:nonzero;fill:rgb(77.254902%,86.666667%,86.666667%);fill-opacity:1;" d="M 1553.960938 1892.46875 L 2082.707031 1892.46875 L 2082.707031 1856.101562 L 1553.960938 1856.101562 Z M 1553.960938 1892.46875 "/>
<path style=" stroke:none;fill-rule:nonzero;fill:rgb(77.254902%,86.666667%,86.666667%);fill-opacity:1;" d="M 1553.960938 1969.074219 L 2082.707031 1969.074219 L 2082.707031 1932.738281 L 1553.960938 1932.738281 Z M 1553.960938 1969.074219 "/>
<path style=" stroke:none;fill-rule:nonzero;fill:rgb(77.254902%,86.666667%,86.666667%);fill-opacity:1;" d="M 1553.960938 1662.566406 L 2082.707031 1662.566406 L 2082.707031 1626.199219 L 1553.960938 1626.199219 Z M 1553.960938 1662.566406 "/>
<path style=" stroke:none;fill-rule:nonzero;fill:rgb(86.27451%,92.941176%,95.686275%);fill-opacity:1;" d="M 141.640625 1671.378906 L 1583.566406 1671.378906 L 1583.566406 1621 L 141.640625 1621 Z M 141.640625 1671.378906 "/>
<path style=" stroke:none;fill-rule:nonzero;fill:rgb(86.27451%,92.941176%,95.686275%);fill-opacity:1;" d="M 133.980469 1768.277344 L 1592.890625 1768.277344 L 1592.890625 1717.894531 L 133.980469 1717.894531 Z M 133.980469 1768.277344 "/>
<path style=" stroke:none;fill-rule:nonzero;fill:rgb(86.27451%,92.941176%,95.686275%);fill-opacity:1;" d="M 138 1865.203125 L 1537.117188 1865.203125 L 1537.117188 1814.820312 L 138 1814.820312 Z M 138 1865.203125 "/>
<g clip-path="url(#clip3)" clip-rule="nonzero">
<path style=" stroke:none;fill-rule:nonzero;fill:rgb(32.941176%,82.352941%,80%);fill-opacity:1;" d="M 142.679688 1997.484375 L 1229.222656 1997.484375 L 1229.222656 1901.570312 L 142.679688 1901.570312 Z M 142.679688 1997.484375 "/>
</g>
<g clip-path="url(#clip4)" clip-rule="nonzero">
<path style=" stroke:none;fill-rule:nonzero;fill:rgb(11.372549%,34.509804%,47.843137%);fill-opacity:1;" d="M 1306.488281 1997.484375 L 1465.84375 1997.484375 L 1465.84375 1906.769531 L 1306.488281 1906.769531 Z M 1306.488281 1997.484375 "/>
</g>
<path style=" stroke:none;fill-rule:nonzero;fill:rgb(86.27451%,92.941176%,95.686275%);fill-opacity:1;" d="M 2057.296875 1671.378906 L 3495.0625 1671.378906 L 3495.0625 1621 L 2057.296875 1621 Z M 2057.296875 1671.378906 "/>
<path style=" stroke:none;fill-rule:nonzero;fill:rgb(86.27451%,92.941176%,95.686275%);fill-opacity:1;" d="M 2048.042969 1768.277344 L 3502.726562 1768.277344 L 3502.726562 1717.894531 L 2048.042969 1717.894531 Z M 2048.042969 1768.277344 "/>
<g clip-path="url(#clip5)" clip-rule="nonzero">
<path style=" stroke:none;fill-rule:nonzero;fill:rgb(86.27451%,92.941176%,95.686275%);fill-opacity:1;" d="M 2103.644531 1865.203125 L 3498.703125 1865.203125 L 3498.703125 1814.820312 L 2103.644531 1814.820312 Z M 2103.644531 1865.203125 "/>
</g>
<g clip-path="url(#clip6)" clip-rule="nonzero">
<path style=" stroke:none;fill-rule:nonzero;fill:rgb(32.941176%,82.352941%,80%);fill-opacity:1;" d="M 2407.449219 1997.484375 L 3493.953125 1997.484375 L 3493.953125 1901.570312 L 2407.449219 1901.570312 Z M 2407.449219 1997.484375 "/>
</g>
<g clip-path="url(#clip7)" clip-rule="nonzero">
<path style=" stroke:none;fill-rule:nonzero;fill:rgb(11.372549%,34.509804%,47.843137%);fill-opacity:1;" d="M 2170.824219 1997.484375 L 2330.179688 1997.484375 L 2330.179688 1906.769531 L 2170.824219 1906.769531 Z M 2170.824219 1997.484375 "/>
</g>
</g>
</svg>
