<?xml version="1.0" encoding="UTF-8" standalone="no"?>
<!DOCTYPE svg PUBLIC "-//W3C//DTD SVG 1.1//EN" "http://www.w3.org/Graphics/SVG/1.1/DTD/svg11.dtd">
<svg version="1.1" xmlns="http://www.w3.org/2000/svg" xmlns:xlink="http://www.w3.org/1999/xlink" preserveAspectRatio="xMidYMid meet" viewBox="87.3861403508763 26.624210526315835 484.3599999999999 483.56" width="480.36" height="479.56"><defs><path d="M103.11 377.26C103.59 373.74 105.19 370.54 107.59 367.98C130.82 344.75 316.67 158.9 339.91 135.66C342.31 140.46 345.35 144.94 349.35 148.94C350.1 149.7 353.89 153.49 360.71 160.3L383.27 182.86L413.03 212.62L435.59 235.18C442.4 242 446.19 245.79 446.95 246.54C450.95 250.54 455.43 253.58 460.23 255.98C436.99 279.22 251.14 465.07 227.91 488.3C225.35 490.7 222.15 492.3 218.63 492.78C207.44 494.21 117.97 505.6 106.79 507.02C105.99 507.18 105.35 507.18 104.71 507.18C104.55 507.18 104.55 507.18 104.39 507.18C95.59 507.18 88.39 499.98 88.39 491.18C88.39 489.42 88.71 487.66 89.19 486.06C91.97 464.3 101.71 388.14 103.11 377.26Z" id="a1YkQBeVrm"></path><path d="M371.91 126.38C365.67 120.14 365.67 109.9 371.91 103.66C374.04 101.53 384.71 90.86 403.91 71.66C421.76 53.81 431.68 43.89 433.67 41.9C452.71 22.86 486.15 22.86 505.19 41.9C510.07 46.78 549.11 85.82 553.99 90.7C573.67 110.38 573.67 142.54 553.99 162.22C552 164.21 542.08 174.13 524.23 191.98C505.03 211.18 494.36 221.85 492.23 223.98C489.03 227.02 485.03 228.62 480.87 228.62C476.71 228.62 472.71 227.02 469.51 223.98C468.75 223.23 464.96 219.44 458.15 212.62L383.27 137.74C376.45 130.93 372.66 127.14 371.91 126.38Z" id="b7eEKinW6F"></path></defs><g><g><use xlink:href="#a1YkQBeVrm" opacity="1" fill="#a7b1b8" fill-opacity="1"></use><g><use xlink:href="#a1YkQBeVrm" opacity="1" fill-opacity="0" stroke="#000000" stroke-width="1" stroke-opacity="0"></use></g></g><g><use xlink:href="#b7eEKinW6F" opacity="1" fill="#a7b1b8" fill-opacity="1"></use><g><use xlink:href="#b7eEKinW6F" opacity="1" fill-opacity="0" stroke="#000000" stroke-width="1" stroke-opacity="0"></use></g></g></g></svg>