<?xml version="1.0"?>
<svg xmlns="http://www.w3.org/2000/svg" id="_x33_0" enable-background="new 0 0 64 64" height="512px" viewBox="0 0 64 64" width="512px" class=""><g><g><path d="m23.789 20.658.105-.211-1.789-.895-.105.212c-.381.762-1.147 1.236-2 1.236s-1.619-.474-2-1.236l-.105-.211-1.789.895.105.211c.722 1.444 2.174 2.341 3.789 2.341s3.067-.897 3.789-2.342z" data-original="#000000" class="active-path" data-old_color="#000000" fill="#34B7F1"/><path d="m48 32.764c-.381.762-1.147 1.236-2 1.236s-1.619-.474-2-1.236l-.105-.211-1.789.895.105.211c.722 1.444 2.174 2.341 3.789 2.341s3.067-.897 3.789-2.342l.105-.211-1.789-.895z" data-original="#000000" class="active-path" data-old_color="#000000" fill="#34B7F1"/><path d="m16 45.764c-.381.762-1.147 1.236-2 1.236s-1.619-.474-2-1.236l-.105-.211-1.789.895.105.211c.722 1.444 2.174 2.341 3.789 2.341s3.067-.897 3.789-2.342l.105-.211-1.789-.895z" data-original="#000000" class="active-path" data-old_color="#000000" fill="#34B7F1"/><path d="m59 44.542v-17.542c0-7.168-5.832-13-13-13s-13 5.832-13 13v4.539c-.642-.37-1.334-.653-2.061-.834l-6.083-1.521-.647-3.234c2.277-1.211 3.971-3.371 4.559-5.949h.232c2.206 0 4-1.794 4-4 0-.866-.283-1.663-.752-2.318 1.143-2.555 1.752-5.358 1.752-8.155v-2.528c0-1.103-.897-2-2-2h-16.877c-4.479 0-8.123 3.644-8.123 8.123 0 .665.082 1.328.243 1.97l.615 2.461c-.529.678-.858 1.52-.858 2.446 0 2.206 1.794 4 4 4h.232c.588 2.579 2.281 4.739 4.559 5.949l-.622 3.11c-.386-.034-.775-.059-1.169-.059-7.168 0-13 5.832-13 13 0 4.079.965 8.164 2.789 11.813l.005.011c-1.775 2.327-2.794 5.198-2.794 8.176v1h62v-11.534c0-2.918-1.571-5.524-4-6.924zm2 6.924v7.287c-1.826-2.472-4.179-4.551-6.865-6.044-3.117-1.733-6.642-2.66-10.208-2.701-.245-1.825-1.154-3.5-2.59-4.697l-1.029-.857 1.386-.346.186.186c1.084 1.084 2.586 1.706 4.12 1.706s3.036-.622 4.121-1.707l.186-.186 6.148 1.537c2.676.669 4.545 3.063 4.545 5.822zm-17 3.534h-3.586l3-3h.267c3.312 0 6.591.85 9.483 2.457 2.707 1.505 5.046 3.661 6.765 6.238l.203.305h-12.688c.344-.591.556-1.268.556-2 0-2.206-1.794-4-4-4zm-15-5.636c0-2.823 2.199-5.119 4.971-5.324l-1.235 1.647c-.475.631-.736 1.415-.736 2.205 0 .968.393 1.915 1.076 2.599l1.338 1.338c.372.371.586.887.586 1.413v1.758h-2.586l-1.843-1.843c-.999-.999-1.571-2.381-1.571-3.793zm6.828 1.05-1.338-1.338c-.311-.311-.49-.743-.49-1.184 0-.365.116-.713.335-1.006l1.968-2.623c.662.209 1.287.531 1.827.981l1.925 1.604c1.135.945 1.818 2.299 1.924 3.76l-4.393 4.392h-.586v-1.758c0-1.053-.427-2.084-1.172-2.828zm10.172-12.414c-3.859 0-7-3.141-7-7v-4.116c0-1.471.73-2.836 1.954-3.651.325-.217.678-.389 1.047-.513l1.35-.449c1.288 1.794 3.305 3 5.624 3.232l2.225.222c1.026.102 1.8.958 1.8 1.99v3.285c0 3.859-3.141 7-7 7zm0 2c.802 0 1.577-.116 2.317-.314l.597 2.985-.207.207c-.713.714-1.699 1.122-2.707 1.122s-1.994-.408-2.707-1.121l-.207-.207.597-2.985c.74.197 1.515.313 2.317.313zm0-24c6.065 0 11 4.935 11 11v16.723c-.021-.005-.04-.013-.061-.018l-6.083-1.521-.647-3.234c2.847-1.514 4.791-4.508 4.791-7.95v-3.285c0-2.063-1.549-3.775-3.603-3.98l-2.225-.222c-2.595-.26-4.682-2.152-5.192-4.709l-1.961.393c.089.444.213.874.37 1.286l-1.021.341c-.538.179-1.051.43-1.523.745-1.782 1.187-2.845 3.173-2.845 5.315v4.116c0 3.442 1.944 6.436 4.791 7.949l-.647 3.234-2.919.73c-.988-.54-2.092-.839-3.225-.887v-15.026c0-6.065 4.935-11 11-11zm-13 18.012v8.12c-3.41.642-6 3.638-6 7.232 0 .886.163 1.746.462 2.553-1.009.865-1.835 1.918-2.445 3.09-.248-.409-.52-.803-.811-1.185l.005-.01c1.824-3.648 2.789-7.733 2.789-11.812 0-2.342-.631-4.535-1.72-6.435l3.064-3.448 2.11.528c.953.238 1.82.715 2.546 1.367zm-6.844-2.442-2.036 2.29c-.441-.547-.93-1.051-1.452-1.52.531-.274 1.026-.621 1.452-1.047l.186-.186zm-5.156-17.57h-2c0-1.103-.897-2-2-2h-4v-.398c0-.989.738-1.84 1.718-1.979l2.681-.384c.815.488 1.764.761 2.763.761h4.838c1.103 0 2 .897 2 2h-4c-1.103 0-2 .897-2 2zm-8 0h4v2h-4zm10 0h4v2h-4zm6 4v-4c1.103 0 2 .897 2 2s-.897 2-2 2zm-13.877-15h16.877v2.528c0 2.334-.468 4.674-1.356 6.834-.503-.228-1.057-.362-1.644-.362 0-2.206-1.794-4-4-4h-4.838c-1.46 0-2.751-.931-3.214-2.316l-1.896.633c.138.413.322.802.546 1.159l-1.163.166c-1.958.279-3.435 1.982-3.435 3.96v.398c-.495 0-.965.102-1.403.267l-.415-1.66c-.12-.483-.182-.983-.182-1.484 0-3.376 2.747-6.123 6.123-6.123zm-6.123 13c0-1.103.897-2 2-2v4c-1.103 0-2-.897-2-2zm4 2h4c1.103 0 2-.897 2-2h2c0 1.103.897 2 2 2h4c0 3.859-3.141 7-7 7s-7-3.141-7-7zm4.683 8.686c.74.198 1.515.314 2.317.314s1.577-.116 2.317-.314l.597 2.985-.207.207c-.532.532-1.22.885-1.956 1.033-1.107-.677-2.32-1.19-3.611-1.512zm-14.683 15.314c0-6.065 4.935-11 11-11s11 4.935 11 11c0 3.502-.779 7.005-2.24 10.19-.367-.346-.752-.675-1.16-.98-.407-.306-.826-.584-1.253-.837 1.638-1.631 2.653-3.885 2.653-6.373v-1.285c0-2.063-1.549-3.775-3.603-3.98l-2.225-.222c-2.595-.26-4.682-2.152-5.192-4.709l-1.961.393c.089.444.213.874.37 1.286l-1.021.341c-.538.179-1.051.43-1.523.745-1.782 1.187-2.845 3.173-2.845 5.315v2.116c0 2.488 1.015 4.742 2.652 6.373-.427.253-.845.531-1.251.836-.408.305-.794.634-1.161.981-1.461-3.185-2.24-6.687-2.24-10.19zm11 9c-3.859 0-7-3.141-7-7v-2.116c0-1.471.73-2.836 1.954-3.651.325-.217.678-.389 1.047-.513l1.35-.449c1.288 1.794 3.305 3 5.624 3.232l2.225.222c1.026.102 1.8.958 1.8 1.99v1.285c0 3.859-3.141 7-7 7zm-4.606.718c1.35.808 2.922 1.282 4.606 1.282s3.256-.474 4.606-1.282c.451.224.893.484 1.326.778-.22.872-.988 1.504-1.932 1.504-.352 0-.682-.085-.981-.253l-.816-.456-.51.784c-.378.579-1.01.925-1.693.925s-1.315-.346-1.692-.925l-.51-.784-.816.456c-.3.168-.63.253-.982.253-.944 0-1.712-.631-1.931-1.503.432-.295.874-.555 1.325-.779zm-2.939 2.09c.666 1.295 1.999 2.192 3.545 2.192.397 0 .792-.059 1.168-.172.746.744 1.757 1.172 2.832 1.172s2.086-.428 2.832-1.172c.376.113.771.172 1.168.172 1.547 0 2.882-.899 3.546-2.195 1.943 1.908 3.153 4.471 3.394 7.195h-21.896c.241-2.724 1.468-5.282 3.411-7.192zm20.486 7.192c-.093-1.229-.335-2.436-.75-3.58.414-1.409 1.194-2.682 2.253-3.69.218.294.451.578.714.841l2.428 2.429h12.414c1.103 0 2 .897 2 2s-.897 2-2 2z" data-original="#000000" class="active-path" data-old_color="#000000" fill="#34B7F1"/></g></g> </svg>
