<?xml version="1.0" encoding="UTF-8" standalone="no"?>
<!DOCTYPE svg PUBLIC "-//W3C//DTD SVG 1.1//EN" "http://www.w3.org/Graphics/SVG/1.1/DTD/svg11.dtd">
<svg version="1.1" xmlns="http://www.w3.org/2000/svg" xmlns:xlink="http://www.w3.org/1999/xlink" preserveAspectRatio="xMidYMid meet" viewBox="96.63810789388195 63 448.86745839244054 420" width="444.87" height="416"><defs><path d="M125.76 277.6C125.91 277.47 126.66 276.83 128 275.68C128 387.52 128 449.65 128 462.08C128 471.98 136.02 480 145.92 480C148.89 480 172.63 480 175.6 480C184.66 480 192 472.66 192 463.6C192 453.01 192 368.27 192 357.68C192 336.87 208.87 320 229.68 320C231.75 320 248.33 320 250.4 320C271.18 320.04 288 336.9 288 357.68C288 368.27 288 453.01 288 463.6C288 472.66 295.34 480 304.4 480C323.37 480 475.11 480 494.08 480C503.98 480 512 471.98 512 462.08C512 462.08 512 462.08 512 462.08C512 449.65 512 387.52 512 275.68C513.87 277.55 514.91 278.59 515.12 278.8C521.42 285.05 531.59 285.02 537.84 278.72C544.09 272.42 544.06 262.25 537.76 256C520.35 238.61 381.09 99.47 363.68 82.08C339.54 57.99 300.46 57.99 276.32 82.08C258.91 99.47 119.65 238.61 102.24 256C96.04 262.3 96.11 272.43 102.41 278.63C102.91 279.12 103.44 279.58 104 280C110.86 284.65 120.08 283.63 125.76 277.6ZM408 320C408 319.73 408.21 319.52 408.48 319.52C408.48 319.52 408.48 319.52 408.48 319.52C410.83 319.52 429.65 319.52 432 319.52C440.84 319.52 448 326.68 448 335.52C448 337.86 448 356.62 448 358.96C448 359.23 447.79 359.44 447.52 359.44C447.52 359.44 447.52 359.44 447.52 359.44C443.62 359.44 412.38 359.44 408.48 359.44C408.21 359.44 408 359.23 408 358.96C408 358.96 408 358.96 408 358.96C408 351.17 408 327.79 408 320ZM408 376C408 375.73 408.21 375.52 408.48 375.52C408.48 375.52 408.48 375.52 408.48 375.52C412.38 375.52 443.62 375.52 447.52 375.52C447.79 375.52 448 375.73 448 376C448 376 448 376 448 376C448 378.4 448 397.6 448 400C448 408.84 440.84 416 432 416C429.65 416 410.83 416 408.48 416C408.21 416 408 415.79 408 415.52C408 415.52 408 415.52 408 415.52C408 407.62 408 383.9 408 376ZM352 336C352 327.16 359.16 320 368 320C370.34 320 389.1 320 391.44 320C391.71 320 391.92 320.21 391.92 320.48C391.92 320.48 391.92 320.48 391.92 320.48C391.92 324.38 391.92 355.62 391.92 359.52C391.92 359.79 391.71 360 391.44 360C391.44 360 391.44 360 391.44 360C387.54 360 356.38 360 352.48 360C352.21 360 352 359.79 352 359.52C352 359.52 352 359.52 352 359.52C352 354.82 352 340.7 352 336ZM352 376C352 375.73 352.21 375.52 352.48 375.52C352.48 375.52 352.48 375.52 352.48 375.52C356.38 375.52 387.62 375.52 391.52 375.52C391.79 375.52 392 375.73 392 376C392 376 392 376 392 376C392 379.9 392 411.14 392 415.04C392 415.31 391.79 415.52 391.52 415.52C391.52 415.52 391.52 415.52 391.52 415.52C389.17 415.52 370.35 415.52 368 415.52C359.16 415.52 352 408.36 352 399.52C352 394.82 352 380.7 352 376Z" id="dy7pwV7YB"></path><path d="M498.48 171.68C501.68 174.73 506.74 174.61 509.79 171.41C511.17 169.97 511.95 168.07 512 166.08C512 158.27 512 95.81 512 88C512 74.75 501.25 64 488 64C486.4 64 473.6 64 472 64C458.75 64 448 74.75 448 88C448 90.51 448 110.61 448 113.12C448.02 118.38 450.12 123.41 453.84 127.12C462.77 136.03 489.55 162.77 498.48 171.68Z" id="a8m2xegVh9"></path></defs><g><g><use xlink:href="#dy7pwV7YB" opacity="1" fill="#4adee4" fill-opacity="1"></use><g><use xlink:href="#dy7pwV7YB" opacity="1" fill-opacity="0" stroke="#000000" stroke-width="1" stroke-opacity="0"></use></g></g><g><use xlink:href="#a8m2xegVh9" opacity="1" fill="#4adee4" fill-opacity="1"></use><g><use xlink:href="#a8m2xegVh9" opacity="1" fill-opacity="0" stroke="#000000" stroke-width="1" stroke-opacity="0"></use></g></g></g></svg>