<?xml version="1.0" encoding="iso-8859-1"?>
<!-- Generator: Adobe Illustrator 19.0.0, SVG Export Plug-In . SVG Version: 6.00 Build 0)  -->
<svg version="1.1" id="Capa_1" xmlns="http://www.w3.org/2000/svg" xmlns:xlink="http://www.w3.org/1999/xlink" x="0px" y="0px"
	 viewBox="0 0 512.001 512.001" style="enable-background:new 0 0 512.001 512.001;" xml:space="preserve">
<g>
	<g>
		<path d="M504.501,187.277c-4.143,0-7.5,3.357-7.5,7.5v18.475c0,7.984-6.496,14.481-14.481,14.481
			c-8.08,0-14.482-6.628-14.482-14.481c0.028-114.853-0.066-107.866,0.073-109.267c0.716-7.205,6.825-13.05,14.41-13.05
			c7.984,0,14.481,6.496,14.481,14.481v54.358c-0.002,4.143,3.355,7.501,7.498,7.501c4.143,0,7.5-3.357,7.5-7.5v-54.359
			c0-16.257-13.226-29.482-29.482-29.482c-12.079,0-22.479,7.303-27.03,17.725c-7.44-0.631-17.363,2.274-28.066-5.66
			c-13.617-10.098-30.634-15.889-46.685-15.889l-96.292,0.001c-23.526,0-35.747,27.545-20.444,45.177
			c-11.927,9.325-13.916,26.33-4.824,38.087c-0.078,0.1-15.358,9.181-11.938,27.708c1.027,5.649,3.754,10.623,7.595,14.433
			c-18.376,16.6-6.663,47.322,18.19,47.322h50.598c-17.674,32.319-16.502,64.987-16.295,68.817
			c1.58,29.247,35.414,39.715,49.492,13.898c3.776-6.925,5.022-15.144,6.226-22.962c2.632-10.81,10.651-30.265,34.886-41.765
			c8.693-2.797,17.38-7.34,25.156-13.159c5.602-4.193,10.199-9.854,13.295-16.369c5.128-10.796,17.077-8.031,19.044-8.423
			c4.519,10.493,14.96,17.859,27.092,17.859c16.257,0,29.482-13.226,29.482-29.482v-18.475
			C512.001,190.634,508.644,187.277,504.501,187.277z M449.709,209.874c-11.426,0-21.975,6.668-26.877,16.987
			c-2.054,4.323-5.074,8.057-8.734,10.796c-11.26,8.427-20.75,10.754-22.085,11.376c-30.502,14.242-40.427,38.924-43.63,52.369
			c-0.5,2.093-1.458,12.963-4.734,18.97c-6.901,12.66-20.594,6.332-21.342-7.526c-0.194-3.592-1.348-35.967,17.682-66.275
			c4.542-7.234-0.645-16.734-9.267-16.734h-57.698c-6.707,0-12.164-5.456-12.164-12.163c0-6.707,5.456-12.164,12.164-12.164
			c16.668-0.034-4.538-0.104,7.692-0.104c4.143,0,7.5-3.357,7.5-7.5s-3.357-7.5-7.5-7.5h-6.709c-5.394,0-10.664-3.533-12.025-10.097
			c-0.773-4.397,1.221-7.585,1.53-8.367l1.248-1.726l1.188-1.198c0.636-0.551,2.203-1.559,2.103-1.491
			c2.334-0.9,3.43-1.551,5.955-1.551h6.708c4.142,0,7.5-3.357,7.5-7.5c0-4.142-3.357-7.5-7.499-7.5
			c-13.096-0.002-17.006-18.134-4.891-23.41c3.221-1.405,5.358-0.923,8.617-1.021c4.143,0,7.5-3.357,7.5-7.5
			c0-4.084-3.264-7.405-7.325-7.498c-1.375-0.027-0.652-0.026-1.485-0.073c-0.1-0.02-2.297-0.46-2.157-0.432l-0.623-0.202
			l-3.012-1.577c-0.102-0.086-1.677-1.427-1.575-1.341l-1.516-1.865c-0.048-0.109-2.484-3.492-1.932-8.161
			c0.916-6.621,6.269-10.781,12.128-10.781l96.292-0.001c12.713,0,26.825,4.836,37.75,12.939c15.16,11.239,29.562,8.06,34.547,8.611
			v101.214H449.709z"/>
	</g>
</g>
<g>
	<g>
		<path d="M257.164,314.486c18.377-16.594,6.669-47.322-18.188-47.322h-50.598c17.674-32.319,16.502-64.987,16.295-68.818
			c-1.588-29.362-35.458-39.63-49.492-13.897c-3.776,6.925-5.021,15.144-6.226,22.962c-2.632,10.81-10.651,30.265-34.886,41.765
			c-8.692,2.796-17.378,7.338-25.157,13.159c-5.602,4.193-10.199,9.855-13.294,16.369c-5.128,10.796-17.077,8.031-19.044,8.424
			c-4.519-10.494-14.96-17.86-27.091-17.86C13.226,269.265,0,282.492,0,298.749v11.596c0,4.143,3.357,7.5,7.5,7.5s7.5-3.357,7.5-7.5
			v-11.596c0-7.985,6.496-14.482,14.482-14.482c8.146,0,14.482,6.704,14.482,14.482v107.836c0,7.804-6.359,14.481-14.482,14.481
			c-7.984,0-14.482-6.496-14.482-14.481v-61.238c0-4.143-3.357-7.5-7.5-7.5s-7.5,3.357-7.5,7.5v61.238
			c0,16.257,13.226,29.482,29.483,29.482c12.079,0,22.479-7.303,27.03-17.725c7.44,0.631,17.363-2.274,28.066,5.66
			c13.617,10.098,30.634,15.889,46.685,15.889h42.084c4.143,0,7.5-3.357,7.5-7.5s-3.357-7.5-7.5-7.5h-42.084
			c-12.713,0-26.825-4.836-37.75-12.939c-15.16-11.239-29.562-8.06-34.547-8.611V302.126h3.325c11.426,0,21.975-6.668,26.877-16.987
			c2.054-4.323,5.074-8.057,8.733-10.797c11.263-8.427,20.751-10.753,22.086-11.375c30.502-14.242,40.427-38.924,43.63-52.369
			c0.047-0.196,0.086-0.396,0.116-0.595c0.906-5.886,1.945-13.474,4.618-18.375c6.917-12.692,20.594-6.299,21.342,7.526
			c0.194,3.592,1.348,35.967-17.682,66.275c-4.542,7.234,0.645,16.734,9.267,16.734h57.698c6.707,0,12.164,5.456,12.164,12.163
			c0,6.706-5.456,12.163-12.164,12.163h-5.66c-0.26,0-0.52,0.014-0.778,0.04c-0.097,0.011-0.194,0.016-0.293,0.022l-0.326,0.025
			c-0.21,0.011-0.422,0.017-0.635,0.017c-4.143,0-7.5,3.357-7.5,7.5s3.357,7.5,7.5,7.5h6.709c5.394,0,10.665,3.533,12.026,10.098
			c1.016,5.69-2.365,9.466-2.411,9.646l-1.146,1.268c-0.101,0.093-0.511,0.471-0.41,0.378c-0.634,0.549-2.071,1.482-1.971,1.414
			c-3.716,2.138-7.489,1.624-12.796,1.628c-4.142,0-7.5,3.357-7.5,7.5c0,4.142,3.357,7.5,7.499,7.5
			c13.226,0.002,17.138,18.534,4.459,23.587c-3.22,1.255-5.326,0.712-8.185,0.844c-4.143,0-7.5,3.357-7.5,7.5
			c0,4.084,3.264,7.405,7.325,7.498c3.023,0.075,5.194,1.072,5.094,1.036c1.803,0.854,3.188,2.04,3.048,1.929
			c8.481,7.42,3.439,21.467-7.969,21.467h-19.206c-4.143,0-7.5,3.357-7.5,7.5s3.357,7.5,7.5,7.5h19.206
			c13.158,0,24.417-9.39,26.778-22.363c-0.039-0.167,2.972-12.098-6.333-22.813c11.962-9.352,13.893-26.356,4.825-38.087
			C267.145,347.383,269.618,326.833,257.164,314.486z"/>
	</g>
</g>
<g>
</g>
<g>
</g>
<g>
</g>
<g>
</g>
<g>
</g>
<g>
</g>
<g>
</g>
<g>
</g>
<g>
</g>
<g>
</g>
<g>
</g>
<g>
</g>
<g>
</g>
<g>
</g>
<g>
</g>
</svg>
