<?xml version="1.0"?>
<svg xmlns="http://www.w3.org/2000/svg" xmlns:xlink="http://www.w3.org/1999/xlink" version="1.1" id="Capa_1" x="0px" y="0px" width="512px" height="512px" viewBox="0 0 448.383 448.382" style="enable-background:new 0 0 448.383 448.382;" xml:space="preserve"><g><g>
	<g id="Layer_3_7_">
		<g>
			<path d="M224.191,438.569l-11.92-5.688C203.603,428.745,0,329.759,0,171.365C0,129.08,14.076,89.12,39.633,58.847     c26.695-31.619,62.59-49.033,101.07-49.033c30.299,0,59.523,11.197,83.488,31.429c23.965-20.232,53.19-31.429,83.489-31.429     c38.479,0,74.373,17.414,101.066,49.033c25.561,30.273,39.637,70.232,39.637,112.518c0,158.396-203.605,257.38-212.271,261.517     L224.191,438.569z M140.703,96.746c-47.063,0-85.35,47.64-85.35,106.198c0,104.606,128.506,183.224,168.838,205.315     c40.333-22.092,168.838-100.709,168.838-205.315c0-58.558-38.287-106.198-85.35-106.198c-50.037,0-83.489,59.692-83.489,59.692     S190.739,96.746,140.703,96.746z" data-original="#000000" class="active-path" data-old_color="#000000" fill="#4A5D6A"/>
		</g>
	</g>
</g></g> </svg>
