<?xml version="1.0" encoding="UTF-8" standalone="no"?>
<!DOCTYPE svg PUBLIC "-//W3C//DTD SVG 1.1//EN" "http://www.w3.org/Graphics/SVG/1.1/DTD/svg11.dtd">
<svg version="1.1" xmlns="http://www.w3.org/2000/svg" xmlns:xlink="http://www.w3.org/1999/xlink" preserveAspectRatio="xMidYMid meet" viewBox="5.362998679490142 10.667000000000002 365.0141943029666 278.3680877192987" width="361.01" height="274.37"><defs><path d="M338.75 66.27C320.52 66.27 174.65 66.27 156.42 66.27C140.61 66.27 127.8 54.05 127.8 38.97C127.8 38.97 127.8 38.97 127.8 38.97C127.8 23.89 140.61 11.67 156.42 11.67C174.65 11.67 320.52 11.67 338.75 11.67C354.56 11.67 367.38 23.89 367.38 38.97C367.38 38.97 367.38 38.97 367.38 38.97C358.83 57.17 349.29 66.27 338.75 66.27Z" id="bJGfEnGTQ"></path><path d="M338.75 286.04C320.52 286.04 174.65 286.04 156.42 286.04C140.61 286.04 127.8 273.82 127.8 258.73C127.8 258.73 127.8 258.73 127.8 258.73C127.8 243.65 140.61 231.43 156.42 231.43C174.65 231.43 320.52 231.43 338.75 231.43C354.56 231.43 367.38 243.65 367.38 258.73C367.38 258.73 367.38 258.73 367.38 258.73C358.83 276.93 349.29 286.04 338.75 286.04Z" id="hIQ9ClKpR"></path><path d="M310.13 258.06C310.13 236.62 310.13 65.12 310.13 43.69C310.13 28.61 322.94 16.38 338.75 16.38C338.75 16.38 338.75 16.38 338.75 16.38C354.57 16.38 367.38 28.61 367.38 43.69C367.38 65.12 367.38 236.62 367.38 258.06C367.38 273.14 354.57 285.36 338.75 285.36C338.75 285.36 338.75 285.36 338.75 285.36C319.67 277.21 310.13 268.11 310.13 258.06Z" id="i5yHYpmKZ"></path><path d="M76.87 224C85.76 232.49 100.18 232.49 109.07 224C117.96 215.52 117.96 201.77 109.07 193.29C107.41 191.7 99.1 183.78 84.15 169.52C150.5 169.52 187.36 169.52 194.73 169.52C207.32 169.52 217.51 159.79 217.51 147.8C217.51 135.8 207.32 126.09 194.73 126.09C187.36 126.09 150.48 126.09 84.11 126.09C99.08 111.83 107.39 103.91 109.05 102.32C117.95 93.84 117.96 80.1 109.07 71.61C104.63 67.36 98.8 65.24 92.96 65.24C87.14 65.24 81.32 67.35 76.87 71.59C70.49 77.67 19.42 126.31 13.04 132.39C8.77 136.47 6.37 141.99 6.36 147.75C6.36 153.52 8.76 159.05 13.03 163.11C25.8 175.29 70.48 217.92 76.87 224Z" id="a1iEqkKcXm"></path></defs><g><g><use xlink:href="#bJGfEnGTQ" opacity="1" fill="#4adee4" fill-opacity="1"></use><g><use xlink:href="#bJGfEnGTQ" opacity="1" fill-opacity="0" stroke="#000000" stroke-width="1" stroke-opacity="0"></use></g></g><g><use xlink:href="#hIQ9ClKpR" opacity="1" fill="#4adee4" fill-opacity="1"></use><g><use xlink:href="#hIQ9ClKpR" opacity="1" fill-opacity="0" stroke="#000000" stroke-width="1" stroke-opacity="0"></use></g></g><g><use xlink:href="#i5yHYpmKZ" opacity="1" fill="#4adee4" fill-opacity="1"></use><g><use xlink:href="#i5yHYpmKZ" opacity="1" fill-opacity="0" stroke="#000000" stroke-width="1" stroke-opacity="0"></use></g></g><g><use xlink:href="#a1iEqkKcXm" opacity="1" fill="#4adee4" fill-opacity="1"></use><g><use xlink:href="#a1iEqkKcXm" opacity="1" fill-opacity="0" stroke="#000000" stroke-width="1" stroke-opacity="0"></use></g></g></g></svg>