<?xml version="1.0"?>
<svg xmlns="http://www.w3.org/2000/svg" xmlns:xlink="http://www.w3.org/1999/xlink" version="1.1" id="Capa_1" x="0px" y="0px" viewBox="0 0 416.094 416.094" style="enable-background:new 0 0 416.094 416.094;" xml:space="preserve" width="512px" height="512px"><g><g>
	<g>
		<path d="M343.405,236.294c-3.1-51.9-35.6-97.4-83.6-117.3l52.5-87c0.1-0.1,0.2-0.3,0.2-0.4c5.4-9.9,1.7-22.3-8.3-27.7    c-4.4-2.4-9.5-3.1-14.3-1.9l-16.4,3.8c-33,7.6-67.2,8.6-100.6,2.8l-48.5-8.3c-11.1-1.9-21.7,5.6-23.6,16.7    c-0.8,4.5,0,9.1,2.2,13.1c0.1,0.1,0.1,0.3,0.2,0.4l53.1,88.6c-48.1,19.8-80.5,65.4-83.5,117.3l-9.9,169.2    c-0.3,5.5,3.9,10.2,9.3,10.5c0.2,0,0.4,0,0.6,0h270.4c5.5,0,10-4.4,10-9.9c0-0.2,0-0.4,0-0.6L343.405,236.294z M120.405,20.594    c0-0.1,0-0.2,0.1-0.4c0.2-0.2,0.3-0.2,0.4-0.2l48.5,8.3c36,6.2,72.9,5.2,108.5-3l16.3-3.8c0.2-0.1,0.4,0,0.5,0.2    c0.1,0.2,0.1,0.2,0.1,0.3l-53.4,88.4c-0.4,0.7-0.8,1.5-1,2.3c-2.4-0.6-4.8-1.1-7.2-1.6c0-0.1,0.1-0.2,0.1-0.4l8.3-32.6    c1.4-5.4-1.9-10.8-7.2-12.1c-5.3-1.3-10.8,1.9-12.1,7.2l-8.2,32.7c-0.3,1-0.3,2-0.3,3c-1.9-0.1-3.8-0.1-5.7-0.1    c-1.3,0-2.7,0-4,0.1l-16.5-51.8c-1.6-5.3-7.2-8.2-12.5-6.6c-5.3,1.6-8.2,7.2-6.6,12.5c0,0.1,0,0.1,0.1,0.2l15.2,47.8    c-3,0.5-5.9,1.2-8.9,1.9c-0.2-1.4-0.6-2.7-1.4-3.9L120.405,20.594z M83.505,396.094l9.3-158.6c3.8-63.7,58.5-112.3,122.2-108.5    c7,0.4,14,1.5,20.8,3.2c49.1,12.2,84.5,54.8,87.6,105.3l9.3,158.6H83.505z" data-original="#000000" class="active-path" data-old_color="#000000" fill="#34B7F1"/>
	</g>
</g><g>
	<g>
		<path d="M247.205,225.994h-13.4c-1.2-5-3.1-9-5.8-14h19.2v0.1c5.5,0,10-4.5,10-10s-4.5-10-10-10h-78.1c-5.5,0-10,4.5-10,10    s4.5,10,10,10h22.4c9.4,0,17.5,6,21.3,14h-43.7c-5.5,0-10,4.5-10,10s4.5,10,10,10h43.7c-1.3,2.5-2.8,4.8-4.7,6.9    c-4.4,4.5-10.4,7.1-16.6,7.1h-22.4c-5.4-0.1-9.9,4.1-10,9.5c-0.1,2.8,1.1,5.5,3.1,7.4l55.9,52.7c4.1,3.8,10.4,3.5,14.2-0.5    c3.7-4,3.5-10.3-0.4-14l-37.8-35.7c10.6-0.6,20.6-5.1,28.1-12.7c5.8-5.7,9.8-12.9,11.6-20.8h13.4c5.5,0,10-4.5,10-10    S252.705,225.994,247.205,225.994z" data-original="#000000" class="active-path" data-old_color="#000000" fill="#34B7F1"/>
	</g>
</g></g> </svg>
