<?xml version="1.0" encoding="UTF-8" standalone="no"?>
<!DOCTYPE svg PUBLIC "-//W3C//DTD SVG 1.1//EN" "http://www.w3.org/Graphics/SVG/1.1/DTD/svg11.dtd">
<svg version="1.1" xmlns="http://www.w3.org/2000/svg" xmlns:xlink="http://www.w3.org/1999/xlink" preserveAspectRatio="xMidYMid meet" viewBox="292.6002477580385 149.8804210526316 206.94631150146705 258.9760000000001" width="202.95" height="254.98"><defs><path d="M442.69 260.96C429.89 272.22 412.99 279.39 395.07 279.39C377.15 279.39 359.75 272.74 347.46 260.96C320.83 270.18 300.35 294.75 297.79 324.45C297.38 328.85 294.11 364.08 293.7 368.48C292.67 379.23 299.84 388.96 310.59 391.52C316.43 392.7 363.12 402.12 368.96 403.3C373.06 404.32 377.15 404.83 381.76 405.34C385.86 405.86 390.47 405.86 394.56 405.86C398.66 405.86 403.27 405.86 407.36 405.34C411.46 404.83 416.07 404.32 420.16 403.3C426.1 402.07 473.61 392.24 479.55 391.01C490.31 388.96 497.47 379.23 496.45 368.48C496.45 368.45 496.45 368.28 496.45 367.97C493.99 341.86 492.63 327.35 492.35 324.45C490.82 309.09 484.67 295.26 475.46 284C466.75 273.76 455.49 265.57 442.69 260.96Z" id="a2YgUZ4j1H"></path><path d="M394.56 263.52C404.29 263.52 412.99 260.96 420.67 256.86C438.59 247.65 450.88 228.7 450.88 207.2C450.88 175.97 425.79 150.88 394.56 150.88C363.33 150.88 338.24 175.97 338.24 207.2C338.24 228.7 350.53 247.65 368.45 256.86C376.13 260.96 385.35 263.52 394.56 263.52Z" id="aSNBgA95R"></path></defs><g><g><use xlink:href="#a2YgUZ4j1H" opacity="1" fill="#4adee4" fill-opacity="1"></use><g><use xlink:href="#a2YgUZ4j1H" opacity="1" fill-opacity="0" stroke="#000000" stroke-width="1" stroke-opacity="0"></use></g></g><g><use xlink:href="#aSNBgA95R" opacity="1" fill="#4adee4" fill-opacity="1"></use><g><use xlink:href="#aSNBgA95R" opacity="1" fill-opacity="0" stroke="#000000" stroke-width="1" stroke-opacity="0"></use></g></g></g></svg>