<svg version="1.1" xmlns="http://www.w3.org/2000/svg" xmlns:xlink="http://www.w3.org/1999/xlink" viewBox="0,0,1024,1024">
	<desc>search icon - Licensed under Apache License v2.0 (http://www.apache.org/licenses/LICENSE-2.0) - Created with Iconfu.com - Derivative work of Material icons (Copyright Google Inc.)</desc>
	<g fill="#4a5d6a" fill-rule="nonzero" style="mix-blend-mode: normal">
		<path d="M825.75,1024h-627.51c-109.49,0 -198.25,-88.76 -198.25,-198.25v-627.51c0,-109.49 88.76,-198.25 198.25,-198.25h627.51c109.49,0 198.25,88.76 198.25,198.25v627.51c0,109.49 -88.76,198.25 -198.25,198.25zM609.06,574.54h-21.9l-7.77,-7.49c27.18,-31.62 43.54,-72.66 43.54,-117.31c0,-99.56 -80.71,-180.26 -180.27,-180.26c-99.56,0 -180.26,80.7 -180.26,180.26c0,99.56 80.7,180.27 180.26,180.27c44.65,0 85.7,-16.37 117.31,-43.54l7.49,7.77v21.9l138.67,138.39l41.32,-41.32zM442.66,574.54c-69.06,0 -124.8,-55.74 -124.8,-124.8c0,-69.06 55.74,-124.8 124.8,-124.8c69.06,0 124.8,55.74 124.8,124.8c0,69.06 -55.74,124.8 -124.8,124.8z"/>
	</g>
</svg>