<?xml version="1.0"?>
<svg xmlns="http://www.w3.org/2000/svg" xmlns:xlink="http://www.w3.org/1999/xlink" version="1.1" id="Capa_1" x="0px" y="0px" viewBox="0 0 512.003 512.003" style="enable-background:new 0 0 512.003 512.003;" xml:space="preserve" width="512px" height="512px"><g><g>
	<g>
		<path d="M506.763,243.871l-17.227-24.596c-3.176-4.536-9.431-5.64-13.968-2.462c-4.537,3.177-5.64,9.43-2.463,13.969    l17.222,24.594c1.361,1.944,1.883,4.3,1.471,6.633c-0.411,2.333-1.707,4.367-3.654,5.729c-1.938,1.358-4.289,1.876-6.62,1.469    c-2.333-0.411-4.366-1.708-5.726-3.652l-41.2-58.841c-2.682-3.831-7.656-5.301-11.988-3.54c-4.333,1.759-6.875,6.278-6.128,10.894    l21.235,131.254h-11.335c-5.539,0-10.029,4.491-10.029,10.029v77.676h-26.948V355.35c0-5.538-4.49-10.029-10.029-10.029    c-5.539,0-10.029,4.491-10.029,10.029v77.676h-26.938V355.35c0-5.538-4.49-10.029-10.029-10.029h-11.335l21.236-131.233    c0.747-4.616-1.795-9.136-6.128-10.895c-4.334-1.76-9.306-0.29-11.988,3.539l-41.19,58.82c-1.661,2.371-4.383,3.787-7.28,3.787    c-1.82,0-3.578-0.557-5.077-1.605c-4.009-2.809-4.987-8.354-2.183-12.36l65.853-94.045c2.072-2.96,5.472-4.728,9.093-4.728h72.009    c3.616,0,7.011,1.768,9.085,4.731l18.226,26.028c3.176,4.538,9.431,5.641,13.968,2.463c4.537-3.177,5.64-9.43,2.463-13.968    L440.91,149.83c-5.191-7.419-13.342-12.16-22.247-13.102c5.988-8.106,9.538-18.119,9.538-28.947    c0-26.92-21.902-48.822-48.822-48.822s-48.822,21.902-48.822,48.822c0,10.829,3.549,20.843,9.539,28.948    c-8.904,0.946-17.05,5.687-22.237,13.098l-61.848,88.326l-61.877-88.364c-5.191-7.419-13.342-12.16-22.247-13.102    c5.988-8.106,9.538-18.119,9.538-28.947c0-26.92-21.902-48.822-48.822-48.822c-26.915,0-48.812,21.902-48.812,48.822    c0,10.828,3.548,20.842,9.536,28.948c-8.895,0.945-17.042,5.683-22.246,13.1l-65.84,94.051    c-4.434,6.328-6.138,14.006-4.795,21.619c1.342,7.614,5.568,14.248,11.907,18.684c4.892,3.42,10.622,5.228,16.567,5.228    c9.434,0,18.298-4.612,23.71-12.339l16.082-22.966l-16.125,99.643c-0.469,2.902,0.357,5.865,2.264,8.103    c1.906,2.238,4.698,3.529,7.637,3.529h13.088v77.676c0,5.538,4.49,10.029,10.029,10.029h46.996h47.007    c5.539,0,10.029-4.491,10.029-10.029V365.34h13.088c2.94,0,5.732-1.29,7.637-3.529c1.906-2.237,2.733-5.201,2.264-8.103    l-16.125-99.662l16.091,22.982c9.148,13.068,27.223,16.256,40.299,7.106c1.104-0.774,2.132-1.617,3.095-2.51    c0.973,0.907,2.014,1.76,3.133,2.545c4.893,3.421,10.626,5.23,16.579,5.23c9.435,0,18.298-4.613,23.71-12.34l16.083-22.967    l-16.126,99.655c-0.469,2.902,0.358,5.865,2.264,8.103c1.906,2.239,4.698,3.529,7.637,3.529h13.088v77.676    c0,5.538,4.49,10.029,10.029,10.029h46.996h47.007c5.539,0,10.029-4.491,10.029-10.029v-77.676h13.088    c2.94,0,5.732-1.29,7.637-3.529c1.906-2.237,2.733-5.2,2.264-8.102l-16.126-99.673l16.092,22.981    c4.432,6.332,11.063,10.56,18.674,11.902c7.609,1.343,15.286-0.36,21.61-4.791c6.332-4.433,10.56-11.064,11.902-18.676    C512.898,257.882,511.196,250.206,506.763,243.871z M379.378,79.02c15.86,0,28.764,12.902,28.764,28.764    s-12.903,28.764-28.764,28.764c-15.86,0-28.763-12.902-28.763-28.764S363.518,79.02,379.378,79.02z M132.601,78.98    c15.86,0,28.763,12.902,28.763,28.764c0,15.861-12.903,28.763-28.763,28.763c-15.855,0-28.754-12.902-28.754-28.763    C103.848,91.882,116.747,78.98,132.601,78.98z M241.384,267.704c-4.01,2.809-9.554,1.831-12.361-2.178l-41.2-58.842    c-2.681-3.831-7.654-5.3-11.988-3.54c-4.333,1.759-6.875,6.278-6.128,10.895l21.235,131.243h-11.335    c-5.539,0-10.029,4.491-10.029,10.029v77.676H142.63V355.31c0-5.538-4.49-10.029-10.029-10.029    c-5.539,0-10.029,4.491-10.029,10.029v77.676H95.634V355.31c0-5.538-4.49-10.029-10.029-10.029H74.271l21.235-131.223    c0.747-4.616-1.795-9.135-6.128-10.895c-4.332-1.761-9.305-0.291-11.988,3.539l-41.189,58.82c-1.661,2.371-4.383,3.787-7.28,3.787    c-1.814,0-3.569-0.557-5.071-1.607c-1.942-1.359-3.238-3.394-3.65-5.73c-0.412-2.334,0.109-4.688,1.471-6.629L87.507,161.3    c2.081-2.967,5.483-4.738,9.099-4.738h72.009c3.615,0,7.011,1.768,9.085,4.731l65.863,94.055    C246.37,259.354,245.389,264.898,241.384,267.704z" data-original="#000000" class="active-path" data-old_color="#000000" fill="#707070"/>
	</g>
</g><g>
	<g>
		<path d="M465.107,193.154c-12.906,0-12.928,20.058,0,20.058C478.013,213.213,478.034,193.154,465.107,193.154z" data-original="#000000" class="active-path" data-old_color="#000000" fill="#707070"/>
	</g>
</g></g> </svg>
