<?xml version="1.0" standalone="no"?>
<!DOCTYPE svg PUBLIC "-//W3C//DTD SVG 20010904//EN"
 "http://www.w3.org/TR/2001/REC-SVG-20010904/DTD/svg10.dtd">
<svg version="1.0" xmlns="http://www.w3.org/2000/svg"
 width="1045.000000pt" height="1280.000000pt" viewBox="0 0 1045.000000 1280.000000"
 preserveAspectRatio="xMidYMid meet">
<metadata>
Created by potrace 1.15, written by Peter Selinger 2001-2017
</metadata>
<g transform="translate(0.000000,1280.000000) scale(0.100000,-0.100000)"
fill="#000000" stroke="none">
<path d="M4546 12779 l-26 -20 0 -985 c0 -624 4 -992 10 -1004 12 -23 61 -40
116 -40 l44 0 0 -54 c0 -76 27 -107 98 -114 l52 -5 0 -58 0 -58 -57 -6 c-153
-15 -259 -29 -373 -46 -897 -138 -1770 -528 -2480 -1108 -58 -47 -126 -105
-151 -128 l-46 -43 -22 24 c-22 23 -22 26 -7 48 20 29 20 47 -1 70 -14 16 -15
23 -5 38 33 53 31 56 -346 432 -331 332 -360 358 -392 358 -31 0 -54 -20 -273
-237 -131 -131 -245 -250 -253 -265 -12 -24 -12 -32 0 -60 17 -41 692 -713
725 -723 16 -5 32 -1 52 14 27 20 29 20 58 3 30 -16 33 -16 63 1 31 18 32 18
52 -2 l20 -20 -70 -78 c-1328 -1483 -1698 -3589 -956 -5438 391 -976 1083
-1821 1972 -2410 1142 -757 2545 -1032 3895 -764 655 130 1281 387 1844 756
308 202 543 395 826 678 283 283 461 499 670 815 1271 1917 1127 4462 -350
6225 -872 1040 -2089 1695 -3432 1847 l-113 12 0 63 0 63 46 0 c37 0 51 5 75
29 25 25 29 37 29 84 l0 55 65 4 c51 3 70 9 88 26 l22 23 0 985 0 986 -28 24
-28 24 -693 0 c-686 0 -694 0 -720 -21z m1274 -2107 c0 -61 -21 -83 -87 -89
-36 -3 -44 -2 -33 6 8 6 31 11 50 12 24 1 28 3 13 6 -20 4 -23 11 -23 49 0 44
0 44 38 46 20 1 -17 5 -83 8 l-120 6 123 2 122 2 0 -48z m-150 -162 l0 -70
-27 1 c-24 2 -25 2 -5 6 20 4 22 10 22 69 0 35 2 64 5 64 3 0 5 -31 5 -70z m6
-205 c515 -53 994 -192 1469 -424 1215 -596 2144 -1742 2544 -3140 254 -884
280 -1855 75 -2761 -293 -1296 -1048 -2423 -2094 -3128 -242 -163 -587 -346
-841 -446 -1620 -636 -3403 -259 -4678 989 -423 414 -744 858 -1006 1390 -309
627 -481 1259 -546 2000 -16 180 -16 680 0 860 65 741 238 1374 546 2000 544
1104 1446 1956 2515 2378 450 178 876 270 1385 301 118 7 485 -4 631 -19z
m-1539 -21 c-3 -3 -12 -4 -19 -1 -8 3 -5 6 6 6 11 1 17 -2 13 -5z m-50 -10
c-3 -3 -12 -4 -19 -1 -8 3 -5 6 6 6 11 1 17 -2 13 -5z m-40 -10 c-3 -3 -12 -4
-19 -1 -8 3 -5 6 6 6 11 1 17 -2 13 -5z m-40 -10 c-3 -3 -12 -4 -19 -1 -8 3
-5 6 6 6 11 1 17 -2 13 -5z m-40 -10 c-3 -3 -12 -4 -19 -1 -8 3 -5 6 6 6 11 1
17 -2 13 -5z m-40 -10 c-3 -3 -12 -4 -19 -1 -8 3 -5 6 6 6 11 1 17 -2 13 -5z
m-70 -20 c-3 -3 -12 -4 -19 -1 -8 3 -5 6 6 6 11 1 17 -2 13 -5z m-52 -14 c-11
-5 -27 -9 -35 -9 -9 0 -8 4 5 9 11 5 27 9 35 9 9 0 8 -4 -5 -9z m-100 -30
c-27 -10 -57 -18 -65 -18 -8 0 8 8 35 18 28 10 57 18 65 18 8 0 -7 -8 -35 -18z
m-170 -54 c-73 -28 -112 -40 -105 -33 9 9 133 55 150 55 8 0 -12 -10 -45 -22z
m-116 -40 c-2 -2 -62 -27 -134 -56 -1018 -412 -1911 -1175 -2482 -2125 -400
-666 -643 -1405 -719 -2190 -21 -218 -24 -692 -5 -900 59 -660 220 -1249 501
-1830 359 -743 878 -1374 1550 -1885 140 -106 344 -241 358 -235 7 2 11 1 7
-4 -7 -13 62 -54 76 -45 8 4 9 3 5 -4 -8 -14 30 -36 46 -26 7 4 8 3 4 -4 -8
-14 50 -46 66 -36 7 5 8 3 3 -6 -6 -10 -4 -12 9 -7 10 4 15 3 11 -3 -8 -12 52
-43 67 -34 7 5 8 3 3 -6 -6 -10 -4 -12 9 -7 11 5 15 3 10 -5 -5 -8 -2 -9 10
-5 10 4 15 3 11 -3 -8 -12 193 -113 212 -106 9 4 11 2 7 -6 -5 -8 -2 -9 10 -5
11 4 15 3 10 -4 -4 -8 1 -9 17 -4 16 4 20 3 11 -3 -10 -7 -6 -12 17 -21 16 -7
35 -10 42 -5 8 5 9 3 4 -6 -6 -9 -1 -10 16 -5 16 4 20 3 11 -3 -19 -13 212
-105 241 -97 16 5 18 4 8 -3 -17 -13 77 -45 105 -36 14 4 16 4 5 -4 -10 -7 16
-19 100 -45 271 -85 649 -175 690 -164 10 3 17 2 14 -3 -6 -10 95 -23 131 -15
23 4 25 3 9 -4 -16 -7 -16 -10 -4 -10 9 -1 97 -10 196 -21 595 -65 1241 -18
1837 135 244 62 606 182 592 196 -2 2 5 5 17 5 29 2 209 80 384 166 253 124
599 331 586 351 -3 6 -1 7 5 3 13 -8 147 84 309 211 730 570 1318 1363 1637
2208 62 165 80 207 70 165 -15 -63 -124 -331 -199 -492 -252 -541 -568 -996
-995 -1432 -705 -720 -1559 -1200 -2539 -1426 -425 -98 -823 -137 -1286 -127
-372 9 -665 44 -1019 123 -1598 356 -2963 1494 -3611 3009 -230 538 -362 1088
-406 1683 -15 209 -6 704 16 907 195 1780 1276 3322 2877 4105 209 102 495
222 467 196z m5311 -1041 c13 -14 21 -25 18 -25 -2 0 -15 11 -28 25 -13 14
-21 25 -18 25 2 0 15 -11 28 -25z m-7370 -100 l-34 -35 29 -24 c16 -14 32 -23
36 -21 4 3 12 -2 19 -11 12 -13 19 -10 59 28 40 37 39 36 -6 -12 l-52 -54 -29
27 c-24 23 -30 25 -35 13 -8 -22 -54 -31 -73 -15 -13 11 -7 21 48 76 34 35 65
63 67 63 3 0 -10 -16 -29 -35z m7686 -217 l29 -33 -32 29 c-31 28 -38 36 -30
36 2 0 16 -15 33 -32z m79 -88 c10 -11 16 -20 13 -20 -3 0 -13 9 -23 20 -10
11 -16 20 -13 20 3 0 13 -9 23 -20z m66 -77 c13 -16 12 -17 -3 -4 -10 7 -18
15 -18 17 0 8 8 3 21 -13z m50 -60 c13 -16 12 -17 -3 -4 -10 7 -18 15 -18 17
0 8 8 3 21 -13z m40 -50 c13 -16 12 -17 -3 -4 -10 7 -18 15 -18 17 0 8 8 3 21
-13z m100 -130 c13 -16 12 -17 -3 -4 -10 7 -18 15 -18 17 0 8 8 3 21 -13z
m419 -663 c6 -11 8 -20 6 -20 -3 0 -10 9 -16 20 -6 11 -8 20 -6 20 3 0 10 -9
16 -20z m120 -245 c0 -5 -5 -3 -10 5 -5 8 -10 20 -10 25 0 6 5 3 10 -5 5 -8
10 -19 10 -25z m287 -787 c-3 -8 -6 -5 -6 6 -1 11 2 17 5 13 3 -3 4 -12 1 -19z
m30 -110 c-3 -8 -6 -5 -6 6 -1 11 2 17 5 13 3 -3 4 -12 1 -19z m30 -130 c-3
-7 -5 -2 -5 12 0 14 2 19 5 13 2 -7 2 -19 0 -25z m10 -40 c-3 -8 -6 -5 -6 6
-1 11 2 17 5 13 3 -3 4 -12 1 -19z m10 -50 c-3 -8 -6 -5 -6 6 -1 11 2 17 5 13
3 -3 4 -12 1 -19z m10 -50 c-3 -7 -5 -2 -5 12 0 14 2 19 5 13 2 -7 2 -19 0
-25z m10 -50 c-3 -8 -6 -5 -6 6 -1 11 2 17 5 13 3 -3 4 -12 1 -19z m10 -50
c-3 -8 -6 -5 -6 6 -1 11 2 17 5 13 3 -3 4 -12 1 -19z m10 -65 c-3 -10 -5 -4
-5 12 0 17 2 24 5 18 2 -7 2 -21 0 -30z m10 -60 c-3 -10 -5 -4 -5 12 0 17 2
24 5 18 2 -7 2 -21 0 -30z m10 -70 c-3 -10 -5 -4 -5 12 0 17 2 24 5 18 2 -7 2
-21 0 -30z m10 -75 c-3 -7 -5 -2 -5 12 0 14 2 19 5 13 2 -7 2 -19 0 -25z m10
-85 c-3 -10 -5 -4 -5 12 0 17 2 24 5 18 2 -7 2 -21 0 -30z m10 -105 c-2 -13
-4 -5 -4 17 -1 22 1 32 4 23 2 -10 2 -28 0 -40z m10 -145 c-2 -21 -4 -6 -4 32
0 39 2 55 4 38 2 -18 2 -50 0 -70z m10 -415 c-1 -62 -3 -14 -3 107 0 121 2
172 3 113 2 -59 2 -158 0 -220z m-10 -265 c-2 -21 -4 -4 -4 37 0 41 2 58 4 38
2 -21 2 -55 0 -75z m-10 -120 c-2 -16 -4 -5 -4 22 0 28 2 40 4 28 2 -13 2 -35
0 -50z m-10 -90 c-3 -10 -5 -2 -5 17 0 19 2 27 5 18 2 -10 2 -26 0 -35z m-10
-85 c-2 -13 -4 -5 -4 17 -1 22 1 32 4 23 2 -10 2 -28 0 -40z m-10 -75 c-3 -10
-5 -2 -5 17 0 19 2 27 5 18 2 -10 2 -26 0 -35z m-10 -60 c-3 -10 -5 -4 -5 12
0 17 2 24 5 18 2 -7 2 -21 0 -30z m-10 -70 c-3 -10 -5 -2 -5 17 0 19 2 27 5
18 2 -10 2 -26 0 -35z m-10 -55 c-3 -7 -5 -2 -5 12 0 14 2 19 5 13 2 -7 2 -19
0 -25z m-10 -50 c-3 -7 -5 -2 -5 12 0 14 2 19 5 13 2 -7 2 -19 0 -25z m-12
-68 c-4 -23 -9 -39 -11 -37 -3 2 -2 23 2 46 4 23 9 40 11 37 3 -3 2 -23 -2
-46z m-40 -180 c-15 -61 -29 -110 -31 -107 -2 2 8 56 23 121 15 64 29 112 31
107 2 -5 -9 -60 -23 -121z m-70 -256 c-20 -65 -39 -121 -42 -124 -7 -7 -4 4
37 143 19 65 36 114 38 109 1 -5 -14 -62 -33 -128z m-6935 -3274 c8 -5 11 -10
5 -10 -5 0 -17 5 -25 10 -8 5 -10 10 -5 10 6 0 17 -5 25 -10z m50 -20 c8 -5
11 -10 5 -10 -5 0 -17 5 -25 10 -8 5 -10 10 -5 10 6 0 17 -5 25 -10z m50 -20
c8 -5 11 -10 5 -10 -5 0 -17 5 -25 10 -8 5 -10 10 -5 10 6 0 17 -5 25 -10z
m50 -20 c8 -5 11 -10 5 -10 -5 0 -17 5 -25 10 -8 5 -10 10 -5 10 6 0 17 -5 25
-10z m110 -40 c8 -5 11 -10 5 -10 -5 0 -17 5 -25 10 -8 5 -10 10 -5 10 6 0 17
-5 25 -10z m180 -60 c8 -5 11 -10 5 -10 -5 0 -17 5 -25 10 -8 5 -10 10 -5 10
6 0 17 -5 25 -10z m2867 -26 c-3 -3 -12 -4 -19 -1 -8 3 -5 6 6 6 11 1 17 -2
13 -5z m-70 -20 c-3 -3 -12 -4 -19 -1 -8 3 -5 6 6 6 11 1 17 -2 13 -5z m-70
-20 c-3 -3 -12 -4 -19 -1 -8 3 -5 6 6 6 11 1 17 -2 13 -5z m-52 -14 c-11 -5
-27 -9 -35 -9 -9 0 -8 4 5 9 11 5 27 9 35 9 9 0 8 -4 -5 -9z m-98 -26 c-3 -3
-12 -4 -19 -1 -8 3 -5 6 6 6 11 1 17 -2 13 -5z m-2140 -10 c-3 -3 -12 -4 -19
-1 -8 3 -5 6 6 6 11 1 17 -2 13 -5z m206 -11 c-7 -2 -19 -2 -25 0 -7 3 -2 5
12 5 14 0 19 -2 13 -5z m1844 1 c-3 -3 -12 -4 -19 -1 -8 3 -5 6 6 6 11 1 17
-2 13 -5z m-1960 -10 c-3 -3 -12 -4 -19 -1 -8 3 -5 6 6 6 11 1 17 -2 13 -5z
m160 0 c-3 -3 -12 -4 -19 -1 -8 3 -5 6 6 6 11 1 17 -2 13 -5z m1750 0 c-3 -3
-12 -4 -19 -1 -8 3 -5 6 6 6 11 1 17 -2 13 -5z m-1710 -10 c-3 -3 -12 -4 -19
-1 -8 3 -5 6 6 6 11 1 17 -2 13 -5z m66 -11 c-7 -2 -19 -2 -25 0 -7 3 -2 5 12
5 14 0 19 -2 13 -5z m1544 1 c-3 -3 -12 -4 -19 -1 -8 3 -5 6 6 6 11 1 17 -2
13 -5z m-1494 -11 c-7 -2 -19 -2 -25 0 -7 3 -2 5 12 5 14 0 19 -2 13 -5z
m1434 1 c-3 -3 -12 -4 -19 -1 -8 3 -5 6 6 6 11 1 17 -2 13 -5z m-1520 -10 c-3
-3 -12 -4 -19 -1 -8 3 -5 6 6 6 11 1 17 -2 13 -5z m156 -1 c-7 -2 -21 -2 -30
0 -10 3 -4 5 12 5 17 0 24 -2 18 -5z m1317 3 c0 -2 -13 -6 -29 -8 -17 -2 -28
-1 -25 4 5 8 54 12 54 4z m-1242 -13 c-10 -2 -26 -2 -35 0 -10 3 -2 5 17 5 19
0 27 -2 18 -5z m1165 0 c-7 -2 -21 -2 -30 0 -10 3 -4 5 12 5 17 0 24 -2 18 -5z
m-1090 -10 c-7 -2 -21 -2 -30 0 -10 3 -4 5 12 5 17 0 24 -2 18 -5z m1015 0
c-10 -2 -26 -2 -35 0 -10 3 -2 5 17 5 19 0 27 -2 18 -5z m-1101 -9 c-3 -3 -12
-4 -19 -1 -8 3 -5 6 6 6 11 1 17 -2 13 -5z m176 -1 c-7 -2 -21 -2 -30 0 -10 3
-4 5 12 5 17 0 24 -2 18 -5z m825 0 c-10 -2 -26 -2 -35 0 -10 3 -2 5 17 5 19
0 27 -2 18 -5z m-695 -10 c-13 -2 -33 -2 -45 0 -13 2 -3 4 22 4 25 0 35 -2 23
-4z m590 0 c-13 -2 -35 -2 -50 0 -16 2 -5 4 22 4 28 0 40 -2 28 -4z m-185 -10
c-54 -2 -142 -2 -195 0 -54 1 -10 3 97 3 107 0 151 -2 98 -3z"/>
<path d="M4845 9729 c-271 -23 -605 -85 -860 -160 -77 -22 -149 -43 -160 -46
-11 -3 -91 -32 -178 -65 -1209 -453 -2177 -1412 -2637 -2612 -144 -378 -240
-782 -282 -1196 -19 -188 -16 -708 6 -895 123 -1061 564 -1982 1301 -2720 738
-737 1673 -1184 2727 -1302 213 -24 713 -24 926 0 1055 118 1989 564 2727
1302 737 738 1184 1672 1302 2727 21 192 24 700 4 893 -79 787 -356 1533 -805
2170 -391 556 -912 1023 -1511 1356 -553 307 -1179 496 -1818 548 -148 13
-595 12 -742 0z m342 -36 c-20 -2 -52 -2 -70 0 -17 2 0 4 38 4 39 0 53 -2 32
-4z m-219 -10 c-16 -2 -40 -2 -55 0 -16 2 -3 4 27 4 30 0 43 -2 28 -4z m688
-8 c546 -55 1026 -191 1513 -426 437 -211 832 -489 1180 -832 432 -426 747
-886 987 -1441 19 -43 33 -80 32 -81 -2 -1 -66 -26 -143 -56 -77 -29 -142 -54
-143 -55 -2 -1 19 -62 46 -136 143 -381 221 -746 255 -1205 l5 -63 -112 0
c-62 0 -161 -3 -219 -7 l-107 -6 0 -74 0 -74 221 3 222 3 -7 -160 c-15 -357
-68 -685 -167 -1025 -37 -127 -117 -346 -160 -438 -17 -37 -40 -89 -51 -117
-70 -178 -306 -566 -477 -785 -163 -210 -406 -464 -593 -622 l-107 -90 94
-123 95 -123 -63 -49 c-111 -88 -289 -209 -432 -296 -627 -378 -1329 -593
-2067 -633 l-128 -7 0 280 c0 154 -3 321 -6 371 l-7 92 -75 0 -75 0 6 -372 7
-371 -158 7 c-1363 57 -2637 752 -3439 1876 -145 204 -262 404 -384 655 -90
188 -193 440 -185 453 3 4 68 28 145 52 78 24 141 49 141 55 0 6 -14 51 -30
101 -115 340 -200 835 -200 1168 l0 93 61 7 c34 3 131 6 216 6 l155 0 -4 78
-3 77 -212 -4 c-203 -3 -213 -3 -213 15 0 35 19 248 30 334 136 1092 710 2088
1590 2761 268 205 592 394 897 523 477 200 951 305 1501 331 l122 6 0 -206 0
-205 80 0 80 0 0 375 0 375 73 0 c39 0 135 -7 213 -15z m-793 -2 c-7 -2 -21
-2 -30 0 -10 3 -4 5 12 5 17 0 24 -2 18 -5z m-125 -10 c-10 -2 -28 -2 -40 0
-13 2 -5 4 17 4 22 1 32 -1 23 -4z m-85 -10 c-7 -2 -19 -2 -25 0 -7 3 -2 5 12
5 14 0 19 -2 13 -5z m-146 -19 c-3 -3 -12 -4 -19 -1 -8 3 -5 6 6 6 11 1 17 -2
13 -5z m-54 -11 c-7 -2 -19 -2 -25 0 -7 3 -2 5 12 5 14 0 19 -2 13 -5z m-110
-20 c-7 -2 -19 -2 -25 0 -7 3 -2 5 12 5 14 0 19 -2 13 -5z"/>
<path d="M5061 8870 c-84 -20 -132 -94 -139 -210 -10 -174 54 -261 183 -251
77 7 125 63 125 149 0 94 -52 152 -138 152 -45 0 -96 -20 -106 -42 -3 -7 -4 4
-2 24 10 85 57 131 130 130 25 -1 55 -6 66 -12 18 -10 20 -8 20 19 0 20 -6 31
-17 35 -40 11 -90 14 -122 6z m94 -251 c44 -84 -13 -182 -96 -164 -86 19 -91
181 -7 203 44 12 85 -3 103 -39z"/>
<path d="M5426 8870 c-75 -23 -109 -96 -110 -231 0 -81 4 -102 25 -144 33 -66
64 -87 129 -87 65 0 96 21 130 88 21 42 25 63 25 144 0 81 -4 102 -25 144 -14
28 -36 58 -50 67 -31 22 -86 31 -124 19z m78 -51 c41 -19 61 -80 60 -184 -1
-103 -18 -147 -67 -175 -24 -13 -30 -13 -54 0 -46 26 -63 73 -63 178 0 102 14
150 51 176 28 19 40 20 73 5z"/>
<path d="M5280 8136 l0 -116 45 0 46 0 -3 113 -3 112 -42 3 -43 3 0 -115z"/>
<path d="M5549 7603 c-230 -359 -257 -398 -286 -405 -46 -12 -68 -48 -54 -89
10 -29 8 -35 -30 -80 -23 -27 -52 -58 -66 -69 -15 -11 -24 -22 -22 -23 27 -22
144 -76 149 -70 6 8 15 36 40 131 9 37 14 42 39 42 47 0 72 40 58 93 -7 24 23
86 213 444 121 229 219 417 217 419 -2 2 -118 -175 -258 -393z"/>
<path d="M5166 7960 c-35 -42 -37 -133 -5 -174 26 -33 79 -36 109 -6 44 44 13
130 -48 130 -15 0 -33 -5 -40 -12 -9 -9 -12 -7 -12 10 0 12 9 31 21 43 17 17
28 20 56 14 27 -5 34 -3 31 7 -3 7 -23 14 -45 16 -35 3 -44 -1 -67 -28z m75
-80 c13 -7 19 -21 19 -44 0 -41 -21 -60 -55 -52 -32 8 -43 48 -21 81 18 28 28
30 57 15z"/>
<path d="M5361 7969 c-26 -28 -36 -94 -22 -147 13 -46 34 -62 80 -62 42 0 71
46 71 115 0 71 -28 115 -74 115 -23 0 -42 -7 -55 -21z m86 -29 c7 -14 13 -43
13 -65 0 -100 -70 -130 -90 -39 -22 96 39 178 77 104z"/>
<path d="M7660 7248 c-377 -275 -1042 -761 -1479 -1080 l-793 -580 -44 11
c-116 29 -213 4 -295 -78 -68 -68 -92 -131 -87 -222 l3 -61 -328 -165 c-239
-119 -326 -167 -320 -176 69 -90 329 -397 335 -395 4 2 108 125 231 273 123
149 230 269 238 268 8 -1 39 -9 69 -18 108 -31 233 15 307 113 38 50 56 106
57 182 l1 55 1395 1168 c767 642 1401 1171 1409 1176 13 8 8 31 -7 31 -4 -1
-315 -226 -692 -502z"/>
<path d="M4507 7186 c-26 -40 -47 -79 -47 -85 0 -7 20 -11 49 -11 46 0 50 -2
53 -27 4 -39 28 -42 28 -4 0 24 4 31 20 31 11 0 20 4 20 9 0 5 -9 11 -20 14
-18 5 -20 14 -20 76 0 98 -20 97 -83 -3z m55 -16 l-4 -60 -34 0 c-19 0 -34 2
-34 5 0 5 69 115 73 115 1 0 0 -27 -1 -60z"/>
<path d="M4680 7204 c0 -51 1 -55 21 -49 56 18 103 -27 74 -72 -14 -22 -23
-24 -61 -21 -36 2 -44 0 -42 -12 3 -16 56 -25 94 -16 13 4 31 20 39 37 27 52
-5 109 -62 109 -30 0 -33 3 -33 30 0 29 2 30 45 30 25 0 45 5 45 10 0 6 -27
10 -60 10 l-60 0 0 -56z"/>
<path d="M5793 7253 c-24 -9 -14 -30 12 -25 l25 4 0 -86 c0 -85 0 -86 -25 -86
-16 0 -25 -6 -25 -15 0 -12 14 -15 65 -15 51 0 65 3 65 15 0 9 -9 15 -25 15
l-25 0 0 100 0 100 -27 -1 c-16 0 -34 -3 -40 -6z"/>
<path d="M5980 7205 l0 -54 29 5 c41 9 71 -11 71 -45 0 -39 -22 -54 -70 -49
-32 3 -40 0 -38 -12 3 -16 47 -25 84 -16 36 9 54 34 54 76 0 46 -27 70 -78 70
-30 0 -33 2 -30 28 3 25 7 27 47 28 72 1 64 24 -8 24 l-61 0 0 -55z"/>
<path d="M4190 7145 l0 -45 110 0 110 0 0 45 0 45 -110 0 -110 0 0 -45z"/>
<path d="M6200 7144 l0 -46 115 4 115 3 0 43 0 42 -115 0 -115 0 0 -46z"/>
<path d="M5153 6493 c-27 -10 -12 -25 20 -20 43 6 77 -8 77 -32 0 -23 -9 -30
-44 -33 -33 -3 -34 -28 -2 -28 29 0 58 -26 54 -48 -2 -9 -15 -23 -30 -31 -22
-13 -33 -13 -58 -4 -27 10 -30 9 -30 -8 0 -16 7 -19 54 -19 47 0 57 4 75 26
26 33 26 45 1 77 -17 22 -18 26 -5 37 21 17 19 53 -3 73 -18 16 -81 22 -109
10z"/>
<path d="M5361 6479 c-26 -28 -36 -94 -22 -147 13 -46 34 -62 80 -62 58 0 89
95 60 179 -19 53 -81 69 -118 30z m86 -29 c30 -60 7 -155 -37 -155 -20 0 -27
8 -38 40 -31 95 34 195 75 115z"/>
<path d="M5270 6110 l0 -110 45 0 45 0 0 110 0 110 -45 0 -45 0 0 -110z"/>
<path d="M1727 5411 c-61 -93 -97 -158 -97 -175 l0 -26 105 0 105 0 0 -55 c0
-54 0 -55 30 -55 30 0 30 1 30 55 l0 55 35 0 c31 0 35 3 35 25 0 22 -4 25 -35
25 l-35 0 0 150 0 150 -38 0 c-38 0 -38 0 -135 -149z m113 -31 l0 -120 -76 0
c-42 0 -74 4 -72 9 4 12 142 231 146 231 1 0 2 -54 2 -120z"/>
<path d="M2070 5444 c0 -107 1 -116 18 -109 40 17 109 17 141 1 59 -31 69
-109 21 -158 -29 -28 -34 -29 -98 -26 -37 2 -75 8 -84 12 -15 7 -18 3 -18 -22
0 -29 3 -31 56 -42 149 -31 243 37 232 167 -7 86 -67 133 -168 133 l-51 0 3
53 3 52 93 3 c90 3 92 3 92 27 l0 25 -120 0 -120 0 0 -116z"/>
<path d="M8153 5547 c-50 -9 -53 -12 -53 -39 0 -32 -2 -32 88 -11 l22 5 0
-176 0 -176 -50 0 c-47 0 -50 -2 -50 -25 l0 -25 130 0 130 0 0 25 c0 23 -3 25
-50 25 l-50 0 0 205 0 205 -32 -1 c-18 -1 -57 -6 -85 -12z"/>
<path d="M8500 5445 l0 -115 26 10 c37 14 101 12 133 -5 58 -30 66 -124 13
-165 -22 -18 -37 -21 -92 -18 -36 2 -73 8 -82 12 -15 7 -18 3 -18 -23 0 -36
22 -45 115 -46 116 0 180 61 172 163 -7 93 -68 145 -165 140 l-53 -3 3 55 3
55 90 1 c89 2 90 2 93 28 l3 26 -120 0 -121 0 0 -115z"/>
<path d="M4990 3312 l0 -179 265 0 265 0 0 179 0 178 -265 0 -265 0 0 -178z"/>
<path d="M4600 2961 c0 -85 18 -95 22 -13 l3 57 14 -42 c8 -24 19 -43 26 -43
6 0 18 19 27 43 l17 42 0 -57 c1 -32 6 -58 11 -58 6 0 10 30 10 70 0 56 -3 70
-15 70 -9 0 -20 -12 -25 -27 -26 -70 -26 -71 -42 -23 -8 26 -22 46 -31 48 -15
3 -17 -7 -17 -67z"/>
<path d="M4789 3003 c-17 -43 -39 -105 -39 -109 0 -14 19 0 23 16 4 15 14 20
37 20 23 0 33 -5 37 -20 3 -11 10 -20 15 -20 10 0 5 19 -22 90 -21 54 -36 61
-51 23z m35 -25 c9 -35 8 -38 -14 -38 -11 0 -20 3 -20 8 0 19 13 52 20 52 4 0
10 -10 14 -22z"/>
<path d="M4890 2959 l0 -72 42 6 c54 7 82 38 74 82 -8 39 -31 55 -78 55 l-38
0 0 -71z m90 32 c22 -41 -1 -81 -46 -81 -22 0 -24 4 -24 50 0 49 1 50 30 50
19 0 33 -7 40 -19z"/>
<path d="M5040 2960 l0 -70 39 0 c22 0 43 5 46 10 4 6 -9 10 -33 10 -34 0 -38
3 -37 23 1 17 9 23 36 26 l34 4 -34 6 c-49 8 -53 41 -5 41 19 0 34 5 34 10 0
6 -18 10 -40 10 l-40 0 0 -70z"/>
<path d="M5210 2966 c0 -36 5 -68 10 -71 6 -4 10 20 10 64 0 41 -4 71 -10 71
-6 0 -10 -28 -10 -64z"/>
<path d="M5270 2960 c0 -40 4 -70 10 -70 6 0 10 26 10 58 l0 57 29 -55 c41
-78 51 -76 49 12 l-1 73 -6 -60 -6 -60 -30 58 c-40 78 -55 75 -55 -13z"/>
<path d="M5470 2960 c0 -40 4 -70 10 -70 6 0 10 30 10 70 0 40 -4 70 -10 70
-6 0 -10 -30 -10 -70z"/>
<path d="M5505 3020 c3 -5 16 -10 28 -10 20 0 22 -4 18 -51 -2 -29 2 -56 8
-62 8 -8 11 6 11 51 0 59 1 62 25 62 14 0 25 5 25 10 0 6 -27 10 -61 10 -37 0
-58 -4 -54 -10z"/>
<path d="M5649 3003 c-17 -43 -39 -105 -39 -109 0 -14 19 0 23 16 4 15 14 20
37 20 23 0 33 -5 37 -20 3 -11 10 -20 15 -20 10 0 5 19 -22 90 -21 54 -36 61
-51 23z m35 -25 c9 -35 8 -38 -14 -38 -11 0 -20 3 -20 8 0 19 13 52 20 52 4 0
10 -10 14 -22z"/>
<path d="M5750 2960 l0 -70 45 0 c25 0 45 5 45 10 0 6 -16 10 -35 10 l-35 0 0
60 c0 33 -4 60 -10 60 -6 0 -10 -30 -10 -70z"/>
<path d="M5820 3023 c0 -5 9 -19 20 -33 11 -14 20 -41 20 -62 0 -21 5 -38 10
-38 6 0 10 16 10 37 0 23 9 48 26 70 17 22 21 33 11 33 -7 0 -20 -11 -27 -25
-7 -14 -16 -25 -20 -25 -4 0 -13 11 -20 25 -13 24 -30 34 -30 18z"/>
<path d="M4940 2031 c-29 -5 -36 -11 -38 -34 -3 -28 -3 -28 35 -20 21 4 60 8
86 8 39 0 53 -5 68 -24 23 -28 24 -60 5 -86 -10 -14 -31 -21 -73 -25 -54 -5
-58 -7 -58 -30 0 -23 4 -25 59 -30 67 -6 96 -31 96 -84 0 -70 -100 -107 -197
-73 l-43 15 0 -29 c0 -24 5 -30 38 -38 102 -29 216 -2 247 59 31 61 13 140
-39 167 l-30 15 27 14 c32 17 47 43 47 83 0 94 -89 137 -230 112z"/>
<path d="M5360 2017 c-46 -30 -67 -70 -79 -147 -12 -75 -2 -170 24 -224 34
-72 133 -99 203 -56 54 33 77 96 77 215 0 88 -3 107 -25 149 -42 82 -131 110
-200 63z m124 -51 c32 -31 50 -122 42 -205 -11 -100 -38 -141 -96 -141 -64 0
-90 54 -90 187 0 87 17 147 47 171 27 19 72 14 97 -12z"/>
<path d="M1390 8846 c0 -2 8 -10 18 -17 15 -13 16 -12 3 4 -13 16 -21 21 -21
13z"/>
</g>
</svg>
