<?xml version="1.0" encoding="iso-8859-1"?>
<!-- Generator: Adobe Illustrator 19.0.0, SVG Export Plug-In . SVG Version: 6.00 Build 0)  -->
<svg version="1.1" id="Layer_1" xmlns="http://www.w3.org/2000/svg" xmlns:xlink="http://www.w3.org/1999/xlink" x="0px" y="0px"
	 viewBox="0 0 469.341 469.341" style="enable-background:new 0 0 469.341 469.341;" xml:space="preserve">
<g>
	<g>
		<g>
			<path d="M448.004,236.639v-65.965c0-22.368-17.35-40.559-39.271-42.323l-61.26-107c-5.677-9.896-14.844-16.969-25.813-19.906
				c-10.917-2.917-22.333-1.385-32.104,4.302L79.553,128.007H42.67c-23.531,0-42.667,19.135-42.667,42.667v256
				c0,23.531,19.135,42.667,42.667,42.667h362.667c23.531,0,42.667-19.135,42.667-42.667v-65.965
				c12.389-4.418,21.333-16.147,21.333-30.035v-64C469.337,252.786,460.393,241.057,448.004,236.639z M300.295,24.184
				c4.833-2.823,10.469-3.573,15.844-2.135c5.448,1.458,9.99,4.979,12.813,9.906l20.785,36.305
				c-9.48,4.214-19.598,6.414-29.733,6.414c-22.909,0-43.901-10.397-57.992-28.203L300.295,24.184z M243.482,57.259
				c18.094,24.393,45.949,38.749,76.522,38.749c13.84,0,27.561-3.263,40.311-9.272l23.629,41.272H121.953L243.482,57.259z
				 M426.67,426.674c0,11.76-9.573,21.333-21.333,21.333H42.67c-11.76,0-21.333-9.573-21.333-21.333v-256
				c0-11.76,9.573-21.333,21.333-21.333h362.667c11.76,0,21.333,9.573,21.333,21.333v64h-64c-35.292,0-64,28.708-64,64
				c0,35.292,28.708,64,64,64h64V426.674z M448.004,330.674c0,5.885-4.781,10.667-10.667,10.667H362.67
				c-23.531,0-42.667-19.135-42.667-42.667c0-23.531,19.135-42.667,42.667-42.667h74.667c5.885,0,10.667,4.781,10.667,10.667
				V330.674z"/>
			<path d="M362.67,277.341c-11.76,0-21.333,9.573-21.333,21.333c0,11.76,9.573,21.333,21.333,21.333
				c11.76,0,21.333-9.573,21.333-21.333C384.004,286.914,374.431,277.341,362.67,277.341z"/>
		</g>
	</g>
</g>
<g>
</g>
<g>
</g>
<g>
</g>
<g>
</g>
<g>
</g>
<g>
</g>
<g>
</g>
<g>
</g>
<g>
</g>
<g>
</g>
<g>
</g>
<g>
</g>
<g>
</g>
<g>
</g>
<g>
</g>
</svg>
