<?xml version="1.0"?>
<svg xmlns="http://www.w3.org/2000/svg" xmlns:xlink="http://www.w3.org/1999/xlink" version="1.1" id="Capa_1" x="0px" y="0px" viewBox="0 0 512 512" style="enable-background:new 0 0 512 512;" xml:space="preserve" width="512px" height="512px" class=""><g><g>
	<path d="M488.705,27.326C472.239,9.705,449.893,0,425.784,0H86.205C36.962,0-3.072,42.923,0.261,92.034l15.028,221.474   c0.654,9.647,15.62,8.636,14.966-1.016L15.227,91.019C12.473,50.449,45.541,15,86.205,15h339.579   c40.664,0,73.731,35.449,70.978,76.019l-23.044,339.61C471.193,467.846,440.015,497,402.74,497h-293.49   c-37.276,0-68.453-29.154-70.979-66.372l-5.234-77.136c-0.656-9.649-15.62-8.635-14.966,1.016l5.234,77.136   C26.363,476.704,64.114,512,109.249,512h293.49c45.136,0,82.887-35.296,85.944-80.356l23.044-339.61   C513.363,67.943,505.186,44.963,488.705,27.326z" data-original="#000000" class="active-path" data-old_color="#000000" fill="#34B7F1"/>
	<path d="M331.494,174.5c0,4.142,3.358,7.5,7.5,7.5h30c4.142,0,7.5-3.358,7.5-7.5c0-66.444-54.056-120.5-120.5-120.5   s-120.5,54.056-120.5,120.5c0,4.142,3.358,7.5,7.5,7.5h155c9.673,0,9.673-15,0-15h-36.327l-32.632-58.169   c-4.732-8.436-17.814-1.097-13.082,7.339L244.468,167h-93.71c1.624-23.02,10.668-44.024,24.747-60.631l10.294,10.293   c6.838,6.841,17.447-3.767,10.606-10.606L185.99,95.64c9.984-8.873,21.659-15.88,34.473-20.477l3.744,13.971   c2.495,9.311,16.994,5.466,14.489-3.883l-3.786-14.128c13.154-2.679,26.81-2.817,40.017-0.414l-3.695,13.788   c-2.504,9.349,11.994,13.194,14.489,3.883l3.734-13.934c12.858,4.311,24.619,11.031,34.742,19.629l-9.921,9.921   c-6.84,6.839,3.767,17.446,10.606,10.606l10.036-10.036c14.972,16.878,24.628,38.573,26.312,62.434h-22.236   C334.852,167,331.494,170.358,331.494,174.5z" data-original="#000000" class="active-path" data-old_color="#000000" fill="#34B7F1"/>
	<path d="M75.494,48c-14.612,0-26.5,11.888-26.5,26.5s11.888,26.5,26.5,26.5s26.5-11.888,26.5-26.5S90.107,48,75.494,48z M75.494,86   c-6.341,0-11.5-5.159-11.5-11.5S69.153,63,75.494,63s11.5,5.159,11.5,11.5S81.836,86,75.494,86z" data-original="#000000" class="active-path" data-old_color="#000000" fill="#34B7F1"/>
	<path d="M436.494,101c14.612,0,26.5-11.888,26.5-26.5S451.107,48,436.494,48s-26.5,11.888-26.5,26.5S421.882,101,436.494,101z    M436.494,63c6.341,0,11.5,5.159,11.5,11.5s-5.159,11.5-11.5,11.5s-11.5-5.159-11.5-11.5S430.153,63,436.494,63z" data-original="#000000" class="active-path" data-old_color="#000000" fill="#34B7F1"/>
	<path d="M71.994,433.5c0,14.612,11.888,26.5,26.5,26.5s26.5-11.888,26.5-26.5s-11.888-26.5-26.5-26.5S71.994,418.888,71.994,433.5z    M98.494,422c6.341,0,11.5,5.159,11.5,11.5s-5.159,11.5-11.5,11.5s-11.5-5.159-11.5-11.5S92.153,422,98.494,422z" data-original="#000000" class="active-path" data-old_color="#000000" fill="#34B7F1"/>
	<path d="M386.994,433.5c0,14.612,11.888,26.5,26.5,26.5s26.5-11.888,26.5-26.5s-11.888-26.5-26.5-26.5   S386.994,418.888,386.994,433.5z M413.494,422c6.341,0,11.5,5.159,11.5,11.5s-5.159,11.5-11.5,11.5s-11.5-5.159-11.5-11.5   S407.153,422,413.494,422z" data-original="#000000" class="active-path" data-old_color="#000000" fill="#34B7F1"/>
</g></g> </svg>
