<svg xmlns="http://www.w3.org/2000/svg" width="27.272" height="30" viewBox="0 0 27.272 30">
  <path id="calendar-alt" d="M15.636,25.545a1.364,1.364,0,1,0-1.364-1.364A1.364,1.364,0,0,0,15.636,25.545Zm6.818,0a1.364,1.364,0,1,0-1.364-1.364A1.364,1.364,0,0,0,22.455,25.545Zm0-5.455a1.364,1.364,0,1,0-1.364-1.364A1.364,1.364,0,0,0,22.455,20.091Zm-6.818,0a1.364,1.364,0,1,0-1.364-1.364A1.364,1.364,0,0,0,15.636,20.091ZM25.182,3.727H23.818V2.364a1.364,1.364,0,1,0-2.727,0V3.727H10.182V2.364a1.364,1.364,0,1,0-2.727,0V3.727H6.091A4.091,4.091,0,0,0,2,7.818V26.909A4.091,4.091,0,0,0,6.091,31H25.182a4.091,4.091,0,0,0,4.091-4.091V7.818A4.091,4.091,0,0,0,25.182,3.727Zm1.364,23.182a1.364,1.364,0,0,1-1.364,1.364H6.091a1.364,1.364,0,0,1-1.364-1.364V14.636H26.545Zm0-15H4.727V7.818A1.364,1.364,0,0,1,6.091,6.455H7.455V7.818a1.364,1.364,0,1,0,2.727,0V6.455H21.091V7.818a1.364,1.364,0,1,0,2.727,0V6.455h1.364a1.364,1.364,0,0,1,1.364,1.364ZM8.818,20.091a1.364,1.364,0,1,0-1.364-1.364A1.364,1.364,0,0,0,8.818,20.091Zm0,5.455a1.364,1.364,0,1,0-1.364-1.364A1.364,1.364,0,0,0,8.818,25.545Z" transform="translate(-2 -1)"/>
</svg>
