<svg xmlns="http://www.w3.org/2000/svg" width="37.5" height="30" viewBox="0 0 37.5 30">
  <defs>
    <style>
      .cls-1 {
        fill: #4e5763;
      }
    </style>
  </defs>
  <path id="envelope" class="cls-1" d="M33.875,4H7.625A5.625,5.625,0,0,0,2,9.625v18.75A5.625,5.625,0,0,0,7.625,34h26.25A5.625,5.625,0,0,0,39.5,28.375V9.625A5.625,5.625,0,0,0,33.875,4Zm-.769,3.75L22.081,18.775a1.875,1.875,0,0,1-2.662,0L8.394,7.75ZM35.75,28.375a1.875,1.875,0,0,1-1.875,1.875H7.625A1.875,1.875,0,0,1,5.75,28.375V10.394L16.775,21.419a5.625,5.625,0,0,0,7.95,0L35.75,10.394Z" transform="translate(-2 -4)"/>
</svg>
