<svg xmlns="http://www.w3.org/2000/svg" xmlns:xlink="http://www.w3.org/1999/xlink" width="22" height="16.681" viewBox="0 0 22 16.681">
  <defs>
    <style>
      .cls-1 {
        fill: url(#linear-gradient);
      }
    </style>
    <linearGradient id="linear-gradient" x1="0.5" x2="0.5" y2="1" gradientUnits="objectBoundingBox">
      <stop offset="0" stop-color="#64e5ff"/>
      <stop offset="1" stop-color="#00a8ff"/>
    </linearGradient>
  </defs>
  <path id="graduation-hat" class="cls-1" d="M22.469,10.458l-1.048-.576h0l-9.43-5.239h-.115a1.111,1.111,0,0,0-.2-.063h-.388a1.226,1.226,0,0,0-.21.063h-.115L1.534,9.882a1.048,1.048,0,0,0,0,1.823l2.609,1.446v4.966a3.143,3.143,0,0,0,3.143,3.143h8.382a3.143,3.143,0,0,0,3.143-3.143V13.151l2.1-1.174v3a1.048,1.048,0,0,0,2.1,0v-3.6a1.048,1.048,0,0,0-.534-.912Zm-5.752,7.659a1.048,1.048,0,0,1-1.048,1.048H7.286a1.048,1.048,0,0,1-1.048-1.048v-3.8l4.725,2.619.157.063h.094a1.048,1.048,0,0,0,.262,0h0a1.048,1.048,0,0,0,.262,0h.094a.492.492,0,0,0,.157-.063l4.725-2.619Zm-5.239-3.29L4.206,10.783l7.272-4.044,7.272,4.044Z" transform="translate(-1.003 -4.58)"/>
</svg>
