<svg xmlns="http://www.w3.org/2000/svg" xmlns:xlink="http://www.w3.org/1999/xlink" width="50" height="50" viewBox="0 0 50 50">
  <defs>
    <style>
      .cls-1 {
        fill: url(#linear-gradient);
      }

      .cls-2 {
        fill: #fff;
      }
    </style>
    <linearGradient id="linear-gradient" x1="0.5" x2="0.5" y2="1" gradientUnits="objectBoundingBox">
      <stop offset="0" stop-color="#64e5ff"/>
      <stop offset="1" stop-color="#00a8ff"/>
    </linearGradient>
  </defs>
  <g id="Group_2258" data-name="Group 2258" transform="translate(-309 -523)">
    <circle id="Ellipse_13" data-name="Ellipse 13" class="cls-1" cx="25" cy="25" r="25" transform="translate(309 523)"/>
    <path id="pen" class="cls-2" d="M64,41.86a1.5,1.5,0,0,0-.435-1.065l-6.36-6.36a1.521,1.521,0,0,0-2.13,0L50.83,38.68h0L34.435,55.075A1.5,1.5,0,0,0,34,56.14V62.5A1.5,1.5,0,0,0,35.5,64h6.36A1.5,1.5,0,0,0,43,63.565L59.3,47.17h0L63.565,43a1.784,1.784,0,0,0,.33-.495,1.5,1.5,0,0,0,0-.36,1.048,1.048,0,0,0,0-.21ZM41.245,61H37V56.755L51.895,41.86,56.14,46.1Zm17.01-17.01L54.01,39.745l2.13-2.115,4.23,4.23Z" transform="translate(285 499)"/>
  </g>
</svg>
