<svg xmlns="http://www.w3.org/2000/svg" width="27" height="27" viewBox="0 0 27 27">
  <defs>
    <style>
      .cls-1 {
        fill: #00a8ff;
      }

      .cls-2 {
        fill: #fff;
      }
    </style>
  </defs>
  <g id="Group_1527" data-name="Group 1527" transform="translate(-716 -4820)">
    <circle id="Ellipse_22" data-name="Ellipse 22" class="cls-1" cx="13.5" cy="13.5" r="13.5" transform="translate(716 4820)"/>
    <path id="phone" class="cls-2" d="M12.525,8.659a1.9,1.9,0,0,1-.4-.072,5.7,5.7,0,0,1-.791-.236,1.208,1.208,0,0,0-1.5.6L9.7,9.226A7.356,7.356,0,0,1,8.092,8.019,7.356,7.356,0,0,1,6.885,6.412l.254-.169a1.208,1.208,0,0,0,.6-1.5,6.238,6.238,0,0,1-.236-.791c-.03-.133-.054-.272-.072-.411a1.812,1.812,0,0,0-1.812-1.5H3.811A1.812,1.812,0,0,0,2,4.1a11.474,11.474,0,0,0,9.977,9.94h.229a1.808,1.808,0,0,0,1.812-1.818V10.41A1.812,1.812,0,0,0,12.525,8.659Zm.3,3.623a.6.6,0,0,1-.205.453.634.634,0,0,1-.5.151A10.267,10.267,0,0,1,3.243,3.96a.658.658,0,0,1,.151-.5.6.6,0,0,1,.453-.205H5.659a.6.6,0,0,1,.6.477q.036.248.091.489a6.716,6.716,0,0,0,.278.936l-.845.393a.6.6,0,0,0-.3.8,8.751,8.751,0,0,0,4.227,4.227.64.64,0,0,0,.8-.314l.374-.845a8.268,8.268,0,0,0,.954.278q.242.054.489.091a.6.6,0,0,1,.477.6Z" transform="translate(721.018 4825.96)"/>
  </g>
</svg>
