<svg xmlns="http://www.w3.org/2000/svg" width="50" height="50" viewBox="0 0 50 50">
  <defs>
    <style>
      .cls-1 {
        fill: #3f729b;
      }

      .cls-2 {
        fill: #fff;
      }
    </style>
  </defs>
  <g id="Group_3025" data-name="Group 3025" transform="translate(-870 -805)">
    <circle id="Ellipse_25" data-name="Ellipse 25" class="cls-1" cx="25" cy="25" r="25" transform="translate(870 805)"/>
    <path id="instagram" class="cls-2" d="M25.01,7.19h0a1.8,1.8,0,1,0,1.8,1.8A1.8,1.8,0,0,0,25.01,7.19Zm6.9,3.63a11.385,11.385,0,0,0-.69-3.645A7.41,7.41,0,0,0,29.48,4.52a7.05,7.05,0,0,0-2.655-1.725,10.95,10.95,0,0,0-3.645-.7C21.59,2,21.08,2,17,2s-4.59,0-6.18.09a10.95,10.95,0,0,0-3.645.7A7.17,7.17,0,0,0,4.52,4.52,7.05,7.05,0,0,0,2.8,7.175,10.95,10.95,0,0,0,2.09,10.82C2,12.41,2,12.92,2,17s0,4.59.09,6.18A10.95,10.95,0,0,0,2.8,26.825,7.05,7.05,0,0,0,4.52,29.48a7.17,7.17,0,0,0,2.655,1.725,10.95,10.95,0,0,0,3.645.7c1.59.09,2.1.09,6.18.09s4.59,0,6.18-.09a10.95,10.95,0,0,0,3.645-.7A7.05,7.05,0,0,0,29.48,29.48a7.275,7.275,0,0,0,1.74-2.655,11.385,11.385,0,0,0,.69-3.645c0-1.59.09-2.1.09-6.18S32,12.41,31.91,10.82ZM29.21,23a8.415,8.415,0,0,1-.51,2.79,4.59,4.59,0,0,1-1.125,1.725A4.785,4.785,0,0,1,25.85,28.64a8.415,8.415,0,0,1-2.79.51c-1.5.075-2.055.09-6,.09s-4.5,0-6-.09a8.6,8.6,0,0,1-2.91-.45A4.9,4.9,0,0,1,6.5,27.575,4.5,4.5,0,0,1,5.39,25.85,8.31,8.31,0,0,1,4.79,23c0-1.5-.09-2.055-.09-6s0-4.5.09-6a8.31,8.31,0,0,1,.525-2.85A4.5,4.5,0,0,1,6.5,6.5,4.71,4.71,0,0,1,8.15,5.3,8.6,8.6,0,0,1,11,4.79c1.5,0,2.055-.09,6-.09s4.5,0,6,.09a8.415,8.415,0,0,1,2.79.51,4.59,4.59,0,0,1,1.785,1.2A4.59,4.59,0,0,1,28.7,8.15,8.415,8.415,0,0,1,29.21,11c.075,1.5.09,2.055.09,6S29.285,21.5,29.21,23ZM17,9.305a7.68,7.68,0,1,0,5.455,2.244A7.695,7.695,0,0,0,17,9.305Zm0,12.69A4.995,4.995,0,1,1,21.995,17,5,5,0,0,1,17,21.995Z" transform="translate(878 813)"/>
  </g>
</svg>
