<svg xmlns="http://www.w3.org/2000/svg" width="30.087" height="30" viewBox="0 0 30.087 30">
  <defs>
    <style>
      .cls-1 {
        fill: #4e5763;
      }
    </style>
  </defs>
  <path id="phone" class="cls-1" d="M28.34,18.587a4.751,4.751,0,0,1-1.012-.181,14.252,14.252,0,0,1-1.978-.589,3.02,3.02,0,0,0-3.744,1.51l-.332.679a18.389,18.389,0,0,1-4.016-3.02,18.389,18.389,0,0,1-3.02-4.016l.634-.423A3.02,3.02,0,0,0,16.382,8.8a15.6,15.6,0,0,1-.589-1.978c-.075-.332-.136-.679-.181-1.027A4.529,4.529,0,0,0,11.083,2.04H6.554A4.529,4.529,0,0,0,2.024,7.189,28.686,28.686,0,0,0,26.966,32.04h.574A4.519,4.519,0,0,0,32.069,27.5V22.966A4.529,4.529,0,0,0,28.34,18.587Zm.755,9.059a1.51,1.51,0,0,1-.513,1.132,1.585,1.585,0,0,1-1.238.377A25.666,25.666,0,0,1,5.135,6.841,1.646,1.646,0,0,1,5.512,5.6,1.51,1.51,0,0,1,6.644,5.09h4.529a1.51,1.51,0,0,1,1.51,1.193q.091.619.226,1.223a16.79,16.79,0,0,0,.695,2.34l-2.114.981a1.51,1.51,0,0,0-.74,2.008A21.877,21.877,0,0,0,21.319,23.4a1.6,1.6,0,0,0,2.008-.785l.936-2.114a20.669,20.669,0,0,0,2.385.695q.6.136,1.223.226a1.51,1.51,0,0,1,1.193,1.51Z" transform="translate(-1.982 -2.04)"/>
</svg>
