<?xml version="1.0" standalone="no"?>
<!DOCTYPE svg PUBLIC "-//W3C//DTD SVG 20010904//EN"
 "http://www.w3.org/TR/2001/REC-SVG-20010904/DTD/svg10.dtd">
<svg version="1.0" xmlns="http://www.w3.org/2000/svg"
 width="2877.000000pt" height="1317.000000pt" viewBox="0 0 2877.000000 1317.000000"
 preserveAspectRatio="xMidYMid meet">
<metadata>
Created by potrace 1.16, written by Peter Selinger 2001-2019
</metadata>
<g transform="translate(0.000000,1317.000000) scale(0.100000,-0.100000)"
fill="#000000" stroke="none">
<path d="M19980 9903 c-14 -9 -29 -23 -33 -30 -4 -7 -14 -13 -22 -13 -7 0 -22
-11 -33 -25 -11 -14 -29 -25 -41 -25 -15 0 -19 -4 -14 -16 5 -14 -1 -16 -40
-13 l-45 4 31 -27 c49 -41 173 -106 265 -139 94 -33 130 -38 98 -14 -11 8 -28
15 -38 15 -22 0 -76 26 -96 47 -8 8 -21 12 -30 8 -12 -5 -12 -2 1 19 16 24 16
24 -21 21 -20 -1 -27 -1 -15 2 14 3 20 9 16 19 -6 17 15 74 28 74 5 0 9 6 9
13 0 7 9 21 21 30 23 20 22 60 -1 65 -8 1 -26 -5 -40 -15z"/>
<path d="M21100 8810 c0 -22 -4 -40 -10 -40 -5 0 -10 -18 -10 -40 0 -22 5 -40
10 -40 6 0 10 -18 10 -40 0 -22 -4 -40 -10 -40 -5 0 -10 -18 -10 -40 0 -22 -4
-40 -10 -40 -5 0 -10 -18 -10 -40 0 -33 -3 -40 -20 -40 -17 0 -20 -7 -20 -40
0 -22 -4 -40 -10 -40 -5 0 -10 -18 -10 -40 0 -22 -4 -40 -10 -40 -5 0 -10 -18
-10 -40 0 -22 -4 -40 -10 -40 -5 0 -10 18 -10 40 0 22 -4 40 -10 40 -5 0 -10
-18 -10 -40 0 -22 -4 -40 -10 -40 -5 0 -10 -18 -10 -40 0 -22 -4 -40 -10 -40
-5 0 -10 -18 -10 -40 0 -38 -2 -40 -30 -40 -28 0 -30 -2 -30 -40 0 -22 -4 -40
-10 -40 -5 0 -10 -18 -10 -40 0 -38 -2 -40 -30 -40 -28 0 -30 -2 -30 -40 0
-22 -4 -40 -10 -40 -5 0 -10 -18 -10 -40 0 -38 -2 -40 -30 -40 -28 0 -30 -2
-30 -40 0 -22 -4 -40 -10 -40 -5 0 -10 -18 -10 -40 0 -38 -2 -40 -30 -40 -28
0 -30 -2 -30 -40 0 -22 -4 -40 -10 -40 -5 0 -10 -18 -10 -40 0 -38 -2 -40 -30
-40 -28 0 -30 -2 -30 -40 0 -22 -4 -40 -10 -40 -5 0 -10 -18 -10 -40 0 -22 -4
-40 -10 -40 -5 0 -10 18 -10 40 0 22 -4 40 -10 40 -5 0 -10 -18 -10 -40 0 -22
-4 -40 -10 -40 -5 0 -10 -18 -10 -40 l0 -40 -40 0 -40 0 0 -40 c0 -22 -4 -40
-10 -40 -5 0 -10 -18 -10 -40 0 -22 -4 -40 -10 -40 -5 0 -10 18 -10 40 0 22
-4 40 -10 40 -5 0 -10 -18 -10 -40 0 -22 -4 -40 -10 -40 -5 0 -10 -18 -10 -40
l0 -40 -40 0 -40 0 0 -40 c0 -22 -4 -40 -10 -40 -5 0 -10 -18 -10 -40 0 -38
-2 -40 -30 -40 -28 0 -30 -2 -30 -40 0 -22 -4 -40 -10 -40 -5 0 -10 -18 -10
-40 0 -35 -3 -40 -22 -40 -24 0 -78 -46 -78 -67 0 -9 -14 -13 -40 -13 l-40 0
0 -40 0 -40 -40 0 -40 0 0 -80 0 -80 -40 0 -40 0 0 -40 0 -40 -40 0 -40 0 0
-40 0 -40 -40 0 -40 0 0 -80 c0 -73 -2 -80 -20 -80 -17 0 -20 -7 -20 -40 0
-22 -4 -40 -10 -40 -5 0 -10 -18 -10 -40 0 -22 -4 -40 -9 -40 -6 0 -12 -19
-14 -42 -3 -24 -4 -2 -3 49 0 50 -2 89 -6 86 -18 -10 -2 -242 17 -261 6 -7
270 -28 700 -57 209 -14 434 -30 500 -35 378 -28 478 -31 487 -15 5 8 12 13
16 11 4 -3 8 19 7 47 0 106 18 372 25 377 11 7 41 354 36 411 -2 24 -1 32 1
17 2 -16 8 -28 14 -28 5 0 9 -7 9 -17 0 -9 2 -14 5 -11 3 3 -1 31 -10 63 -8
32 -12 61 -9 66 5 9 7 23 19 139 9 78 29 163 37 154 3 -3 4 41 1 98 -3 67 -1
98 5 89 18 -25 25 9 23 116 -1 66 2 103 9 103 6 0 10 25 10 59 0 80 29 323 40
336 5 6 9 31 9 55 1 115 3 134 12 151 5 10 10 56 10 101 0 84 13 148 30 148 5
0 9 33 9 74 0 41 5 78 10 81 6 3 10 46 10 95 0 66 5 103 20 140 11 28 20 66
20 85 0 19 5 35 10 35 6 0 10 18 10 40 0 23 7 54 15 71 23 43 26 106 6 115
-47 19 -287 60 -408 70 -51 3 -93 10 -93 15 0 5 -4 9 -10 9 -5 0 -10 -18 -10
-40z"/>
</g>
</svg>
