<?xml version="1.0"?>
<svg xmlns="http://www.w3.org/2000/svg" xmlns:xlink="http://www.w3.org/1999/xlink" version="1.1" id="Capa_1" x="0px" y="0px" viewBox="0 0 512 512" style="enable-background:new 0 0 512 512;" xml:space="preserve" width="512px" height="512px" class=""><g><path style="fill:#FFFFFF" d="M378.98,219.589c-37.758,0-68.477-30.715-68.477-68.467c0-37.758,30.719-68.477,68.477-68.477  s68.477,30.719,68.477,68.477C447.458,188.875,416.739,219.589,378.98,219.589z" data-original="#FBC8AD" class="" data-old_color="#FBC8AD"/><path style="fill:#FFFFFF" d="M340.048,410.545c0-46.339-37.704-84.038-84.048-84.038v-4.016c24.54,0,44.504-19.965,44.504-44.504  c0-9.125-2.747-17.897-7.943-25.368l-0.983-1.413l1.247-1.188c23.327-22.213,53.925-34.447,86.156-34.447  c68.918,0,124.988,56.07,124.988,124.988c0,18.853-15.92,36.771-46.04,51.814c-28.942,14.456-68.919,25.35-115.611,31.503l-2.27,0.3  L340.048,410.545L340.048,410.545z" data-original="#44C973" class="" data-old_color="#44C973"/><path style="fill:#FFFFFF" d="M256,326.507c-26.748,0-48.509-21.766-48.509-48.52c0-9.965,2.996-19.529,8.663-27.662  c9.067-13.06,23.965-20.857,39.846-20.857c15.889,0,30.788,7.798,39.859,20.86c5.666,8.145,8.661,17.71,8.661,27.659  C304.52,304.742,282.754,326.507,256,326.507z" data-original="#FBC8AD" class="" data-old_color="#FBC8AD"/><path style="fill:#58D1FD" d="M256,429.359c-29.715,0-58.753-1.843-86.309-5.478l-1.745-0.23v-13.105  c0-48.553,39.501-88.054,88.054-88.054c48.559,0,88.064,39.501,88.064,88.054v13.105l-1.745,0.23  C314.764,427.516,285.722,429.359,256,429.359z" data-original="#45CCFF" class="active-path" data-old_color="#45CCFF"/><path style="fill:#FFFFFF" d="M169.692,423.88c-46.695-6.153-86.676-17.046-115.619-31.503  c-30.122-15.045-46.042-32.961-46.042-51.815v-2.008h0.025c1.074-67.999,56.719-122.98,124.963-122.98  c32.227,0,62.827,12.234,86.166,34.446l1.249,1.19l-0.986,1.414c-5.195,7.455-7.942,16.226-7.942,25.366  c0,24.539,19.96,44.504,44.494,44.504v4.016c-46.339,0-84.038,37.699-84.038,84.038v13.634L169.692,423.88z" data-original="#FF4F4F" class="" data-old_color="#FF4F4F"/><path style="fill:#FFFFFF" d="M133.02,219.589c-37.753,0-68.467-30.715-68.467-68.467c0-37.758,30.714-68.477,68.467-68.477  c37.758,0,68.477,30.719,68.477,68.477C201.497,188.875,170.778,219.589,133.02,219.589z" data-original="#FBC8AD" class="" data-old_color="#FBC8AD"/><path d="M455.283,340.562c0,5.544,4.495,10.039,10.039,10.039s10.039-4.496,10.039-10.039c0-21.427-6.899-41.703-19.952-58.635  c-3.384-4.39-9.687-5.206-14.08-1.821c-4.392,3.385-5.207,9.689-1.822,14.08C449.829,307.574,455.283,323.611,455.283,340.562z" data-original="#000000" class=""/><path d="M50.484,399.562c29.732,14.85,70.59,26.013,118.158,32.28c27.902,3.68,57.294,5.547,87.359,5.547  c30.072,0,59.467-1.866,87.368-5.547c47.564-6.267,88.419-17.43,118.15-32.28c41.723-20.841,50.481-43.587,50.481-59  c0-58.419-37.855-108.163-90.324-125.991c20.383-13.757,33.813-37.064,33.813-63.449c0-42.187-34.322-76.509-76.509-76.509  s-76.509,34.322-76.509,76.509c0,26.373,13.417,49.671,33.785,63.431c-14.838,5.023-28.73,12.671-41.064,22.701  c-10.436-10.037-24.441-15.818-39.191-15.818c-14.748,0-28.754,5.783-39.184,15.818c-12.338-10.029-26.232-17.678-41.072-22.702  c20.368-13.76,33.785-37.058,33.785-63.432c0-42.187-34.322-76.509-76.509-76.509c-42.182,0-76.499,34.322-76.499,76.509  c0,26.385,13.427,49.691,33.807,63.449C37.941,232.37,0.127,281.994,0.014,340.301C0.011,340.39,0,340.475,0,340.562  C0,355.975,8.758,378.722,50.484,399.562z M179.993,413.01v-2.465c0-41.911,34.096-76.007,76.007-76.007  c41.916,0,76.017,34.096,76.017,76.007v2.465c-24.419,2.849-49.941,4.302-76.017,4.302  C229.93,417.312,204.412,415.859,179.993,413.01z M322.55,151.122c0-31.116,25.315-56.43,56.43-56.43s56.43,25.315,56.43,56.43  c0,31.111-25.315,56.42-56.43,56.42S322.55,182.233,322.55,151.122z M491.922,340.562c0,13.781-13.984,28.355-39.376,41.037  c-25.415,12.696-59.971,22.558-100.452,28.723c-0.091-40.132-24.917-74.558-60.011-88.827c12.497-10.382,20.47-26.031,20.47-43.509  c0-8.554-1.906-16.865-5.557-24.451c20.217-16.764,45.489-25.916,71.986-25.916C441.257,227.621,491.922,278.287,491.922,340.562z   M256,241.515c11.943,0,23.143,5.864,29.963,15.684c0.001,0.003,0.003,0.005,0.004,0.007c4.256,6.119,6.504,13.304,6.504,20.781  c0,20.111-16.361,36.472-36.472,36.472c-20.106,0-36.462-16.362-36.462-36.473c0-7.489,2.248-14.672,6.509-20.788  C232.867,247.379,244.063,241.515,256,241.515z M76.599,151.122c0-31.116,25.31-56.43,56.42-56.43  c31.116,0,56.43,25.315,56.43,56.43c0,31.111-25.315,56.42-56.43,56.42C101.909,207.542,76.599,182.233,76.599,151.122z   M133.02,227.621c26.492,0,51.767,9.152,71.993,25.915c-3.647,7.579-5.553,15.888-5.553,24.452c0,17.477,7.971,33.126,20.465,43.508  c-35.091,14.268-59.915,48.695-60.006,88.828c-40.485-6.165-75.045-16.028-100.462-28.723  c-25.32-12.645-39.292-27.173-39.373-40.918c0-0.04,0.006-0.079,0.006-0.119C20.088,278.287,70.749,227.621,133.02,227.621z" data-original="#000000" class=""/><path d="M425.328,278.422c12.919,0,12.941-20.078,0-20.078C412.409,258.344,412.387,278.422,425.328,278.422z" data-original="#000000" class=""/></g> </svg>
