<?xml version="1.0"?>
<svg xmlns="http://www.w3.org/2000/svg" id="Layer_5" enable-background="new 0 0 64 64" height="512px" viewBox="0 0 64 64" width="512px" class=""><g><path d="m29 22h2v-4c0-.551.448-1 1-1s1 .449 1 1h2c0-1.654-1.346-3-3-3s-3 1.346-3 3z" data-original="#000000" class="active-path" data-old_color="#000000" fill="#FFFFFF"/><path d="m35 24v-4h-2v4c0 .551-.448 1-1 1s-1-.449-1-1h-2c0 1.654 1.346 3 3 3s3-1.346 3-3z" data-original="#000000" class="active-path" data-old_color="#000000" fill="#FFFFFF"/><path d="m39 24h-2c0 2.116-1.34 4.011-3.333 4.716l.666 1.886c2.792-.987 4.667-3.64 4.667-6.602z" data-original="#000000" class="active-path" data-old_color="#000000" fill="#FFFFFF"/><path d="m39 18c0-3.86-3.141-7-7-7v2c2.757 0 5 2.243 5 5v4h2z" data-original="#000000" class="active-path" data-old_color="#000000" fill="#FFFFFF"/><path d="m25 18v6c0 3.86 3.141 7 7 7v-2c-2.757 0-5-2.243-5-5v-6c0-2.116 1.34-4.011 3.333-4.716l-.666-1.886c-2.792.987-4.667 3.64-4.667 6.602z" data-original="#000000" class="active-path" data-old_color="#000000" fill="#FFFFFF"/><path d="m32 33c-4.963 0-9-4.038-9-9v-4h-2v4c0 6.065 4.935 11 11 11 5.211 0 9.744-3.701 10.78-8.801l-1.961-.398c-.846 4.171-4.555 7.199-8.819 7.199z" data-original="#000000" class="active-path" data-old_color="#000000" fill="#FFFFFF"/><path d="m39.796 13.5c.788 1.362 1.204 2.918 1.204 4.5v6h2v-6c0-1.933-.509-3.835-1.472-5.501z" data-original="#000000" class="active-path" data-old_color="#000000" fill="#FFFFFF"/><path d="m32 9c2.438 0 4.72.958 6.427 2.7l1.428-1.4c-2.085-2.128-4.876-3.3-7.855-3.3-6.065 0-11 4.935-11 11h2c0-4.962 4.037-9 9-9z" data-original="#000000" class="active-path" data-old_color="#000000" fill="#FFFFFF"/><path d="m43 63h20v-14h-20zm2-12h16v10h-16z" data-original="#000000" class="active-path" data-old_color="#000000" fill="#FFFFFF"/><path d="m47 53h12v2h-12z" data-original="#000000" class="active-path" data-old_color="#000000" fill="#FFFFFF"/><path d="m47 57h12v2h-12z" data-original="#000000" class="active-path" data-old_color="#000000" fill="#FFFFFF"/><path d="m1 9h10v2h-10z" data-original="#000000" class="active-path" data-old_color="#000000" fill="#FFFFFF"/><path d="m1 13h10v2h-10z" data-original="#000000" class="active-path" data-old_color="#000000" fill="#FFFFFF"/><path d="m1 17h10v2h-10z" data-original="#000000" class="active-path" data-old_color="#000000" fill="#FFFFFF"/><path d="m53.586 1-6.695 6.695c-3.665-4.097-8.974-6.695-14.891-6.695-5.4 0-10.574 2.22-14.329 6.082-.216-.05-.439-.082-.671-.082-.462 0-.894.113-1.285.301l-4.301-4.301h-4.598c-.414-1.161-1.514-2-2.816-2-1.654 0-3 1.346-3 3s1.346 3 3 3c1.302 0 2.402-.839 2.816-2h3.77l3.715 3.715c-.188.391-.301.823-.301 1.285 0 .546.157 1.051.413 1.492-1.574 2.908-2.413 6.178-2.413 9.508 0 2.798.597 5.572 1.723 8.112-3.805.615-6.723 3.913-6.723 7.888 0 2.805 1.455 5.274 3.646 6.702-5.593 1.836-9.646 7.099-9.646 13.298v6h28v-6c0-6.199-4.053-11.462-9.646-13.298 1.719-1.121 2.98-2.882 3.445-4.945 2.831 1.469 5.981 2.243 9.201 2.243 2.577 0 5.072-.502 7.437-1.452.456.282.988.452 1.563.452.462 0 .894-.113 1.285-.301l5.301 5.301h9.598c.414 1.161 1.514 2 2.816 2 1.654 0 3-1.346 3-3s-1.346-3-3-3c-1.302 0-2.402.839-2.816 2h-8.77l-4.715-4.715c.188-.391.301-.823.301-1.285 0-.003-.001-.006-.001-.01 5.017-3.771 8.001-9.7 8.001-15.99 0-4.389-1.438-8.44-3.845-11.742l6.259-6.258h8.586v-2zm-49.586 4c-.552 0-1-.449-1-1s.448-1 1-1 1 .449 1 1-.448 1-1 1zm56 38c.552 0 1 .449 1 1s-.448 1-1 1-1-.449-1-1 .448-1 1-1zm-43-34c.552 0 1 .449 1 1s-.448 1-1 1-1-.449-1-1 .448-1 1-1zm2.866 45.969-3.446 6.031h-.087l4.258-14.61c.376.199.742.413 1.093.649l-.614 3.476-2.287 2.287zm-6.286 6.031-3.446-6.031 1.083-2.166-2.287-2.287-.614-3.476c.351-.236.717-.45 1.092-.649l4.259 14.609zm-10.58-4c0-3.32 1.356-6.329 3.543-8.504l.527 2.988 1.713 1.713-.917 1.834 3.411 5.969h-3.277v-5h-2v5h-3zm24 0v4h-3v-5h-2v5h-3.277l3.411-5.969-.917-1.834 1.713-1.713.527-2.988c2.187 2.175 3.543 5.184 3.543 8.504zm-8.263-11.396-3.737 12.823-3.738-12.823c1.178-.387 2.432-.604 3.738-.604 1.305 0 2.56.216 3.737.604zm-3.737-2.604c-3.309 0-6-2.691-6-6s2.691-6 6-6 6 2.691 6 6-2.691 6-6 6zm26-5c-.552 0-1-.449-1-1s.448-1 1-1 1 .449 1 1-.448 1-1 1zm2.258-2.954c-.551-.635-1.354-1.046-2.258-1.046-1.654 0-3 1.346-3 3 0 .322.064.626.158.917-4.937 1.785-10.617 1.294-15.18-1.348-.21-3.907-3.227-7.077-7.07-7.514-1.244-2.484-1.908-5.255-1.908-8.055 0-2.859.683-5.669 1.974-8.192.322.118.664.192 1.026.192 1.654 0 3-1.346 3-3 0-.679-.235-1.299-.617-1.802 3.355-3.303 7.889-5.198 12.617-5.198 9.925 0 18 8.075 18 18 0 5.469-2.502 10.64-6.742 14.046z" data-original="#000000" class="active-path" data-old_color="#000000" fill="#FFFFFF"/><path d="m55 5h8v2h-8z" data-original="#000000" class="active-path" data-old_color="#000000" fill="#FFFFFF"/><path d="m55 9h8v2h-8z" data-original="#000000" class="active-path" data-old_color="#000000" fill="#FFFFFF"/><path d="m55 13h8v2h-8z" data-original="#000000" class="active-path" data-old_color="#000000" fill="#FFFFFF"/></g> </svg>
