<?xml version="1.0"?>
<svg xmlns="http://www.w3.org/2000/svg" xmlns:xlink="http://www.w3.org/1999/xlink" xmlns:svgjs="http://svgjs.com/svgjs" version="1.1" width="512" height="512" x="0" y="0" viewBox="0 0 512 512" style="enable-background:new 0 0 512 512" xml:space="preserve" class=""><g><path xmlns="http://www.w3.org/2000/svg" d="m319.230469 204.578125c.050781 1.042969.082031 2.085937.082031 3.136719 0 34.910156-28.402344 63.3125-63.3125 63.3125-18.34375 0-33.257812 14.914062-33.257812 33.257812 0 18.363282 14.945312 33.257813 33.257812 33.257813 44.960938 0 81.542969-36.582031 81.542969-81.542969 0-19.484375-6.871094-37.386719-18.3125-51.421875zm-63.230469 114.734375c-8.292969 0-15.027344-6.734375-15.027344-15.027344 0-8.292968 6.734375-15.027344 15.027344-15.027344s15.027344 6.734376 15.027344 15.027344c0 8.292969-6.734375 15.027344-15.027344 15.027344zm0 0" fill="#43a0af" data-original="#000000" style=""/><path xmlns="http://www.w3.org/2000/svg" d="m256 174.457031c-44.960938 0-81.542969 36.582031-81.542969 81.542969 0 19.472656 6.871094 37.375 18.3125 51.421875-.050781-1.042969-.082031-2.085937-.082031-3.136719 0-34.910156 28.402344-63.3125 63.3125-63.3125 18.34375 0 33.257812-14.914062 33.257812-33.257812 0-18.363282-14.945312-33.257813-33.257812-33.257813zm0 48.285157c-8.292969 0-15.027344-6.734376-15.027344-15.027344 0-8.292969 6.734375-15.027344 15.027344-15.027344s15.027344 6.734375 15.027344 15.027344c0 8.292968-6.734375 15.027344-15.027344 15.027344zm0 0" fill="#43a0af" data-original="#000000" style=""/><path xmlns="http://www.w3.org/2000/svg" d="m439.714844 240.972656h72.285156c-2.0625-35.792968-11.480469-69.613281-26.746094-99.984375l-62.660156 36.171875c9.324219 19.625 15.285156 41.144532 17.121094 63.8125zm-17.121094 93.867188 62.667969 36.171875c15.269531-30.371094 24.675781-64.191407 26.738281-99.984375h-72.285156c-1.835938 22.667968-7.796875 44.1875-17.121094 63.8125zm-61.757812 72.6875 36.183593 62.679687c29.078125-19.175781 54.011719-44.117187 73.195313-73.1875l-62.679688-36.183593c-12.640625 18.21875-28.480468 34.058593-46.699218 46.691406zm46.699218-256.363282 62.671875-36.183593c-19.175781-29.078125-44.117187-54.011719-73.1875-73.1875l-36.183593 62.671875c18.21875 12.640625 34.058593 28.480468 46.699218 46.699218zm-36.523437-124.417968c-30.371094-15.265625-64.191407-24.671875-99.984375-26.746094v72.285156c22.667968 1.835938 44.1875 7.796875 63.8125 17.121094zm-99.984375 412.96875v72.285156c35.792968-2.0625 69.613281-11.46875 99.984375-26.738281l-36.171875-62.667969c-19.625 9.324219-41.144532 15.285156-63.8125 17.121094zm139.242187-183.714844c0-85.070312-69.199219-154.269531-154.269531-154.269531s-154.269531 69.199219-154.269531 154.269531 69.199219 154.269531 154.269531 154.269531 154.269531-69.199219 154.269531-154.269531zm-154.269531 111.597656c-61.539062 0-111.597656-50.058594-111.597656-111.597656s50.058594-111.597656 111.597656-111.597656 111.597656 50.058594 111.597656 111.597656-50.058594 111.597656-111.597656 111.597656zm-115.011719 117.664063c30.371094 15.269531 64.191407 24.675781 99.984375 26.738281v-72.285156c-22.667968-1.835938-44.1875-7.796875-63.8125-17.121094zm99.984375-412.976563v-72.285156c-35.792968 2.074219-69.613281 11.480469-99.984375 26.746094l36.171875 62.660156c19.625-9.324219 41.144532-15.285156 63.8125-17.121094zm-89.808594 32.179688-36.183593-62.671875c-29.070313 19.183593-54.011719 44.117187-73.1875 73.1875l62.671875 36.183593c12.640625-18.21875 28.480468-34.058593 46.699218-46.699218zm-46.699218 256.371094-62.671875 36.183593c19.175781 29.078125 44.117187 54.011719 73.1875 73.195313l36.183593-62.6875c-18.21875-12.632813-34.058593-28.472656-46.699218-46.691406zm-15.058594-183.675782-62.660156-36.171875c-15.265625 30.371094-24.671875 64.191407-26.746094 99.984375h72.285156c1.835938-22.667968 7.796875-44.1875 17.121094-63.8125zm-17.121094 93.867188h-72.285156c2.0625 35.792968 11.480469 69.613281 26.746094 99.984375l62.660156-36.171875c-9.324219-19.625-15.285156-41.144532-17.121094-63.8125zm0 0" fill="#43a0af" data-original="#000000" style=""/></g></svg>
