<?xml version="1.0" encoding="UTF-8" standalone="no"?>
<!DOCTYPE svg PUBLIC "-//W3C//DTD SVG 1.1//EN" "http://www.w3.org/Graphics/SVG/1.1/DTD/svg11.dtd">
<svg version="1.1" xmlns="http://www.w3.org/2000/svg" xmlns:xlink="http://www.w3.org/1999/xlink" preserveAspectRatio="xMidYMid meet" viewBox="73.23999999999998 45.08 497.7472 414.7315200000001" width="493.75" height="410.73"><defs><path d="M281.91 122.44C263.97 122.44 249.42 107.88 249.42 89.95C249.42 72.01 263.97 57.45 281.91 57.45C307.26 57.45 510.12 57.45 535.48 57.45C553.42 57.45 567.99 72 567.99 89.95C567.99 107.88 553.42 122.44 535.48 122.44C484.76 122.44 307.26 122.44 281.91 122.44Z" id="f1KubCWVf5"></path><path d="M106.73 132.31C88.79 132.31 74.24 117.76 74.24 99.81C74.24 97.69 74.24 80.7 74.24 78.57C74.24 60.63 88.79 46.08 106.73 46.08C111.69 46.08 151.32 46.08 156.27 46.08C174.21 46.08 188.76 60.63 188.76 78.57C188.76 80.7 188.76 97.69 188.76 99.81C188.76 117.76 174.21 132.31 156.27 132.31C146.36 132.31 111.69 132.31 106.73 132.31Z" id="bvBL28ka"></path><path d="M281.91 283.93C263.97 283.93 249.42 269.38 249.42 251.45C249.42 233.51 263.97 218.95 281.91 218.95C307.26 218.95 510.12 218.95 535.48 218.95C553.42 218.95 567.99 233.51 567.99 251.45C567.99 269.38 553.42 283.93 535.48 283.93C484.76 283.93 307.26 283.93 281.91 283.93Z" id="d2lrJsHwVC"></path><path d="M106.73 294.56C88.79 294.56 74.24 280.01 74.24 262.07C74.24 259.95 74.24 242.95 74.24 240.83C74.24 222.89 88.79 208.34 106.73 208.34C111.69 208.34 151.32 208.34 156.27 208.34C174.21 208.34 188.76 222.89 188.76 240.83C188.76 242.95 188.76 259.95 188.76 262.07C188.76 280.01 174.21 294.56 156.27 294.56C146.36 294.56 111.69 294.56 106.73 294.56Z" id="bW8waK27T"></path><path d="M281.91 446.19C263.97 446.19 249.42 431.64 249.42 413.7C249.42 395.76 263.97 381.21 281.91 381.21C307.26 381.21 510.12 381.21 535.48 381.21C553.42 381.21 567.99 395.76 567.99 413.7C567.99 431.65 553.42 446.19 535.48 446.19C484.76 446.19 307.26 446.19 281.91 446.19Z" id="a4VBbBn9RC"></path><path d="M106.73 456.81C88.79 456.81 74.24 442.26 74.24 424.32C74.24 422.2 74.24 405.22 74.24 403.09C74.24 385.15 88.79 370.6 106.73 370.6C111.69 370.6 151.32 370.6 156.27 370.6C174.21 370.6 188.76 385.15 188.76 403.09C188.76 405.22 188.76 422.2 188.76 424.32C188.76 442.26 174.21 456.81 156.27 456.81C146.36 456.81 111.69 456.81 106.73 456.81Z" id="a17yJodRrt"></path></defs><g><g><use xlink:href="#f1KubCWVf5" opacity="1" fill="#4adee4" fill-opacity="1"></use><g><use xlink:href="#f1KubCWVf5" opacity="1" fill-opacity="0" stroke="#000000" stroke-width="1" stroke-opacity="0"></use></g></g><g><use xlink:href="#bvBL28ka" opacity="1" fill="#4adee4" fill-opacity="1"></use><g><use xlink:href="#bvBL28ka" opacity="1" fill-opacity="0" stroke="#000000" stroke-width="1" stroke-opacity="0"></use></g></g><g><use xlink:href="#d2lrJsHwVC" opacity="1" fill="#4adee4" fill-opacity="1"></use><g><use xlink:href="#d2lrJsHwVC" opacity="1" fill-opacity="0" stroke="#000000" stroke-width="1" stroke-opacity="0"></use></g></g><g><use xlink:href="#bW8waK27T" opacity="1" fill="#4adee4" fill-opacity="1"></use><g><use xlink:href="#bW8waK27T" opacity="1" fill-opacity="0" stroke="#000000" stroke-width="1" stroke-opacity="0"></use></g></g><g><use xlink:href="#a4VBbBn9RC" opacity="1" fill="#4adee4" fill-opacity="1"></use><g><use xlink:href="#a4VBbBn9RC" opacity="1" fill-opacity="0" stroke="#000000" stroke-width="1" stroke-opacity="0"></use></g></g><g><use xlink:href="#a17yJodRrt" opacity="1" fill="#4adee4" fill-opacity="1"></use><g><use xlink:href="#a17yJodRrt" opacity="1" fill-opacity="0" stroke="#000000" stroke-width="1" stroke-opacity="0"></use></g></g></g></svg>