<?xml version="1.0"?>
<svg xmlns="http://www.w3.org/2000/svg" id="Layer_1" enable-background="new 0 0 512 512" height="512px" viewBox="0 0 512 512" width="512px" class=""><g><g><g><path d="m308.105 449.155-21.121-99.736c-.837-3.955-.543-8.067.849-11.864l28.755-78.397c4.091-11.154 16.449-16.881 27.603-12.789 11.154 4.091 16.879 16.449 12.789 27.603l-26.624 72.588 19.839 93.682c2.461 11.623-4.966 23.04-16.589 25.501-11.627 2.461-23.04-4.966-25.501-16.588z" fill="#748488" data-original="#748488" class=""/></g><g><path d="m380.423 466.158c-11.881 0-21.512-9.631-21.512-21.512v-157.78c0-11.881 9.631-21.512 21.512-21.512s21.512 9.631 21.512 21.512v157.78c-.001 11.881-9.632 21.512-21.512 21.512z" fill="#55696e" data-original="#55696E" class=""/></g><g id="XMLID_7229_"><path d="m466.09 451.245-17.972-75.92c-.346-1.462-.521-2.96-.521-4.462v-78.916c0-10.698 8.673-19.371 19.371-19.371s19.371 8.673 19.371 19.371v76.654l17.451 73.72c2.465 10.41-3.978 20.848-14.388 23.312-10.412 2.467-20.848-3.981-23.312-14.388z" fill="#ffb69e" data-original="#FFB69E" class="" data-old_color="#ffb69e" style="fill:#D99A85"/></g><g id="XMLID_7228_"><path d="m406.969 466.141c-10.689-.456-18.985-9.49-18.529-20.178l3.481-81.712c.06-1.398.27-2.784.629-4.136l19.371-73.124c2.739-10.341 13.343-16.505 23.686-13.764 10.341 2.74 16.504 13.344 13.764 23.686l-18.832 71.09-3.392 79.61c-.454 10.661-9.46 18.979-20.178 18.528z" fill="#ffb69e" data-original="#FFB69E" class="" data-old_color="#ffb69e" style="fill:#D99A85"/></g><g><path d="m206.363 207.818c-1.203-10.155 6.053-19.362 16.208-20.565l72.43-8.582 53.854-37.173c8.417-5.808 19.948-3.696 25.756 4.72 5.809 8.416 3.696 19.947-4.72 25.756l-57.634 39.782c-2.482 1.713-5.345 2.794-8.34 3.149l-76.99 9.122c-10.131 1.2-19.359-6.03-20.564-16.209z" fill="#ba6746" data-original="#BA6746" class="" style="fill:#EAB39D" data-old_color="#ba6746"/></g><circle cx="363.222" cy="82.939" fill="#ba6746" r="37.153" data-original="#BA6746" class="" style="fill:#EAB39D" data-old_color="#ba6746"/><g><g><path d="m13.323 464.452c-10.985-4.525-16.221-17.099-11.695-28.084l35.842-86.994 2.71-64.749c.497-11.87 10.523-21.082 22.392-20.593 11.87.496 21.09 10.522 20.593 22.392l-2.868 68.537c-.105 2.506-.647 4.976-1.603 7.295l-37.286 90.5c-4.495 10.909-17.028 16.251-28.085 11.696z" fill="#5f6e9b" data-original="#5F6E9B"/></g><g><path d="m120.947 446.442-7.666-91.469-27.892-81.494c-3.847-11.24 2.146-23.471 13.386-27.318 11.239-3.85 23.472 2.146 27.318 13.386l28.755 84.012c.572 1.672.936 3.409 1.084 5.169l7.888 94.122c.992 11.839-7.801 22.24-19.64 23.233-11.84.988-22.241-7.797-23.233-19.641z" fill="#414b82" data-original="#414B82"/></g><path d="m110.006 131.659h-44.756c-13.861 0-25.098 11.237-25.098 25.098v128.769h94.952v-128.77c0-13.861-11.237-25.097-25.098-25.097z" fill="#64afff" data-original="#64AFFF" class=""/><circle cx="87.823" cy="82.939" fill="#ffb69e" r="37.153" data-original="#FFB69E" class="" data-old_color="#ffb69e" style="fill:#D99A85"/><g><path d="m226.238 205.667c-.575-10.209-9.314-18.002-19.527-17.445l-55.301-3.208-22.01-15.162-15.962 11.335-3.269 20.447 24.935 17.266c3.438 2.472 7.619 3.693 11.851 3.454l61.838 2.84c10.209-.574 18.02-9.317 17.445-19.527z" fill="#ffb69e" data-original="#FFB69E" class="" data-old_color="#ffb69e" style="fill:#D99A85"/><path d="m129.399 169.853-32.292-23.222c-8.303-5.97-19.872-4.081-25.842 4.222-5.97 8.302-4.08 19.872 4.222 25.842l34.682 24.941c0-.001 19.179-31.44 19.23-31.783z" fill="#4699f2" data-original="#4699F2" class=""/></g></g><path d="m376.845 131.659h-44.757c-13.861 0-25.098 11.237-25.098 25.098v128.769h94.952v-128.77c.001-13.861-11.236-25.097-25.097-25.097z" fill="#ffda52" data-original="#FFDA52" class="active-path" style="fill:#08D4D7" data-old_color="#ffda52"/><g><path d="m503.519 159.166-37.715-24.329c-2.977-1.92-6.441-2.946-9.984-2.956l-34.498-.099-5.279 37.055 34.246.059 33.157 21.389c3.104 2.002 6.581 2.958 10.019 2.958 6.08 0 12.036-2.992 15.577-8.481 5.543-8.593 3.07-20.053-5.523-25.596z" fill="#ba6746" data-original="#BA6746" class="" style="fill:#EAB39D" data-old_color="#ba6746"/><path d="m421.322 131.781-42.501-.122c-.019 0-.036-.001-.054-.001-10.2 0-18.485 8.255-18.514 18.462-.029 10.226 8.236 18.539 18.462 18.568l42.607.122z" fill="#ffda52" data-original="#FFDA52" class="active-path" style="fill:#08D4D7" data-old_color="#ffda52"/></g><ellipse cx="438.242" cy="91.665" fill="#ffb69e" rx="33.456" ry="33.456" transform="matrix(.383 -.924 .924 .383 185.846 461.469)" data-original="#FFB69E" class="" data-old_color="#ffb69e" style="fill:#D99A85"/><path d="m510.534 318.946-29.813-162.936c-1.811-9.899-9.798-17.019-19.127-17.019-13.307 0-21.739 0-33.728 0-9.31 0-17.319 7.14-19.127 17.019l-29.813 162.936c-.482 2.634.149 5.364 1.724 7.44s3.926 3.279 6.409 3.279h115.343c2.481 0 4.832-1.211 6.406-3.285 1.574-2.075 2.208-4.802 1.726-7.434z" fill="#ff6473" data-original="#FF6473" class="" style="fill:#E510D3" data-old_color="#ff6473"/><g id="XMLID_7197_"><path d="m463.574 199.695-13.552-2.342-17.11 6.557 1.597 16.634-29.257 57.654c-3.915 7.714-.835 17.141 6.879 21.056 7.703 3.909 17.136.846 21.056-6.879l31.315-61.71c1.345-2.65 1.908-5.628 1.624-8.585z" fill="#ffb69e" data-original="#FFB69E" class="" data-old_color="#ffb69e" style="fill:#D99A85"/><path d="m432.912 203.911 30.662-4.215-3.251-38.088c-.827-8.611-8.484-14.925-17.089-14.096-8.611.827-14.922 8.477-14.096 17.089z" fill="#ff4a5b" data-original="#FF4A5B" class="" style="fill:#F788EE" data-old_color="#ff4a5b"/></g></g><script xmlns=""/></g> </svg>
